%TF.GenerationSoftware,KiCad,Pcbnew,9.0.6*%
%TF.CreationDate,2026-03-25T20:04:04+01:00*%
%TF.ProjectId,Audio_watermark_generator,41756469-6f5f-4776-9174-65726d61726b,1.0*%
%TF.SameCoordinates,Original*%
%TF.FileFunction,Other,ECO1*%
%FSLAX46Y46*%
G04 Gerber Fmt 4.6, Leading zero omitted, Abs format (unit mm)*
G04 Created by KiCad (PCBNEW 9.0.6) date 2026-03-25 20:04:04*
%MOMM*%
%LPD*%
G01*
G04 APERTURE LIST*
%ADD10C,0.100000*%
%ADD11C,0.150000*%
G04 APERTURE END LIST*
D10*
X33800000Y-41800000D02*
G75*
G02*
X33000000Y-41800000I-400000J0D01*
G01*
X33000000Y-41800000D02*
G75*
G02*
X33800000Y-41800000I400000J0D01*
G01*
X90275000Y-31850000D02*
G75*
G02*
X89475000Y-31850000I-400000J0D01*
G01*
X89475000Y-31850000D02*
G75*
G02*
X90275000Y-31850000I400000J0D01*
G01*
X33800000Y-47200000D02*
G75*
G02*
X33000000Y-47200000I-400000J0D01*
G01*
X33000000Y-47200000D02*
G75*
G02*
X33800000Y-47200000I400000J0D01*
G01*
D11*
X43718922Y-35894819D02*
X44052255Y-36894819D01*
X44052255Y-36894819D02*
X44385588Y-35894819D01*
X44718922Y-36894819D02*
X44718922Y-35894819D01*
X45147493Y-36609104D02*
X45623683Y-36609104D01*
X45052255Y-36894819D02*
X45385588Y-35894819D01*
X45385588Y-35894819D02*
X45718921Y-36894819D01*
X46814160Y-36894819D02*
X46814160Y-35894819D01*
X47290350Y-36894819D02*
X47290350Y-35894819D01*
X47290350Y-35894819D02*
X47861778Y-36894819D01*
X47861778Y-36894819D02*
X47861778Y-35894819D01*
X49099874Y-36894819D02*
X49099874Y-35894819D01*
X49099874Y-35894819D02*
X49480826Y-35894819D01*
X49480826Y-35894819D02*
X49576064Y-35942438D01*
X49576064Y-35942438D02*
X49623683Y-35990057D01*
X49623683Y-35990057D02*
X49671302Y-36085295D01*
X49671302Y-36085295D02*
X49671302Y-36228152D01*
X49671302Y-36228152D02*
X49623683Y-36323390D01*
X49623683Y-36323390D02*
X49576064Y-36371009D01*
X49576064Y-36371009D02*
X49480826Y-36418628D01*
X49480826Y-36418628D02*
X49099874Y-36418628D01*
X50052255Y-36609104D02*
X50528445Y-36609104D01*
X49957017Y-36894819D02*
X50290350Y-35894819D01*
X50290350Y-35894819D02*
X50623683Y-36894819D01*
X50957017Y-36894819D02*
X50957017Y-35894819D01*
X50957017Y-35894819D02*
X51195112Y-35894819D01*
X51195112Y-35894819D02*
X51337969Y-35942438D01*
X51337969Y-35942438D02*
X51433207Y-36037676D01*
X51433207Y-36037676D02*
X51480826Y-36132914D01*
X51480826Y-36132914D02*
X51528445Y-36323390D01*
X51528445Y-36323390D02*
X51528445Y-36466247D01*
X51528445Y-36466247D02*
X51480826Y-36656723D01*
X51480826Y-36656723D02*
X51433207Y-36751961D01*
X51433207Y-36751961D02*
X51337969Y-36847200D01*
X51337969Y-36847200D02*
X51195112Y-36894819D01*
X51195112Y-36894819D02*
X50957017Y-36894819D01*
X52718922Y-36513866D02*
X53480827Y-36513866D01*
X54718922Y-36371009D02*
X55052255Y-36371009D01*
X55195112Y-36894819D02*
X54718922Y-36894819D01*
X54718922Y-36894819D02*
X54718922Y-35894819D01*
X54718922Y-35894819D02*
X55195112Y-35894819D01*
X55623684Y-36894819D02*
X55623684Y-35894819D01*
X55623684Y-35894819D02*
X56004636Y-35894819D01*
X56004636Y-35894819D02*
X56099874Y-35942438D01*
X56099874Y-35942438D02*
X56147493Y-35990057D01*
X56147493Y-35990057D02*
X56195112Y-36085295D01*
X56195112Y-36085295D02*
X56195112Y-36228152D01*
X56195112Y-36228152D02*
X56147493Y-36323390D01*
X56147493Y-36323390D02*
X56099874Y-36371009D01*
X56099874Y-36371009D02*
X56004636Y-36418628D01*
X56004636Y-36418628D02*
X55623684Y-36418628D01*
X56814160Y-35894819D02*
X57004636Y-35894819D01*
X57004636Y-35894819D02*
X57099874Y-35942438D01*
X57099874Y-35942438D02*
X57195112Y-36037676D01*
X57195112Y-36037676D02*
X57242731Y-36228152D01*
X57242731Y-36228152D02*
X57242731Y-36561485D01*
X57242731Y-36561485D02*
X57195112Y-36751961D01*
X57195112Y-36751961D02*
X57099874Y-36847200D01*
X57099874Y-36847200D02*
X57004636Y-36894819D01*
X57004636Y-36894819D02*
X56814160Y-36894819D01*
X56814160Y-36894819D02*
X56718922Y-36847200D01*
X56718922Y-36847200D02*
X56623684Y-36751961D01*
X56623684Y-36751961D02*
X56576065Y-36561485D01*
X56576065Y-36561485D02*
X56576065Y-36228152D01*
X56576065Y-36228152D02*
X56623684Y-36037676D01*
X56623684Y-36037676D02*
X56718922Y-35942438D01*
X56718922Y-35942438D02*
X56814160Y-35894819D01*
X57576065Y-35894819D02*
X58242731Y-36894819D01*
X58242731Y-35894819D02*
X57576065Y-36894819D01*
X58814160Y-36418628D02*
X58814160Y-36894819D01*
X58480827Y-35894819D02*
X58814160Y-36418628D01*
X58814160Y-36418628D02*
X59147493Y-35894819D01*
X60576065Y-36371009D02*
X60242732Y-36371009D01*
X60242732Y-36894819D02*
X60242732Y-35894819D01*
X60242732Y-35894819D02*
X60718922Y-35894819D01*
X61099875Y-36894819D02*
X61099875Y-35894819D01*
X62052255Y-36894819D02*
X61576065Y-36894819D01*
X61576065Y-36894819D02*
X61576065Y-35894819D01*
X62861779Y-36894819D02*
X62385589Y-36894819D01*
X62385589Y-36894819D02*
X62385589Y-35894819D01*
X63195113Y-36371009D02*
X63528446Y-36371009D01*
X63671303Y-36894819D02*
X63195113Y-36894819D01*
X63195113Y-36894819D02*
X63195113Y-35894819D01*
X63195113Y-35894819D02*
X63671303Y-35894819D01*
X64099875Y-36894819D02*
X64099875Y-35894819D01*
X64099875Y-35894819D02*
X64337970Y-35894819D01*
X64337970Y-35894819D02*
X64480827Y-35942438D01*
X64480827Y-35942438D02*
X64576065Y-36037676D01*
X64576065Y-36037676D02*
X64623684Y-36132914D01*
X64623684Y-36132914D02*
X64671303Y-36323390D01*
X64671303Y-36323390D02*
X64671303Y-36466247D01*
X64671303Y-36466247D02*
X64623684Y-36656723D01*
X64623684Y-36656723D02*
X64576065Y-36751961D01*
X64576065Y-36751961D02*
X64480827Y-36847200D01*
X64480827Y-36847200D02*
X64337970Y-36894819D01*
X64337970Y-36894819D02*
X64099875Y-36894819D01*
D10*
X43525000Y-35250000D02*
G75*
G02*
X42725000Y-35250000I-400000J0D01*
G01*
X42725000Y-35250000D02*
G75*
G02*
X43525000Y-35250000I400000J0D01*
G01*
X42025000Y-35250000D02*
G75*
G02*
X41225000Y-35250000I-400000J0D01*
G01*
X41225000Y-35250000D02*
G75*
G02*
X42025000Y-35250000I400000J0D01*
G01*
X42025000Y-34000000D02*
G75*
G02*
X41225000Y-34000000I-400000J0D01*
G01*
X41225000Y-34000000D02*
G75*
G02*
X42025000Y-34000000I400000J0D01*
G01*
X42825000Y-34600000D02*
G75*
G02*
X42025000Y-34600000I-400000J0D01*
G01*
X42025000Y-34600000D02*
G75*
G02*
X42825000Y-34600000I400000J0D01*
G01*
X43525000Y-34000000D02*
G75*
G02*
X42725000Y-34000000I-400000J0D01*
G01*
X42725000Y-34000000D02*
G75*
G02*
X43525000Y-34000000I400000J0D01*
G01*
X28600000Y-47200000D02*
G75*
G02*
X27800000Y-47200000I-400000J0D01*
G01*
X27800000Y-47200000D02*
G75*
G02*
X28600000Y-47200000I400000J0D01*
G01*
X28600000Y-41800000D02*
G75*
G02*
X27800000Y-41800000I-400000J0D01*
G01*
X27800000Y-41800000D02*
G75*
G02*
X28600000Y-41800000I400000J0D01*
G01*
M02*
