%TF.GenerationSoftware,KiCad,Pcbnew,9.0.6*%
%TF.CreationDate,2026-03-25T20:04:04+01:00*%
%TF.ProjectId,Audio_watermark_generator,41756469-6f5f-4776-9174-65726d61726b,1.0*%
%TF.SameCoordinates,Original*%
%TF.FileFunction,Legend,Top*%
%TF.FilePolarity,Positive*%
%FSLAX46Y46*%
G04 Gerber Fmt 4.6, Leading zero omitted, Abs format (unit mm)*
G04 Created by KiCad (PCBNEW 9.0.6) date 2026-03-25 20:04:04*
%MOMM*%
%LPD*%
G01*
G04 APERTURE LIST*
%ADD10C,0.000000*%
%ADD11C,0.150000*%
%ADD12C,0.120000*%
%ADD13C,0.250000*%
%ADD14C,0.152400*%
%ADD15C,0.200000*%
%ADD16C,0.127000*%
%ADD17C,0.170000*%
%ADD18C,0.203200*%
%ADD19C,0.508000*%
G04 APERTURE END LIST*
D10*
G36*
X48525362Y-43408955D02*
G01*
X48632462Y-43409126D01*
X48724168Y-43409496D01*
X48801779Y-43410096D01*
X48866600Y-43410962D01*
X48919932Y-43412125D01*
X48942697Y-43412828D01*
X48963078Y-43413619D01*
X48981238Y-43414500D01*
X48997340Y-43415476D01*
X49011546Y-43416552D01*
X49024019Y-43417731D01*
X49034923Y-43419017D01*
X49044419Y-43420415D01*
X49052671Y-43421929D01*
X49059841Y-43423563D01*
X49066093Y-43425320D01*
X49071588Y-43427206D01*
X49076490Y-43429224D01*
X49080962Y-43431379D01*
X49085166Y-43433674D01*
X49089266Y-43436114D01*
X49119420Y-43454629D01*
X49131530Y-43464744D01*
X49141851Y-43477609D01*
X49150528Y-43494856D01*
X49157702Y-43518118D01*
X49163515Y-43549028D01*
X49168111Y-43589219D01*
X49174221Y-43703977D01*
X49177173Y-43875454D01*
X49178165Y-44440825D01*
X49178052Y-44726489D01*
X49177858Y-44843315D01*
X49177526Y-44944437D01*
X49177020Y-45031082D01*
X49176305Y-45104474D01*
X49175346Y-45165841D01*
X49174108Y-45216407D01*
X49173374Y-45238023D01*
X49172556Y-45257398D01*
X49171652Y-45274686D01*
X49170655Y-45290041D01*
X49169562Y-45303614D01*
X49168369Y-45315560D01*
X49167071Y-45326032D01*
X49165664Y-45335182D01*
X49164143Y-45343165D01*
X49162504Y-45350133D01*
X49160742Y-45356240D01*
X49158854Y-45361638D01*
X49156834Y-45366481D01*
X49154678Y-45370923D01*
X49152383Y-45375116D01*
X49149943Y-45379213D01*
X49130179Y-45412507D01*
X49120199Y-45425797D01*
X49107720Y-45437069D01*
X49090917Y-45446490D01*
X49067964Y-45454223D01*
X49037036Y-45460436D01*
X48996308Y-45465292D01*
X48878153Y-45471598D01*
X48698895Y-45474464D01*
X48098666Y-45475170D01*
X47747927Y-45475186D01*
X47607620Y-45474928D01*
X47488272Y-45474244D01*
X47435892Y-45473684D01*
X47388073Y-45472948D01*
X47344589Y-45472012D01*
X47305213Y-45470854D01*
X47269719Y-45469449D01*
X47237881Y-45467776D01*
X47209472Y-45465810D01*
X47184265Y-45463528D01*
X47162036Y-45460907D01*
X47142556Y-45457924D01*
X47125601Y-45454555D01*
X47117999Y-45452719D01*
X47110943Y-45450778D01*
X47104404Y-45448729D01*
X47098356Y-45446569D01*
X47092768Y-45444295D01*
X47087614Y-45441904D01*
X47082864Y-45439394D01*
X47078490Y-45436761D01*
X47074465Y-45434003D01*
X47070759Y-45431116D01*
X47067345Y-45428098D01*
X47064193Y-45424946D01*
X47061277Y-45421657D01*
X47058567Y-45418228D01*
X47053654Y-45410938D01*
X47049228Y-45403053D01*
X47045063Y-45394551D01*
X47040931Y-45385407D01*
X47031865Y-45365102D01*
X47023420Y-45342830D01*
X47016960Y-45312340D01*
X47012220Y-45264618D01*
X47008935Y-45190654D01*
X47005671Y-44927945D01*
X47005607Y-44878379D01*
X47204374Y-44878379D01*
X47204543Y-44956725D01*
X47204936Y-45023556D01*
X47205577Y-45079815D01*
X47206490Y-45126448D01*
X47207702Y-45164400D01*
X47208427Y-45180415D01*
X47209235Y-45194614D01*
X47210131Y-45207115D01*
X47211116Y-45218036D01*
X47212195Y-45227496D01*
X47213370Y-45235611D01*
X47214643Y-45242500D01*
X47216020Y-45248282D01*
X47217501Y-45253074D01*
X47219091Y-45256995D01*
X47220793Y-45260162D01*
X47222609Y-45262694D01*
X47224544Y-45264709D01*
X47226599Y-45266324D01*
X47242355Y-45271164D01*
X47278038Y-45275144D01*
X47336905Y-45278330D01*
X47422214Y-45280788D01*
X47685188Y-45283787D01*
X48093021Y-45284669D01*
X48422251Y-45283941D01*
X48694860Y-45282023D01*
X48882802Y-45279311D01*
X48936259Y-45277782D01*
X48958032Y-45276203D01*
X48961541Y-45273564D01*
X48964674Y-45268254D01*
X48969894Y-45246217D01*
X48973857Y-45203277D01*
X48976729Y-45132622D01*
X48979860Y-44880915D01*
X48980610Y-44436591D01*
X48980403Y-44212889D01*
X48979750Y-44030478D01*
X48978600Y-43885803D01*
X48976906Y-43775310D01*
X48975838Y-43731769D01*
X48974615Y-43695441D01*
X48973231Y-43665881D01*
X48971680Y-43642643D01*
X48969955Y-43625284D01*
X48968050Y-43613360D01*
X48967028Y-43609296D01*
X48965959Y-43606425D01*
X48964842Y-43604690D01*
X48963676Y-43604036D01*
X48684938Y-43601081D01*
X48148760Y-43600508D01*
X47611523Y-43602052D01*
X47329610Y-43605447D01*
X47209665Y-43612503D01*
X47205432Y-44430947D01*
X47204605Y-44683362D01*
X47204374Y-44878379D01*
X47005607Y-44878379D01*
X47005054Y-44452114D01*
X47006068Y-44098498D01*
X47008935Y-43819230D01*
X47010980Y-43712686D01*
X47013389Y-43630979D01*
X47016128Y-43576194D01*
X47017612Y-43559548D01*
X47019165Y-43550414D01*
X47022431Y-43540321D01*
X47026375Y-43530195D01*
X47030947Y-43520102D01*
X47036099Y-43510109D01*
X47041779Y-43500281D01*
X47047939Y-43490684D01*
X47054528Y-43481385D01*
X47061498Y-43472450D01*
X47068799Y-43463945D01*
X47076381Y-43455935D01*
X47084195Y-43448489D01*
X47092190Y-43441670D01*
X47100318Y-43435546D01*
X47108528Y-43430183D01*
X47112649Y-43427807D01*
X47116772Y-43425646D01*
X47120890Y-43423709D01*
X47124999Y-43422003D01*
X47149993Y-43419431D01*
X47210658Y-43417041D01*
X47422920Y-43413007D01*
X47729638Y-43410295D01*
X48098666Y-43409302D01*
X48401564Y-43408950D01*
X48525362Y-43408955D01*
G37*
G36*
X52194746Y-42472347D02*
G01*
X52199186Y-42472819D01*
X52203663Y-42473561D01*
X52208183Y-42474574D01*
X52212752Y-42475861D01*
X52217375Y-42477423D01*
X52222059Y-42479264D01*
X52231634Y-42483790D01*
X52241522Y-42489457D01*
X52251772Y-42496283D01*
X52262432Y-42504288D01*
X52273548Y-42513489D01*
X52285168Y-42523906D01*
X52297341Y-42535557D01*
X52310113Y-42548461D01*
X52323532Y-42562635D01*
X52351095Y-42593967D01*
X52377680Y-42626025D01*
X52403270Y-42658779D01*
X52427844Y-42692193D01*
X52451385Y-42726237D01*
X52473873Y-42760875D01*
X52495291Y-42796076D01*
X52515620Y-42831806D01*
X52534840Y-42868031D01*
X52552934Y-42904720D01*
X52569883Y-42941839D01*
X52585668Y-42979355D01*
X52600271Y-43017234D01*
X52613673Y-43055445D01*
X52625856Y-43093953D01*
X52636800Y-43132725D01*
X52644274Y-43163915D01*
X52650820Y-43198427D01*
X52656435Y-43235779D01*
X52661119Y-43275490D01*
X52664868Y-43317077D01*
X52667681Y-43360060D01*
X52669555Y-43403956D01*
X52670489Y-43448285D01*
X52670480Y-43492563D01*
X52669527Y-43536311D01*
X52667627Y-43579046D01*
X52664778Y-43620286D01*
X52660978Y-43659550D01*
X52656226Y-43696356D01*
X52650519Y-43730223D01*
X52643854Y-43760669D01*
X52630277Y-43811401D01*
X52615935Y-43860001D01*
X52600725Y-43906654D01*
X52584544Y-43951544D01*
X52567287Y-43994855D01*
X52548853Y-44036770D01*
X52529136Y-44077474D01*
X52508035Y-44117151D01*
X52485446Y-44155985D01*
X52461265Y-44194159D01*
X52435389Y-44231858D01*
X52407714Y-44269265D01*
X52378138Y-44306564D01*
X52346557Y-44343941D01*
X52312867Y-44381577D01*
X52276966Y-44419658D01*
X52262489Y-44434444D01*
X52248664Y-44447588D01*
X52241981Y-44453549D01*
X52235446Y-44459104D01*
X52229051Y-44464255D01*
X52222792Y-44469003D01*
X52216663Y-44473350D01*
X52210660Y-44477298D01*
X52204775Y-44480848D01*
X52199004Y-44484002D01*
X52193342Y-44486760D01*
X52187783Y-44489126D01*
X52182322Y-44491100D01*
X52176953Y-44492683D01*
X52171671Y-44493878D01*
X52166470Y-44494686D01*
X52161345Y-44495109D01*
X52156290Y-44495147D01*
X52151301Y-44494803D01*
X52146372Y-44494079D01*
X52141496Y-44492975D01*
X52136670Y-44491493D01*
X52131887Y-44489635D01*
X52127142Y-44487402D01*
X52122429Y-44484796D01*
X52117744Y-44481819D01*
X52113080Y-44478471D01*
X52108433Y-44474756D01*
X52103796Y-44470673D01*
X52099165Y-44466225D01*
X52091115Y-44457484D01*
X52087602Y-44453094D01*
X52084434Y-44448682D01*
X52081613Y-44444241D01*
X52079139Y-44439761D01*
X52077015Y-44435237D01*
X52075243Y-44430660D01*
X52073824Y-44426024D01*
X52072761Y-44421320D01*
X52072054Y-44416541D01*
X52071707Y-44411679D01*
X52071720Y-44406728D01*
X52072096Y-44401679D01*
X52072836Y-44396525D01*
X52073942Y-44391259D01*
X52075416Y-44385873D01*
X52077260Y-44380360D01*
X52079475Y-44374712D01*
X52082064Y-44368921D01*
X52088369Y-44356883D01*
X52096189Y-44344186D01*
X52105539Y-44330769D01*
X52116433Y-44316573D01*
X52128885Y-44301537D01*
X52142911Y-44285603D01*
X52168781Y-44256265D01*
X52193967Y-44225992D01*
X52218413Y-44194870D01*
X52242063Y-44162990D01*
X52264861Y-44130441D01*
X52286753Y-44097310D01*
X52307680Y-44063688D01*
X52327589Y-44029662D01*
X52346423Y-43995323D01*
X52364126Y-43960758D01*
X52380643Y-43926056D01*
X52395918Y-43891307D01*
X52409894Y-43856600D01*
X52422517Y-43822022D01*
X52433730Y-43787664D01*
X52443477Y-43753614D01*
X52450256Y-43726734D01*
X52456301Y-43698115D01*
X52461606Y-43668004D01*
X52466165Y-43636646D01*
X52469971Y-43604288D01*
X52473019Y-43571175D01*
X52475302Y-43537554D01*
X52476814Y-43503671D01*
X52477549Y-43469771D01*
X52477500Y-43436100D01*
X52476662Y-43402905D01*
X52475028Y-43370431D01*
X52472592Y-43338924D01*
X52469348Y-43308631D01*
X52465290Y-43279798D01*
X52460411Y-43252670D01*
X52451501Y-43213090D01*
X52441192Y-43173763D01*
X52429507Y-43134742D01*
X52416467Y-43096080D01*
X52402097Y-43057832D01*
X52386418Y-43020051D01*
X52369453Y-42982791D01*
X52351226Y-42946105D01*
X52331758Y-42910048D01*
X52311072Y-42874673D01*
X52289192Y-42840034D01*
X52266140Y-42806184D01*
X52241938Y-42773178D01*
X52216610Y-42741069D01*
X52190178Y-42709911D01*
X52162665Y-42679758D01*
X52150094Y-42666154D01*
X52138825Y-42653349D01*
X52128838Y-42641279D01*
X52120111Y-42629884D01*
X52116215Y-42624419D01*
X52112625Y-42619100D01*
X52109341Y-42613918D01*
X52106359Y-42608866D01*
X52103676Y-42603936D01*
X52101291Y-42599120D01*
X52099200Y-42594410D01*
X52097401Y-42589799D01*
X52095892Y-42585280D01*
X52094669Y-42580843D01*
X52093731Y-42576482D01*
X52093074Y-42572188D01*
X52092697Y-42567955D01*
X52092595Y-42563773D01*
X52092768Y-42559636D01*
X52093212Y-42555536D01*
X52093925Y-42551465D01*
X52094904Y-42547415D01*
X52096146Y-42543378D01*
X52097650Y-42539347D01*
X52099411Y-42535314D01*
X52101429Y-42531271D01*
X52103700Y-42527211D01*
X52106221Y-42523125D01*
X52108730Y-42519657D01*
X52111477Y-42516149D01*
X52114435Y-42512629D01*
X52117576Y-42509124D01*
X52120875Y-42505660D01*
X52124304Y-42502264D01*
X52127836Y-42498963D01*
X52131445Y-42495785D01*
X52135103Y-42492755D01*
X52138784Y-42489900D01*
X52142461Y-42487249D01*
X52146107Y-42484826D01*
X52149695Y-42482661D01*
X52153198Y-42480778D01*
X52156590Y-42479205D01*
X52159843Y-42477969D01*
X52168549Y-42475029D01*
X52172892Y-42473937D01*
X52177237Y-42473099D01*
X52181588Y-42472519D01*
X52185953Y-42472199D01*
X52190337Y-42472141D01*
X52194746Y-42472347D01*
G37*
G36*
X50175184Y-44638672D02*
G01*
X50339929Y-44642129D01*
X50460323Y-44647238D01*
X50497051Y-44650382D01*
X50514488Y-44653903D01*
X50549732Y-44680788D01*
X50620233Y-44739606D01*
X50833399Y-44923601D01*
X51086781Y-45147019D01*
X51313177Y-45350991D01*
X51407721Y-45439891D01*
X51605276Y-45439891D01*
X51638410Y-45439869D01*
X51667605Y-45439776D01*
X51693125Y-45439575D01*
X51715233Y-45439230D01*
X51725089Y-45438991D01*
X51734190Y-45438703D01*
X51742570Y-45438360D01*
X51750260Y-45437957D01*
X51757294Y-45437490D01*
X51763705Y-45436954D01*
X51769524Y-45436345D01*
X51774786Y-45435658D01*
X51779523Y-45434889D01*
X51783768Y-45434032D01*
X51787554Y-45433083D01*
X51790912Y-45432037D01*
X51793877Y-45430890D01*
X51795222Y-45430277D01*
X51796481Y-45429637D01*
X51797658Y-45428970D01*
X51798757Y-45428274D01*
X51799782Y-45427549D01*
X51800738Y-45426795D01*
X51801628Y-45426011D01*
X51802456Y-45425196D01*
X51803227Y-45424351D01*
X51803944Y-45423473D01*
X51805236Y-45421621D01*
X51806363Y-45419635D01*
X51807359Y-45417510D01*
X51808257Y-45415242D01*
X51809089Y-45412827D01*
X51809888Y-45410259D01*
X51811600Y-45405599D01*
X51813809Y-45400633D01*
X51819623Y-45389872D01*
X51827140Y-45378164D01*
X51836170Y-45365698D01*
X51846523Y-45352661D01*
X51858009Y-45339242D01*
X51870438Y-45325629D01*
X51883618Y-45312009D01*
X51897361Y-45298572D01*
X51911477Y-45285504D01*
X51925774Y-45272995D01*
X51940062Y-45261231D01*
X51954153Y-45250403D01*
X51967855Y-45240696D01*
X51980978Y-45232300D01*
X51993332Y-45225403D01*
X52007545Y-45218905D01*
X52023560Y-45213174D01*
X52041130Y-45208216D01*
X52060007Y-45204037D01*
X52079941Y-45200644D01*
X52100686Y-45198043D01*
X52121994Y-45196239D01*
X52143615Y-45195240D01*
X52165303Y-45195051D01*
X52186808Y-45195678D01*
X52207884Y-45197128D01*
X52228282Y-45199407D01*
X52247754Y-45202521D01*
X52266052Y-45206476D01*
X52282927Y-45211279D01*
X52298133Y-45216935D01*
X52315820Y-45225189D01*
X52332890Y-45234315D01*
X52349329Y-45244276D01*
X52365122Y-45255035D01*
X52380255Y-45266555D01*
X52394716Y-45278798D01*
X52408489Y-45291728D01*
X52421560Y-45305306D01*
X52433917Y-45319497D01*
X52445544Y-45334262D01*
X52456429Y-45349564D01*
X52466556Y-45365367D01*
X52475912Y-45381633D01*
X52484484Y-45398324D01*
X52492256Y-45415404D01*
X52499215Y-45432836D01*
X52505348Y-45450581D01*
X52510640Y-45468604D01*
X52515077Y-45486867D01*
X52518646Y-45505332D01*
X52521332Y-45523962D01*
X52523121Y-45542721D01*
X52524000Y-45561570D01*
X52523954Y-45580473D01*
X52522970Y-45599393D01*
X52521033Y-45618292D01*
X52518130Y-45637134D01*
X52514247Y-45655880D01*
X52509369Y-45674494D01*
X52503484Y-45692938D01*
X52496576Y-45711176D01*
X52488632Y-45729169D01*
X52480820Y-45744902D01*
X52472702Y-45759847D01*
X52464237Y-45774044D01*
X52455383Y-45787532D01*
X52446099Y-45800350D01*
X52436344Y-45812537D01*
X52426076Y-45824134D01*
X52415254Y-45835179D01*
X52403837Y-45845711D01*
X52391783Y-45855769D01*
X52379052Y-45865394D01*
X52365601Y-45874624D01*
X52351389Y-45883498D01*
X52336375Y-45892056D01*
X52320518Y-45900337D01*
X52303776Y-45908380D01*
X52285238Y-45916027D01*
X52266431Y-45922576D01*
X52247399Y-45928046D01*
X52228188Y-45932455D01*
X52208843Y-45935820D01*
X52189408Y-45938161D01*
X52169929Y-45939496D01*
X52150450Y-45939844D01*
X52131017Y-45939221D01*
X52111674Y-45937648D01*
X52092467Y-45935142D01*
X52073440Y-45931722D01*
X52054638Y-45927405D01*
X52036107Y-45922211D01*
X52017891Y-45916157D01*
X52000035Y-45909262D01*
X51982584Y-45901545D01*
X51965583Y-45893023D01*
X51949078Y-45883715D01*
X51933112Y-45873640D01*
X51917731Y-45862815D01*
X51902980Y-45851260D01*
X51888905Y-45838991D01*
X51875549Y-45826029D01*
X51862957Y-45812390D01*
X51851176Y-45798094D01*
X51840249Y-45783159D01*
X51830222Y-45767603D01*
X51821140Y-45751444D01*
X51813047Y-45734701D01*
X51805989Y-45717392D01*
X51800010Y-45699536D01*
X51783077Y-45637447D01*
X51560121Y-45637447D01*
X51338577Y-45637447D01*
X51257257Y-45565746D01*
X51974514Y-45565746D01*
X51974516Y-45574831D01*
X51974974Y-45583921D01*
X51975891Y-45592997D01*
X51977274Y-45602039D01*
X51979127Y-45611030D01*
X51981454Y-45619950D01*
X51984262Y-45628782D01*
X51987554Y-45637506D01*
X51991335Y-45646104D01*
X51995612Y-45654557D01*
X52000387Y-45662847D01*
X52005874Y-45671227D01*
X52011739Y-45679165D01*
X52017961Y-45686660D01*
X52024522Y-45693710D01*
X52031403Y-45700310D01*
X52038583Y-45706460D01*
X52046045Y-45712156D01*
X52053767Y-45717395D01*
X52061731Y-45722176D01*
X52069918Y-45726495D01*
X52078308Y-45730350D01*
X52086881Y-45733739D01*
X52095619Y-45736658D01*
X52104502Y-45739106D01*
X52113510Y-45741079D01*
X52122625Y-45742575D01*
X52131826Y-45743591D01*
X52141095Y-45744126D01*
X52150412Y-45744175D01*
X52159758Y-45743738D01*
X52169112Y-45742810D01*
X52178457Y-45741390D01*
X52187773Y-45739475D01*
X52197039Y-45737063D01*
X52206237Y-45734150D01*
X52215348Y-45730734D01*
X52224352Y-45726813D01*
X52233229Y-45722384D01*
X52241961Y-45717444D01*
X52250528Y-45711991D01*
X52258910Y-45706023D01*
X52267088Y-45699536D01*
X52276122Y-45691537D01*
X52284440Y-45683170D01*
X52292049Y-45674464D01*
X52298951Y-45665446D01*
X52305151Y-45656147D01*
X52310654Y-45646594D01*
X52315464Y-45636816D01*
X52319586Y-45626842D01*
X52323023Y-45616700D01*
X52325780Y-45606420D01*
X52327862Y-45596030D01*
X52329273Y-45585559D01*
X52330018Y-45575034D01*
X52330100Y-45564486D01*
X52329524Y-45553942D01*
X52328295Y-45543432D01*
X52326416Y-45532984D01*
X52323894Y-45522626D01*
X52320730Y-45512388D01*
X52316931Y-45502298D01*
X52312501Y-45492384D01*
X52307443Y-45482676D01*
X52301763Y-45473202D01*
X52295464Y-45463991D01*
X52288552Y-45455071D01*
X52281029Y-45446472D01*
X52272902Y-45438221D01*
X52264174Y-45430348D01*
X52254850Y-45422880D01*
X52244934Y-45415848D01*
X52234430Y-45409280D01*
X52223343Y-45403203D01*
X52213911Y-45398507D01*
X52204640Y-45394474D01*
X52195493Y-45391107D01*
X52186434Y-45388408D01*
X52177423Y-45386379D01*
X52168426Y-45385021D01*
X52159403Y-45384337D01*
X52150318Y-45384329D01*
X52141134Y-45384999D01*
X52131814Y-45386349D01*
X52122320Y-45388381D01*
X52112615Y-45391098D01*
X52102662Y-45394500D01*
X52092424Y-45398591D01*
X52081863Y-45403373D01*
X52070943Y-45408847D01*
X52062518Y-45413548D01*
X52054446Y-45418645D01*
X52046731Y-45424117D01*
X52039377Y-45429947D01*
X52032391Y-45436116D01*
X52025776Y-45442606D01*
X52019539Y-45449397D01*
X52013683Y-45456472D01*
X52008213Y-45463811D01*
X52003135Y-45471396D01*
X51998453Y-45479208D01*
X51994172Y-45487229D01*
X51990298Y-45495441D01*
X51986835Y-45503824D01*
X51983787Y-45512360D01*
X51981161Y-45521030D01*
X51978960Y-45529816D01*
X51977191Y-45538699D01*
X51975856Y-45547661D01*
X51974963Y-45556683D01*
X51974514Y-45565746D01*
X51257257Y-45565746D01*
X51207343Y-45521736D01*
X50829165Y-45187302D01*
X50727455Y-45096506D01*
X50632492Y-45012325D01*
X50554727Y-44944019D01*
X50504610Y-44900847D01*
X50426999Y-44833114D01*
X49950043Y-44833114D01*
X49843606Y-44832855D01*
X49748100Y-44832100D01*
X49664268Y-44830881D01*
X49592856Y-44829233D01*
X49534606Y-44827188D01*
X49490263Y-44824779D01*
X49473540Y-44823449D01*
X49460572Y-44822040D01*
X49451454Y-44820556D01*
X49446277Y-44819003D01*
X49443320Y-44817287D01*
X49440288Y-44815329D01*
X49437201Y-44813152D01*
X49434084Y-44810779D01*
X49430958Y-44808232D01*
X49427847Y-44805534D01*
X49424773Y-44802708D01*
X49421758Y-44799777D01*
X49418827Y-44796762D01*
X49416001Y-44793688D01*
X49413303Y-44790577D01*
X49410756Y-44787451D01*
X49408383Y-44784334D01*
X49406206Y-44781248D01*
X49404248Y-44778215D01*
X49402532Y-44775259D01*
X49400819Y-44771594D01*
X49399382Y-44767755D01*
X49398212Y-44763758D01*
X49397304Y-44759618D01*
X49396651Y-44755350D01*
X49396247Y-44750971D01*
X49396086Y-44746497D01*
X49396160Y-44741943D01*
X49396464Y-44737324D01*
X49396990Y-44732658D01*
X49397734Y-44727958D01*
X49398687Y-44723242D01*
X49399844Y-44718525D01*
X49401198Y-44713823D01*
X49402743Y-44709151D01*
X49404472Y-44704526D01*
X49406379Y-44699962D01*
X49408457Y-44695477D01*
X49410700Y-44691084D01*
X49413101Y-44686802D01*
X49415655Y-44682644D01*
X49418353Y-44678627D01*
X49421191Y-44674766D01*
X49424162Y-44671078D01*
X49427258Y-44667578D01*
X49430474Y-44664282D01*
X49433803Y-44661206D01*
X49437239Y-44658364D01*
X49440776Y-44655774D01*
X49444406Y-44653451D01*
X49448123Y-44651411D01*
X49451921Y-44649669D01*
X49471590Y-44646244D01*
X49510254Y-44643369D01*
X49633624Y-44639218D01*
X49800154Y-44637118D01*
X49987967Y-44636969D01*
X50175184Y-44638672D01*
G37*
G36*
X48633125Y-45657640D02*
G01*
X48637534Y-45658084D01*
X48641921Y-45658764D01*
X48646284Y-45659679D01*
X48650619Y-45660828D01*
X48654922Y-45662210D01*
X48659188Y-45663825D01*
X48663414Y-45665671D01*
X48667596Y-45667749D01*
X48671731Y-45670057D01*
X48675814Y-45672594D01*
X48679841Y-45675360D01*
X48683809Y-45678353D01*
X48687713Y-45681574D01*
X48691551Y-45685021D01*
X48695317Y-45688694D01*
X48699008Y-45692592D01*
X48702621Y-45696713D01*
X48705681Y-45700820D01*
X48708513Y-45705224D01*
X48711123Y-45709959D01*
X48713513Y-45715058D01*
X48715688Y-45720553D01*
X48717652Y-45726479D01*
X48719410Y-45732868D01*
X48720965Y-45739752D01*
X48722322Y-45747166D01*
X48723484Y-45755142D01*
X48724457Y-45763714D01*
X48725243Y-45772914D01*
X48725847Y-45782775D01*
X48726274Y-45793330D01*
X48726610Y-45816658D01*
X48726539Y-45830517D01*
X48726309Y-45843061D01*
X48725894Y-45854398D01*
X48725265Y-45864636D01*
X48724397Y-45873881D01*
X48723864Y-45878165D01*
X48723261Y-45882241D01*
X48722585Y-45886124D01*
X48721833Y-45889825D01*
X48721000Y-45893359D01*
X48720084Y-45896739D01*
X48719081Y-45899978D01*
X48717987Y-45903090D01*
X48716801Y-45906089D01*
X48715517Y-45908987D01*
X48714133Y-45911798D01*
X48712645Y-45914536D01*
X48711051Y-45917214D01*
X48709346Y-45919846D01*
X48707528Y-45922444D01*
X48705592Y-45925023D01*
X48701356Y-45930176D01*
X48696612Y-45935411D01*
X48691332Y-45940836D01*
X48687355Y-45944813D01*
X48683363Y-45948542D01*
X48679356Y-45952023D01*
X48675336Y-45955256D01*
X48671303Y-45958241D01*
X48667259Y-45960977D01*
X48663205Y-45963466D01*
X48659141Y-45965707D01*
X48655069Y-45967699D01*
X48650990Y-45969444D01*
X48646905Y-45970940D01*
X48642814Y-45972189D01*
X48638719Y-45973189D01*
X48634622Y-45973942D01*
X48630522Y-45974446D01*
X48626421Y-45974702D01*
X48622320Y-45974711D01*
X48618220Y-45974471D01*
X48614122Y-45973983D01*
X48610028Y-45973247D01*
X48605937Y-45972263D01*
X48601852Y-45971031D01*
X48597773Y-45969551D01*
X48593701Y-45967823D01*
X48589637Y-45965847D01*
X48585583Y-45963623D01*
X48581539Y-45961151D01*
X48577506Y-45958430D01*
X48573486Y-45955462D01*
X48569479Y-45952246D01*
X48565487Y-45948781D01*
X48561510Y-45945069D01*
X48556494Y-45940138D01*
X48552012Y-45935318D01*
X48548034Y-45930490D01*
X48544532Y-45925534D01*
X48541476Y-45920330D01*
X48538838Y-45914758D01*
X48536589Y-45908698D01*
X48534699Y-45902030D01*
X48533139Y-45894635D01*
X48531882Y-45886392D01*
X48530897Y-45877182D01*
X48530157Y-45866885D01*
X48529631Y-45855381D01*
X48529291Y-45842549D01*
X48529054Y-45812425D01*
X48529095Y-45795665D01*
X48529244Y-45780738D01*
X48529547Y-45767494D01*
X48530047Y-45755782D01*
X48530383Y-45750453D01*
X48530785Y-45745450D01*
X48531258Y-45740755D01*
X48531808Y-45736349D01*
X48532438Y-45732212D01*
X48533156Y-45728326D01*
X48533967Y-45724672D01*
X48534875Y-45721232D01*
X48535887Y-45717985D01*
X48537007Y-45714914D01*
X48538242Y-45712000D01*
X48539596Y-45709223D01*
X48541076Y-45706566D01*
X48542686Y-45704008D01*
X48544431Y-45701531D01*
X48546318Y-45699117D01*
X48548352Y-45696746D01*
X48550538Y-45694400D01*
X48552882Y-45692059D01*
X48555389Y-45689705D01*
X48560913Y-45684882D01*
X48567154Y-45679780D01*
X48571408Y-45676597D01*
X48575699Y-45673661D01*
X48580023Y-45670971D01*
X48584377Y-45668527D01*
X48588757Y-45666328D01*
X48593159Y-45664373D01*
X48597579Y-45662662D01*
X48602013Y-45661193D01*
X48606458Y-45659966D01*
X48610909Y-45658981D01*
X48615362Y-45658235D01*
X48619815Y-45657729D01*
X48624262Y-45657462D01*
X48628700Y-45657432D01*
X48633125Y-45657640D01*
G37*
G36*
X51830744Y-42744878D02*
G01*
X51837288Y-42745548D01*
X51843724Y-42746743D01*
X51850148Y-42748528D01*
X51856654Y-42750965D01*
X51863339Y-42754120D01*
X51870296Y-42758056D01*
X51877621Y-42762837D01*
X51885409Y-42768528D01*
X51893755Y-42775193D01*
X51902754Y-42782895D01*
X51912502Y-42791699D01*
X51923093Y-42801669D01*
X51934622Y-42812868D01*
X51960877Y-42839214D01*
X51990734Y-42871447D01*
X52018426Y-42903670D01*
X52044007Y-42936005D01*
X52067526Y-42968573D01*
X52089036Y-43001497D01*
X52108589Y-43034898D01*
X52126236Y-43068899D01*
X52142028Y-43103621D01*
X52156018Y-43139186D01*
X52168258Y-43175717D01*
X52178798Y-43213335D01*
X52187691Y-43252162D01*
X52194988Y-43292321D01*
X52200741Y-43333932D01*
X52205002Y-43377119D01*
X52207821Y-43422003D01*
X52209273Y-43475044D01*
X52208325Y-43526783D01*
X52204959Y-43577274D01*
X52199156Y-43626570D01*
X52190897Y-43674724D01*
X52180163Y-43721792D01*
X52166937Y-43767826D01*
X52151200Y-43812880D01*
X52132932Y-43857009D01*
X52112116Y-43900264D01*
X52088732Y-43942702D01*
X52062763Y-43984374D01*
X52034189Y-44025336D01*
X52002992Y-44065640D01*
X51969153Y-44105341D01*
X51932654Y-44144492D01*
X51923513Y-44153744D01*
X51914607Y-44162451D01*
X51905931Y-44170614D01*
X51897481Y-44178234D01*
X51889252Y-44185311D01*
X51881240Y-44191847D01*
X51873440Y-44197841D01*
X51865847Y-44203295D01*
X51858456Y-44208210D01*
X51851264Y-44212585D01*
X51844264Y-44216423D01*
X51837454Y-44219724D01*
X51830827Y-44222488D01*
X51824380Y-44224717D01*
X51818107Y-44226411D01*
X51812004Y-44227571D01*
X51806067Y-44228197D01*
X51800290Y-44228291D01*
X51794670Y-44227853D01*
X51789200Y-44226884D01*
X51783878Y-44225385D01*
X51778698Y-44223357D01*
X51773655Y-44220800D01*
X51768745Y-44217715D01*
X51763963Y-44214103D01*
X51759305Y-44209964D01*
X51754765Y-44205300D01*
X51750340Y-44200112D01*
X51746024Y-44194399D01*
X51741814Y-44188163D01*
X51737703Y-44181405D01*
X51733688Y-44174125D01*
X51729085Y-44164950D01*
X51725376Y-44156359D01*
X51722625Y-44148173D01*
X51721630Y-44144176D01*
X51720900Y-44140214D01*
X51720442Y-44136264D01*
X51720266Y-44132305D01*
X51720379Y-44128313D01*
X51720789Y-44124267D01*
X51721506Y-44120145D01*
X51722537Y-44115924D01*
X51723890Y-44111582D01*
X51725574Y-44107097D01*
X51729967Y-44097608D01*
X51735782Y-44087281D01*
X51743086Y-44075936D01*
X51751944Y-44063397D01*
X51762423Y-44049485D01*
X51774588Y-44034022D01*
X51804244Y-43997736D01*
X51830324Y-43965516D01*
X51854602Y-43933384D01*
X51877095Y-43901299D01*
X51897818Y-43869215D01*
X51916788Y-43837089D01*
X51934021Y-43804880D01*
X51949535Y-43772541D01*
X51963346Y-43740032D01*
X51975470Y-43707307D01*
X51985924Y-43674324D01*
X51994724Y-43641039D01*
X52001887Y-43607409D01*
X52007429Y-43573391D01*
X52011368Y-43538940D01*
X52013719Y-43504014D01*
X52014499Y-43468569D01*
X52013705Y-43433811D01*
X52011324Y-43399394D01*
X52007355Y-43365329D01*
X52001799Y-43331625D01*
X51994655Y-43298293D01*
X51985924Y-43265344D01*
X51975605Y-43232788D01*
X51963699Y-43200634D01*
X51950205Y-43168894D01*
X51935124Y-43137578D01*
X51918455Y-43106696D01*
X51900199Y-43076258D01*
X51880355Y-43046275D01*
X51858924Y-43016757D01*
X51835905Y-42987715D01*
X51811299Y-42959158D01*
X51796248Y-42941981D01*
X51782832Y-42925857D01*
X51771032Y-42910712D01*
X51765732Y-42903484D01*
X51760830Y-42896474D01*
X51756322Y-42889673D01*
X51752207Y-42883072D01*
X51748482Y-42876661D01*
X51745145Y-42870432D01*
X51742193Y-42864375D01*
X51739625Y-42858483D01*
X51737437Y-42852744D01*
X51735628Y-42847151D01*
X51734195Y-42841695D01*
X51733136Y-42836366D01*
X51732449Y-42831155D01*
X51732131Y-42826054D01*
X51732179Y-42821052D01*
X51732592Y-42816142D01*
X51733368Y-42811314D01*
X51734503Y-42806560D01*
X51735996Y-42801869D01*
X51737845Y-42797233D01*
X51740046Y-42792644D01*
X51742598Y-42788091D01*
X51745498Y-42783566D01*
X51748744Y-42779060D01*
X51752334Y-42774564D01*
X51756265Y-42770069D01*
X51758840Y-42767458D01*
X51761780Y-42764926D01*
X51765055Y-42762485D01*
X51768634Y-42760147D01*
X51772486Y-42757925D01*
X51776580Y-42755831D01*
X51780885Y-42753878D01*
X51785369Y-42752078D01*
X51790003Y-42750442D01*
X51794754Y-42748985D01*
X51799592Y-42747718D01*
X51804486Y-42746654D01*
X51809404Y-42745804D01*
X51814316Y-42745182D01*
X51819191Y-42744799D01*
X51823998Y-42744669D01*
X51830744Y-42744878D01*
G37*
G36*
X49137132Y-40741067D02*
G01*
X49143736Y-40741633D01*
X49150093Y-40742650D01*
X49156293Y-40744177D01*
X49162427Y-40746275D01*
X49168585Y-40749003D01*
X49174859Y-40752421D01*
X49181340Y-40756590D01*
X49188119Y-40761569D01*
X49195286Y-40767419D01*
X49202933Y-40774198D01*
X49211150Y-40781968D01*
X49220029Y-40790788D01*
X49229660Y-40800717D01*
X49251543Y-40824147D01*
X49274319Y-40850266D01*
X49296098Y-40876802D01*
X49316910Y-40903804D01*
X49336783Y-40931325D01*
X49355747Y-40959417D01*
X49373830Y-40988131D01*
X49391062Y-41017518D01*
X49407471Y-41047632D01*
X49423086Y-41078522D01*
X49437937Y-41110241D01*
X49452051Y-41142841D01*
X49465459Y-41176373D01*
X49478188Y-41210889D01*
X49490269Y-41246441D01*
X49501729Y-41283080D01*
X49512599Y-41320858D01*
X49518784Y-41346625D01*
X49524114Y-41376448D01*
X49528591Y-41409752D01*
X49532222Y-41445962D01*
X49535009Y-41484503D01*
X49536957Y-41524802D01*
X49538352Y-41608372D01*
X49536439Y-41692074D01*
X49534253Y-41732538D01*
X49531252Y-41771311D01*
X49527441Y-41807819D01*
X49522824Y-41841486D01*
X49517405Y-41871739D01*
X49511188Y-41898003D01*
X49499843Y-41936753D01*
X49487037Y-41975633D01*
X49472862Y-42014476D01*
X49457411Y-42053114D01*
X49440779Y-42091381D01*
X49423057Y-42129108D01*
X49404339Y-42166128D01*
X49384717Y-42202273D01*
X49364285Y-42237377D01*
X49343136Y-42271272D01*
X49321363Y-42303789D01*
X49299058Y-42334763D01*
X49276315Y-42364025D01*
X49253227Y-42391409D01*
X49229887Y-42416746D01*
X49206388Y-42439869D01*
X49192552Y-42452373D01*
X49179577Y-42463439D01*
X49173391Y-42468437D01*
X49167395Y-42473082D01*
X49161581Y-42477376D01*
X49155940Y-42481320D01*
X49150465Y-42484917D01*
X49145148Y-42488169D01*
X49139979Y-42491078D01*
X49134950Y-42493645D01*
X49130054Y-42495874D01*
X49125282Y-42497766D01*
X49120625Y-42499323D01*
X49116076Y-42500547D01*
X49111627Y-42501440D01*
X49107268Y-42502005D01*
X49102992Y-42502243D01*
X49098790Y-42502156D01*
X49094655Y-42501748D01*
X49090577Y-42501018D01*
X49086549Y-42499971D01*
X49082563Y-42498607D01*
X49078609Y-42496929D01*
X49074680Y-42494938D01*
X49070768Y-42492638D01*
X49066864Y-42490030D01*
X49062960Y-42487116D01*
X49059048Y-42483898D01*
X49055119Y-42480378D01*
X49051166Y-42476558D01*
X49042636Y-42467236D01*
X49038922Y-42462516D01*
X49035580Y-42457745D01*
X49032610Y-42452914D01*
X49030016Y-42448014D01*
X49027800Y-42443037D01*
X49025964Y-42437973D01*
X49024510Y-42432814D01*
X49023441Y-42427552D01*
X49022759Y-42422176D01*
X49022466Y-42416680D01*
X49022566Y-42411053D01*
X49023059Y-42405287D01*
X49023948Y-42399373D01*
X49025236Y-42393303D01*
X49026926Y-42387067D01*
X49029018Y-42380657D01*
X49034422Y-42367280D01*
X49041468Y-42353101D01*
X49050173Y-42338049D01*
X49060557Y-42322055D01*
X49072638Y-42305048D01*
X49086435Y-42286957D01*
X49101966Y-42267714D01*
X49118607Y-42246357D01*
X49136406Y-42222007D01*
X49154800Y-42195507D01*
X49173227Y-42167701D01*
X49191125Y-42139432D01*
X49207931Y-42111543D01*
X49223084Y-42084878D01*
X49236021Y-42060280D01*
X49250666Y-42029562D01*
X49263946Y-42000206D01*
X49275920Y-41971954D01*
X49286645Y-41944547D01*
X49296179Y-41917727D01*
X49304581Y-41891236D01*
X49311908Y-41864816D01*
X49318218Y-41838207D01*
X49323569Y-41811151D01*
X49328019Y-41783391D01*
X49331625Y-41754668D01*
X49334446Y-41724723D01*
X49336539Y-41693297D01*
X49337963Y-41660134D01*
X49339032Y-41587558D01*
X49338318Y-41535019D01*
X49337026Y-41491360D01*
X49336064Y-41472204D01*
X49334840Y-41454481D01*
X49333314Y-41437928D01*
X49331447Y-41422282D01*
X49329200Y-41407281D01*
X49326533Y-41392662D01*
X49323407Y-41378164D01*
X49319784Y-41363522D01*
X49315622Y-41348476D01*
X49310884Y-41332762D01*
X49299521Y-41298281D01*
X49291284Y-41275154D01*
X49281973Y-41251380D01*
X49271675Y-41227106D01*
X49260473Y-41202479D01*
X49248453Y-41177645D01*
X49235699Y-41152751D01*
X49222295Y-41127944D01*
X49208328Y-41103370D01*
X49193881Y-41079177D01*
X49179039Y-41055511D01*
X49163887Y-41032519D01*
X49148510Y-41010347D01*
X49132992Y-40989143D01*
X49117419Y-40969053D01*
X49101874Y-40950224D01*
X49086443Y-40932802D01*
X49076655Y-40921414D01*
X49067931Y-40910021D01*
X49063970Y-40904332D01*
X49060278Y-40898653D01*
X49056854Y-40892987D01*
X49053701Y-40887338D01*
X49050819Y-40881710D01*
X49048208Y-40876107D01*
X49045870Y-40870531D01*
X49043804Y-40864986D01*
X49042013Y-40859477D01*
X49040496Y-40854007D01*
X49039255Y-40848579D01*
X49038289Y-40843197D01*
X49037601Y-40837865D01*
X49037191Y-40832585D01*
X49037059Y-40827363D01*
X49037206Y-40822201D01*
X49037634Y-40817103D01*
X49038342Y-40812073D01*
X49039332Y-40807114D01*
X49040604Y-40802231D01*
X49042160Y-40797425D01*
X49044000Y-40792702D01*
X49046124Y-40788065D01*
X49048534Y-40783517D01*
X49051230Y-40779062D01*
X49054213Y-40774704D01*
X49057484Y-40770446D01*
X49061043Y-40766291D01*
X49063618Y-40763681D01*
X49066561Y-40761149D01*
X49069843Y-40758707D01*
X49073435Y-40756370D01*
X49077308Y-40754148D01*
X49081433Y-40752054D01*
X49085781Y-40750100D01*
X49090324Y-40748300D01*
X49095032Y-40746665D01*
X49099877Y-40745208D01*
X49104829Y-40743941D01*
X49109859Y-40742876D01*
X49114939Y-40742026D01*
X49120040Y-40741404D01*
X49125132Y-40741022D01*
X49130188Y-40740892D01*
X49137132Y-40741067D01*
G37*
G36*
X47349801Y-40983671D02*
G01*
X47352569Y-40983825D01*
X47355407Y-40984109D01*
X47358327Y-40984518D01*
X47361343Y-40985044D01*
X47367710Y-40986425D01*
X47371938Y-40987581D01*
X47376150Y-40988927D01*
X47380338Y-40990457D01*
X47384494Y-40992160D01*
X47388612Y-40994030D01*
X47392682Y-40996058D01*
X47400650Y-41000558D01*
X47408338Y-41005595D01*
X47415682Y-41011105D01*
X47422621Y-41017025D01*
X47429093Y-41023290D01*
X47435036Y-41029836D01*
X47440388Y-41036599D01*
X47445086Y-41043515D01*
X47447171Y-41047010D01*
X47449069Y-41050520D01*
X47450773Y-41054036D01*
X47452275Y-41057549D01*
X47453567Y-41061054D01*
X47454642Y-41064540D01*
X47455491Y-41068000D01*
X47456108Y-41071427D01*
X47456483Y-41074812D01*
X47456610Y-41078147D01*
X47456400Y-41082713D01*
X47455725Y-41087495D01*
X47454517Y-41092608D01*
X47452707Y-41098167D01*
X47450228Y-41104288D01*
X47447011Y-41111087D01*
X47442987Y-41118680D01*
X47438089Y-41127183D01*
X47425397Y-41147379D01*
X47408390Y-41172603D01*
X47386520Y-41203780D01*
X47359243Y-41241836D01*
X47345016Y-41262560D01*
X47331950Y-41283009D01*
X47320011Y-41303305D01*
X47309171Y-41323570D01*
X47299396Y-41343926D01*
X47290658Y-41364495D01*
X47282924Y-41385399D01*
X47276164Y-41406759D01*
X47270346Y-41428699D01*
X47265440Y-41451339D01*
X47261414Y-41474802D01*
X47258238Y-41499209D01*
X47255881Y-41524683D01*
X47254311Y-41551346D01*
X47253498Y-41579319D01*
X47253410Y-41608725D01*
X47253875Y-41644625D01*
X47255347Y-41678440D01*
X47257940Y-41710464D01*
X47261766Y-41740995D01*
X47266940Y-41770326D01*
X47273576Y-41798754D01*
X47281787Y-41826574D01*
X47291686Y-41854082D01*
X47303388Y-41881573D01*
X47317006Y-41909344D01*
X47332654Y-41937689D01*
X47350446Y-41966905D01*
X47370494Y-41997286D01*
X47392914Y-42029129D01*
X47417818Y-42062728D01*
X47445321Y-42098381D01*
X47450532Y-42105131D01*
X47455058Y-42111171D01*
X47458911Y-42116621D01*
X47462100Y-42121598D01*
X47463449Y-42123945D01*
X47464636Y-42126218D01*
X47465662Y-42128432D01*
X47466529Y-42130602D01*
X47467238Y-42132741D01*
X47467790Y-42134865D01*
X47468186Y-42136988D01*
X47468428Y-42139126D01*
X47468517Y-42141293D01*
X47468455Y-42143503D01*
X47468242Y-42145772D01*
X47467880Y-42148114D01*
X47467370Y-42150543D01*
X47466713Y-42153076D01*
X47464966Y-42158507D01*
X47462649Y-42164525D01*
X47459771Y-42171248D01*
X47452376Y-42187281D01*
X47449533Y-42192965D01*
X47446561Y-42198375D01*
X47443465Y-42203509D01*
X47440250Y-42208367D01*
X47436918Y-42212947D01*
X47433475Y-42217247D01*
X47429925Y-42221267D01*
X47426271Y-42225005D01*
X47422518Y-42228460D01*
X47418670Y-42231631D01*
X47414731Y-42234515D01*
X47410705Y-42237113D01*
X47406596Y-42239422D01*
X47402409Y-42241442D01*
X47398147Y-42243170D01*
X47393815Y-42244607D01*
X47389417Y-42245750D01*
X47384957Y-42246598D01*
X47380439Y-42247150D01*
X47375868Y-42247404D01*
X47371246Y-42247360D01*
X47366580Y-42247016D01*
X47361872Y-42246370D01*
X47357126Y-42245422D01*
X47352348Y-42244171D01*
X47347541Y-42242614D01*
X47342709Y-42240750D01*
X47337856Y-42238579D01*
X47332987Y-42236099D01*
X47328105Y-42233308D01*
X47323215Y-42230206D01*
X47318321Y-42226791D01*
X47299377Y-42211553D01*
X47280212Y-42193523D01*
X47260969Y-42172950D01*
X47241790Y-42150084D01*
X47222818Y-42125176D01*
X47204194Y-42098477D01*
X47186063Y-42070235D01*
X47168567Y-42040701D01*
X47151847Y-42010126D01*
X47136047Y-41978758D01*
X47121310Y-41946850D01*
X47107778Y-41914649D01*
X47095594Y-41882408D01*
X47084900Y-41850375D01*
X47075839Y-41818801D01*
X47068554Y-41787936D01*
X47059516Y-41737634D01*
X47053536Y-41686879D01*
X47050561Y-41635880D01*
X47050540Y-41584846D01*
X47053421Y-41533986D01*
X47059153Y-41483508D01*
X47067684Y-41433621D01*
X47078961Y-41384534D01*
X47092934Y-41336456D01*
X47109551Y-41289596D01*
X47128760Y-41244161D01*
X47150509Y-41200362D01*
X47174747Y-41158407D01*
X47201422Y-41118504D01*
X47230482Y-41080862D01*
X47261877Y-41045691D01*
X47272212Y-41035166D01*
X47281588Y-41025781D01*
X47290104Y-41017488D01*
X47297860Y-41010237D01*
X47304954Y-41003978D01*
X47308284Y-41001205D01*
X47311486Y-40998662D01*
X47314572Y-40996341D01*
X47317555Y-40994238D01*
X47320447Y-40992346D01*
X47323260Y-40990658D01*
X47326007Y-40989169D01*
X47328700Y-40987872D01*
X47331352Y-40986760D01*
X47333976Y-40985829D01*
X47336582Y-40985072D01*
X47339184Y-40984482D01*
X47341795Y-40984053D01*
X47344426Y-40983779D01*
X47347091Y-40983654D01*
X47349801Y-40983671D01*
G37*
G36*
X106263433Y-26043583D02*
G01*
X106287694Y-26044576D01*
X106311935Y-26046341D01*
X106336093Y-26048874D01*
X106360106Y-26052174D01*
X106383912Y-26056236D01*
X106407449Y-26061058D01*
X106430656Y-26066637D01*
X106453470Y-26072968D01*
X106475830Y-26080051D01*
X106497672Y-26087880D01*
X106515056Y-26094647D01*
X106532034Y-26101728D01*
X106548629Y-26109143D01*
X106564865Y-26116907D01*
X106580767Y-26125040D01*
X106596358Y-26133558D01*
X106611661Y-26142479D01*
X106626701Y-26151821D01*
X106641501Y-26161601D01*
X106656085Y-26171837D01*
X106670476Y-26182547D01*
X106684700Y-26193747D01*
X106698778Y-26205455D01*
X106712736Y-26217690D01*
X106726596Y-26230469D01*
X106740384Y-26243808D01*
X106758383Y-26261861D01*
X106775368Y-26279820D01*
X106791383Y-26297757D01*
X106806474Y-26315742D01*
X106820684Y-26333846D01*
X106834058Y-26352143D01*
X106846641Y-26370701D01*
X106858476Y-26389593D01*
X106869608Y-26408891D01*
X106880082Y-26428665D01*
X106889942Y-26448987D01*
X106899233Y-26469928D01*
X106907998Y-26491559D01*
X106916283Y-26513952D01*
X106924132Y-26537178D01*
X106931589Y-26561308D01*
X106936235Y-26578829D01*
X106940380Y-26597428D01*
X106944018Y-26616959D01*
X106947144Y-26637277D01*
X106949754Y-26658235D01*
X106951842Y-26679688D01*
X106953403Y-26701491D01*
X106954431Y-26723498D01*
X106954923Y-26745562D01*
X106954871Y-26767538D01*
X106954272Y-26789281D01*
X106953120Y-26810645D01*
X106951409Y-26831483D01*
X106949136Y-26851651D01*
X106946294Y-26871002D01*
X106942878Y-26889391D01*
X106931906Y-26935146D01*
X106918106Y-26979729D01*
X106901578Y-27023028D01*
X106882421Y-27064931D01*
X106860733Y-27105326D01*
X106836615Y-27144098D01*
X106810165Y-27181137D01*
X106781482Y-27216328D01*
X106750666Y-27249560D01*
X106717817Y-27280720D01*
X106683032Y-27309695D01*
X106646412Y-27336372D01*
X106608056Y-27360639D01*
X106568063Y-27382383D01*
X106526531Y-27401492D01*
X106483561Y-27417852D01*
X106448864Y-27428874D01*
X106414110Y-27438129D01*
X106379324Y-27445618D01*
X106344534Y-27451344D01*
X106309764Y-27455309D01*
X106275041Y-27457515D01*
X106240390Y-27457964D01*
X106205837Y-27456658D01*
X106171408Y-27453599D01*
X106137129Y-27448790D01*
X106103026Y-27442231D01*
X106069125Y-27433926D01*
X106035450Y-27423876D01*
X106002029Y-27412084D01*
X105968887Y-27398551D01*
X105936050Y-27383280D01*
X105901581Y-27365191D01*
X105868555Y-27345590D01*
X105836979Y-27324485D01*
X105806856Y-27301888D01*
X105778193Y-27277806D01*
X105750995Y-27252250D01*
X105725266Y-27225227D01*
X105701012Y-27196749D01*
X105678238Y-27166824D01*
X105656949Y-27135461D01*
X105637151Y-27102669D01*
X105618848Y-27068459D01*
X105602046Y-27032839D01*
X105586749Y-26995819D01*
X105572964Y-26957407D01*
X105560695Y-26917614D01*
X105557246Y-26902917D01*
X105554306Y-26885533D01*
X105551870Y-26865834D01*
X105549935Y-26844192D01*
X105547548Y-26796567D01*
X105547113Y-26745634D01*
X105548595Y-26694371D01*
X105551963Y-26645754D01*
X105554344Y-26623368D01*
X105557183Y-26602759D01*
X105560478Y-26584301D01*
X105564222Y-26568364D01*
X105568453Y-26554297D01*
X105573428Y-26539441D01*
X105579080Y-26523932D01*
X105585345Y-26507906D01*
X105592155Y-26491500D01*
X105599445Y-26474850D01*
X105615199Y-26441364D01*
X105632077Y-26408539D01*
X105640772Y-26392715D01*
X105649550Y-26377467D01*
X105658345Y-26362929D01*
X105667090Y-26349239D01*
X105675719Y-26336533D01*
X105684167Y-26324947D01*
X105704458Y-26299557D01*
X105726113Y-26275019D01*
X105749039Y-26251393D01*
X105773144Y-26228738D01*
X105798336Y-26207112D01*
X105824524Y-26186574D01*
X105851615Y-26167183D01*
X105879518Y-26148999D01*
X105908139Y-26132080D01*
X105937388Y-26116484D01*
X105967173Y-26102272D01*
X105997400Y-26089501D01*
X106027980Y-26078231D01*
X106058818Y-26068520D01*
X106089824Y-26060428D01*
X106120906Y-26054014D01*
X106143989Y-26050309D01*
X106167423Y-26047395D01*
X106191146Y-26045268D01*
X106215097Y-26043926D01*
X106239214Y-26043366D01*
X106263433Y-26043583D01*
G37*
G36*
X49583735Y-44113589D02*
G01*
X49604616Y-44114051D01*
X49623360Y-44114889D01*
X49631974Y-44115467D01*
X49640106Y-44116159D01*
X49647772Y-44116974D01*
X49654991Y-44117917D01*
X49661779Y-44118997D01*
X49668154Y-44120219D01*
X49674134Y-44121591D01*
X49679734Y-44123120D01*
X49684974Y-44124813D01*
X49689869Y-44126676D01*
X49694438Y-44128718D01*
X49698698Y-44130944D01*
X49702666Y-44133361D01*
X49706359Y-44135978D01*
X49709795Y-44138800D01*
X49712990Y-44141835D01*
X49715963Y-44145089D01*
X49718731Y-44148570D01*
X49721310Y-44152285D01*
X49723719Y-44156240D01*
X49725974Y-44160443D01*
X49728093Y-44164900D01*
X49730094Y-44169619D01*
X49731992Y-44174606D01*
X49733807Y-44179869D01*
X49735554Y-44185414D01*
X49736713Y-44189167D01*
X49737547Y-44193012D01*
X49738062Y-44196945D01*
X49738266Y-44200958D01*
X49738164Y-44205046D01*
X49737762Y-44209202D01*
X49737066Y-44213419D01*
X49736083Y-44217693D01*
X49734819Y-44222016D01*
X49733280Y-44226383D01*
X49731472Y-44230787D01*
X49729402Y-44235222D01*
X49727076Y-44239681D01*
X49724499Y-44244159D01*
X49721679Y-44248650D01*
X49718620Y-44253147D01*
X49713762Y-44259141D01*
X49709118Y-44264455D01*
X49704507Y-44269137D01*
X49699747Y-44273233D01*
X49694657Y-44276792D01*
X49689054Y-44279862D01*
X49682756Y-44282488D01*
X49675582Y-44284720D01*
X49667350Y-44286605D01*
X49657877Y-44288190D01*
X49646982Y-44289523D01*
X49634484Y-44290652D01*
X49603946Y-44292484D01*
X49564810Y-44294069D01*
X49544527Y-44294776D01*
X49526434Y-44295290D01*
X49510376Y-44295585D01*
X49496194Y-44295635D01*
X49489758Y-44295559D01*
X49483733Y-44295411D01*
X49478098Y-44295188D01*
X49472834Y-44294888D01*
X49467921Y-44294505D01*
X49463341Y-44294038D01*
X49459072Y-44293482D01*
X49455096Y-44292834D01*
X49451392Y-44292092D01*
X49447942Y-44291250D01*
X49444726Y-44290308D01*
X49441723Y-44289259D01*
X49438915Y-44288103D01*
X49436281Y-44286834D01*
X49433803Y-44285451D01*
X49431460Y-44283948D01*
X49429232Y-44282324D01*
X49427101Y-44280575D01*
X49425046Y-44278696D01*
X49423048Y-44276686D01*
X49421087Y-44274540D01*
X49419144Y-44272256D01*
X49417199Y-44269830D01*
X49415232Y-44267258D01*
X49412284Y-44263633D01*
X49409526Y-44259909D01*
X49406958Y-44256092D01*
X49404579Y-44252190D01*
X49402390Y-44248211D01*
X49400389Y-44244162D01*
X49398577Y-44240050D01*
X49396953Y-44235883D01*
X49395518Y-44231668D01*
X49394270Y-44227414D01*
X49393210Y-44223127D01*
X49392337Y-44218815D01*
X49391651Y-44214485D01*
X49391152Y-44210145D01*
X49390840Y-44205803D01*
X49390714Y-44201465D01*
X49390774Y-44197140D01*
X49391019Y-44192835D01*
X49391451Y-44188557D01*
X49392067Y-44184314D01*
X49392869Y-44180114D01*
X49393855Y-44175963D01*
X49395026Y-44171870D01*
X49396380Y-44167841D01*
X49397919Y-44163885D01*
X49399642Y-44160009D01*
X49401548Y-44156220D01*
X49403637Y-44152526D01*
X49405910Y-44148934D01*
X49408364Y-44145452D01*
X49411002Y-44142087D01*
X49413821Y-44138847D01*
X49417376Y-44135074D01*
X49421227Y-44131678D01*
X49425470Y-44128643D01*
X49430203Y-44125948D01*
X49435523Y-44123577D01*
X49441528Y-44121508D01*
X49448314Y-44119726D01*
X49455978Y-44118209D01*
X49464618Y-44116941D01*
X49474331Y-44115903D01*
X49485214Y-44115075D01*
X49497364Y-44114439D01*
X49525853Y-44113670D01*
X49560577Y-44113447D01*
X49583735Y-44113589D01*
G37*
G36*
X48625716Y-42887368D02*
G01*
X48629948Y-42887717D01*
X48634178Y-42888302D01*
X48638402Y-42889122D01*
X48642616Y-42890176D01*
X48646818Y-42891466D01*
X48651004Y-42892989D01*
X48655172Y-42894747D01*
X48659318Y-42896739D01*
X48663439Y-42898964D01*
X48667532Y-42901422D01*
X48671594Y-42904114D01*
X48675623Y-42907038D01*
X48679614Y-42910195D01*
X48683564Y-42913584D01*
X48687471Y-42917205D01*
X48691332Y-42921058D01*
X48696844Y-42926486D01*
X48701761Y-42931735D01*
X48706116Y-42936927D01*
X48709941Y-42942181D01*
X48713270Y-42947616D01*
X48716137Y-42953354D01*
X48718573Y-42959513D01*
X48720613Y-42966214D01*
X48722288Y-42973576D01*
X48723633Y-42981719D01*
X48724681Y-42990764D01*
X48725463Y-43000830D01*
X48726015Y-43012037D01*
X48726367Y-43024504D01*
X48726610Y-43053702D01*
X48726568Y-43069951D01*
X48726409Y-43084408D01*
X48726080Y-43097231D01*
X48725529Y-43108581D01*
X48725155Y-43113753D01*
X48724706Y-43118616D01*
X48724176Y-43123191D01*
X48723559Y-43127496D01*
X48722847Y-43131552D01*
X48722035Y-43135380D01*
X48721116Y-43138997D01*
X48720083Y-43142426D01*
X48718931Y-43145685D01*
X48717652Y-43148794D01*
X48716241Y-43151774D01*
X48714690Y-43154644D01*
X48712993Y-43157423D01*
X48711144Y-43160133D01*
X48709137Y-43162793D01*
X48706965Y-43165423D01*
X48704620Y-43168042D01*
X48702098Y-43170670D01*
X48699392Y-43173329D01*
X48696494Y-43176036D01*
X48690100Y-43181679D01*
X48682865Y-43187758D01*
X48665582Y-43202128D01*
X48658417Y-43207806D01*
X48652019Y-43212496D01*
X48649057Y-43214475D01*
X48646225Y-43216211D01*
X48643503Y-43217706D01*
X48640871Y-43218962D01*
X48638308Y-43219981D01*
X48635794Y-43220763D01*
X48633308Y-43221310D01*
X48630830Y-43221625D01*
X48628340Y-43221708D01*
X48625817Y-43221561D01*
X48623241Y-43221185D01*
X48620592Y-43220583D01*
X48617848Y-43219755D01*
X48614989Y-43218704D01*
X48611996Y-43217431D01*
X48608848Y-43215936D01*
X48602003Y-43212292D01*
X48594293Y-43207784D01*
X48575620Y-43196225D01*
X48560250Y-43186692D01*
X48554031Y-43182406D01*
X48548699Y-43178167D01*
X48544186Y-43173772D01*
X48540423Y-43169014D01*
X48538802Y-43166436D01*
X48537342Y-43163691D01*
X48534875Y-43157596D01*
X48532954Y-43150525D01*
X48531510Y-43142275D01*
X48530475Y-43132639D01*
X48529782Y-43121414D01*
X48529361Y-43108395D01*
X48529145Y-43093376D01*
X48529054Y-43056525D01*
X48529108Y-43038925D01*
X48529289Y-43023082D01*
X48529622Y-43008868D01*
X48530135Y-42996155D01*
X48530854Y-42984815D01*
X48531300Y-42979619D01*
X48531807Y-42974719D01*
X48532380Y-42970097D01*
X48533021Y-42965739D01*
X48533734Y-42961627D01*
X48534522Y-42957747D01*
X48535389Y-42954081D01*
X48536337Y-42950615D01*
X48537371Y-42947331D01*
X48538494Y-42944214D01*
X48539708Y-42941249D01*
X48541018Y-42938418D01*
X48542426Y-42935706D01*
X48543937Y-42933097D01*
X48545553Y-42930574D01*
X48547278Y-42928123D01*
X48549114Y-42925726D01*
X48551067Y-42923368D01*
X48553138Y-42921032D01*
X48555332Y-42918704D01*
X48560099Y-42914003D01*
X48563959Y-42910551D01*
X48567867Y-42907338D01*
X48571817Y-42904365D01*
X48575808Y-42901631D01*
X48579837Y-42899135D01*
X48583899Y-42896878D01*
X48587992Y-42894859D01*
X48592114Y-42893079D01*
X48596260Y-42891535D01*
X48600427Y-42890230D01*
X48604614Y-42889161D01*
X48608815Y-42888330D01*
X48613030Y-42887735D01*
X48617253Y-42887377D01*
X48621483Y-42887254D01*
X48625716Y-42887368D01*
G37*
G36*
X48102402Y-45694796D02*
G01*
X48107070Y-45695242D01*
X48111712Y-45695920D01*
X48116320Y-45696830D01*
X48120883Y-45697971D01*
X48125393Y-45699343D01*
X48129842Y-45700947D01*
X48134221Y-45702783D01*
X48138520Y-45704850D01*
X48142732Y-45707148D01*
X48146847Y-45709678D01*
X48150857Y-45712440D01*
X48154752Y-45715433D01*
X48158525Y-45718657D01*
X48162165Y-45722114D01*
X48171076Y-45732617D01*
X48174726Y-45739083D01*
X48177886Y-45747139D01*
X48180592Y-45757369D01*
X48182877Y-45770359D01*
X48186331Y-45806957D01*
X48188527Y-45861613D01*
X48189748Y-45939006D01*
X48190387Y-46180725D01*
X48190387Y-46611114D01*
X47940621Y-46894747D01*
X47839352Y-47008760D01*
X47749592Y-47110471D01*
X47681263Y-47188633D01*
X47644287Y-47232003D01*
X47597721Y-47285625D01*
X47640054Y-47366058D01*
X47646653Y-47379408D01*
X47652691Y-47392985D01*
X47663101Y-47420733D01*
X47671302Y-47449135D01*
X47677316Y-47478021D01*
X47681165Y-47507221D01*
X47682867Y-47536566D01*
X47682445Y-47565886D01*
X47679918Y-47595011D01*
X47675308Y-47623773D01*
X47668635Y-47652001D01*
X47659920Y-47679527D01*
X47649183Y-47706180D01*
X47636445Y-47731792D01*
X47629332Y-47744154D01*
X47621727Y-47756192D01*
X47613631Y-47767885D01*
X47605049Y-47779211D01*
X47595982Y-47790150D01*
X47586432Y-47800680D01*
X47576345Y-47810677D01*
X47565202Y-47820527D01*
X47553104Y-47830182D01*
X47540152Y-47839596D01*
X47526448Y-47848720D01*
X47512092Y-47857508D01*
X47497187Y-47865911D01*
X47481833Y-47873881D01*
X47466132Y-47881373D01*
X47450185Y-47888337D01*
X47434094Y-47894727D01*
X47417959Y-47900494D01*
X47401881Y-47905592D01*
X47385963Y-47909973D01*
X47370306Y-47913589D01*
X47355010Y-47916392D01*
X47341574Y-47918040D01*
X47328005Y-47919022D01*
X47314327Y-47919353D01*
X47300564Y-47919046D01*
X47286740Y-47918113D01*
X47272879Y-47916568D01*
X47259005Y-47914425D01*
X47245142Y-47911695D01*
X47231314Y-47908393D01*
X47217545Y-47904532D01*
X47203860Y-47900124D01*
X47190282Y-47895183D01*
X47176835Y-47889723D01*
X47163543Y-47883756D01*
X47150431Y-47877295D01*
X47137522Y-47870354D01*
X47124841Y-47862946D01*
X47112411Y-47855083D01*
X47100256Y-47846780D01*
X47088401Y-47838050D01*
X47076869Y-47828905D01*
X47065685Y-47819358D01*
X47054872Y-47809424D01*
X47044455Y-47799115D01*
X47034458Y-47788444D01*
X47024904Y-47777424D01*
X47015818Y-47766069D01*
X47007223Y-47754392D01*
X46999145Y-47742406D01*
X46991606Y-47730124D01*
X46984630Y-47717559D01*
X46978243Y-47704725D01*
X46972457Y-47690793D01*
X46967277Y-47675560D01*
X46962712Y-47659177D01*
X46958774Y-47641798D01*
X46955473Y-47623575D01*
X46952818Y-47604662D01*
X46950821Y-47585212D01*
X46949492Y-47565377D01*
X46948905Y-47547309D01*
X47139460Y-47547309D01*
X47140015Y-47557964D01*
X47141272Y-47568530D01*
X47143206Y-47578977D01*
X47145790Y-47589279D01*
X47149002Y-47599407D01*
X47152814Y-47609333D01*
X47157203Y-47619030D01*
X47162142Y-47628470D01*
X47167608Y-47637624D01*
X47173575Y-47646466D01*
X47180018Y-47654966D01*
X47186911Y-47663097D01*
X47194231Y-47670832D01*
X47201951Y-47678141D01*
X47210047Y-47684998D01*
X47218493Y-47691374D01*
X47227265Y-47697242D01*
X47236338Y-47702574D01*
X47245686Y-47707341D01*
X47255284Y-47711516D01*
X47265108Y-47715070D01*
X47275132Y-47717977D01*
X47285331Y-47720208D01*
X47295680Y-47721735D01*
X47306154Y-47722531D01*
X47316728Y-47722566D01*
X47327378Y-47721814D01*
X47338077Y-47720247D01*
X47344409Y-47718925D01*
X47350701Y-47717346D01*
X47356945Y-47715515D01*
X47363135Y-47713440D01*
X47375321Y-47708583D01*
X47387201Y-47702829D01*
X47398717Y-47696231D01*
X47409812Y-47688844D01*
X47420427Y-47680722D01*
X47430504Y-47671917D01*
X47439987Y-47662483D01*
X47448816Y-47652475D01*
X47456934Y-47641946D01*
X47464283Y-47630950D01*
X47470805Y-47619541D01*
X47476443Y-47607772D01*
X47478911Y-47601769D01*
X47481137Y-47595697D01*
X47483113Y-47589561D01*
X47484832Y-47583370D01*
X47486531Y-47576620D01*
X47487928Y-47569866D01*
X47489023Y-47563115D01*
X47489820Y-47556371D01*
X47490322Y-47549640D01*
X47490531Y-47542926D01*
X47490449Y-47536234D01*
X47490079Y-47529571D01*
X47489424Y-47522941D01*
X47488487Y-47516349D01*
X47487269Y-47509800D01*
X47485774Y-47503300D01*
X47484004Y-47496854D01*
X47481962Y-47490466D01*
X47479650Y-47484143D01*
X47477071Y-47477889D01*
X47474227Y-47471709D01*
X47471121Y-47465609D01*
X47467756Y-47459594D01*
X47464134Y-47453668D01*
X47460257Y-47447838D01*
X47456129Y-47442108D01*
X47451752Y-47436483D01*
X47447129Y-47430969D01*
X47442261Y-47425571D01*
X47437152Y-47420294D01*
X47431805Y-47415142D01*
X47426221Y-47410122D01*
X47420404Y-47405239D01*
X47414356Y-47400497D01*
X47408079Y-47395901D01*
X47401576Y-47391458D01*
X47391087Y-47384727D01*
X47380768Y-47378819D01*
X47370589Y-47373729D01*
X47360522Y-47369454D01*
X47350537Y-47365989D01*
X47340607Y-47363330D01*
X47330701Y-47361473D01*
X47320790Y-47360414D01*
X47310847Y-47360149D01*
X47300842Y-47360673D01*
X47290746Y-47361983D01*
X47280530Y-47364074D01*
X47270165Y-47366943D01*
X47259622Y-47370584D01*
X47248872Y-47374994D01*
X47237887Y-47380170D01*
X47228206Y-47385471D01*
X47219243Y-47390830D01*
X47210953Y-47396305D01*
X47203293Y-47401954D01*
X47196221Y-47407834D01*
X47189692Y-47414003D01*
X47183663Y-47420520D01*
X47178092Y-47427442D01*
X47172933Y-47434827D01*
X47168145Y-47442732D01*
X47163683Y-47451217D01*
X47159505Y-47460338D01*
X47155566Y-47470154D01*
X47151823Y-47480722D01*
X47148234Y-47492101D01*
X47144754Y-47504347D01*
X47142253Y-47515083D01*
X47140553Y-47525841D01*
X47139631Y-47536592D01*
X47139460Y-47547309D01*
X46948905Y-47547309D01*
X46948840Y-47545311D01*
X46948877Y-47525166D01*
X46949613Y-47505096D01*
X46951057Y-47485252D01*
X46953221Y-47465790D01*
X46956114Y-47446860D01*
X46959748Y-47428617D01*
X46964132Y-47411213D01*
X46968309Y-47397661D01*
X46973406Y-47384273D01*
X46979385Y-47371071D01*
X46986205Y-47358079D01*
X46993829Y-47345319D01*
X47002216Y-47332815D01*
X47011329Y-47320590D01*
X47021128Y-47308666D01*
X47042627Y-47285814D01*
X47066402Y-47264444D01*
X47092140Y-47244741D01*
X47119530Y-47226887D01*
X47148260Y-47211068D01*
X47178017Y-47197466D01*
X47208489Y-47186267D01*
X47239365Y-47177653D01*
X47270331Y-47171809D01*
X47285751Y-47169983D01*
X47301076Y-47168919D01*
X47316268Y-47168639D01*
X47331288Y-47169167D01*
X47346096Y-47170525D01*
X47360654Y-47172736D01*
X47424154Y-47185435D01*
X47503177Y-47092302D01*
X47538388Y-47051843D01*
X47575319Y-47009929D01*
X47635821Y-46941314D01*
X47665101Y-46909519D01*
X47704965Y-46864761D01*
X47750121Y-46813123D01*
X47795276Y-46760691D01*
X47839704Y-46707929D01*
X47882942Y-46657151D01*
X47920094Y-46614046D01*
X47946266Y-46584302D01*
X47991421Y-46533503D01*
X47992832Y-46146858D01*
X47992950Y-46021542D01*
X47993157Y-45970401D01*
X47993515Y-45926173D01*
X47994063Y-45888288D01*
X47994421Y-45871545D01*
X47994841Y-45856172D01*
X47995328Y-45842098D01*
X47995887Y-45829252D01*
X47996523Y-45817562D01*
X47997242Y-45806957D01*
X47998047Y-45797364D01*
X47998943Y-45788712D01*
X47999936Y-45780931D01*
X48001031Y-45773947D01*
X48002233Y-45767690D01*
X48003545Y-45762088D01*
X48004974Y-45757069D01*
X48006524Y-45752563D01*
X48008200Y-45748496D01*
X48010008Y-45744799D01*
X48011951Y-45741398D01*
X48014035Y-45738223D01*
X48016264Y-45735202D01*
X48018645Y-45732263D01*
X48023877Y-45726347D01*
X48027517Y-45722626D01*
X48031290Y-45719137D01*
X48035185Y-45715880D01*
X48039195Y-45712853D01*
X48043310Y-45710059D01*
X48047522Y-45707496D01*
X48051821Y-45705164D01*
X48056200Y-45703064D01*
X48060649Y-45701195D01*
X48065159Y-45699558D01*
X48069722Y-45698153D01*
X48074329Y-45696978D01*
X48078971Y-45696036D01*
X48083640Y-45695325D01*
X48088326Y-45694845D01*
X48093021Y-45694597D01*
X48097716Y-45694581D01*
X48102402Y-45694796D01*
G37*
G36*
X47575872Y-45653711D02*
G01*
X47579582Y-45654151D01*
X47583278Y-45654818D01*
X47586964Y-45655712D01*
X47590642Y-45656831D01*
X47594317Y-45658177D01*
X47597991Y-45659749D01*
X47601667Y-45661546D01*
X47605350Y-45663569D01*
X47609043Y-45665816D01*
X47612748Y-45668289D01*
X47616470Y-45670986D01*
X47620212Y-45673907D01*
X47623976Y-45677052D01*
X47631587Y-45684014D01*
X47636354Y-45688961D01*
X47640619Y-45693828D01*
X47644408Y-45698732D01*
X47647749Y-45703791D01*
X47650668Y-45709123D01*
X47653193Y-45714846D01*
X47655349Y-45721077D01*
X47657164Y-45727934D01*
X47658665Y-45735536D01*
X47659879Y-45744000D01*
X47660832Y-45753443D01*
X47661552Y-45763984D01*
X47662065Y-45775740D01*
X47662398Y-45788830D01*
X47662632Y-45819481D01*
X47662329Y-45835558D01*
X47661927Y-45850004D01*
X47661392Y-45862941D01*
X47660692Y-45874492D01*
X47660270Y-45879785D01*
X47659793Y-45884777D01*
X47659259Y-45889483D01*
X47658663Y-45893919D01*
X47658001Y-45898100D01*
X47657269Y-45902040D01*
X47656462Y-45905756D01*
X47655577Y-45909262D01*
X47654609Y-45912574D01*
X47653554Y-45915707D01*
X47652408Y-45918676D01*
X47651167Y-45921497D01*
X47649827Y-45924184D01*
X47648383Y-45926753D01*
X47646832Y-45929219D01*
X47645170Y-45931598D01*
X47643391Y-45933904D01*
X47641493Y-45936153D01*
X47639471Y-45938360D01*
X47637320Y-45940541D01*
X47635038Y-45942710D01*
X47632619Y-45944883D01*
X47627354Y-45949302D01*
X47619201Y-45955487D01*
X47615158Y-45958257D01*
X47611138Y-45960812D01*
X47607138Y-45963152D01*
X47603157Y-45965277D01*
X47599196Y-45967187D01*
X47595252Y-45968882D01*
X47591324Y-45970362D01*
X47587412Y-45971627D01*
X47583514Y-45972677D01*
X47579630Y-45973512D01*
X47575758Y-45974132D01*
X47571898Y-45974537D01*
X47568048Y-45974727D01*
X47564207Y-45974702D01*
X47560375Y-45974463D01*
X47556549Y-45974008D01*
X47552730Y-45973338D01*
X47548917Y-45972454D01*
X47545107Y-45971354D01*
X47541300Y-45970039D01*
X47537495Y-45968510D01*
X47533692Y-45966765D01*
X47529888Y-45964805D01*
X47526084Y-45962631D01*
X47522277Y-45960241D01*
X47518467Y-45957637D01*
X47514653Y-45954817D01*
X47510834Y-45951783D01*
X47503177Y-45945069D01*
X47498161Y-45940138D01*
X47493679Y-45935318D01*
X47489702Y-45930490D01*
X47486199Y-45925534D01*
X47483143Y-45920330D01*
X47480505Y-45914758D01*
X47478255Y-45908698D01*
X47476365Y-45902030D01*
X47474806Y-45894635D01*
X47473549Y-45886392D01*
X47472564Y-45877182D01*
X47471823Y-45866885D01*
X47471297Y-45855381D01*
X47470958Y-45842549D01*
X47470721Y-45812425D01*
X47470761Y-45795898D01*
X47470908Y-45781147D01*
X47471204Y-45768028D01*
X47471691Y-45756400D01*
X47472018Y-45751100D01*
X47472409Y-45746119D01*
X47472868Y-45741440D01*
X47473400Y-45737044D01*
X47474010Y-45732913D01*
X47474705Y-45729031D01*
X47475488Y-45725378D01*
X47476365Y-45721937D01*
X47477342Y-45718691D01*
X47478423Y-45715622D01*
X47479613Y-45712710D01*
X47480918Y-45709940D01*
X47482344Y-45707293D01*
X47483894Y-45704751D01*
X47485574Y-45702296D01*
X47487390Y-45699911D01*
X47489346Y-45697577D01*
X47491448Y-45695277D01*
X47493701Y-45692994D01*
X47496110Y-45690708D01*
X47498680Y-45688403D01*
X47501417Y-45686060D01*
X47507410Y-45681191D01*
X47516261Y-45674510D01*
X47520584Y-45671517D01*
X47524842Y-45668753D01*
X47529039Y-45666221D01*
X47533179Y-45663918D01*
X47537264Y-45661846D01*
X47541298Y-45660003D01*
X47545285Y-45658390D01*
X47549228Y-45657005D01*
X47553130Y-45655850D01*
X47556994Y-45654923D01*
X47560825Y-45654225D01*
X47564624Y-45653755D01*
X47568396Y-45653513D01*
X47572144Y-45653499D01*
X47575872Y-45653711D01*
G37*
G36*
X48518666Y-41233776D02*
G01*
X48523926Y-41234215D01*
X48529231Y-41234957D01*
X48534573Y-41236001D01*
X48539944Y-41237345D01*
X48545336Y-41238988D01*
X48550742Y-41240929D01*
X48556153Y-41243167D01*
X48561561Y-41245700D01*
X48566958Y-41248528D01*
X48572336Y-41251648D01*
X48577687Y-41255059D01*
X48583003Y-41258761D01*
X48588277Y-41262751D01*
X48593500Y-41267029D01*
X48598663Y-41271594D01*
X48603760Y-41276443D01*
X48608782Y-41281576D01*
X48613721Y-41286992D01*
X48628862Y-41304668D01*
X48642577Y-41321840D01*
X48654928Y-41338697D01*
X48665976Y-41355431D01*
X48675784Y-41372230D01*
X48684414Y-41389286D01*
X48691928Y-41406789D01*
X48698387Y-41424928D01*
X48703855Y-41443894D01*
X48708392Y-41463877D01*
X48712061Y-41485067D01*
X48714924Y-41507654D01*
X48717043Y-41531829D01*
X48718479Y-41557782D01*
X48719296Y-41585702D01*
X48719554Y-41615781D01*
X48719296Y-41645859D01*
X48718479Y-41673779D01*
X48717043Y-41699732D01*
X48714924Y-41723907D01*
X48712061Y-41746494D01*
X48708392Y-41767684D01*
X48703855Y-41787667D01*
X48698387Y-41806633D01*
X48691928Y-41824772D01*
X48684414Y-41842275D01*
X48675784Y-41859331D01*
X48665976Y-41876130D01*
X48654928Y-41892864D01*
X48642577Y-41909721D01*
X48628862Y-41926893D01*
X48613721Y-41944569D01*
X48606813Y-41952364D01*
X48600329Y-41959372D01*
X48594197Y-41965631D01*
X48588343Y-41971182D01*
X48582696Y-41976062D01*
X48577184Y-41980313D01*
X48571733Y-41983972D01*
X48566272Y-41987079D01*
X48563516Y-41988438D01*
X48560729Y-41989673D01*
X48555031Y-41991794D01*
X48549105Y-41993482D01*
X48542879Y-41994774D01*
X48536281Y-41995711D01*
X48529239Y-41996331D01*
X48521680Y-41996675D01*
X48513532Y-41996780D01*
X48505204Y-41996692D01*
X48497641Y-41996408D01*
X48490780Y-41995897D01*
X48487594Y-41995546D01*
X48484560Y-41995127D01*
X48481671Y-41994635D01*
X48478919Y-41994067D01*
X48476296Y-41993419D01*
X48473795Y-41992688D01*
X48471407Y-41991868D01*
X48469126Y-41990956D01*
X48466942Y-41989949D01*
X48464849Y-41988843D01*
X48462838Y-41987633D01*
X48460903Y-41986316D01*
X48459034Y-41984888D01*
X48457225Y-41983345D01*
X48455468Y-41981683D01*
X48453755Y-41979898D01*
X48452077Y-41977986D01*
X48450429Y-41975945D01*
X48448801Y-41973768D01*
X48447185Y-41971454D01*
X48443963Y-41966395D01*
X48440699Y-41960736D01*
X48437332Y-41954447D01*
X48432159Y-41944044D01*
X48427763Y-41934460D01*
X48424161Y-41925587D01*
X48422663Y-41921383D01*
X48421369Y-41917317D01*
X48420282Y-41913375D01*
X48419404Y-41909543D01*
X48418737Y-41905809D01*
X48418282Y-41902159D01*
X48418043Y-41898578D01*
X48418020Y-41895055D01*
X48418217Y-41891575D01*
X48418635Y-41888125D01*
X48419276Y-41884691D01*
X48420143Y-41881260D01*
X48421237Y-41877820D01*
X48422560Y-41874355D01*
X48424115Y-41870853D01*
X48425903Y-41867301D01*
X48427927Y-41863684D01*
X48430189Y-41859990D01*
X48435433Y-41852316D01*
X48441654Y-41844170D01*
X48448866Y-41835446D01*
X48457088Y-41826035D01*
X48466253Y-41815012D01*
X48475181Y-41802209D01*
X48483799Y-41787864D01*
X48492035Y-41772215D01*
X48499816Y-41755499D01*
X48507069Y-41737954D01*
X48513724Y-41719818D01*
X48519706Y-41701329D01*
X48524944Y-41682724D01*
X48529366Y-41664241D01*
X48532899Y-41646117D01*
X48535471Y-41628591D01*
X48537009Y-41611900D01*
X48537441Y-41596281D01*
X48536695Y-41581974D01*
X48534699Y-41569214D01*
X48532229Y-41558089D01*
X48529099Y-41546496D01*
X48525372Y-41534559D01*
X48521117Y-41522405D01*
X48516399Y-41510160D01*
X48511284Y-41497950D01*
X48505838Y-41485901D01*
X48500127Y-41474140D01*
X48494218Y-41462792D01*
X48488177Y-41451984D01*
X48482069Y-41441841D01*
X48475962Y-41432490D01*
X48469920Y-41424057D01*
X48464011Y-41416668D01*
X48458300Y-41410448D01*
X48452854Y-41405525D01*
X48450163Y-41402969D01*
X48447646Y-41400079D01*
X48445302Y-41396874D01*
X48443134Y-41393376D01*
X48441139Y-41389605D01*
X48439320Y-41385582D01*
X48436207Y-41376861D01*
X48433798Y-41367381D01*
X48432093Y-41357304D01*
X48431094Y-41346798D01*
X48430805Y-41336028D01*
X48431227Y-41325158D01*
X48432363Y-41314354D01*
X48434213Y-41303782D01*
X48436781Y-41293606D01*
X48440068Y-41283993D01*
X48441982Y-41279449D01*
X48444076Y-41275107D01*
X48446352Y-41270989D01*
X48448808Y-41267115D01*
X48451446Y-41263505D01*
X48454266Y-41260180D01*
X48458051Y-41256240D01*
X48461994Y-41252621D01*
X48466086Y-41249322D01*
X48470320Y-41246342D01*
X48474687Y-41243679D01*
X48479179Y-41241332D01*
X48483788Y-41239300D01*
X48488507Y-41237581D01*
X48493327Y-41236174D01*
X48498240Y-41235078D01*
X48503239Y-41234291D01*
X48508315Y-41233813D01*
X48513460Y-41233642D01*
X48518666Y-41233776D01*
G37*
G36*
X46672090Y-44637719D02*
G01*
X46681910Y-44638380D01*
X46692384Y-44639479D01*
X46702371Y-44641168D01*
X46711861Y-44643418D01*
X46720848Y-44646199D01*
X46729321Y-44649481D01*
X46737274Y-44653235D01*
X46744697Y-44657431D01*
X46751583Y-44662038D01*
X46757924Y-44667028D01*
X46763710Y-44672371D01*
X46768934Y-44678037D01*
X46773588Y-44683996D01*
X46777663Y-44690219D01*
X46781151Y-44696675D01*
X46784043Y-44703336D01*
X46786332Y-44710171D01*
X46788009Y-44717150D01*
X46789066Y-44724245D01*
X46789495Y-44731425D01*
X46789287Y-44738660D01*
X46788434Y-44745922D01*
X46786927Y-44753179D01*
X46784760Y-44760403D01*
X46781922Y-44767563D01*
X46778407Y-44774631D01*
X46774205Y-44781576D01*
X46769309Y-44788368D01*
X46763710Y-44794978D01*
X46757400Y-44801376D01*
X46750371Y-44807533D01*
X46742614Y-44813418D01*
X46734121Y-44819003D01*
X46687229Y-44857533D01*
X46589967Y-44944944D01*
X46288915Y-45224344D01*
X45920130Y-45573065D01*
X45572776Y-45906969D01*
X45318776Y-46155324D01*
X45323010Y-46241403D01*
X45323652Y-46260211D01*
X45323448Y-46278563D01*
X45322380Y-46296497D01*
X45320430Y-46314053D01*
X45317579Y-46331270D01*
X45313807Y-46348187D01*
X45309097Y-46364843D01*
X45303431Y-46381279D01*
X45296788Y-46397533D01*
X45289151Y-46413643D01*
X45280502Y-46429651D01*
X45270821Y-46445595D01*
X45260089Y-46461513D01*
X45248290Y-46477447D01*
X45235403Y-46493433D01*
X45221410Y-46509513D01*
X45199952Y-46531324D01*
X45177457Y-46550750D01*
X45154037Y-46567835D01*
X45129806Y-46582627D01*
X45104875Y-46595169D01*
X45079356Y-46605507D01*
X45053363Y-46613688D01*
X45027007Y-46619756D01*
X45000401Y-46623757D01*
X44973657Y-46625737D01*
X44946888Y-46625740D01*
X44920207Y-46623813D01*
X44893724Y-46620001D01*
X44867553Y-46614349D01*
X44841807Y-46606903D01*
X44816597Y-46597708D01*
X44792037Y-46586809D01*
X44768237Y-46574253D01*
X44745312Y-46560085D01*
X44723373Y-46544350D01*
X44702533Y-46527094D01*
X44682903Y-46508361D01*
X44664597Y-46488199D01*
X44647727Y-46466651D01*
X44632405Y-46443764D01*
X44618744Y-46419583D01*
X44606855Y-46394153D01*
X44596852Y-46367521D01*
X44588847Y-46339731D01*
X44582952Y-46310829D01*
X44579280Y-46280860D01*
X44577943Y-46249870D01*
X44577981Y-46247930D01*
X44774178Y-46247930D01*
X44774435Y-46259843D01*
X44775543Y-46271677D01*
X44777483Y-46283389D01*
X44780233Y-46294938D01*
X44783772Y-46306282D01*
X44788081Y-46317378D01*
X44793137Y-46328186D01*
X44798922Y-46338663D01*
X44805413Y-46348768D01*
X44812590Y-46358458D01*
X44820434Y-46367692D01*
X44828922Y-46376427D01*
X44838034Y-46384623D01*
X44847750Y-46392237D01*
X44858049Y-46399227D01*
X44868910Y-46405551D01*
X44880312Y-46411168D01*
X44892236Y-46416036D01*
X44904659Y-46420112D01*
X44917563Y-46423356D01*
X44930925Y-46425725D01*
X44944725Y-46427176D01*
X44958943Y-46427670D01*
X44976006Y-46426918D01*
X44992259Y-46424719D01*
X45007688Y-46421151D01*
X45022275Y-46416298D01*
X45036005Y-46410240D01*
X45048863Y-46403057D01*
X45060833Y-46394832D01*
X45071898Y-46385645D01*
X45082044Y-46375577D01*
X45091254Y-46364710D01*
X45099512Y-46353125D01*
X45106804Y-46340903D01*
X45113112Y-46328124D01*
X45118422Y-46314871D01*
X45122718Y-46301224D01*
X45125983Y-46287264D01*
X45128203Y-46273073D01*
X45129361Y-46258731D01*
X45129441Y-46244320D01*
X45128428Y-46229921D01*
X45126306Y-46215615D01*
X45123060Y-46201483D01*
X45118672Y-46187607D01*
X45113129Y-46174066D01*
X45106414Y-46160944D01*
X45098510Y-46148320D01*
X45089404Y-46136276D01*
X45079078Y-46124893D01*
X45067517Y-46114252D01*
X45054705Y-46104434D01*
X45040626Y-46095520D01*
X45025265Y-46087592D01*
X45013141Y-46082449D01*
X45001298Y-46077670D01*
X44990018Y-46073354D01*
X44979580Y-46069600D01*
X44970268Y-46066507D01*
X44966121Y-46065240D01*
X44962361Y-46064176D01*
X44959022Y-46063326D01*
X44956140Y-46062704D01*
X44953750Y-46062321D01*
X44951888Y-46062191D01*
X44948487Y-46062310D01*
X44944908Y-46062661D01*
X44937264Y-46064029D01*
X44929049Y-46066237D01*
X44920358Y-46069225D01*
X44911287Y-46072931D01*
X44901931Y-46077297D01*
X44892384Y-46082263D01*
X44882743Y-46087768D01*
X44873102Y-46093752D01*
X44863555Y-46100156D01*
X44854199Y-46106920D01*
X44845128Y-46113984D01*
X44836438Y-46121287D01*
X44828222Y-46128770D01*
X44820578Y-46136373D01*
X44813599Y-46144036D01*
X44805261Y-46154782D01*
X44797961Y-46165825D01*
X44791678Y-46177123D01*
X44786391Y-46188635D01*
X44782079Y-46200318D01*
X44778723Y-46212131D01*
X44776301Y-46224032D01*
X44774793Y-46235979D01*
X44774178Y-46247930D01*
X44577981Y-46247930D01*
X44578243Y-46234584D01*
X44579138Y-46219428D01*
X44580617Y-46204414D01*
X44582672Y-46189556D01*
X44585294Y-46174867D01*
X44588473Y-46160362D01*
X44592199Y-46146053D01*
X44596464Y-46131954D01*
X44601258Y-46118077D01*
X44606572Y-46104438D01*
X44612396Y-46091049D01*
X44618722Y-46077923D01*
X44625540Y-46065075D01*
X44632840Y-46052516D01*
X44640614Y-46040262D01*
X44648851Y-46028325D01*
X44657544Y-46016718D01*
X44666682Y-46005456D01*
X44676256Y-45994552D01*
X44686257Y-45984018D01*
X44696675Y-45973869D01*
X44707502Y-45964118D01*
X44718728Y-45954778D01*
X44730343Y-45945863D01*
X44742339Y-45937386D01*
X44754706Y-45929361D01*
X44767434Y-45921801D01*
X44780515Y-45914719D01*
X44793939Y-45908130D01*
X44807697Y-45902046D01*
X44821779Y-45896480D01*
X44836177Y-45891447D01*
X44854033Y-45886434D01*
X44872603Y-45882495D01*
X44891773Y-45879615D01*
X44911428Y-45877777D01*
X44931456Y-45876964D01*
X44951741Y-45877160D01*
X44972172Y-45878347D01*
X44992633Y-45880511D01*
X45013012Y-45883634D01*
X45033194Y-45887699D01*
X45053067Y-45892690D01*
X45072515Y-45898591D01*
X45091427Y-45905385D01*
X45109687Y-45913055D01*
X45127182Y-45921585D01*
X45143799Y-45930958D01*
X45217177Y-45977524D01*
X45437310Y-45761625D01*
X45595156Y-45607858D01*
X45744403Y-45463880D01*
X45925664Y-45291328D01*
X46179554Y-45051836D01*
X46528099Y-44723046D01*
X46557974Y-44695331D01*
X46570589Y-44683954D01*
X46581897Y-44674099D01*
X46592081Y-44665665D01*
X46601322Y-44658555D01*
X46605646Y-44655464D01*
X46609803Y-44652668D01*
X46613814Y-44650152D01*
X46617704Y-44647905D01*
X46621495Y-44645915D01*
X46625209Y-44644168D01*
X46628869Y-44642653D01*
X46632499Y-44641357D01*
X46636120Y-44640268D01*
X46639756Y-44639372D01*
X46643428Y-44638659D01*
X46647161Y-44638116D01*
X46650977Y-44637729D01*
X46654897Y-44637487D01*
X46663146Y-44637388D01*
X46672090Y-44637719D01*
G37*
G36*
X49464133Y-45176125D02*
G01*
X49481979Y-45183880D01*
X49503835Y-45197480D01*
X49530591Y-45217642D01*
X49563134Y-45245079D01*
X49602353Y-45280508D01*
X49704378Y-45378200D01*
X49843774Y-45516439D01*
X50027654Y-45700947D01*
X50555410Y-46231525D01*
X50606210Y-46208947D01*
X50620259Y-46203771D01*
X50635328Y-46199350D01*
X50651277Y-46195683D01*
X50667968Y-46192763D01*
X50685263Y-46190588D01*
X50703022Y-46189153D01*
X50721109Y-46188454D01*
X50739383Y-46188486D01*
X50757707Y-46189246D01*
X50775943Y-46190729D01*
X50793950Y-46192932D01*
X50811592Y-46195850D01*
X50828730Y-46199480D01*
X50845225Y-46203816D01*
X50860938Y-46208855D01*
X50875732Y-46214592D01*
X50902219Y-46226922D01*
X50927163Y-46240607D01*
X50950540Y-46255610D01*
X50972327Y-46271896D01*
X50992502Y-46289431D01*
X51011042Y-46308180D01*
X51027924Y-46328107D01*
X51043125Y-46349176D01*
X51056623Y-46371354D01*
X51068396Y-46394605D01*
X51078419Y-46418893D01*
X51086671Y-46444184D01*
X51093129Y-46470442D01*
X51097770Y-46497632D01*
X51100571Y-46525720D01*
X51101510Y-46554669D01*
X51101082Y-46575230D01*
X51099809Y-46595362D01*
X51097703Y-46615052D01*
X51094779Y-46634284D01*
X51091052Y-46653044D01*
X51086534Y-46671316D01*
X51081240Y-46689087D01*
X51075184Y-46706342D01*
X51068379Y-46723065D01*
X51060840Y-46739242D01*
X51052581Y-46754858D01*
X51043616Y-46769900D01*
X51033958Y-46784351D01*
X51023621Y-46798197D01*
X51012620Y-46811423D01*
X51000968Y-46824015D01*
X50988680Y-46835958D01*
X50975769Y-46847238D01*
X50962249Y-46857839D01*
X50948134Y-46867746D01*
X50933439Y-46876946D01*
X50918176Y-46885423D01*
X50902361Y-46893162D01*
X50886007Y-46900149D01*
X50869127Y-46906370D01*
X50851737Y-46911809D01*
X50833849Y-46916451D01*
X50815479Y-46920283D01*
X50796639Y-46923288D01*
X50777343Y-46925454D01*
X50757607Y-46926763D01*
X50737443Y-46927203D01*
X50716855Y-46926700D01*
X50697359Y-46925693D01*
X50678854Y-46924140D01*
X50661243Y-46921999D01*
X50644426Y-46919231D01*
X50628302Y-46915793D01*
X50612775Y-46911643D01*
X50597743Y-46906742D01*
X50583108Y-46901046D01*
X50568771Y-46894516D01*
X50554633Y-46887109D01*
X50540593Y-46878784D01*
X50526554Y-46869500D01*
X50512415Y-46859216D01*
X50498078Y-46847890D01*
X50483443Y-46835481D01*
X50464102Y-46816886D01*
X50446324Y-46796659D01*
X50430150Y-46774951D01*
X50415622Y-46751916D01*
X50402780Y-46727707D01*
X50391666Y-46702478D01*
X50382322Y-46676379D01*
X50374788Y-46649566D01*
X50369106Y-46622191D01*
X50365318Y-46594406D01*
X50363464Y-46566365D01*
X50363515Y-46554766D01*
X50553366Y-46554766D01*
X50553533Y-46564814D01*
X50554368Y-46574930D01*
X50555889Y-46585091D01*
X50558112Y-46595278D01*
X50561054Y-46605469D01*
X50563458Y-46611933D01*
X50566165Y-46618354D01*
X50572434Y-46631021D01*
X50579766Y-46643386D01*
X50588064Y-46655365D01*
X50597229Y-46666873D01*
X50607166Y-46677825D01*
X50617777Y-46688135D01*
X50628964Y-46697721D01*
X50640631Y-46706496D01*
X50652680Y-46714376D01*
X50665014Y-46721276D01*
X50677537Y-46727112D01*
X50690150Y-46731798D01*
X50696461Y-46733684D01*
X50702758Y-46735250D01*
X50709029Y-46736487D01*
X50715262Y-46737384D01*
X50721444Y-46737930D01*
X50727565Y-46738114D01*
X50737943Y-46737815D01*
X50748166Y-46736931D01*
X50758217Y-46735480D01*
X50768082Y-46733481D01*
X50777746Y-46730951D01*
X50787193Y-46727910D01*
X50796407Y-46724375D01*
X50805375Y-46720365D01*
X50814080Y-46715898D01*
X50822507Y-46710992D01*
X50830641Y-46705667D01*
X50838467Y-46699939D01*
X50845970Y-46693828D01*
X50853133Y-46687353D01*
X50859943Y-46680530D01*
X50866384Y-46673379D01*
X50872440Y-46665918D01*
X50878096Y-46658165D01*
X50883337Y-46650139D01*
X50888148Y-46641857D01*
X50892514Y-46633339D01*
X50896419Y-46624603D01*
X50899848Y-46615667D01*
X50902786Y-46606549D01*
X50905217Y-46597268D01*
X50907127Y-46587842D01*
X50908500Y-46578289D01*
X50909320Y-46568628D01*
X50909574Y-46558877D01*
X50909244Y-46549055D01*
X50908317Y-46539179D01*
X50906776Y-46529269D01*
X50905507Y-46523586D01*
X50903830Y-46517677D01*
X50901769Y-46511577D01*
X50899346Y-46505324D01*
X50896584Y-46498955D01*
X50893506Y-46492508D01*
X50890135Y-46486020D01*
X50886492Y-46479527D01*
X50882601Y-46473068D01*
X50878486Y-46466678D01*
X50874167Y-46460397D01*
X50869669Y-46454260D01*
X50865013Y-46448304D01*
X50860224Y-46442568D01*
X50855322Y-46437089D01*
X50850332Y-46431902D01*
X50843406Y-46425101D01*
X50836863Y-46418963D01*
X50830621Y-46413457D01*
X50824601Y-46408553D01*
X50818721Y-46404219D01*
X50812902Y-46400425D01*
X50807061Y-46397140D01*
X50801119Y-46394332D01*
X50794996Y-46391970D01*
X50788610Y-46390024D01*
X50781880Y-46388463D01*
X50774727Y-46387254D01*
X50767070Y-46386369D01*
X50758827Y-46385774D01*
X50749919Y-46385441D01*
X50740265Y-46385336D01*
X50728726Y-46385659D01*
X50717401Y-46386615D01*
X50706309Y-46388181D01*
X50695465Y-46390339D01*
X50684887Y-46393065D01*
X50674592Y-46396340D01*
X50664596Y-46400143D01*
X50654915Y-46404452D01*
X50645568Y-46409248D01*
X50636570Y-46414508D01*
X50627938Y-46420211D01*
X50619690Y-46426338D01*
X50611841Y-46432867D01*
X50604410Y-46439777D01*
X50597412Y-46447048D01*
X50590864Y-46454657D01*
X50584783Y-46462585D01*
X50579187Y-46470810D01*
X50574091Y-46479312D01*
X50569513Y-46488069D01*
X50565469Y-46497061D01*
X50561976Y-46506266D01*
X50559051Y-46515664D01*
X50556711Y-46525235D01*
X50554972Y-46534955D01*
X50553852Y-46544806D01*
X50553366Y-46554766D01*
X50363515Y-46554766D01*
X50363587Y-46538221D01*
X50365727Y-46510126D01*
X50369926Y-46482234D01*
X50376225Y-46454698D01*
X50384665Y-46427670D01*
X50388752Y-46415273D01*
X50392492Y-46403636D01*
X50395802Y-46392992D01*
X50398600Y-46383572D01*
X50400802Y-46375607D01*
X50401654Y-46372243D01*
X50402326Y-46369329D01*
X50402808Y-46366895D01*
X50403090Y-46364969D01*
X50403160Y-46363581D01*
X50403113Y-46363097D01*
X50403009Y-46362759D01*
X50095387Y-46050903D01*
X49851400Y-45803558D01*
X49752770Y-45703379D01*
X49668284Y-45617317D01*
X49631010Y-45579216D01*
X49596870Y-45544210D01*
X49565730Y-45512153D01*
X49537456Y-45482900D01*
X49511913Y-45456306D01*
X49488968Y-45432227D01*
X49468486Y-45410517D01*
X49450334Y-45391032D01*
X49434376Y-45373626D01*
X49420480Y-45358154D01*
X49408511Y-45344472D01*
X49398335Y-45332435D01*
X49393877Y-45326988D01*
X49389817Y-45321897D01*
X49386139Y-45317145D01*
X49382825Y-45312714D01*
X49379858Y-45308585D01*
X49377222Y-45304741D01*
X49374901Y-45301163D01*
X49372877Y-45297832D01*
X49371133Y-45294732D01*
X49369654Y-45291844D01*
X49368421Y-45289149D01*
X49367419Y-45286630D01*
X49366630Y-45284268D01*
X49366038Y-45282046D01*
X49365626Y-45279945D01*
X49365377Y-45277947D01*
X49365275Y-45276034D01*
X49365303Y-45274189D01*
X49365444Y-45272391D01*
X49365680Y-45270625D01*
X49366376Y-45267111D01*
X49367254Y-45263503D01*
X49368426Y-45259704D01*
X49369815Y-45255739D01*
X49371406Y-45251637D01*
X49373185Y-45247429D01*
X49375138Y-45243147D01*
X49377251Y-45238822D01*
X49379507Y-45234484D01*
X49381895Y-45230165D01*
X49384397Y-45225896D01*
X49387002Y-45221707D01*
X49389693Y-45217630D01*
X49392456Y-45213695D01*
X49395277Y-45209934D01*
X49398142Y-45206378D01*
X49401035Y-45203057D01*
X49403943Y-45200003D01*
X49415072Y-45189258D01*
X49425766Y-45180782D01*
X49436915Y-45175291D01*
X49449408Y-45173500D01*
X49464133Y-45176125D01*
G37*
G36*
X51215769Y-42815186D02*
G01*
X51221182Y-42815448D01*
X51226520Y-42815960D01*
X51231778Y-42816723D01*
X51236955Y-42817738D01*
X51242047Y-42819005D01*
X51247051Y-42820525D01*
X51251965Y-42822298D01*
X51256785Y-42824325D01*
X51261509Y-42826606D01*
X51266135Y-42829142D01*
X51270658Y-42831933D01*
X51275077Y-42834980D01*
X51283530Y-42843799D01*
X51287011Y-42850557D01*
X51290048Y-42860027D01*
X51294945Y-42890542D01*
X51298536Y-42942224D01*
X51301135Y-43021952D01*
X51303056Y-43136605D01*
X51306121Y-43498202D01*
X51310354Y-44141669D01*
X51275077Y-44176947D01*
X51266839Y-44184652D01*
X51258519Y-44191361D01*
X51254322Y-44194341D01*
X51250099Y-44197070D01*
X51245846Y-44199548D01*
X51241563Y-44201774D01*
X51237247Y-44203748D01*
X51232895Y-44205469D01*
X51228506Y-44206937D01*
X51224078Y-44208151D01*
X51219609Y-44209111D01*
X51215096Y-44209817D01*
X51210538Y-44210267D01*
X51205932Y-44210461D01*
X51201277Y-44210399D01*
X51196570Y-44210080D01*
X51191809Y-44209504D01*
X51186993Y-44208669D01*
X51182118Y-44207577D01*
X51177184Y-44206226D01*
X51172187Y-44204615D01*
X51167127Y-44202744D01*
X51156805Y-44198220D01*
X51146203Y-44192651D01*
X51135302Y-44186032D01*
X51124088Y-44178358D01*
X51024781Y-44110448D01*
X50854565Y-43994913D01*
X50633022Y-43845336D01*
X50448165Y-43845336D01*
X50398328Y-43845084D01*
X50354403Y-43844044D01*
X50316018Y-43841792D01*
X50282800Y-43837906D01*
X50268013Y-43835217D01*
X50254378Y-43831960D01*
X50241850Y-43828083D01*
X50230380Y-43823533D01*
X50219923Y-43818255D01*
X50210433Y-43812199D01*
X50201862Y-43805309D01*
X50194165Y-43797535D01*
X50187295Y-43788821D01*
X50181205Y-43779117D01*
X50175849Y-43768368D01*
X50171180Y-43756521D01*
X50167151Y-43743525D01*
X50163718Y-43729325D01*
X50160831Y-43713868D01*
X50158447Y-43697103D01*
X50154995Y-43659433D01*
X50152990Y-43615890D01*
X50152059Y-43566051D01*
X50151832Y-43509492D01*
X50151836Y-43508080D01*
X50349388Y-43508080D01*
X50349440Y-43529201D01*
X50349611Y-43548195D01*
X50349918Y-43565184D01*
X50350380Y-43580290D01*
X50350675Y-43587174D01*
X50351015Y-43593634D01*
X50351404Y-43599684D01*
X50351843Y-43605339D01*
X50352335Y-43610616D01*
X50352882Y-43615528D01*
X50353486Y-43620091D01*
X50354150Y-43624321D01*
X50354876Y-43628232D01*
X50355666Y-43631840D01*
X50356523Y-43635161D01*
X50357449Y-43638208D01*
X50358446Y-43640999D01*
X50359517Y-43643547D01*
X50360664Y-43645869D01*
X50361889Y-43647979D01*
X50363195Y-43649892D01*
X50364583Y-43651625D01*
X50366057Y-43653191D01*
X50367619Y-43654607D01*
X50369270Y-43655888D01*
X50371014Y-43657048D01*
X50372852Y-43658103D01*
X50374787Y-43659069D01*
X50383825Y-43663530D01*
X50391919Y-43666773D01*
X50399121Y-43668672D01*
X50402402Y-43669078D01*
X50405479Y-43669101D01*
X50408358Y-43668726D01*
X50411044Y-43667935D01*
X50413544Y-43666714D01*
X50415864Y-43665047D01*
X50418011Y-43662918D01*
X50419990Y-43660311D01*
X50421808Y-43657211D01*
X50423471Y-43653601D01*
X50426357Y-43644791D01*
X50428696Y-43633755D01*
X50430540Y-43620366D01*
X50431938Y-43604499D01*
X50432938Y-43586027D01*
X50433591Y-43564825D01*
X50434054Y-43513725D01*
X50434002Y-43492309D01*
X50433837Y-43472968D01*
X50433543Y-43455595D01*
X50433106Y-43440082D01*
X50432513Y-43426323D01*
X50432152Y-43420067D01*
X50431747Y-43414208D01*
X50431296Y-43408735D01*
X50430796Y-43403632D01*
X50430246Y-43398887D01*
X50429645Y-43394486D01*
X50428989Y-43390416D01*
X50428278Y-43386663D01*
X50427509Y-43383214D01*
X50426682Y-43380055D01*
X50425793Y-43377173D01*
X50424842Y-43374555D01*
X50423826Y-43372187D01*
X50422743Y-43370056D01*
X50421593Y-43368148D01*
X50420372Y-43366449D01*
X50419080Y-43364947D01*
X50417714Y-43363629D01*
X50416272Y-43362479D01*
X50414753Y-43361486D01*
X50413156Y-43360635D01*
X50411477Y-43359913D01*
X50401478Y-43356120D01*
X50392603Y-43353315D01*
X50384787Y-43351660D01*
X50377963Y-43351314D01*
X50374902Y-43351684D01*
X50372065Y-43352441D01*
X50369442Y-43353607D01*
X50367027Y-43355200D01*
X50364809Y-43357243D01*
X50362782Y-43359754D01*
X50360937Y-43362754D01*
X50359265Y-43366263D01*
X50356410Y-43374889D01*
X50354150Y-43385793D01*
X50352419Y-43399136D01*
X50351151Y-43415079D01*
X50350281Y-43433784D01*
X50349740Y-43455412D01*
X50349388Y-43508080D01*
X50151836Y-43508080D01*
X50152011Y-43443933D01*
X50152288Y-43416694D01*
X50152736Y-43392744D01*
X50153391Y-43371779D01*
X50154288Y-43353495D01*
X50155461Y-43337588D01*
X50156163Y-43330431D01*
X50156947Y-43323754D01*
X50157818Y-43317520D01*
X50158780Y-43311690D01*
X50159838Y-43306226D01*
X50160996Y-43301091D01*
X50162258Y-43296246D01*
X50163629Y-43291653D01*
X50165113Y-43287276D01*
X50166715Y-43283074D01*
X50168438Y-43279011D01*
X50170288Y-43275049D01*
X50172269Y-43271149D01*
X50174385Y-43267273D01*
X50179040Y-43259444D01*
X50184287Y-43251258D01*
X50192687Y-43239409D01*
X50201607Y-43228700D01*
X50211238Y-43219077D01*
X50221770Y-43210490D01*
X50233394Y-43202887D01*
X50246299Y-43196217D01*
X50260676Y-43190426D01*
X50276715Y-43185465D01*
X50294606Y-43181281D01*
X50314539Y-43177822D01*
X50336705Y-43175038D01*
X50361294Y-43172875D01*
X50388495Y-43171283D01*
X50418499Y-43170210D01*
X50487676Y-43169413D01*
X50659832Y-43168003D01*
X50847510Y-43038180D01*
X50924415Y-42984624D01*
X50997088Y-42933582D01*
X51057060Y-42890741D01*
X51079638Y-42874174D01*
X51095866Y-42861791D01*
X51108529Y-42852747D01*
X51121103Y-42844665D01*
X51133566Y-42837551D01*
X51145894Y-42831409D01*
X51158065Y-42826242D01*
X51170057Y-42822054D01*
X51175978Y-42820330D01*
X51181845Y-42818851D01*
X51187657Y-42817620D01*
X51193409Y-42816636D01*
X51199099Y-42815900D01*
X51204724Y-42815413D01*
X51210282Y-42815175D01*
X51215769Y-42815186D01*
G37*
G36*
X51576562Y-43068165D02*
G01*
X51581518Y-43068667D01*
X51586504Y-43069432D01*
X51591518Y-43070459D01*
X51596557Y-43071747D01*
X51601618Y-43073294D01*
X51606697Y-43075098D01*
X51611792Y-43077160D01*
X51616899Y-43079476D01*
X51622015Y-43082046D01*
X51632264Y-43087944D01*
X51642512Y-43094842D01*
X51652736Y-43102731D01*
X51662910Y-43111599D01*
X51673009Y-43121436D01*
X51687400Y-43137652D01*
X51700937Y-43154527D01*
X51713619Y-43172023D01*
X51725444Y-43190104D01*
X51736410Y-43208734D01*
X51746515Y-43227876D01*
X51764136Y-43267552D01*
X51778293Y-43308841D01*
X51788971Y-43351450D01*
X51796156Y-43395089D01*
X51799833Y-43439465D01*
X51799988Y-43484288D01*
X51796606Y-43529266D01*
X51789673Y-43574108D01*
X51779174Y-43618522D01*
X51765095Y-43662216D01*
X51747421Y-43704900D01*
X51726138Y-43746282D01*
X51714139Y-43766393D01*
X51701232Y-43786069D01*
X51690553Y-43800801D01*
X51679696Y-43814297D01*
X51668682Y-43826544D01*
X51657531Y-43837531D01*
X51651912Y-43842547D01*
X51646265Y-43847244D01*
X51640595Y-43851619D01*
X51634904Y-43855671D01*
X51629194Y-43859399D01*
X51623468Y-43862801D01*
X51617729Y-43865875D01*
X51611979Y-43868619D01*
X51606221Y-43871034D01*
X51600457Y-43873115D01*
X51594690Y-43874863D01*
X51588922Y-43876276D01*
X51583156Y-43877352D01*
X51577395Y-43878089D01*
X51571642Y-43878486D01*
X51565898Y-43878541D01*
X51560166Y-43878254D01*
X51554450Y-43877622D01*
X51548751Y-43876643D01*
X51543072Y-43875317D01*
X51537416Y-43873641D01*
X51531785Y-43871615D01*
X51526182Y-43869236D01*
X51520610Y-43866503D01*
X51514321Y-43863135D01*
X51508662Y-43859872D01*
X51503603Y-43856649D01*
X51499112Y-43853406D01*
X51495159Y-43850080D01*
X51493375Y-43848367D01*
X51491713Y-43846609D01*
X51490169Y-43844800D01*
X51488741Y-43842932D01*
X51487424Y-43840996D01*
X51486214Y-43838986D01*
X51485108Y-43836893D01*
X51484101Y-43834709D01*
X51483189Y-43832427D01*
X51482370Y-43830039D01*
X51480990Y-43824915D01*
X51479930Y-43819274D01*
X51479160Y-43813054D01*
X51478649Y-43806194D01*
X51478365Y-43798630D01*
X51478277Y-43790302D01*
X51478392Y-43783554D01*
X51478740Y-43777065D01*
X51479319Y-43770828D01*
X51480129Y-43764836D01*
X51481171Y-43759085D01*
X51482444Y-43753567D01*
X51483949Y-43748276D01*
X51485685Y-43743207D01*
X51487653Y-43738352D01*
X51489852Y-43733707D01*
X51492283Y-43729263D01*
X51494946Y-43725017D01*
X51497840Y-43720960D01*
X51500965Y-43717087D01*
X51504322Y-43713392D01*
X51507911Y-43709869D01*
X51517018Y-43700900D01*
X51525803Y-43690968D01*
X51534240Y-43680134D01*
X51542306Y-43668462D01*
X51549975Y-43656012D01*
X51557222Y-43642847D01*
X51564022Y-43629029D01*
X51570351Y-43614619D01*
X51576185Y-43599681D01*
X51581497Y-43584275D01*
X51586263Y-43568464D01*
X51590460Y-43552310D01*
X51594060Y-43535875D01*
X51597041Y-43519221D01*
X51599377Y-43502409D01*
X51601043Y-43485503D01*
X51602062Y-43467724D01*
X51602449Y-43450829D01*
X51602165Y-43434706D01*
X51601175Y-43419247D01*
X51599441Y-43404341D01*
X51596926Y-43389881D01*
X51593591Y-43375755D01*
X51589402Y-43361854D01*
X51584319Y-43348069D01*
X51578306Y-43334291D01*
X51571325Y-43320409D01*
X51563340Y-43306314D01*
X51554313Y-43291896D01*
X51544207Y-43277047D01*
X51532985Y-43261656D01*
X51520610Y-43245614D01*
X51514322Y-43237435D01*
X51508673Y-43229794D01*
X51503640Y-43222632D01*
X51499201Y-43215892D01*
X51495332Y-43209516D01*
X51492010Y-43203446D01*
X51489214Y-43197624D01*
X51486920Y-43191992D01*
X51485105Y-43186492D01*
X51483748Y-43181066D01*
X51482824Y-43175658D01*
X51482312Y-43170207D01*
X51482188Y-43164658D01*
X51482430Y-43158952D01*
X51483016Y-43153030D01*
X51483921Y-43146836D01*
X51485076Y-43142542D01*
X51486415Y-43138151D01*
X51487924Y-43133699D01*
X51489587Y-43129219D01*
X51491391Y-43124747D01*
X51493321Y-43120319D01*
X51495363Y-43115970D01*
X51497502Y-43111734D01*
X51499724Y-43107647D01*
X51502014Y-43103745D01*
X51504358Y-43100061D01*
X51506741Y-43096631D01*
X51509149Y-43093491D01*
X51511567Y-43090675D01*
X51513981Y-43088220D01*
X51516376Y-43086158D01*
X51520646Y-43083124D01*
X51524988Y-43080369D01*
X51529397Y-43077892D01*
X51533872Y-43075693D01*
X51538409Y-43073770D01*
X51543004Y-43072122D01*
X51547656Y-43070747D01*
X51552360Y-43069644D01*
X51557114Y-43068811D01*
X51561914Y-43068249D01*
X51566757Y-43067954D01*
X51571641Y-43067927D01*
X51576562Y-43068165D01*
G37*
G36*
X48118411Y-41405954D02*
G01*
X48132317Y-41406975D01*
X48145901Y-41408582D01*
X48159035Y-41410772D01*
X48171589Y-41413542D01*
X48183437Y-41416885D01*
X48194449Y-41420800D01*
X48204499Y-41425280D01*
X48215145Y-41431245D01*
X48225373Y-41438005D01*
X48235164Y-41445530D01*
X48244495Y-41453789D01*
X48253347Y-41462751D01*
X48261698Y-41472384D01*
X48269529Y-41482659D01*
X48276818Y-41493543D01*
X48283545Y-41505006D01*
X48289689Y-41517016D01*
X48295229Y-41529544D01*
X48300145Y-41542557D01*
X48304417Y-41556025D01*
X48308022Y-41569917D01*
X48310942Y-41584201D01*
X48313154Y-41598847D01*
X48314375Y-41613637D01*
X48314849Y-41627868D01*
X48314559Y-41641579D01*
X48313485Y-41654806D01*
X48311609Y-41667587D01*
X48310365Y-41673821D01*
X48308913Y-41679958D01*
X48307251Y-41686002D01*
X48305377Y-41691957D01*
X48303289Y-41697829D01*
X48300983Y-41703622D01*
X48298459Y-41709340D01*
X48295713Y-41714989D01*
X48292744Y-41720572D01*
X48289548Y-41726095D01*
X48286125Y-41731562D01*
X48282470Y-41736978D01*
X48274459Y-41747675D01*
X48265497Y-41758223D01*
X48255566Y-41768660D01*
X48244647Y-41779022D01*
X48232721Y-41789347D01*
X48190387Y-41826035D01*
X48190387Y-42466680D01*
X48190329Y-42674224D01*
X48190192Y-42758830D01*
X48189924Y-42831894D01*
X48189483Y-42894341D01*
X48188825Y-42947098D01*
X48188401Y-42970132D01*
X48187906Y-42991090D01*
X48187335Y-43010089D01*
X48186683Y-43027244D01*
X48185944Y-43042671D01*
X48185113Y-43056486D01*
X48184185Y-43068804D01*
X48183153Y-43079742D01*
X48182012Y-43089414D01*
X48180758Y-43097937D01*
X48179385Y-43105427D01*
X48177886Y-43111999D01*
X48176257Y-43117769D01*
X48174493Y-43122852D01*
X48172588Y-43127365D01*
X48170536Y-43131423D01*
X48168332Y-43135143D01*
X48165971Y-43138639D01*
X48163447Y-43142027D01*
X48160755Y-43145424D01*
X48157543Y-43149409D01*
X48154259Y-43153163D01*
X48150905Y-43156683D01*
X48147484Y-43159971D01*
X48143998Y-43163025D01*
X48140449Y-43165845D01*
X48136839Y-43168430D01*
X48133172Y-43170780D01*
X48129448Y-43172895D01*
X48125671Y-43174773D01*
X48121843Y-43176415D01*
X48117966Y-43177820D01*
X48114043Y-43178986D01*
X48110075Y-43179915D01*
X48106066Y-43180605D01*
X48102017Y-43181055D01*
X48097931Y-43181266D01*
X48093809Y-43181236D01*
X48089656Y-43180966D01*
X48085472Y-43180454D01*
X48081260Y-43179701D01*
X48077023Y-43178705D01*
X48072762Y-43177466D01*
X48068481Y-43175984D01*
X48064181Y-43174258D01*
X48059864Y-43172287D01*
X48055534Y-43170072D01*
X48051192Y-43167611D01*
X48046840Y-43164904D01*
X48042482Y-43161951D01*
X48038119Y-43158750D01*
X48033754Y-43155302D01*
X47999887Y-43128492D01*
X47995654Y-42479380D01*
X47991421Y-41828858D01*
X47944854Y-41782292D01*
X47934684Y-41771507D01*
X47925334Y-41760345D01*
X47916801Y-41748839D01*
X47909078Y-41737026D01*
X47902160Y-41724939D01*
X47896042Y-41712615D01*
X47890718Y-41700088D01*
X47886183Y-41687394D01*
X47882431Y-41674568D01*
X47879458Y-41661644D01*
X47877257Y-41648659D01*
X47875823Y-41635646D01*
X47875151Y-41622642D01*
X47875189Y-41616776D01*
X48035966Y-41616776D01*
X48036047Y-41618074D01*
X48036297Y-41619359D01*
X48036717Y-41620642D01*
X48037307Y-41621933D01*
X48038067Y-41623241D01*
X48038998Y-41624578D01*
X48040100Y-41625952D01*
X48041372Y-41627375D01*
X48042816Y-41628855D01*
X48046219Y-41632031D01*
X48050310Y-41635561D01*
X48060566Y-41644003D01*
X48065726Y-41647954D01*
X48070875Y-41651352D01*
X48075995Y-41654217D01*
X48081065Y-41656565D01*
X48086067Y-41658415D01*
X48090982Y-41659785D01*
X48095791Y-41660693D01*
X48100473Y-41661156D01*
X48105011Y-41661195D01*
X48109386Y-41660825D01*
X48113577Y-41660066D01*
X48117567Y-41658935D01*
X48121335Y-41657451D01*
X48124863Y-41655631D01*
X48128131Y-41653494D01*
X48131121Y-41651058D01*
X48133813Y-41648341D01*
X48136189Y-41645361D01*
X48138228Y-41642135D01*
X48139913Y-41638683D01*
X48141223Y-41635022D01*
X48142140Y-41631171D01*
X48142645Y-41627147D01*
X48142718Y-41622968D01*
X48142341Y-41618653D01*
X48141494Y-41614220D01*
X48140158Y-41609686D01*
X48138314Y-41605070D01*
X48135943Y-41600390D01*
X48133026Y-41595664D01*
X48129543Y-41590910D01*
X48125476Y-41586146D01*
X48119925Y-41580194D01*
X48114863Y-41575040D01*
X48112493Y-41572763D01*
X48110219Y-41570687D01*
X48108030Y-41568813D01*
X48105919Y-41567141D01*
X48103877Y-41565671D01*
X48101893Y-41564405D01*
X48099960Y-41563342D01*
X48098067Y-41562483D01*
X48096207Y-41561829D01*
X48094370Y-41561380D01*
X48092546Y-41561137D01*
X48090728Y-41561100D01*
X48088905Y-41561269D01*
X48087069Y-41561646D01*
X48085211Y-41562231D01*
X48083322Y-41563024D01*
X48081393Y-41564025D01*
X48079414Y-41565236D01*
X48077376Y-41566657D01*
X48075272Y-41568288D01*
X48073090Y-41570129D01*
X48070824Y-41572183D01*
X48065997Y-41576925D01*
X48060720Y-41582519D01*
X48054920Y-41588969D01*
X48050224Y-41594192D01*
X48046192Y-41598800D01*
X48042825Y-41602875D01*
X48041392Y-41604738D01*
X48040126Y-41606498D01*
X48039027Y-41608165D01*
X48038096Y-41609748D01*
X48037334Y-41611259D01*
X48036739Y-41612707D01*
X48036312Y-41614103D01*
X48036055Y-41615456D01*
X48035966Y-41616776D01*
X47875189Y-41616776D01*
X47875235Y-41609681D01*
X47876070Y-41596799D01*
X47877650Y-41584030D01*
X47879970Y-41571411D01*
X47883025Y-41558975D01*
X47886810Y-41546758D01*
X47891317Y-41534796D01*
X47896544Y-41523123D01*
X47902483Y-41511774D01*
X47909129Y-41500785D01*
X47916478Y-41490191D01*
X47924523Y-41480027D01*
X47933259Y-41470328D01*
X47942681Y-41461130D01*
X47952783Y-41452466D01*
X47963561Y-41444373D01*
X47975007Y-41436886D01*
X47987118Y-41430040D01*
X47999887Y-41423869D01*
X48010929Y-41419420D01*
X48022802Y-41415595D01*
X48035377Y-41412391D01*
X48048527Y-41409802D01*
X48062123Y-41407825D01*
X48076038Y-41406456D01*
X48090143Y-41405691D01*
X48104310Y-41405525D01*
X48118411Y-41405954D01*
G37*
G36*
X45000000Y-43000000D02*
G01*
X45001490Y-43000282D01*
X45003415Y-43000764D01*
X45008450Y-43002288D01*
X45014858Y-43004490D01*
X45022391Y-43007287D01*
X45030799Y-43010597D01*
X45039836Y-43014337D01*
X45049254Y-43018425D01*
X45056575Y-43021600D01*
X45063238Y-43024843D01*
X45069315Y-43028256D01*
X45074875Y-43031940D01*
X45079988Y-43035996D01*
X45084725Y-43040526D01*
X45089156Y-43045630D01*
X45093351Y-43051409D01*
X45097381Y-43057966D01*
X45101316Y-43065402D01*
X45105227Y-43073817D01*
X45109182Y-43083314D01*
X45113254Y-43093993D01*
X45117511Y-43105955D01*
X45126865Y-43134136D01*
X45216250Y-43409082D01*
X45315954Y-43711280D01*
X45398725Y-43958445D01*
X45437310Y-44068292D01*
X45439084Y-44070649D01*
X45440118Y-44071405D01*
X45441254Y-44071872D01*
X45442496Y-44072044D01*
X45443849Y-44071916D01*
X45446901Y-44070739D01*
X45450441Y-44068297D01*
X45454499Y-44064546D01*
X45459108Y-44059443D01*
X45464297Y-44052946D01*
X45470098Y-44045009D01*
X45476542Y-44035591D01*
X45491483Y-44012134D01*
X45509367Y-43982228D01*
X45530443Y-43945525D01*
X45540548Y-43927580D01*
X45550231Y-43910779D01*
X45559502Y-43895106D01*
X45568366Y-43880547D01*
X45576835Y-43867088D01*
X45584914Y-43854715D01*
X45592613Y-43843412D01*
X45599940Y-43833165D01*
X45606903Y-43823960D01*
X45613511Y-43815782D01*
X45619772Y-43808617D01*
X45625693Y-43802451D01*
X45628529Y-43799738D01*
X45631284Y-43797268D01*
X45633958Y-43795042D01*
X45636552Y-43793055D01*
X45639068Y-43791308D01*
X45641506Y-43789797D01*
X45643868Y-43788522D01*
X45646154Y-43787480D01*
X45660365Y-43784908D01*
X45688135Y-43782519D01*
X45777740Y-43778484D01*
X45901742Y-43775772D01*
X46046910Y-43774780D01*
X46413799Y-43774780D01*
X46447665Y-43811469D01*
X46455123Y-43819995D01*
X46461625Y-43828149D01*
X46467171Y-43835988D01*
X46469587Y-43839808D01*
X46471764Y-43843572D01*
X46473704Y-43847285D01*
X46475407Y-43850957D01*
X46476872Y-43854593D01*
X46478101Y-43858201D01*
X46479092Y-43861788D01*
X46479848Y-43865363D01*
X46480367Y-43868930D01*
X46480650Y-43872499D01*
X46480698Y-43876077D01*
X46480510Y-43879669D01*
X46480087Y-43883285D01*
X46479429Y-43886930D01*
X46478537Y-43890613D01*
X46477410Y-43894340D01*
X46476049Y-43898119D01*
X46474454Y-43901956D01*
X46472626Y-43905860D01*
X46470564Y-43909838D01*
X46468270Y-43913895D01*
X46465742Y-43918041D01*
X46459990Y-43926625D01*
X46453310Y-43935647D01*
X46425088Y-43972336D01*
X46082187Y-43972336D01*
X45740699Y-43972336D01*
X45647565Y-44137436D01*
X45628190Y-44171755D01*
X45609509Y-44205346D01*
X45575951Y-44266905D01*
X45550331Y-44315236D01*
X45541572Y-44332290D01*
X45536087Y-44343458D01*
X45534058Y-44347736D01*
X45531694Y-44352085D01*
X45529024Y-44356474D01*
X45526077Y-44360877D01*
X45522882Y-44365262D01*
X45519468Y-44369602D01*
X45515864Y-44373868D01*
X45512099Y-44378030D01*
X45508201Y-44382060D01*
X45504200Y-44385929D01*
X45500124Y-44389608D01*
X45496003Y-44393067D01*
X45491866Y-44396279D01*
X45487740Y-44399213D01*
X45483657Y-44401842D01*
X45479643Y-44404136D01*
X45459786Y-44413642D01*
X45441769Y-44420590D01*
X45425215Y-44424370D01*
X45409749Y-44424376D01*
X45402306Y-44422774D01*
X45394994Y-44420001D01*
X45387765Y-44415979D01*
X45380573Y-44410635D01*
X45366111Y-44395671D01*
X45351232Y-44374503D01*
X45335559Y-44346521D01*
X45318716Y-44311118D01*
X45300327Y-44267688D01*
X45280015Y-44215620D01*
X45232120Y-44083147D01*
X45172021Y-43908836D01*
X45140913Y-43818574D01*
X45111542Y-43735225D01*
X45084584Y-43660541D01*
X45060719Y-43596275D01*
X45040625Y-43544179D01*
X45024979Y-43506008D01*
X45019035Y-43492691D01*
X45014459Y-43483513D01*
X45011333Y-43478692D01*
X45010341Y-43477984D01*
X45009743Y-43478447D01*
X44958965Y-43667845D01*
X44859636Y-44057003D01*
X44762688Y-44444044D01*
X44719054Y-44627092D01*
X44718891Y-44628576D01*
X44718415Y-44630366D01*
X44717640Y-44632437D01*
X44716585Y-44634765D01*
X44715264Y-44637324D01*
X44713696Y-44640090D01*
X44711897Y-44643037D01*
X44709882Y-44646142D01*
X44707669Y-44649379D01*
X44705274Y-44652723D01*
X44702713Y-44656150D01*
X44700004Y-44659635D01*
X44697163Y-44663153D01*
X44694206Y-44666680D01*
X44691149Y-44670189D01*
X44688010Y-44673658D01*
X44684465Y-44677258D01*
X44680720Y-44680651D01*
X44676788Y-44683836D01*
X44672683Y-44686810D01*
X44668421Y-44689573D01*
X44664014Y-44692125D01*
X44659478Y-44694464D01*
X44654827Y-44696589D01*
X44650074Y-44698498D01*
X44645234Y-44700192D01*
X44640321Y-44701669D01*
X44635349Y-44702928D01*
X44630333Y-44703967D01*
X44625287Y-44704787D01*
X44620225Y-44705385D01*
X44615161Y-44705761D01*
X44610110Y-44705914D01*
X44605085Y-44705842D01*
X44600100Y-44705545D01*
X44595171Y-44705022D01*
X44590311Y-44704271D01*
X44585535Y-44703292D01*
X44580856Y-44702084D01*
X44576289Y-44700645D01*
X44571849Y-44698975D01*
X44567548Y-44697072D01*
X44563402Y-44694935D01*
X44559425Y-44692564D01*
X44555631Y-44689957D01*
X44552034Y-44687114D01*
X44548648Y-44684033D01*
X44545488Y-44680713D01*
X44532909Y-44654718D01*
X44509416Y-44595782D01*
X44438949Y-44404489D01*
X44352606Y-44157632D01*
X44268910Y-43906014D01*
X44264106Y-43890982D01*
X44259319Y-43876777D01*
X44254697Y-43863697D01*
X44250389Y-43852038D01*
X44246544Y-43842100D01*
X44243311Y-43834179D01*
X44240839Y-43828573D01*
X44239935Y-43826732D01*
X44239276Y-43825580D01*
X44238753Y-43825558D01*
X44237979Y-43826012D01*
X44235710Y-43828303D01*
X44228473Y-43838104D01*
X44217994Y-43854254D01*
X44204704Y-43876027D01*
X44189033Y-43902695D01*
X44171411Y-43933530D01*
X44132032Y-44004791D01*
X44105719Y-44052810D01*
X44081598Y-44094788D01*
X44070261Y-44113537D01*
X44059351Y-44130805D01*
X44048829Y-44146603D01*
X44038656Y-44160939D01*
X44028790Y-44173825D01*
X44019193Y-44185269D01*
X44009823Y-44195282D01*
X44000641Y-44203874D01*
X43991607Y-44211053D01*
X43982681Y-44216831D01*
X43973823Y-44221216D01*
X43964992Y-44224219D01*
X43956148Y-44225849D01*
X43947252Y-44226117D01*
X43938264Y-44225032D01*
X43929143Y-44222604D01*
X43919850Y-44218843D01*
X43910344Y-44213758D01*
X43900585Y-44207359D01*
X43890533Y-44199657D01*
X43880149Y-44190661D01*
X43869392Y-44180380D01*
X43858222Y-44168825D01*
X43846599Y-44156006D01*
X43834483Y-44141932D01*
X43821834Y-44126613D01*
X43794776Y-44092280D01*
X43707287Y-43979391D01*
X43485743Y-43972336D01*
X43450430Y-43971289D01*
X43418941Y-43970244D01*
X43391033Y-43969170D01*
X43366460Y-43968036D01*
X43344980Y-43966811D01*
X43326348Y-43965465D01*
X43318024Y-43964736D01*
X43310321Y-43963965D01*
X43303208Y-43963148D01*
X43296654Y-43962282D01*
X43290630Y-43961361D01*
X43285104Y-43960383D01*
X43280047Y-43959343D01*
X43275427Y-43958238D01*
X43271214Y-43957064D01*
X43267378Y-43955817D01*
X43263889Y-43954492D01*
X43260715Y-43953087D01*
X43257826Y-43951597D01*
X43255192Y-43950019D01*
X43252783Y-43948348D01*
X43250567Y-43946580D01*
X43248515Y-43944713D01*
X43246595Y-43942741D01*
X43244778Y-43940661D01*
X43243032Y-43938469D01*
X43240109Y-43934204D01*
X43237424Y-43929879D01*
X43234976Y-43925501D01*
X43232763Y-43921076D01*
X43230783Y-43916610D01*
X43229036Y-43912111D01*
X43227519Y-43907584D01*
X43226231Y-43903037D01*
X43225170Y-43898475D01*
X43224335Y-43893905D01*
X43223725Y-43889334D01*
X43223337Y-43884767D01*
X43223170Y-43880212D01*
X43223223Y-43875674D01*
X43223494Y-43871161D01*
X43223982Y-43866679D01*
X43224684Y-43862234D01*
X43225600Y-43857832D01*
X43226728Y-43853481D01*
X43228066Y-43849186D01*
X43229613Y-43844954D01*
X43231368Y-43840792D01*
X43233327Y-43836706D01*
X43235491Y-43832702D01*
X43237858Y-43828787D01*
X43240425Y-43824967D01*
X43243192Y-43821249D01*
X43246157Y-43817640D01*
X43249319Y-43814145D01*
X43252675Y-43810771D01*
X43256224Y-43807525D01*
X43259965Y-43804413D01*
X43272935Y-43795443D01*
X43279679Y-43791723D01*
X43286997Y-43788473D01*
X43295191Y-43785660D01*
X43304564Y-43783255D01*
X43315417Y-43781227D01*
X43328051Y-43779543D01*
X43359873Y-43777087D01*
X43402443Y-43775640D01*
X43458177Y-43774954D01*
X43529487Y-43774780D01*
X43577278Y-43775039D01*
X43622621Y-43775794D01*
X43664524Y-43777013D01*
X43701996Y-43778661D01*
X43734043Y-43780706D01*
X43759675Y-43783114D01*
X43769775Y-43784445D01*
X43777898Y-43785854D01*
X43783921Y-43787338D01*
X43787721Y-43788892D01*
X43790905Y-43790852D01*
X43794611Y-43793527D01*
X43798796Y-43796872D01*
X43803419Y-43800842D01*
X43813815Y-43810471D01*
X43825468Y-43822053D01*
X43838047Y-43835221D01*
X43851221Y-43849613D01*
X43864660Y-43864866D01*
X43878032Y-43880614D01*
X43941532Y-43959636D01*
X44043132Y-43757847D01*
X44063631Y-43718126D01*
X44082373Y-43682435D01*
X44099519Y-43650573D01*
X44115231Y-43622336D01*
X44129669Y-43597523D01*
X44136461Y-43586336D01*
X44142996Y-43575930D01*
X44149292Y-43566277D01*
X44155371Y-43557354D01*
X44161253Y-43549135D01*
X44166957Y-43541594D01*
X44172504Y-43534707D01*
X44177914Y-43528447D01*
X44183208Y-43522790D01*
X44188405Y-43517710D01*
X44193525Y-43513182D01*
X44198589Y-43509181D01*
X44203617Y-43505681D01*
X44208629Y-43502657D01*
X44213645Y-43500083D01*
X44218685Y-43497935D01*
X44223770Y-43496187D01*
X44228919Y-43494813D01*
X44234153Y-43493789D01*
X44239492Y-43493088D01*
X44244956Y-43492687D01*
X44250565Y-43492559D01*
X44264694Y-43492994D01*
X44277608Y-43494587D01*
X44289546Y-43497768D01*
X44300748Y-43502965D01*
X44311454Y-43510611D01*
X44321904Y-43521133D01*
X44332337Y-43534963D01*
X44342993Y-43552531D01*
X44354112Y-43574265D01*
X44365935Y-43600596D01*
X44378699Y-43631955D01*
X44392646Y-43668771D01*
X44425047Y-43760493D01*
X44465054Y-43879202D01*
X44509879Y-44011604D01*
X44548486Y-44123501D01*
X44576774Y-44202854D01*
X44585768Y-44226564D01*
X44588752Y-44233770D01*
X44590643Y-44237624D01*
X44595334Y-44247792D01*
X44597347Y-44251153D01*
X44599595Y-44251758D01*
X44602422Y-44248403D01*
X44606171Y-44239882D01*
X44617807Y-44202524D01*
X44667240Y-44012795D01*
X44769854Y-43605447D01*
X44823807Y-43392854D01*
X44870219Y-43215980D01*
X44889068Y-43146643D01*
X44904196Y-43093081D01*
X44914992Y-43057577D01*
X44918574Y-43047310D01*
X44920843Y-43042413D01*
X44922560Y-43040515D01*
X44924520Y-43038535D01*
X44926703Y-43036494D01*
X44929089Y-43034410D01*
X44931657Y-43032300D01*
X44934386Y-43030185D01*
X44937256Y-43028081D01*
X44940246Y-43026009D01*
X44943335Y-43023987D01*
X44946502Y-43022032D01*
X44949728Y-43020165D01*
X44952990Y-43018403D01*
X44956269Y-43016765D01*
X44959544Y-43015269D01*
X44962794Y-43013935D01*
X44965999Y-43012781D01*
X44971734Y-43010209D01*
X44977221Y-43007820D01*
X44982345Y-43005661D01*
X44986989Y-43003784D01*
X44991038Y-43002238D01*
X44994375Y-43001072D01*
X44995741Y-43000647D01*
X44996886Y-43000336D01*
X44997795Y-43000145D01*
X44998454Y-43000080D01*
X44998978Y-42999929D01*
X45000000Y-43000000D01*
G37*
G36*
X106281772Y-25016141D02*
G01*
X106593684Y-25016403D01*
X106829603Y-25016781D01*
X106922664Y-25017070D01*
X107001046Y-25017456D01*
X107066189Y-25017962D01*
X107119531Y-25018611D01*
X107162514Y-25019425D01*
X107196576Y-25020427D01*
X107223158Y-25021640D01*
X107234093Y-25022333D01*
X107243698Y-25023087D01*
X107252153Y-25023905D01*
X107259637Y-25024790D01*
X107266331Y-25025744D01*
X107272415Y-25026772D01*
X107283471Y-25029055D01*
X107294245Y-25031664D01*
X107325015Y-25039626D01*
X107353611Y-25047737D01*
X107380503Y-25056146D01*
X107406163Y-25065001D01*
X107431063Y-25074452D01*
X107455674Y-25084646D01*
X107480466Y-25095734D01*
X107505911Y-25107864D01*
X107548975Y-25131017D01*
X107590305Y-25156266D01*
X107629870Y-25183574D01*
X107667638Y-25212903D01*
X107703579Y-25244217D01*
X107737661Y-25277478D01*
X107769855Y-25312649D01*
X107800128Y-25349693D01*
X107828450Y-25388572D01*
X107854789Y-25429250D01*
X107879115Y-25471688D01*
X107901397Y-25515851D01*
X107921604Y-25561700D01*
X107939704Y-25609199D01*
X107955667Y-25658311D01*
X107969461Y-25708997D01*
X107973019Y-25729076D01*
X107975833Y-25762211D01*
X107979692Y-25901878D01*
X107983572Y-26714414D01*
X107984456Y-27058207D01*
X107984686Y-27316870D01*
X107984414Y-27418681D01*
X107983808Y-27504493D01*
X107982811Y-27576066D01*
X107981367Y-27635164D01*
X107979419Y-27683545D01*
X107978238Y-27704268D01*
X107976910Y-27722972D01*
X107975427Y-27739878D01*
X107973782Y-27755206D01*
X107971969Y-27769176D01*
X107969979Y-27782007D01*
X107967807Y-27793921D01*
X107965445Y-27805138D01*
X107962886Y-27815877D01*
X107960122Y-27826358D01*
X107953954Y-27847430D01*
X107946883Y-27870114D01*
X107929578Y-27919847D01*
X107909475Y-27968174D01*
X107886673Y-28014993D01*
X107861269Y-28060206D01*
X107833359Y-28103711D01*
X107803041Y-28145409D01*
X107770412Y-28185198D01*
X107735570Y-28222980D01*
X107698610Y-28258653D01*
X107659631Y-28292117D01*
X107618730Y-28323273D01*
X107576004Y-28352019D01*
X107531549Y-28378256D01*
X107485464Y-28401883D01*
X107437845Y-28422801D01*
X107388789Y-28440908D01*
X107344806Y-28455519D01*
X107302039Y-28466385D01*
X107245827Y-28474060D01*
X107161512Y-28479096D01*
X107034433Y-28482049D01*
X106849932Y-28483473D01*
X106250022Y-28483947D01*
X105907104Y-28483922D01*
X105650730Y-28483484D01*
X105550436Y-28482939D01*
X105466306Y-28482087D01*
X105396515Y-28480858D01*
X105339238Y-28479185D01*
X105292653Y-28476999D01*
X105272799Y-28475692D01*
X105254934Y-28474232D01*
X105238830Y-28472609D01*
X105224258Y-28470816D01*
X105210990Y-28468843D01*
X105198800Y-28466683D01*
X105187457Y-28464326D01*
X105176736Y-28461764D01*
X105156242Y-28455992D01*
X105135493Y-28449298D01*
X105112667Y-28441614D01*
X105058388Y-28421542D01*
X105006193Y-28398418D01*
X104956145Y-28372312D01*
X104908309Y-28343299D01*
X104862752Y-28311449D01*
X104819537Y-28276836D01*
X104778731Y-28239532D01*
X104740398Y-28199608D01*
X104704603Y-28157138D01*
X104671412Y-28112194D01*
X104640889Y-28064847D01*
X104613100Y-28015171D01*
X104588110Y-27963238D01*
X104565984Y-27909120D01*
X104546787Y-27852890D01*
X104530583Y-27794619D01*
X104527025Y-27774558D01*
X104524211Y-27741416D01*
X104520372Y-27602002D01*
X105382189Y-27602002D01*
X106250022Y-27602002D01*
X107117856Y-27602002D01*
X107117856Y-26748280D01*
X107117856Y-25894558D01*
X106250022Y-25894558D01*
X105382189Y-25894558D01*
X105382189Y-26748280D01*
X105382189Y-27602002D01*
X104520372Y-27602002D01*
X104520353Y-27601297D01*
X104516472Y-26783558D01*
X104516381Y-26748280D01*
X104515567Y-26435029D01*
X104515315Y-26173903D01*
X104515596Y-26071515D01*
X104516237Y-25985455D01*
X104517301Y-25913883D01*
X104518854Y-25854959D01*
X104520960Y-25806841D01*
X104522242Y-25786259D01*
X104523686Y-25767689D01*
X104525302Y-25750900D01*
X104527096Y-25735662D01*
X104529078Y-25721745D01*
X104531256Y-25708920D01*
X104533637Y-25696955D01*
X104536230Y-25685621D01*
X104542083Y-25663925D01*
X104548881Y-25641992D01*
X104556689Y-25617980D01*
X104561578Y-25603117D01*
X104566960Y-25587943D01*
X104572798Y-25572527D01*
X104579057Y-25556939D01*
X104592693Y-25525521D01*
X104607577Y-25494243D01*
X104623421Y-25463661D01*
X104639934Y-25434326D01*
X104648351Y-25420300D01*
X104656827Y-25406795D01*
X104665326Y-25393878D01*
X104673811Y-25381619D01*
X104701792Y-25344641D01*
X104731930Y-25309169D01*
X104764083Y-25275286D01*
X104798110Y-25243077D01*
X104833870Y-25212624D01*
X104871219Y-25184013D01*
X104910018Y-25157325D01*
X104950124Y-25132646D01*
X104991396Y-25110059D01*
X105033693Y-25089647D01*
X105076872Y-25071495D01*
X105120792Y-25055686D01*
X105165311Y-25042303D01*
X105210288Y-25031431D01*
X105255582Y-25023153D01*
X105301050Y-25017552D01*
X105600911Y-25016053D01*
X106281772Y-25016141D01*
G37*
G36*
X47568437Y-42886618D02*
G01*
X47572586Y-42886982D01*
X47576733Y-42887544D01*
X47580873Y-42888305D01*
X47585001Y-42889264D01*
X47589112Y-42890421D01*
X47593201Y-42891777D01*
X47597263Y-42893332D01*
X47601293Y-42895085D01*
X47605286Y-42897036D01*
X47609238Y-42899186D01*
X47613144Y-42901534D01*
X47616998Y-42904081D01*
X47620795Y-42906826D01*
X47624532Y-42909769D01*
X47629067Y-42913756D01*
X47633164Y-42917853D01*
X47636847Y-42922169D01*
X47640142Y-42926813D01*
X47643073Y-42931896D01*
X47645666Y-42937526D01*
X47647943Y-42943813D01*
X47649932Y-42950868D01*
X47651656Y-42958799D01*
X47653140Y-42967716D01*
X47654409Y-42977728D01*
X47655488Y-42988946D01*
X47657175Y-43015435D01*
X47658399Y-43048058D01*
X47659105Y-43066108D01*
X47659617Y-43082256D01*
X47659906Y-43096651D01*
X47659942Y-43109442D01*
X47659698Y-43120777D01*
X47659461Y-43125946D01*
X47659143Y-43130807D01*
X47658740Y-43135378D01*
X47658249Y-43139679D01*
X47657666Y-43143727D01*
X47656988Y-43147542D01*
X47656210Y-43151141D01*
X47655329Y-43154545D01*
X47654342Y-43157770D01*
X47653245Y-43160837D01*
X47652034Y-43163763D01*
X47650706Y-43166567D01*
X47649257Y-43169267D01*
X47647683Y-43171883D01*
X47645981Y-43174433D01*
X47644148Y-43176935D01*
X47642179Y-43179408D01*
X47640071Y-43181871D01*
X47637820Y-43184342D01*
X47635424Y-43186840D01*
X47630177Y-43191992D01*
X47622814Y-43198953D01*
X47615525Y-43205019D01*
X47611901Y-43207716D01*
X47608286Y-43210189D01*
X47604678Y-43212436D01*
X47601072Y-43214459D01*
X47597467Y-43216256D01*
X47593858Y-43217828D01*
X47590243Y-43219174D01*
X47586619Y-43220294D01*
X47582983Y-43221187D01*
X47579331Y-43221854D01*
X47575660Y-43222294D01*
X47571968Y-43222507D01*
X47568251Y-43222492D01*
X47564506Y-43222250D01*
X47560730Y-43221780D01*
X47556920Y-43221082D01*
X47553073Y-43220155D01*
X47549185Y-43219000D01*
X47545254Y-43217616D01*
X47541276Y-43216002D01*
X47537249Y-43214159D01*
X47533169Y-43212087D01*
X47529034Y-43209784D01*
X47524839Y-43207252D01*
X47516261Y-43201494D01*
X47507410Y-43194813D01*
X47501417Y-43189957D01*
X47496110Y-43185335D01*
X47491448Y-43180783D01*
X47487390Y-43176138D01*
X47483894Y-43171237D01*
X47480918Y-43165916D01*
X47478423Y-43160012D01*
X47476365Y-43153362D01*
X47474705Y-43145803D01*
X47473400Y-43137170D01*
X47472409Y-43127302D01*
X47471691Y-43116034D01*
X47471204Y-43103203D01*
X47470908Y-43088647D01*
X47470721Y-43053702D01*
X47470774Y-43037049D01*
X47470949Y-43021944D01*
X47471269Y-43008282D01*
X47471757Y-42995957D01*
X47472435Y-42984864D01*
X47473325Y-42974898D01*
X47474452Y-42965953D01*
X47475110Y-42961830D01*
X47475836Y-42957924D01*
X47476632Y-42954219D01*
X47477502Y-42950704D01*
X47478447Y-42947366D01*
X47479472Y-42944190D01*
X47480577Y-42941164D01*
X47481768Y-42938275D01*
X47483045Y-42935510D01*
X47484413Y-42932854D01*
X47485874Y-42930296D01*
X47487431Y-42927822D01*
X47489086Y-42925419D01*
X47490843Y-42923073D01*
X47492705Y-42920772D01*
X47494673Y-42918502D01*
X47498943Y-42914003D01*
X47502295Y-42910795D01*
X47505733Y-42907785D01*
X47509252Y-42904974D01*
X47512848Y-42902361D01*
X47516514Y-42899947D01*
X47520247Y-42897731D01*
X47524042Y-42895713D01*
X47527893Y-42893894D01*
X47531796Y-42892274D01*
X47535745Y-42890851D01*
X47539737Y-42889628D01*
X47543765Y-42888603D01*
X47547826Y-42887776D01*
X47551913Y-42887147D01*
X47556023Y-42886717D01*
X47560150Y-42886486D01*
X47564290Y-42886453D01*
X47568437Y-42886618D01*
G37*
G36*
X46647346Y-44113472D02*
G01*
X46665486Y-44113577D01*
X46681481Y-44113810D01*
X46695514Y-44114219D01*
X46701852Y-44114504D01*
X46707769Y-44114851D01*
X46713287Y-44115266D01*
X46718431Y-44115754D01*
X46723221Y-44116322D01*
X46727682Y-44116975D01*
X46731837Y-44117720D01*
X46735708Y-44118562D01*
X46739319Y-44119508D01*
X46742693Y-44120563D01*
X46745851Y-44121733D01*
X46748819Y-44123024D01*
X46751618Y-44124443D01*
X46754271Y-44125994D01*
X46756803Y-44127685D01*
X46759234Y-44129520D01*
X46761589Y-44131506D01*
X46763891Y-44133650D01*
X46766162Y-44135956D01*
X46768426Y-44138430D01*
X46770705Y-44141080D01*
X46773023Y-44143910D01*
X46777865Y-44150135D01*
X46780989Y-44154133D01*
X46784000Y-44158172D01*
X46786888Y-44162228D01*
X46789639Y-44166275D01*
X46792242Y-44170290D01*
X46794683Y-44174246D01*
X46796951Y-44178120D01*
X46799032Y-44181886D01*
X46800915Y-44185520D01*
X46802587Y-44188997D01*
X46804036Y-44192292D01*
X46805250Y-44195380D01*
X46806215Y-44198237D01*
X46806920Y-44200837D01*
X46807352Y-44203156D01*
X46807499Y-44205170D01*
X46807352Y-44207183D01*
X46806920Y-44209502D01*
X46806215Y-44212103D01*
X46805250Y-44214959D01*
X46804036Y-44218047D01*
X46802587Y-44221342D01*
X46800915Y-44224819D01*
X46799032Y-44228453D01*
X46796951Y-44232219D01*
X46794683Y-44236092D01*
X46792242Y-44240049D01*
X46789639Y-44244063D01*
X46786888Y-44248110D01*
X46784000Y-44252165D01*
X46780989Y-44256204D01*
X46777865Y-44260202D01*
X46773022Y-44266428D01*
X46768423Y-44271907D01*
X46763882Y-44276688D01*
X46759212Y-44280817D01*
X46754228Y-44284344D01*
X46748745Y-44287314D01*
X46742574Y-44289775D01*
X46735532Y-44291776D01*
X46727431Y-44293363D01*
X46718086Y-44294584D01*
X46707310Y-44295487D01*
X46694919Y-44296120D01*
X46664541Y-44296762D01*
X46625465Y-44296891D01*
X46602354Y-44296765D01*
X46581600Y-44296340D01*
X46563044Y-44295552D01*
X46554542Y-44295001D01*
X46546531Y-44294334D01*
X46538992Y-44293543D01*
X46531903Y-44292619D01*
X46525247Y-44291556D01*
X46519004Y-44290343D01*
X46513153Y-44288973D01*
X46507675Y-44287438D01*
X46502550Y-44285729D01*
X46497760Y-44283839D01*
X46493283Y-44281758D01*
X46489102Y-44279478D01*
X46485195Y-44276992D01*
X46481543Y-44274292D01*
X46478127Y-44271367D01*
X46474927Y-44268212D01*
X46471924Y-44264816D01*
X46469097Y-44261173D01*
X46466427Y-44257273D01*
X46463895Y-44253108D01*
X46461480Y-44248671D01*
X46459164Y-44243953D01*
X46456926Y-44238945D01*
X46454747Y-44233640D01*
X46450487Y-44222103D01*
X46449652Y-44219516D01*
X46448993Y-44216792D01*
X46448507Y-44213941D01*
X46448189Y-44210974D01*
X46448034Y-44207901D01*
X46448038Y-44204733D01*
X46448196Y-44201482D01*
X46448503Y-44198158D01*
X46449547Y-44191335D01*
X46451132Y-44184350D01*
X46453222Y-44177291D01*
X46455779Y-44170244D01*
X46458766Y-44163297D01*
X46462146Y-44156536D01*
X46465881Y-44150047D01*
X46469934Y-44143918D01*
X46474269Y-44138236D01*
X46478847Y-44133087D01*
X46481217Y-44130739D01*
X46483633Y-44128558D01*
X46486091Y-44126553D01*
X46488587Y-44124736D01*
X46490792Y-44123679D01*
X46494182Y-44122630D01*
X46504242Y-44120591D01*
X46518204Y-44118683D01*
X46535507Y-44116975D01*
X46555588Y-44115531D01*
X46577884Y-44114417D01*
X46601835Y-44113701D01*
X46626877Y-44113447D01*
X46647346Y-44113472D01*
G37*
G36*
X47053468Y-40729671D02*
G01*
X47056236Y-40729825D01*
X47059074Y-40730109D01*
X47061994Y-40730518D01*
X47065010Y-40731044D01*
X47071377Y-40732424D01*
X47080501Y-40734990D01*
X47089086Y-40737919D01*
X47097132Y-40741201D01*
X47104637Y-40744827D01*
X47111601Y-40748788D01*
X47118022Y-40753074D01*
X47123899Y-40757677D01*
X47129232Y-40762587D01*
X47134019Y-40767795D01*
X47138260Y-40773290D01*
X47141952Y-40779065D01*
X47145096Y-40785110D01*
X47147690Y-40791415D01*
X47149733Y-40797971D01*
X47151224Y-40804769D01*
X47152163Y-40811800D01*
X47152547Y-40819054D01*
X47152376Y-40826521D01*
X47151649Y-40834194D01*
X47150366Y-40842062D01*
X47148524Y-40850115D01*
X47146123Y-40858346D01*
X47143161Y-40866744D01*
X47139639Y-40875300D01*
X47135554Y-40884005D01*
X47130906Y-40892849D01*
X47125694Y-40901824D01*
X47119916Y-40910920D01*
X47113572Y-40920127D01*
X47106661Y-40929436D01*
X47099181Y-40938839D01*
X47091132Y-40948325D01*
X47067570Y-40976101D01*
X47045050Y-41004902D01*
X47023589Y-41034695D01*
X47003202Y-41065447D01*
X46983907Y-41097126D01*
X46965719Y-41129697D01*
X46948656Y-41163128D01*
X46932735Y-41197386D01*
X46917970Y-41232438D01*
X46904380Y-41268250D01*
X46891980Y-41304790D01*
X46880788Y-41342025D01*
X46870819Y-41379921D01*
X46862091Y-41418445D01*
X46854619Y-41457565D01*
X46848421Y-41497247D01*
X46843444Y-41546489D01*
X46841677Y-41597168D01*
X46843023Y-41648968D01*
X46847385Y-41701571D01*
X46854665Y-41754663D01*
X46864767Y-41807926D01*
X46877594Y-41861044D01*
X46893047Y-41913701D01*
X46911031Y-41965581D01*
X46931448Y-42016368D01*
X46954200Y-42065745D01*
X46979191Y-42113395D01*
X47006324Y-42159004D01*
X47035501Y-42202254D01*
X47066625Y-42242829D01*
X47099599Y-42280413D01*
X47113624Y-42295947D01*
X47126074Y-42310818D01*
X47131712Y-42318017D01*
X47136961Y-42325062D01*
X47141822Y-42331958D01*
X47146298Y-42338710D01*
X47150389Y-42345321D01*
X47154097Y-42351796D01*
X47157423Y-42358138D01*
X47160370Y-42364353D01*
X47162939Y-42370443D01*
X47165131Y-42376413D01*
X47166947Y-42382268D01*
X47168390Y-42388011D01*
X47169461Y-42393646D01*
X47170162Y-42399178D01*
X47170493Y-42404611D01*
X47170458Y-42409949D01*
X47170056Y-42415196D01*
X47169290Y-42420356D01*
X47168161Y-42425433D01*
X47166671Y-42430432D01*
X47164821Y-42435357D01*
X47162613Y-42440211D01*
X47160049Y-42444999D01*
X47157129Y-42449725D01*
X47153856Y-42454393D01*
X47150231Y-42459007D01*
X47146256Y-42463572D01*
X47141932Y-42468091D01*
X47131829Y-42477662D01*
X47126921Y-42481884D01*
X47122094Y-42485727D01*
X47117334Y-42489189D01*
X47112631Y-42492266D01*
X47107973Y-42494958D01*
X47103347Y-42497262D01*
X47098742Y-42499174D01*
X47094145Y-42500694D01*
X47089545Y-42501818D01*
X47084931Y-42502545D01*
X47080289Y-42502872D01*
X47075609Y-42502796D01*
X47070878Y-42502316D01*
X47066085Y-42501429D01*
X47061217Y-42500133D01*
X47056263Y-42498425D01*
X47051210Y-42496303D01*
X47046048Y-42493764D01*
X47040764Y-42490808D01*
X47035346Y-42487430D01*
X47029782Y-42483629D01*
X47024060Y-42479403D01*
X47012097Y-42469664D01*
X46999360Y-42458195D01*
X46985755Y-42444977D01*
X46971188Y-42429992D01*
X46932219Y-42387442D01*
X46895749Y-42343210D01*
X46861776Y-42297408D01*
X46830302Y-42250150D01*
X46801328Y-42201547D01*
X46774852Y-42151711D01*
X46750877Y-42100756D01*
X46729402Y-42048793D01*
X46710429Y-41995936D01*
X46693957Y-41942296D01*
X46679988Y-41887985D01*
X46668521Y-41833117D01*
X46659557Y-41777803D01*
X46653097Y-41722156D01*
X46649141Y-41666288D01*
X46647690Y-41610313D01*
X46648745Y-41554341D01*
X46652305Y-41498486D01*
X46658371Y-41442860D01*
X46666944Y-41387575D01*
X46678025Y-41332743D01*
X46691613Y-41278478D01*
X46707710Y-41224892D01*
X46726316Y-41172096D01*
X46747431Y-41120204D01*
X46771056Y-41069327D01*
X46797191Y-41019579D01*
X46825838Y-40971071D01*
X46856995Y-40923915D01*
X46890665Y-40878226D01*
X46926848Y-40834113D01*
X46965543Y-40791691D01*
X46975878Y-40781166D01*
X46985255Y-40771781D01*
X46993771Y-40763488D01*
X47001526Y-40756237D01*
X47008621Y-40749978D01*
X47011951Y-40747205D01*
X47015153Y-40744661D01*
X47018239Y-40742341D01*
X47021222Y-40740238D01*
X47024113Y-40738346D01*
X47026927Y-40736658D01*
X47029674Y-40735168D01*
X47032367Y-40733871D01*
X47035019Y-40732760D01*
X47037642Y-40731829D01*
X47040249Y-40731072D01*
X47042851Y-40730481D01*
X47045462Y-40730053D01*
X47048093Y-40729779D01*
X47050758Y-40729654D01*
X47053468Y-40729671D01*
G37*
G36*
X47663470Y-41233568D02*
G01*
X47670865Y-41234149D01*
X47678149Y-41235257D01*
X47685292Y-41236882D01*
X47692266Y-41239014D01*
X47699041Y-41241641D01*
X47705588Y-41244755D01*
X47711880Y-41248343D01*
X47717886Y-41252397D01*
X47723578Y-41256906D01*
X47728927Y-41261859D01*
X47733904Y-41267246D01*
X47738480Y-41273057D01*
X47742625Y-41279281D01*
X47746312Y-41285908D01*
X47749512Y-41292929D01*
X47752194Y-41300331D01*
X47754331Y-41308106D01*
X47755893Y-41316242D01*
X47756851Y-41324730D01*
X47757177Y-41333558D01*
X47757030Y-41338150D01*
X47756601Y-41342907D01*
X47755902Y-41347796D01*
X47754950Y-41352785D01*
X47753757Y-41357839D01*
X47752340Y-41362927D01*
X47750711Y-41368015D01*
X47748886Y-41373069D01*
X47746879Y-41378058D01*
X47744705Y-41382947D01*
X47742378Y-41387704D01*
X47739912Y-41392296D01*
X47737323Y-41396689D01*
X47734623Y-41400850D01*
X47731829Y-41404747D01*
X47728954Y-41408347D01*
X47719603Y-41419013D01*
X47710863Y-41430092D01*
X47702734Y-41441559D01*
X47695217Y-41453389D01*
X47688310Y-41465558D01*
X47682014Y-41478039D01*
X47676329Y-41490808D01*
X47671253Y-41503840D01*
X47666787Y-41517109D01*
X47662931Y-41530591D01*
X47659683Y-41544261D01*
X47657045Y-41558093D01*
X47653595Y-41586145D01*
X47652578Y-41614546D01*
X47653991Y-41643095D01*
X47657834Y-41671594D01*
X47664103Y-41699840D01*
X47672796Y-41727633D01*
X47678052Y-41741297D01*
X47683913Y-41754773D01*
X47690379Y-41768035D01*
X47697450Y-41781059D01*
X47705125Y-41793820D01*
X47713405Y-41806292D01*
X47722289Y-41818450D01*
X47731776Y-41830269D01*
X47735428Y-41834628D01*
X47738964Y-41839210D01*
X47742368Y-41843974D01*
X47745623Y-41848878D01*
X47748712Y-41853882D01*
X47751620Y-41858944D01*
X47754329Y-41864022D01*
X47756824Y-41869075D01*
X47759086Y-41874062D01*
X47761101Y-41878942D01*
X47762851Y-41883672D01*
X47764320Y-41888213D01*
X47765491Y-41892522D01*
X47766349Y-41896558D01*
X47766875Y-41900280D01*
X47767054Y-41903646D01*
X47766907Y-41908135D01*
X47766470Y-41912599D01*
X47765753Y-41917031D01*
X47764764Y-41921423D01*
X47763511Y-41925768D01*
X47762003Y-41930057D01*
X47760249Y-41934284D01*
X47758257Y-41938439D01*
X47756035Y-41942516D01*
X47753592Y-41946507D01*
X47750937Y-41950404D01*
X47748079Y-41954199D01*
X47745024Y-41957884D01*
X47741783Y-41961452D01*
X47738364Y-41964895D01*
X47734775Y-41968205D01*
X47727122Y-41974396D01*
X47723075Y-41977261D01*
X47718892Y-41979963D01*
X47714582Y-41982493D01*
X47710153Y-41984843D01*
X47705615Y-41987006D01*
X47700975Y-41988975D01*
X47696241Y-41990741D01*
X47691424Y-41992297D01*
X47686530Y-41993635D01*
X47681569Y-41994746D01*
X47676549Y-41995625D01*
X47671479Y-41996262D01*
X47666367Y-41996649D01*
X47661221Y-41996780D01*
X47650717Y-41996181D01*
X47640360Y-41994366D01*
X47630131Y-41991311D01*
X47620012Y-41986991D01*
X47609984Y-41981381D01*
X47600028Y-41974456D01*
X47590125Y-41966192D01*
X47580258Y-41956564D01*
X47570408Y-41945546D01*
X47560555Y-41933115D01*
X47550682Y-41919245D01*
X47540769Y-41903911D01*
X47530799Y-41887090D01*
X47520752Y-41868755D01*
X47510610Y-41848882D01*
X47500354Y-41827447D01*
X47489460Y-41803637D01*
X47484917Y-41792631D01*
X47480930Y-41781961D01*
X47477463Y-41771432D01*
X47474483Y-41760847D01*
X47471953Y-41750009D01*
X47469839Y-41738724D01*
X47468105Y-41726793D01*
X47466717Y-41714021D01*
X47465638Y-41700211D01*
X47464834Y-41685168D01*
X47463911Y-41650592D01*
X47463666Y-41608725D01*
X47463916Y-41566102D01*
X47464289Y-41547820D01*
X47464878Y-41531268D01*
X47465724Y-41516229D01*
X47466865Y-41502486D01*
X47468342Y-41489822D01*
X47470192Y-41478020D01*
X47472456Y-41466863D01*
X47475172Y-41456134D01*
X47478381Y-41445616D01*
X47482120Y-41435092D01*
X47486430Y-41424344D01*
X47491350Y-41413156D01*
X47496919Y-41401311D01*
X47503177Y-41388591D01*
X47511596Y-41371867D01*
X47520793Y-41354813D01*
X47530486Y-41337891D01*
X47540394Y-41321564D01*
X47550236Y-41306295D01*
X47555045Y-41299202D01*
X47559731Y-41292548D01*
X47564260Y-41286389D01*
X47568597Y-41280785D01*
X47572707Y-41275792D01*
X47576554Y-41271469D01*
X47583032Y-41264919D01*
X47589745Y-41259020D01*
X47596665Y-41253762D01*
X47603762Y-41249134D01*
X47611009Y-41245126D01*
X47618375Y-41241728D01*
X47625832Y-41238930D01*
X47633352Y-41236720D01*
X47640904Y-41235090D01*
X47648460Y-41234028D01*
X47655992Y-41233524D01*
X47663470Y-41233568D01*
G37*
G36*
X48828755Y-40981809D02*
G01*
X48833573Y-40982328D01*
X48838440Y-40983250D01*
X48843365Y-40984577D01*
X48848357Y-40986311D01*
X48853422Y-40988453D01*
X48858571Y-40991005D01*
X48863810Y-40993969D01*
X48869149Y-40997345D01*
X48874595Y-41001136D01*
X48880156Y-41005343D01*
X48885842Y-41009967D01*
X48891660Y-41015010D01*
X48903726Y-41026360D01*
X48916421Y-41039406D01*
X48929810Y-41054158D01*
X48954215Y-41083488D01*
X48977151Y-41113772D01*
X48998603Y-41144974D01*
X49018556Y-41177057D01*
X49036995Y-41209983D01*
X49053908Y-41243715D01*
X49069278Y-41278217D01*
X49083092Y-41313450D01*
X49095335Y-41349377D01*
X49105992Y-41385962D01*
X49115049Y-41423167D01*
X49122492Y-41460955D01*
X49128307Y-41499288D01*
X49132478Y-41538130D01*
X49134991Y-41577444D01*
X49135832Y-41617191D01*
X49135450Y-41644450D01*
X49134297Y-41671221D01*
X49132362Y-41697546D01*
X49129636Y-41723466D01*
X49126108Y-41749021D01*
X49121768Y-41774255D01*
X49116605Y-41799207D01*
X49110608Y-41823919D01*
X49103769Y-41848433D01*
X49096076Y-41872790D01*
X49087519Y-41897031D01*
X49078087Y-41921198D01*
X49067771Y-41945331D01*
X49056559Y-41969473D01*
X49044443Y-41993665D01*
X49031410Y-42017947D01*
X49018505Y-42039863D01*
X49004764Y-42061578D01*
X48990346Y-42082926D01*
X48975407Y-42103738D01*
X48960103Y-42123848D01*
X48944594Y-42143087D01*
X48929034Y-42161288D01*
X48913582Y-42178285D01*
X48898395Y-42193908D01*
X48883629Y-42207992D01*
X48869442Y-42220369D01*
X48855991Y-42230871D01*
X48849591Y-42235366D01*
X48843433Y-42239330D01*
X48837538Y-42242742D01*
X48831925Y-42245580D01*
X48826614Y-42247824D01*
X48821624Y-42249452D01*
X48816976Y-42250445D01*
X48812688Y-42250781D01*
X48809172Y-42250609D01*
X48805516Y-42250106D01*
X48801736Y-42249286D01*
X48797849Y-42248165D01*
X48793870Y-42246757D01*
X48789818Y-42245079D01*
X48785707Y-42243144D01*
X48781555Y-42240969D01*
X48773193Y-42235958D01*
X48764864Y-42230168D01*
X48756700Y-42223720D01*
X48748835Y-42216737D01*
X48741399Y-42209341D01*
X48734525Y-42201653D01*
X48728346Y-42193796D01*
X48722994Y-42185891D01*
X48720669Y-42181959D01*
X48718600Y-42178061D01*
X48716805Y-42174212D01*
X48715299Y-42170427D01*
X48714098Y-42166722D01*
X48713221Y-42163111D01*
X48712682Y-42159611D01*
X48712499Y-42156236D01*
X48712889Y-42153104D01*
X48714036Y-42149043D01*
X48715903Y-42144113D01*
X48718452Y-42138377D01*
X48721645Y-42131896D01*
X48725447Y-42124734D01*
X48734724Y-42108611D01*
X48745985Y-42090503D01*
X48758933Y-42070908D01*
X48773271Y-42050320D01*
X48788699Y-42029236D01*
X48805571Y-42006123D01*
X48821279Y-41983306D01*
X48835850Y-41960716D01*
X48849311Y-41938285D01*
X48861688Y-41915946D01*
X48873010Y-41893629D01*
X48883302Y-41871266D01*
X48892592Y-41848790D01*
X48900906Y-41826132D01*
X48908271Y-41803224D01*
X48914715Y-41779997D01*
X48920263Y-41756384D01*
X48924943Y-41732316D01*
X48928782Y-41707726D01*
X48931806Y-41682544D01*
X48934043Y-41656702D01*
X48935697Y-41624587D01*
X48935893Y-41592797D01*
X48934629Y-41561325D01*
X48931905Y-41530166D01*
X48927717Y-41499312D01*
X48922063Y-41468758D01*
X48914941Y-41438497D01*
X48906350Y-41408524D01*
X48896288Y-41378831D01*
X48884751Y-41349414D01*
X48871739Y-41320265D01*
X48857248Y-41291379D01*
X48841278Y-41262750D01*
X48823825Y-41234370D01*
X48804889Y-41206234D01*
X48784466Y-41178336D01*
X48772523Y-41162375D01*
X48762081Y-41147749D01*
X48753119Y-41134339D01*
X48749186Y-41128052D01*
X48745616Y-41122024D01*
X48742405Y-41116240D01*
X48739552Y-41110685D01*
X48737053Y-41105344D01*
X48734906Y-41100201D01*
X48733108Y-41095243D01*
X48731657Y-41090454D01*
X48730550Y-41085818D01*
X48729785Y-41081322D01*
X48729359Y-41076950D01*
X48729269Y-41072687D01*
X48729513Y-41068518D01*
X48730088Y-41064427D01*
X48730992Y-41060401D01*
X48732222Y-41056424D01*
X48733776Y-41052482D01*
X48735650Y-41048558D01*
X48737843Y-41044638D01*
X48740351Y-41040708D01*
X48743173Y-41036752D01*
X48746305Y-41032755D01*
X48749745Y-41028702D01*
X48753491Y-41024578D01*
X48761888Y-41016058D01*
X48766879Y-41011089D01*
X48771804Y-41006502D01*
X48776671Y-41002299D01*
X48781489Y-40998480D01*
X48786265Y-40995048D01*
X48791008Y-40992004D01*
X48795727Y-40989349D01*
X48800428Y-40987086D01*
X48805122Y-40985216D01*
X48809816Y-40983740D01*
X48814517Y-40982659D01*
X48819236Y-40981976D01*
X48823979Y-40981692D01*
X48828755Y-40981809D01*
G37*
D11*
X102514160Y-39222200D02*
X102657017Y-39269819D01*
X102657017Y-39269819D02*
X102895112Y-39269819D01*
X102895112Y-39269819D02*
X102990350Y-39222200D01*
X102990350Y-39222200D02*
X103037969Y-39174580D01*
X103037969Y-39174580D02*
X103085588Y-39079342D01*
X103085588Y-39079342D02*
X103085588Y-38984104D01*
X103085588Y-38984104D02*
X103037969Y-38888866D01*
X103037969Y-38888866D02*
X102990350Y-38841247D01*
X102990350Y-38841247D02*
X102895112Y-38793628D01*
X102895112Y-38793628D02*
X102704636Y-38746009D01*
X102704636Y-38746009D02*
X102609398Y-38698390D01*
X102609398Y-38698390D02*
X102561779Y-38650771D01*
X102561779Y-38650771D02*
X102514160Y-38555533D01*
X102514160Y-38555533D02*
X102514160Y-38460295D01*
X102514160Y-38460295D02*
X102561779Y-38365057D01*
X102561779Y-38365057D02*
X102609398Y-38317438D01*
X102609398Y-38317438D02*
X102704636Y-38269819D01*
X102704636Y-38269819D02*
X102942731Y-38269819D01*
X102942731Y-38269819D02*
X103085588Y-38317438D01*
X103514160Y-39269819D02*
X103514160Y-38269819D01*
X103514160Y-38269819D02*
X103752255Y-38269819D01*
X103752255Y-38269819D02*
X103895112Y-38317438D01*
X103895112Y-38317438D02*
X103990350Y-38412676D01*
X103990350Y-38412676D02*
X104037969Y-38507914D01*
X104037969Y-38507914D02*
X104085588Y-38698390D01*
X104085588Y-38698390D02*
X104085588Y-38841247D01*
X104085588Y-38841247D02*
X104037969Y-39031723D01*
X104037969Y-39031723D02*
X103990350Y-39126961D01*
X103990350Y-39126961D02*
X103895112Y-39222200D01*
X103895112Y-39222200D02*
X103752255Y-39269819D01*
X103752255Y-39269819D02*
X103514160Y-39269819D01*
X104466541Y-38984104D02*
X104942731Y-38984104D01*
X104371303Y-39269819D02*
X104704636Y-38269819D01*
X104704636Y-38269819D02*
X105037969Y-39269819D01*
X28929887Y-60469819D02*
X28929887Y-59469819D01*
X28929887Y-59469819D02*
X29310839Y-59469819D01*
X29310839Y-59469819D02*
X29406077Y-59517438D01*
X29406077Y-59517438D02*
X29453696Y-59565057D01*
X29453696Y-59565057D02*
X29501315Y-59660295D01*
X29501315Y-59660295D02*
X29501315Y-59803152D01*
X29501315Y-59803152D02*
X29453696Y-59898390D01*
X29453696Y-59898390D02*
X29406077Y-59946009D01*
X29406077Y-59946009D02*
X29310839Y-59993628D01*
X29310839Y-59993628D02*
X28929887Y-59993628D01*
X29882268Y-60184104D02*
X30358458Y-60184104D01*
X29787030Y-60469819D02*
X30120363Y-59469819D01*
X30120363Y-59469819D02*
X30453696Y-60469819D01*
X30691792Y-59469819D02*
X31310839Y-59469819D01*
X31310839Y-59469819D02*
X30977506Y-59850771D01*
X30977506Y-59850771D02*
X31120363Y-59850771D01*
X31120363Y-59850771D02*
X31215601Y-59898390D01*
X31215601Y-59898390D02*
X31263220Y-59946009D01*
X31263220Y-59946009D02*
X31310839Y-60041247D01*
X31310839Y-60041247D02*
X31310839Y-60279342D01*
X31310839Y-60279342D02*
X31263220Y-60374580D01*
X31263220Y-60374580D02*
X31215601Y-60422200D01*
X31215601Y-60422200D02*
X31120363Y-60469819D01*
X31120363Y-60469819D02*
X30834649Y-60469819D01*
X30834649Y-60469819D02*
X30739411Y-60422200D01*
X30739411Y-60422200D02*
X30691792Y-60374580D01*
X101853743Y-59369809D02*
X101988430Y-59302465D01*
X101988430Y-59302465D02*
X102156789Y-59134107D01*
X102156789Y-59134107D02*
X102190461Y-59033091D01*
X102190461Y-59033091D02*
X102190461Y-58965748D01*
X102190461Y-58965748D02*
X102156789Y-58864733D01*
X102156789Y-58864733D02*
X102089445Y-58797389D01*
X102089445Y-58797389D02*
X101988430Y-58763717D01*
X101988430Y-58763717D02*
X101921087Y-58763717D01*
X101921087Y-58763717D02*
X101820071Y-58797389D01*
X101820071Y-58797389D02*
X101651713Y-58898404D01*
X101651713Y-58898404D02*
X101550697Y-58932076D01*
X101550697Y-58932076D02*
X101483354Y-58932076D01*
X101483354Y-58932076D02*
X101382339Y-58898404D01*
X101382339Y-58898404D02*
X101314995Y-58831061D01*
X101314995Y-58831061D02*
X101281323Y-58730046D01*
X101281323Y-58730046D02*
X101281323Y-58662702D01*
X101281323Y-58662702D02*
X101314995Y-58561687D01*
X101314995Y-58561687D02*
X101483354Y-58393328D01*
X101483354Y-58393328D02*
X101618041Y-58325984D01*
X101820071Y-58056610D02*
X102695537Y-58595358D01*
X102695537Y-58595358D02*
X102325148Y-57955595D01*
X102325148Y-57955595D02*
X102964911Y-58325984D01*
X102964911Y-58325984D02*
X102426163Y-57450519D01*
X103739361Y-57416847D02*
X103739361Y-57484191D01*
X103739361Y-57484191D02*
X103672018Y-57618878D01*
X103672018Y-57618878D02*
X103604674Y-57686221D01*
X103604674Y-57686221D02*
X103469987Y-57753565D01*
X103469987Y-57753565D02*
X103335300Y-57753565D01*
X103335300Y-57753565D02*
X103234285Y-57719893D01*
X103234285Y-57719893D02*
X103065926Y-57618878D01*
X103065926Y-57618878D02*
X102964911Y-57517863D01*
X102964911Y-57517863D02*
X102863896Y-57349504D01*
X102863896Y-57349504D02*
X102830224Y-57248489D01*
X102830224Y-57248489D02*
X102830224Y-57113802D01*
X102830224Y-57113802D02*
X102897567Y-56979114D01*
X102897567Y-56979114D02*
X102964911Y-56911771D01*
X102964911Y-56911771D02*
X103099598Y-56844427D01*
X103099598Y-56844427D02*
X103166941Y-56844427D01*
X104446468Y-56844427D02*
X104109750Y-57181145D01*
X104109750Y-57181145D02*
X103402644Y-56474038D01*
X104682170Y-56608725D02*
X103975063Y-55901618D01*
X105086231Y-56204664D02*
X104379124Y-56103649D01*
X104379124Y-55497557D02*
X104379124Y-56305679D01*
X34736779Y-57869819D02*
X34736779Y-56869819D01*
X34736779Y-56869819D02*
X35117731Y-56869819D01*
X35117731Y-56869819D02*
X35212969Y-56917438D01*
X35212969Y-56917438D02*
X35260588Y-56965057D01*
X35260588Y-56965057D02*
X35308207Y-57060295D01*
X35308207Y-57060295D02*
X35308207Y-57203152D01*
X35308207Y-57203152D02*
X35260588Y-57298390D01*
X35260588Y-57298390D02*
X35212969Y-57346009D01*
X35212969Y-57346009D02*
X35117731Y-57393628D01*
X35117731Y-57393628D02*
X34736779Y-57393628D01*
X35689160Y-57584104D02*
X36165350Y-57584104D01*
X35593922Y-57869819D02*
X35927255Y-56869819D01*
X35927255Y-56869819D02*
X36260588Y-57869819D01*
X37117731Y-57869819D02*
X36546303Y-57869819D01*
X36832017Y-57869819D02*
X36832017Y-56869819D01*
X36832017Y-56869819D02*
X36736779Y-57012676D01*
X36736779Y-57012676D02*
X36641541Y-57107914D01*
X36641541Y-57107914D02*
X36546303Y-57155533D01*
X38022493Y-56869819D02*
X37546303Y-56869819D01*
X37546303Y-56869819D02*
X37498684Y-57346009D01*
X37498684Y-57346009D02*
X37546303Y-57298390D01*
X37546303Y-57298390D02*
X37641541Y-57250771D01*
X37641541Y-57250771D02*
X37879636Y-57250771D01*
X37879636Y-57250771D02*
X37974874Y-57298390D01*
X37974874Y-57298390D02*
X38022493Y-57346009D01*
X38022493Y-57346009D02*
X38070112Y-57441247D01*
X38070112Y-57441247D02*
X38070112Y-57679342D01*
X38070112Y-57679342D02*
X38022493Y-57774580D01*
X38022493Y-57774580D02*
X37974874Y-57822200D01*
X37974874Y-57822200D02*
X37879636Y-57869819D01*
X37879636Y-57869819D02*
X37641541Y-57869819D01*
X37641541Y-57869819D02*
X37546303Y-57822200D01*
X37546303Y-57822200D02*
X37498684Y-57774580D01*
X34736779Y-62869819D02*
X34736779Y-61869819D01*
X34736779Y-61869819D02*
X35117731Y-61869819D01*
X35117731Y-61869819D02*
X35212969Y-61917438D01*
X35212969Y-61917438D02*
X35260588Y-61965057D01*
X35260588Y-61965057D02*
X35308207Y-62060295D01*
X35308207Y-62060295D02*
X35308207Y-62203152D01*
X35308207Y-62203152D02*
X35260588Y-62298390D01*
X35260588Y-62298390D02*
X35212969Y-62346009D01*
X35212969Y-62346009D02*
X35117731Y-62393628D01*
X35117731Y-62393628D02*
X34736779Y-62393628D01*
X35689160Y-62584104D02*
X36165350Y-62584104D01*
X35593922Y-62869819D02*
X35927255Y-61869819D01*
X35927255Y-61869819D02*
X36260588Y-62869819D01*
X36546303Y-61965057D02*
X36593922Y-61917438D01*
X36593922Y-61917438D02*
X36689160Y-61869819D01*
X36689160Y-61869819D02*
X36927255Y-61869819D01*
X36927255Y-61869819D02*
X37022493Y-61917438D01*
X37022493Y-61917438D02*
X37070112Y-61965057D01*
X37070112Y-61965057D02*
X37117731Y-62060295D01*
X37117731Y-62060295D02*
X37117731Y-62155533D01*
X37117731Y-62155533D02*
X37070112Y-62298390D01*
X37070112Y-62298390D02*
X36498684Y-62869819D01*
X36498684Y-62869819D02*
X37117731Y-62869819D01*
X102614160Y-36622200D02*
X102757017Y-36669819D01*
X102757017Y-36669819D02*
X102995112Y-36669819D01*
X102995112Y-36669819D02*
X103090350Y-36622200D01*
X103090350Y-36622200D02*
X103137969Y-36574580D01*
X103137969Y-36574580D02*
X103185588Y-36479342D01*
X103185588Y-36479342D02*
X103185588Y-36384104D01*
X103185588Y-36384104D02*
X103137969Y-36288866D01*
X103137969Y-36288866D02*
X103090350Y-36241247D01*
X103090350Y-36241247D02*
X102995112Y-36193628D01*
X102995112Y-36193628D02*
X102804636Y-36146009D01*
X102804636Y-36146009D02*
X102709398Y-36098390D01*
X102709398Y-36098390D02*
X102661779Y-36050771D01*
X102661779Y-36050771D02*
X102614160Y-35955533D01*
X102614160Y-35955533D02*
X102614160Y-35860295D01*
X102614160Y-35860295D02*
X102661779Y-35765057D01*
X102661779Y-35765057D02*
X102709398Y-35717438D01*
X102709398Y-35717438D02*
X102804636Y-35669819D01*
X102804636Y-35669819D02*
X103042731Y-35669819D01*
X103042731Y-35669819D02*
X103185588Y-35717438D01*
X104185588Y-36574580D02*
X104137969Y-36622200D01*
X104137969Y-36622200D02*
X103995112Y-36669819D01*
X103995112Y-36669819D02*
X103899874Y-36669819D01*
X103899874Y-36669819D02*
X103757017Y-36622200D01*
X103757017Y-36622200D02*
X103661779Y-36526961D01*
X103661779Y-36526961D02*
X103614160Y-36431723D01*
X103614160Y-36431723D02*
X103566541Y-36241247D01*
X103566541Y-36241247D02*
X103566541Y-36098390D01*
X103566541Y-36098390D02*
X103614160Y-35907914D01*
X103614160Y-35907914D02*
X103661779Y-35812676D01*
X103661779Y-35812676D02*
X103757017Y-35717438D01*
X103757017Y-35717438D02*
X103899874Y-35669819D01*
X103899874Y-35669819D02*
X103995112Y-35669819D01*
X103995112Y-35669819D02*
X104137969Y-35717438D01*
X104137969Y-35717438D02*
X104185588Y-35765057D01*
X105090350Y-36669819D02*
X104614160Y-36669819D01*
X104614160Y-36669819D02*
X104614160Y-35669819D01*
X85497744Y-26280180D02*
X85307268Y-26280180D01*
X85307268Y-26280180D02*
X85212030Y-26232561D01*
X85212030Y-26232561D02*
X85116792Y-26137323D01*
X85116792Y-26137323D02*
X85069173Y-25946847D01*
X85069173Y-25946847D02*
X85069173Y-25613514D01*
X85069173Y-25613514D02*
X85116792Y-25423038D01*
X85116792Y-25423038D02*
X85212030Y-25327800D01*
X85212030Y-25327800D02*
X85307268Y-25280180D01*
X85307268Y-25280180D02*
X85497744Y-25280180D01*
X85497744Y-25280180D02*
X85592982Y-25327800D01*
X85592982Y-25327800D02*
X85688220Y-25423038D01*
X85688220Y-25423038D02*
X85735839Y-25613514D01*
X85735839Y-25613514D02*
X85735839Y-25946847D01*
X85735839Y-25946847D02*
X85688220Y-26137323D01*
X85688220Y-26137323D02*
X85592982Y-26232561D01*
X85592982Y-26232561D02*
X85497744Y-26280180D01*
X84640601Y-25280180D02*
X84640601Y-26280180D01*
X84640601Y-26280180D02*
X84069173Y-25280180D01*
X84069173Y-25280180D02*
X84069173Y-26280180D01*
X103496554Y-63846009D02*
X103829887Y-63846009D01*
X103972744Y-64369819D02*
X103496554Y-64369819D01*
X103496554Y-64369819D02*
X103496554Y-63369819D01*
X103496554Y-63369819D02*
X103972744Y-63369819D01*
X104734649Y-63846009D02*
X104877506Y-63893628D01*
X104877506Y-63893628D02*
X104925125Y-63941247D01*
X104925125Y-63941247D02*
X104972744Y-64036485D01*
X104972744Y-64036485D02*
X104972744Y-64179342D01*
X104972744Y-64179342D02*
X104925125Y-64274580D01*
X104925125Y-64274580D02*
X104877506Y-64322200D01*
X104877506Y-64322200D02*
X104782268Y-64369819D01*
X104782268Y-64369819D02*
X104401316Y-64369819D01*
X104401316Y-64369819D02*
X104401316Y-63369819D01*
X104401316Y-63369819D02*
X104734649Y-63369819D01*
X104734649Y-63369819D02*
X104829887Y-63417438D01*
X104829887Y-63417438D02*
X104877506Y-63465057D01*
X104877506Y-63465057D02*
X104925125Y-63560295D01*
X104925125Y-63560295D02*
X104925125Y-63655533D01*
X104925125Y-63655533D02*
X104877506Y-63750771D01*
X104877506Y-63750771D02*
X104829887Y-63798390D01*
X104829887Y-63798390D02*
X104734649Y-63846009D01*
X104734649Y-63846009D02*
X104401316Y-63846009D01*
X105401316Y-63988866D02*
X106163221Y-63988866D01*
X106639411Y-64369819D02*
X106639411Y-63369819D01*
X107210839Y-64369819D02*
X106782268Y-63798390D01*
X107210839Y-63369819D02*
X106639411Y-63941247D01*
X108163220Y-63417438D02*
X108067982Y-63369819D01*
X108067982Y-63369819D02*
X107925125Y-63369819D01*
X107925125Y-63369819D02*
X107782268Y-63417438D01*
X107782268Y-63417438D02*
X107687030Y-63512676D01*
X107687030Y-63512676D02*
X107639411Y-63607914D01*
X107639411Y-63607914D02*
X107591792Y-63798390D01*
X107591792Y-63798390D02*
X107591792Y-63941247D01*
X107591792Y-63941247D02*
X107639411Y-64131723D01*
X107639411Y-64131723D02*
X107687030Y-64226961D01*
X107687030Y-64226961D02*
X107782268Y-64322200D01*
X107782268Y-64322200D02*
X107925125Y-64369819D01*
X107925125Y-64369819D02*
X108020363Y-64369819D01*
X108020363Y-64369819D02*
X108163220Y-64322200D01*
X108163220Y-64322200D02*
X108210839Y-64274580D01*
X108210839Y-64274580D02*
X108210839Y-63941247D01*
X108210839Y-63941247D02*
X108020363Y-63941247D01*
X65672744Y-63669819D02*
X65863220Y-63669819D01*
X65863220Y-63669819D02*
X65958458Y-63717438D01*
X65958458Y-63717438D02*
X66053696Y-63812676D01*
X66053696Y-63812676D02*
X66101315Y-64003152D01*
X66101315Y-64003152D02*
X66101315Y-64336485D01*
X66101315Y-64336485D02*
X66053696Y-64526961D01*
X66053696Y-64526961D02*
X65958458Y-64622200D01*
X65958458Y-64622200D02*
X65863220Y-64669819D01*
X65863220Y-64669819D02*
X65672744Y-64669819D01*
X65672744Y-64669819D02*
X65577506Y-64622200D01*
X65577506Y-64622200D02*
X65482268Y-64526961D01*
X65482268Y-64526961D02*
X65434649Y-64336485D01*
X65434649Y-64336485D02*
X65434649Y-64003152D01*
X65434649Y-64003152D02*
X65482268Y-63812676D01*
X65482268Y-63812676D02*
X65577506Y-63717438D01*
X65577506Y-63717438D02*
X65672744Y-63669819D01*
X66529887Y-63669819D02*
X66529887Y-64479342D01*
X66529887Y-64479342D02*
X66577506Y-64574580D01*
X66577506Y-64574580D02*
X66625125Y-64622200D01*
X66625125Y-64622200D02*
X66720363Y-64669819D01*
X66720363Y-64669819D02*
X66910839Y-64669819D01*
X66910839Y-64669819D02*
X67006077Y-64622200D01*
X67006077Y-64622200D02*
X67053696Y-64574580D01*
X67053696Y-64574580D02*
X67101315Y-64479342D01*
X67101315Y-64479342D02*
X67101315Y-63669819D01*
X67434649Y-63669819D02*
X68006077Y-63669819D01*
X67720363Y-64669819D02*
X67720363Y-63669819D01*
X48654887Y-25403990D02*
X48512030Y-25356371D01*
X48512030Y-25356371D02*
X48464411Y-25308752D01*
X48464411Y-25308752D02*
X48416792Y-25213514D01*
X48416792Y-25213514D02*
X48416792Y-25070657D01*
X48416792Y-25070657D02*
X48464411Y-24975419D01*
X48464411Y-24975419D02*
X48512030Y-24927800D01*
X48512030Y-24927800D02*
X48607268Y-24880180D01*
X48607268Y-24880180D02*
X48988220Y-24880180D01*
X48988220Y-24880180D02*
X48988220Y-25880180D01*
X48988220Y-25880180D02*
X48654887Y-25880180D01*
X48654887Y-25880180D02*
X48559649Y-25832561D01*
X48559649Y-25832561D02*
X48512030Y-25784942D01*
X48512030Y-25784942D02*
X48464411Y-25689704D01*
X48464411Y-25689704D02*
X48464411Y-25594466D01*
X48464411Y-25594466D02*
X48512030Y-25499228D01*
X48512030Y-25499228D02*
X48559649Y-25451609D01*
X48559649Y-25451609D02*
X48654887Y-25403990D01*
X48654887Y-25403990D02*
X48988220Y-25403990D01*
X47797744Y-25880180D02*
X47607268Y-25880180D01*
X47607268Y-25880180D02*
X47512030Y-25832561D01*
X47512030Y-25832561D02*
X47416792Y-25737323D01*
X47416792Y-25737323D02*
X47369173Y-25546847D01*
X47369173Y-25546847D02*
X47369173Y-25213514D01*
X47369173Y-25213514D02*
X47416792Y-25023038D01*
X47416792Y-25023038D02*
X47512030Y-24927800D01*
X47512030Y-24927800D02*
X47607268Y-24880180D01*
X47607268Y-24880180D02*
X47797744Y-24880180D01*
X47797744Y-24880180D02*
X47892982Y-24927800D01*
X47892982Y-24927800D02*
X47988220Y-25023038D01*
X47988220Y-25023038D02*
X48035839Y-25213514D01*
X48035839Y-25213514D02*
X48035839Y-25546847D01*
X48035839Y-25546847D02*
X47988220Y-25737323D01*
X47988220Y-25737323D02*
X47892982Y-25832561D01*
X47892982Y-25832561D02*
X47797744Y-25880180D01*
X46750125Y-25880180D02*
X46559649Y-25880180D01*
X46559649Y-25880180D02*
X46464411Y-25832561D01*
X46464411Y-25832561D02*
X46369173Y-25737323D01*
X46369173Y-25737323D02*
X46321554Y-25546847D01*
X46321554Y-25546847D02*
X46321554Y-25213514D01*
X46321554Y-25213514D02*
X46369173Y-25023038D01*
X46369173Y-25023038D02*
X46464411Y-24927800D01*
X46464411Y-24927800D02*
X46559649Y-24880180D01*
X46559649Y-24880180D02*
X46750125Y-24880180D01*
X46750125Y-24880180D02*
X46845363Y-24927800D01*
X46845363Y-24927800D02*
X46940601Y-25023038D01*
X46940601Y-25023038D02*
X46988220Y-25213514D01*
X46988220Y-25213514D02*
X46988220Y-25546847D01*
X46988220Y-25546847D02*
X46940601Y-25737323D01*
X46940601Y-25737323D02*
X46845363Y-25832561D01*
X46845363Y-25832561D02*
X46750125Y-25880180D01*
X46035839Y-25880180D02*
X45464411Y-25880180D01*
X45750125Y-24880180D02*
X45750125Y-25880180D01*
X101953743Y-56569809D02*
X102088430Y-56502465D01*
X102088430Y-56502465D02*
X102256789Y-56334107D01*
X102256789Y-56334107D02*
X102290461Y-56233091D01*
X102290461Y-56233091D02*
X102290461Y-56165748D01*
X102290461Y-56165748D02*
X102256789Y-56064733D01*
X102256789Y-56064733D02*
X102189445Y-55997389D01*
X102189445Y-55997389D02*
X102088430Y-55963717D01*
X102088430Y-55963717D02*
X102021087Y-55963717D01*
X102021087Y-55963717D02*
X101920071Y-55997389D01*
X101920071Y-55997389D02*
X101751713Y-56098404D01*
X101751713Y-56098404D02*
X101650697Y-56132076D01*
X101650697Y-56132076D02*
X101583354Y-56132076D01*
X101583354Y-56132076D02*
X101482339Y-56098404D01*
X101482339Y-56098404D02*
X101414995Y-56031061D01*
X101414995Y-56031061D02*
X101381323Y-55930046D01*
X101381323Y-55930046D02*
X101381323Y-55862702D01*
X101381323Y-55862702D02*
X101414995Y-55761687D01*
X101414995Y-55761687D02*
X101583354Y-55593328D01*
X101583354Y-55593328D02*
X101718041Y-55525984D01*
X101920071Y-55256610D02*
X102795537Y-55795358D01*
X102795537Y-55795358D02*
X102425148Y-55155595D01*
X102425148Y-55155595D02*
X103064911Y-55525984D01*
X103064911Y-55525984D02*
X102526163Y-54650519D01*
X103502644Y-55088252D02*
X102795537Y-54381145D01*
X102795537Y-54381145D02*
X102963896Y-54212786D01*
X102963896Y-54212786D02*
X103098583Y-54145443D01*
X103098583Y-54145443D02*
X103233270Y-54145443D01*
X103233270Y-54145443D02*
X103334285Y-54179114D01*
X103334285Y-54179114D02*
X103502644Y-54280130D01*
X103502644Y-54280130D02*
X103603659Y-54381145D01*
X103603659Y-54381145D02*
X103704674Y-54549504D01*
X103704674Y-54549504D02*
X103738346Y-54650519D01*
X103738346Y-54650519D02*
X103738346Y-54785206D01*
X103738346Y-54785206D02*
X103671002Y-54919893D01*
X103671002Y-54919893D02*
X103502644Y-55088252D01*
X104209750Y-54381145D02*
X103502644Y-53674038D01*
X103974048Y-53202634D02*
X104108735Y-53067947D01*
X104108735Y-53067947D02*
X104209750Y-53034275D01*
X104209750Y-53034275D02*
X104344437Y-53034275D01*
X104344437Y-53034275D02*
X104512796Y-53135291D01*
X104512796Y-53135291D02*
X104748498Y-53370993D01*
X104748498Y-53370993D02*
X104849513Y-53539352D01*
X104849513Y-53539352D02*
X104849513Y-53674039D01*
X104849513Y-53674039D02*
X104815842Y-53775054D01*
X104815842Y-53775054D02*
X104681155Y-53909741D01*
X104681155Y-53909741D02*
X104580139Y-53943413D01*
X104580139Y-53943413D02*
X104445452Y-53943413D01*
X104445452Y-53943413D02*
X104277093Y-53842397D01*
X104277093Y-53842397D02*
X104041391Y-53606695D01*
X104041391Y-53606695D02*
X103940376Y-53438336D01*
X103940376Y-53438336D02*
X103940376Y-53303649D01*
X103940376Y-53303649D02*
X103974048Y-53202634D01*
X97547744Y-26280180D02*
X97357268Y-26280180D01*
X97357268Y-26280180D02*
X97262030Y-26232561D01*
X97262030Y-26232561D02*
X97166792Y-26137323D01*
X97166792Y-26137323D02*
X97119173Y-25946847D01*
X97119173Y-25946847D02*
X97119173Y-25613514D01*
X97119173Y-25613514D02*
X97166792Y-25423038D01*
X97166792Y-25423038D02*
X97262030Y-25327800D01*
X97262030Y-25327800D02*
X97357268Y-25280180D01*
X97357268Y-25280180D02*
X97547744Y-25280180D01*
X97547744Y-25280180D02*
X97642982Y-25327800D01*
X97642982Y-25327800D02*
X97738220Y-25423038D01*
X97738220Y-25423038D02*
X97785839Y-25613514D01*
X97785839Y-25613514D02*
X97785839Y-25946847D01*
X97785839Y-25946847D02*
X97738220Y-26137323D01*
X97738220Y-26137323D02*
X97642982Y-26232561D01*
X97642982Y-26232561D02*
X97547744Y-26280180D01*
X96357268Y-25803990D02*
X96690601Y-25803990D01*
X96690601Y-25280180D02*
X96690601Y-26280180D01*
X96690601Y-26280180D02*
X96214411Y-26280180D01*
X95500125Y-25803990D02*
X95833458Y-25803990D01*
X95833458Y-25280180D02*
X95833458Y-26280180D01*
X95833458Y-26280180D02*
X95357268Y-26280180D01*
X60736779Y-64669819D02*
X60736779Y-63669819D01*
X61212969Y-64669819D02*
X61212969Y-63669819D01*
X61212969Y-63669819D02*
X61784397Y-64669819D01*
X61784397Y-64669819D02*
X61784397Y-63669819D01*
X62561779Y-31369819D02*
X62561779Y-32179342D01*
X62561779Y-32179342D02*
X62609398Y-32274580D01*
X62609398Y-32274580D02*
X62657017Y-32322200D01*
X62657017Y-32322200D02*
X62752255Y-32369819D01*
X62752255Y-32369819D02*
X62942731Y-32369819D01*
X62942731Y-32369819D02*
X63037969Y-32322200D01*
X63037969Y-32322200D02*
X63085588Y-32274580D01*
X63085588Y-32274580D02*
X63133207Y-32179342D01*
X63133207Y-32179342D02*
X63133207Y-31369819D01*
X63561779Y-32322200D02*
X63704636Y-32369819D01*
X63704636Y-32369819D02*
X63942731Y-32369819D01*
X63942731Y-32369819D02*
X64037969Y-32322200D01*
X64037969Y-32322200D02*
X64085588Y-32274580D01*
X64085588Y-32274580D02*
X64133207Y-32179342D01*
X64133207Y-32179342D02*
X64133207Y-32084104D01*
X64133207Y-32084104D02*
X64085588Y-31988866D01*
X64085588Y-31988866D02*
X64037969Y-31941247D01*
X64037969Y-31941247D02*
X63942731Y-31893628D01*
X63942731Y-31893628D02*
X63752255Y-31846009D01*
X63752255Y-31846009D02*
X63657017Y-31798390D01*
X63657017Y-31798390D02*
X63609398Y-31750771D01*
X63609398Y-31750771D02*
X63561779Y-31655533D01*
X63561779Y-31655533D02*
X63561779Y-31560295D01*
X63561779Y-31560295D02*
X63609398Y-31465057D01*
X63609398Y-31465057D02*
X63657017Y-31417438D01*
X63657017Y-31417438D02*
X63752255Y-31369819D01*
X63752255Y-31369819D02*
X63990350Y-31369819D01*
X63990350Y-31369819D02*
X64133207Y-31417438D01*
X64895112Y-31846009D02*
X65037969Y-31893628D01*
X65037969Y-31893628D02*
X65085588Y-31941247D01*
X65085588Y-31941247D02*
X65133207Y-32036485D01*
X65133207Y-32036485D02*
X65133207Y-32179342D01*
X65133207Y-32179342D02*
X65085588Y-32274580D01*
X65085588Y-32274580D02*
X65037969Y-32322200D01*
X65037969Y-32322200D02*
X64942731Y-32369819D01*
X64942731Y-32369819D02*
X64561779Y-32369819D01*
X64561779Y-32369819D02*
X64561779Y-31369819D01*
X64561779Y-31369819D02*
X64895112Y-31369819D01*
X64895112Y-31369819D02*
X64990350Y-31417438D01*
X64990350Y-31417438D02*
X65037969Y-31465057D01*
X65037969Y-31465057D02*
X65085588Y-31560295D01*
X65085588Y-31560295D02*
X65085588Y-31655533D01*
X65085588Y-31655533D02*
X65037969Y-31750771D01*
X65037969Y-31750771D02*
X64990350Y-31798390D01*
X64990350Y-31798390D02*
X64895112Y-31846009D01*
X64895112Y-31846009D02*
X64561779Y-31846009D01*
X59063866Y-46221666D02*
X57663866Y-46221666D01*
X58930533Y-44754999D02*
X58997200Y-44821666D01*
X58997200Y-44821666D02*
X59063866Y-45021666D01*
X59063866Y-45021666D02*
X59063866Y-45154999D01*
X59063866Y-45154999D02*
X58997200Y-45354999D01*
X58997200Y-45354999D02*
X58863866Y-45488333D01*
X58863866Y-45488333D02*
X58730533Y-45554999D01*
X58730533Y-45554999D02*
X58463866Y-45621666D01*
X58463866Y-45621666D02*
X58263866Y-45621666D01*
X58263866Y-45621666D02*
X57997200Y-45554999D01*
X57997200Y-45554999D02*
X57863866Y-45488333D01*
X57863866Y-45488333D02*
X57730533Y-45354999D01*
X57730533Y-45354999D02*
X57663866Y-45154999D01*
X57663866Y-45154999D02*
X57663866Y-45021666D01*
X57663866Y-45021666D02*
X57730533Y-44821666D01*
X57730533Y-44821666D02*
X57797200Y-44754999D01*
X59063866Y-43421666D02*
X59063866Y-44221666D01*
X59063866Y-43821666D02*
X57663866Y-43821666D01*
X57663866Y-43821666D02*
X57863866Y-43954999D01*
X57863866Y-43954999D02*
X57997200Y-44088333D01*
X57997200Y-44088333D02*
X58063866Y-44221666D01*
D12*
%TO.C,C24*%
X39640000Y-37707836D02*
X39640000Y-37492164D01*
X40360000Y-37707836D02*
X40360000Y-37492164D01*
%TO.C,C121*%
X37387836Y-33440000D02*
X37172164Y-33440000D01*
X37387836Y-34160000D02*
X37172164Y-34160000D01*
%TO.C,C123*%
X32390000Y-34087836D02*
X32390000Y-33872164D01*
X33110000Y-34087836D02*
X33110000Y-33872164D01*
%TO.C,C4*%
X70315000Y-41807836D02*
X70315000Y-41592164D01*
X71035000Y-41807836D02*
X71035000Y-41592164D01*
D13*
%TO.C,IC2*%
X91900000Y-33850000D02*
G75*
G02*
X91650000Y-33850000I-125000J0D01*
G01*
X91650000Y-33850000D02*
G75*
G02*
X91900000Y-33850000I125000J0D01*
G01*
D14*
%TO.C,IC1*%
X60963000Y-40450000D02*
X61213000Y-40450000D01*
X60963000Y-40700000D02*
X60963000Y-40450000D01*
X60963000Y-47750000D02*
X60963000Y-47500000D01*
X61213000Y-47750000D02*
X60963000Y-47750000D01*
X68013000Y-40450000D02*
X68263000Y-40450000D01*
X68263000Y-40450000D02*
X68263000Y-40700000D01*
X68263000Y-47500000D02*
X68263000Y-47750000D01*
X68263000Y-47750000D02*
X68013000Y-47750000D01*
D15*
X61913000Y-49800000D02*
G75*
G02*
X61713000Y-49800000I-100000J0D01*
G01*
X61713000Y-49800000D02*
G75*
G02*
X61913000Y-49800000I100000J0D01*
G01*
D12*
%TO.C,C28*%
X90740580Y-34890000D02*
X90459420Y-34890000D01*
X90740580Y-35910000D02*
X90459420Y-35910000D01*
%TO.C,C18*%
X45372164Y-55840000D02*
X45587836Y-55840000D01*
X45372164Y-56560000D02*
X45587836Y-56560000D01*
%TO.C,C10*%
X67265000Y-33551252D02*
X67265000Y-33028748D01*
X68735000Y-33551252D02*
X68735000Y-33028748D01*
D16*
%TO.C,J6*%
X40250000Y-49900000D02*
X42730000Y-49900000D01*
X40250000Y-51180000D02*
X40250000Y-49900000D01*
X42270000Y-54100000D02*
X45880000Y-54100000D01*
X43150000Y-48770000D02*
X43750000Y-48770000D01*
X43450000Y-49270000D02*
X43150000Y-48770000D01*
X43750000Y-48770000D02*
X43450000Y-49270000D01*
X45420000Y-49900000D02*
X47900000Y-49900000D01*
X47900000Y-49900000D02*
X47900000Y-51180000D01*
D12*
%TO.C,U7*%
X105260000Y-29760043D02*
X106640000Y-29760043D01*
X105260000Y-31140043D02*
X105260000Y-29760043D01*
X105260000Y-32410043D02*
X105260000Y-45220043D01*
X105260000Y-32410043D02*
X108020000Y-32410043D01*
X105260000Y-45220043D02*
X108020000Y-45220043D01*
X108020000Y-32410043D02*
X108020000Y-45220043D01*
%TO.C,C124*%
X37212164Y-32440000D02*
X37427836Y-32440000D01*
X37212164Y-33160000D02*
X37427836Y-33160000D01*
%TO.C,Y1*%
X61590000Y-51390000D02*
X61590000Y-54810000D01*
X61590000Y-54810000D02*
X65710000Y-54810000D01*
%TO.C,FB2*%
X42324721Y-57290000D02*
X42650279Y-57290000D01*
X42324721Y-58310000D02*
X42650279Y-58310000D01*
D17*
%TO.C,U8*%
X40425000Y-32600000D02*
X44425000Y-32600000D01*
X40425000Y-36600000D02*
X40425000Y-32600000D01*
X43825000Y-36600000D02*
X40425000Y-36600000D01*
X44425000Y-32600000D02*
X44425000Y-36000000D01*
X44425000Y-36000000D02*
X43825000Y-36600000D01*
X44425000Y-36000000D02*
X44425000Y-36600000D01*
X44425000Y-36600000D02*
X43825000Y-36600000D01*
D12*
%TO.C,Y2*%
X44960000Y-24940000D02*
X40840000Y-24940000D01*
X44960000Y-28360000D02*
X44960000Y-24940000D01*
%TO.C,R6*%
X83865000Y-51972936D02*
X83865000Y-52427064D01*
X85335000Y-51972936D02*
X85335000Y-52427064D01*
%TO.C,C23*%
X42440000Y-38387836D02*
X42440000Y-38172164D01*
X43160000Y-38387836D02*
X43160000Y-38172164D01*
%TO.C,J8*%
X27400000Y-27200000D02*
X29800000Y-27200000D01*
X27400000Y-29600000D02*
X27400000Y-27200000D01*
X29800000Y-27200000D02*
X29800000Y-29600000D01*
X29800000Y-29600000D02*
X27400000Y-29600000D01*
%TO.C,C8*%
X65890000Y-53122164D02*
X65890000Y-53337836D01*
X66610000Y-53122164D02*
X66610000Y-53337836D01*
%TO.C,FB3*%
X45512221Y-57290000D02*
X45837779Y-57290000D01*
X45512221Y-58310000D02*
X45837779Y-58310000D01*
D16*
%TO.C,J7*%
X27285000Y-45500000D02*
X27285000Y-43500000D01*
X34285000Y-45500000D02*
X34285000Y-43500000D01*
D12*
%TO.C,C5*%
X72390580Y-39290000D02*
X72109420Y-39290000D01*
X72390580Y-40310000D02*
X72109420Y-40310000D01*
%TO.C,C14*%
X45715580Y-62690000D02*
X45434420Y-62690000D01*
X45715580Y-63710000D02*
X45434420Y-63710000D01*
%TO.C,C13*%
X49490000Y-56859420D02*
X49490000Y-57140580D01*
X50510000Y-56859420D02*
X50510000Y-57140580D01*
%TO.C,R5*%
X85865000Y-52427064D02*
X85865000Y-51972936D01*
X87335000Y-52427064D02*
X87335000Y-51972936D01*
%TO.C,C11*%
X74111252Y-27705000D02*
X73588748Y-27705000D01*
X74111252Y-29175000D02*
X73588748Y-29175000D01*
%TO.C,C26*%
X86340580Y-29690000D02*
X86059420Y-29690000D01*
X86340580Y-30710000D02*
X86059420Y-30710000D01*
%TO.C,D1*%
X58102500Y-31165000D02*
X58102500Y-32635000D01*
X58102500Y-32635000D02*
X60387500Y-32635000D01*
X60387500Y-31165000D02*
X58102500Y-31165000D01*
%TO.C,R12*%
X75390000Y-48227064D02*
X75390000Y-47772936D01*
X76860000Y-48227064D02*
X76860000Y-47772936D01*
%TO.C,C7*%
X62122164Y-55140000D02*
X62337836Y-55140000D01*
X62122164Y-55860000D02*
X62337836Y-55860000D01*
D16*
%TO.C,U3*%
X83550000Y-48195000D02*
X83550000Y-44205000D01*
X88600000Y-48195000D02*
X88600000Y-44205000D01*
D15*
X83670000Y-50450000D02*
G75*
G02*
X83470000Y-50450000I-100000J0D01*
G01*
X83470000Y-50450000D02*
G75*
G02*
X83670000Y-50450000I100000J0D01*
G01*
D12*
%TO.C,C16*%
X39411252Y-58865000D02*
X38888748Y-58865000D01*
X39411252Y-60335000D02*
X38888748Y-60335000D01*
%TO.C,R171*%
X41420000Y-38136359D02*
X41420000Y-38443641D01*
X42180000Y-38136359D02*
X42180000Y-38443641D01*
%TO.C,C6*%
X72390580Y-37290000D02*
X72109420Y-37290000D01*
X72390580Y-38310000D02*
X72109420Y-38310000D01*
%TO.C,C19*%
X47611252Y-27665000D02*
X47088748Y-27665000D01*
X47611252Y-29135000D02*
X47088748Y-29135000D01*
D16*
%TO.C,J4*%
X69725000Y-53000000D02*
X69725000Y-54550000D01*
X69725000Y-61050000D02*
X69725000Y-56850000D01*
X69725000Y-63300000D02*
X69725000Y-65000000D01*
X69725000Y-65000000D02*
X70675000Y-65000000D01*
X75075000Y-65000000D02*
X76025000Y-65000000D01*
X76025000Y-53000000D02*
X69725000Y-53000000D01*
X76025000Y-58400000D02*
X76025000Y-53000000D01*
X76025000Y-65000000D02*
X76025000Y-63300000D01*
D15*
X78075000Y-62300000D02*
G75*
G02*
X77875000Y-62300000I-100000J0D01*
G01*
X77875000Y-62300000D02*
G75*
G02*
X78075000Y-62300000I100000J0D01*
G01*
D12*
%TO.C,J2*%
X31675000Y-61670000D02*
X31675000Y-58210000D01*
X31675000Y-63290000D02*
X30205000Y-63290000D01*
X31675000Y-63860000D02*
X31675000Y-63290000D01*
X34435000Y-56020000D02*
X31675000Y-56020000D01*
X34435000Y-56590000D02*
X34435000Y-56020000D01*
X34435000Y-59130000D02*
X34435000Y-56020000D01*
X34435000Y-63290000D02*
X34435000Y-60750000D01*
X34435000Y-63860000D02*
X31675000Y-63860000D01*
X34435000Y-63860000D02*
X34435000Y-60750000D01*
%TO.C,C81*%
X44012164Y-28640000D02*
X44227836Y-28640000D01*
X44012164Y-29360000D02*
X44227836Y-29360000D01*
D16*
%TO.C,J5*%
X52575000Y-53000000D02*
X52575000Y-54550000D01*
X52575000Y-61050000D02*
X52575000Y-56850000D01*
X52575000Y-63300000D02*
X52575000Y-65000000D01*
X52575000Y-65000000D02*
X53525000Y-65000000D01*
X57925000Y-65000000D02*
X58875000Y-65000000D01*
X58875000Y-53000000D02*
X52575000Y-53000000D01*
X58875000Y-58400000D02*
X58875000Y-53000000D01*
X58875000Y-65000000D02*
X58875000Y-63300000D01*
D15*
X60925000Y-62300000D02*
G75*
G02*
X60725000Y-62300000I-100000J0D01*
G01*
X60725000Y-62300000D02*
G75*
G02*
X60925000Y-62300000I100000J0D01*
G01*
D12*
%TO.C,C22*%
X38640000Y-37707836D02*
X38640000Y-37492164D01*
X39360000Y-37707836D02*
X39360000Y-37492164D01*
D16*
%TO.C,U2*%
X91174300Y-55190000D02*
X91174300Y-52010000D01*
X96025700Y-52010000D02*
X96025700Y-55190000D01*
D15*
X91795000Y-57600000D02*
G75*
G02*
X91595000Y-57600000I-100000J0D01*
G01*
X91595000Y-57600000D02*
G75*
G02*
X91795000Y-57600000I100000J0D01*
G01*
D12*
%TO.C,C15*%
X39284420Y-60890000D02*
X39565580Y-60890000D01*
X39284420Y-61910000D02*
X39565580Y-61910000D01*
%TO.C,C1*%
X59890580Y-51190000D02*
X59609420Y-51190000D01*
X59890580Y-52210000D02*
X59609420Y-52210000D01*
%TO.C,C101*%
X40692164Y-28640000D02*
X40907836Y-28640000D01*
X40692164Y-29360000D02*
X40907836Y-29360000D01*
%TO.C,R1*%
X56895000Y-31543641D02*
X56895000Y-31236359D01*
X57655000Y-31543641D02*
X57655000Y-31236359D01*
%TO.C,C27*%
X86340580Y-32890000D02*
X86059420Y-32890000D01*
X86340580Y-33910000D02*
X86059420Y-33910000D01*
D18*
%TO.C,U5*%
X42725000Y-59012500D02*
X45525000Y-59012500D01*
X42725000Y-61812500D02*
X42725000Y-59012500D01*
X43625000Y-59612500D02*
X43025000Y-59612500D01*
X45525000Y-59012500D02*
X45525000Y-61812500D01*
X45525000Y-61812500D02*
X42725000Y-61812500D01*
X43025000Y-59612500D02*
G75*
G02*
X43625000Y-59612500I300000J0D01*
G01*
D12*
%TO.C,R8*%
X89272936Y-40015000D02*
X89727064Y-40015000D01*
X89272936Y-41485000D02*
X89727064Y-41485000D01*
%TO.C,C25*%
X38892164Y-31440000D02*
X39107836Y-31440000D01*
X38892164Y-32160000D02*
X39107836Y-32160000D01*
%TO.C,C131*%
X38440000Y-35587836D02*
X38440000Y-35372164D01*
X39160000Y-35587836D02*
X39160000Y-35372164D01*
%TO.C,R11*%
X75390000Y-43977064D02*
X75390000Y-43522936D01*
X76860000Y-43977064D02*
X76860000Y-43522936D01*
%TO.C,R2*%
X52545000Y-29976359D02*
X52545000Y-30283641D01*
X53305000Y-29976359D02*
X53305000Y-30283641D01*
%TO.C,R10*%
X81772936Y-39515000D02*
X82227064Y-39515000D01*
X81772936Y-40985000D02*
X82227064Y-40985000D01*
D11*
%TO.C,J1*%
X59650000Y-23955000D02*
X59650000Y-24105000D01*
X59650000Y-26505000D02*
X59650000Y-27905000D01*
X62000000Y-29655000D02*
X61000000Y-29655000D01*
X64875000Y-30080000D02*
X65600000Y-30080000D01*
X65600000Y-29655000D02*
X66600000Y-29655000D01*
X65600000Y-30080000D02*
X65600000Y-29655000D01*
X67950000Y-24105000D02*
X67950000Y-23955000D01*
X67950000Y-27905000D02*
X67950000Y-26505000D01*
D16*
%TO.C,U4*%
X77785000Y-44205000D02*
X77785000Y-48195000D01*
X82835000Y-44205000D02*
X82835000Y-48195000D01*
D15*
X82915000Y-41950000D02*
G75*
G02*
X82715000Y-41950000I-100000J0D01*
G01*
X82715000Y-41950000D02*
G75*
G02*
X82915000Y-41950000I100000J0D01*
G01*
D12*
%TO.C,R13*%
X49265000Y-60627064D02*
X49265000Y-60172936D01*
X50735000Y-60627064D02*
X50735000Y-60172936D01*
%TO.C,C125*%
X31377836Y-34140000D02*
X31162164Y-34140000D01*
X31377836Y-34860000D02*
X31162164Y-34860000D01*
%TO.C,L1*%
X93290000Y-32061252D02*
X93290000Y-31538748D01*
X95510000Y-32061252D02*
X95510000Y-31538748D01*
%TO.C,J3*%
X105295000Y-49620000D02*
X106675000Y-49620000D01*
X105295000Y-51000000D02*
X105295000Y-49620000D01*
X105295000Y-52270000D02*
X105295000Y-60000000D01*
X105295000Y-52270000D02*
X108055000Y-52270000D01*
X105295000Y-60000000D02*
X108055000Y-60000000D01*
X108055000Y-52270000D02*
X108055000Y-60000000D01*
%TO.C,R3*%
X80865000Y-30427064D02*
X80865000Y-29972936D01*
X82335000Y-30427064D02*
X82335000Y-29972936D01*
%TO.C,C17*%
X42642164Y-55840000D02*
X42857836Y-55840000D01*
X42642164Y-56560000D02*
X42857836Y-56560000D01*
%TO.C,C51*%
X45692164Y-32640000D02*
X45907836Y-32640000D01*
X45692164Y-33360000D02*
X45907836Y-33360000D01*
D15*
%TO.C,K1*%
X78775000Y-55670000D02*
X78775000Y-55670000D01*
X78775000Y-55670000D02*
X78775000Y-62870000D01*
X78775000Y-62870000D02*
X78775000Y-55670000D01*
X78775000Y-62870000D02*
X78775000Y-62870000D01*
X87775000Y-54670000D02*
X87775000Y-54670000D01*
X87975000Y-54670000D02*
X87975000Y-54670000D01*
X89375000Y-55670000D02*
X89375000Y-55670000D01*
X89375000Y-55670000D02*
X89375000Y-62870000D01*
X89375000Y-62870000D02*
X89375000Y-55670000D01*
X89375000Y-62870000D02*
X89375000Y-62870000D01*
X87775000Y-54670000D02*
G75*
G02*
X87975000Y-54670000I100000J0D01*
G01*
X87975000Y-54670000D02*
G75*
G02*
X87775000Y-54670000I-100000J0D01*
G01*
D12*
%TO.C,C20*%
X45907836Y-33640000D02*
X45692164Y-33640000D01*
X45907836Y-34360000D02*
X45692164Y-34360000D01*
%TO.C,R7*%
X95015000Y-41977064D02*
X95015000Y-41522936D01*
X96485000Y-41977064D02*
X96485000Y-41522936D01*
%TO.C,R4*%
X80865000Y-33827064D02*
X80865000Y-33372936D01*
X82335000Y-33827064D02*
X82335000Y-33372936D01*
%TO.C,R14*%
X41985436Y-62515000D02*
X42439564Y-62515000D01*
X41985436Y-63985000D02*
X42439564Y-63985000D01*
%TO.C,U1*%
X71700000Y-30030000D02*
X75460000Y-30030000D01*
X71700000Y-36850000D02*
X75460000Y-36850000D01*
X75460000Y-30030000D02*
X75460000Y-31290000D01*
X75460000Y-36850000D02*
X75460000Y-35590000D01*
X70420000Y-30130000D02*
X70180000Y-29800000D01*
X70660000Y-29800000D01*
X70420000Y-30130000D01*
G36*
X70420000Y-30130000D02*
G01*
X70180000Y-29800000D01*
X70660000Y-29800000D01*
X70420000Y-30130000D01*
G37*
%TO.C,R9*%
X85522936Y-40015000D02*
X85977064Y-40015000D01*
X85522936Y-41485000D02*
X85977064Y-41485000D01*
%TO.C,SW2*%
X87275000Y-26010000D02*
X87275000Y-26800000D01*
X89325000Y-27850000D02*
X89125000Y-27850000D01*
X90825000Y-23710000D02*
X90825000Y-25000000D01*
X90825000Y-23710000D02*
X91025000Y-23500000D01*
X91925000Y-23500000D02*
X91025000Y-23500000D01*
X92125000Y-23710000D02*
X91925000Y-23500000D01*
X92125000Y-25000000D02*
X92125000Y-23710000D01*
X92325000Y-27850000D02*
X90625000Y-27850000D01*
X93575000Y-25000000D02*
X87875000Y-25000000D01*
X94175000Y-26800000D02*
X94175000Y-26010000D01*
%TO.C,C21*%
X41440000Y-30692164D02*
X41440000Y-30907836D01*
X42160000Y-30692164D02*
X42160000Y-30907836D01*
%TO.C,C3*%
X67747164Y-38040000D02*
X67962836Y-38040000D01*
X67747164Y-38760000D02*
X67962836Y-38760000D01*
%TO.C,C2*%
X60982836Y-49940000D02*
X60767164Y-49940000D01*
X60982836Y-50660000D02*
X60767164Y-50660000D01*
%TO.C,C9*%
X67642164Y-51890000D02*
X67857836Y-51890000D01*
X67642164Y-52610000D02*
X67857836Y-52610000D01*
%TO.C,C12*%
X93261252Y-40015000D02*
X92738748Y-40015000D01*
X93261252Y-41485000D02*
X92738748Y-41485000D01*
%TO.C,C122*%
X34390000Y-35872164D02*
X34390000Y-36087836D01*
X35110000Y-35872164D02*
X35110000Y-36087836D01*
%TO.C,FB1*%
X74365000Y-38950279D02*
X74365000Y-38624721D01*
X75385000Y-38950279D02*
X75385000Y-38624721D01*
%TO.C,SW1*%
X50275000Y-26000000D02*
X50275000Y-26790000D01*
X52325000Y-27840000D02*
X52125000Y-27840000D01*
X53825000Y-23700000D02*
X53825000Y-24990000D01*
X53825000Y-23700000D02*
X54025000Y-23490000D01*
X54925000Y-23490000D02*
X54025000Y-23490000D01*
X55125000Y-23700000D02*
X54925000Y-23490000D01*
X55125000Y-24990000D02*
X55125000Y-23700000D01*
X55325000Y-27840000D02*
X53625000Y-27840000D01*
X56575000Y-24990000D02*
X50875000Y-24990000D01*
X57175000Y-26790000D02*
X57175000Y-26000000D01*
D19*
%TO.C,B1*%
X25602700Y-53950100D02*
G75*
G02*
X24840700Y-53950100I-381000J0D01*
G01*
X24840700Y-53950100D02*
G75*
G02*
X25602700Y-53950100I381000J0D01*
G01*
%TD*%
M02*
