%TF.GenerationSoftware,KiCad,Pcbnew,9.0.6*%
%TF.CreationDate,2026-03-25T17:50:45+01:00*%
%TF.ProjectId,Audio_watermark_generator,41756469-6f5f-4776-9174-65726d61726b,1.0*%
%TF.SameCoordinates,Original*%
%TF.FileFunction,Soldermask,Top*%
%TF.FilePolarity,Negative*%
%FSLAX46Y46*%
G04 Gerber Fmt 4.6, Leading zero omitted, Abs format (unit mm)*
G04 Created by KiCad (PCBNEW 9.0.6) date 2026-03-25 17:50:45*
%MOMM*%
%LPD*%
G01*
G04 APERTURE LIST*
G04 Aperture macros list*
%AMRoundRect*
0 Rectangle with rounded corners*
0 $1 Rounding radius*
0 $2 $3 $4 $5 $6 $7 $8 $9 X,Y pos of 4 corners*
0 Add a 4 corners polygon primitive as box body*
4,1,4,$2,$3,$4,$5,$6,$7,$8,$9,$2,$3,0*
0 Add four circle primitives for the rounded corners*
1,1,$1+$1,$2,$3*
1,1,$1+$1,$4,$5*
1,1,$1+$1,$6,$7*
1,1,$1+$1,$8,$9*
0 Add four rect primitives between the rounded corners*
20,1,$1+$1,$2,$3,$4,$5,0*
20,1,$1+$1,$4,$5,$6,$7,0*
20,1,$1+$1,$6,$7,$8,$9,0*
20,1,$1+$1,$8,$9,$2,$3,0*%
G04 Aperture macros list end*
%ADD10C,0.010000*%
%ADD11RoundRect,0.140000X0.170000X-0.140000X0.170000X0.140000X-0.170000X0.140000X-0.170000X-0.140000X0*%
%ADD12RoundRect,0.140000X0.140000X0.170000X-0.140000X0.170000X-0.140000X-0.170000X0.140000X-0.170000X0*%
%ADD13R,0.800000X0.300000*%
%ADD14R,0.300000X0.800000*%
%ADD15R,1.750000X2.750000*%
%ADD16RoundRect,0.147500X0.147500X0.172500X-0.147500X0.172500X-0.147500X-0.172500X0.147500X-0.172500X0*%
%ADD17RoundRect,0.094250X0.282750X-0.787750X0.282750X0.787750X-0.282750X0.787750X-0.282750X-0.787750X0*%
%ADD18RoundRect,0.094250X0.787750X-0.282750X0.787750X0.282750X-0.787750X0.282750X-0.787750X-0.282750X0*%
%ADD19RoundRect,0.225000X0.225000X0.250000X-0.225000X0.250000X-0.225000X-0.250000X0.225000X-0.250000X0*%
%ADD20RoundRect,0.140000X-0.140000X-0.170000X0.140000X-0.170000X0.140000X0.170000X-0.140000X0.170000X0*%
%ADD21RoundRect,0.250000X0.475000X-0.250000X0.475000X0.250000X-0.475000X0.250000X-0.475000X-0.250000X0*%
%ADD22R,1.700000X1.700000*%
%ADD23C,1.700000*%
%ADD24RoundRect,0.250000X-0.450000X-0.350000X0.450000X-0.350000X0.450000X0.350000X-0.450000X0.350000X0*%
%ADD25RoundRect,0.218750X-0.218750X-0.256250X0.218750X-0.256250X0.218750X0.256250X-0.218750X0.256250X0*%
%ADD26RoundRect,0.102000X0.380000X0.140000X-0.380000X0.140000X-0.380000X-0.140000X0.380000X-0.140000X0*%
%ADD27RoundRect,0.102000X0.140000X0.380000X-0.140000X0.380000X-0.140000X-0.380000X0.140000X-0.380000X0*%
%ADD28RoundRect,0.102000X1.200000X1.200000X-1.200000X1.200000X-1.200000X-1.200000X1.200000X-1.200000X0*%
%ADD29RoundRect,0.250000X0.450000X0.350000X-0.450000X0.350000X-0.450000X-0.350000X0.450000X-0.350000X0*%
%ADD30RoundRect,0.250000X-0.450000X0.262500X-0.450000X-0.262500X0.450000X-0.262500X0.450000X0.262500X0*%
%ADD31R,2.000000X2.000000*%
%ADD32RoundRect,0.140000X-0.170000X0.140000X-0.170000X-0.140000X0.170000X-0.140000X0.170000X0.140000X0*%
%ADD33C,2.254000*%
%ADD34RoundRect,0.225000X-0.250000X0.225000X-0.250000X-0.225000X0.250000X-0.225000X0.250000X0.225000X0*%
%ADD35RoundRect,0.250000X0.450000X-0.262500X0.450000X0.262500X-0.450000X0.262500X-0.450000X-0.262500X0*%
%ADD36RoundRect,0.147500X0.172500X-0.147500X0.172500X0.147500X-0.172500X0.147500X-0.172500X-0.147500X0*%
%ADD37RoundRect,0.250000X0.250000X0.475000X-0.250000X0.475000X-0.250000X-0.475000X0.250000X-0.475000X0*%
%ADD38RoundRect,0.100500X0.301500X-0.791500X0.301500X0.791500X-0.301500X0.791500X-0.301500X-0.791500X0*%
%ADD39RoundRect,0.135000X-0.185000X0.135000X-0.185000X-0.135000X0.185000X-0.135000X0.185000X0.135000X0*%
%ADD40C,1.400000*%
%ADD41RoundRect,0.102000X1.000000X-0.750000X1.000000X0.750000X-1.000000X0.750000X-1.000000X-0.750000X0*%
%ADD42RoundRect,0.102000X0.800000X-0.750000X0.800000X0.750000X-0.800000X0.750000X-0.800000X-0.750000X0*%
%ADD43R,2.510000X1.000000*%
%ADD44RoundRect,0.147500X-0.147500X-0.172500X0.147500X-0.172500X0.147500X0.172500X-0.147500X0.172500X0*%
%ADD45RoundRect,0.102000X0.290000X-0.775000X0.290000X0.775000X-0.290000X0.775000X-0.290000X-0.775000X0*%
%ADD46RoundRect,0.225000X-0.225000X-0.250000X0.225000X-0.250000X0.225000X0.250000X-0.225000X0.250000X0*%
%ADD47RoundRect,0.135000X0.185000X-0.135000X0.185000X0.135000X-0.185000X0.135000X-0.185000X-0.135000X0*%
%ADD48RoundRect,0.102000X-0.600000X0.150000X-0.600000X-0.150000X0.600000X-0.150000X0.600000X0.150000X0*%
%ADD49RoundRect,0.250000X-0.262500X-0.450000X0.262500X-0.450000X0.262500X0.450000X-0.262500X0.450000X0*%
%ADD50O,0.800000X0.800000*%
%ADD51R,0.450000X1.300000*%
%ADD52O,1.150000X1.800000*%
%ADD53O,1.450000X2.000000*%
%ADD54RoundRect,0.100500X-0.301500X0.791500X-0.301500X-0.791500X0.301500X-0.791500X0.301500X0.791500X0*%
%ADD55RoundRect,0.250000X0.850000X-0.375000X0.850000X0.375000X-0.850000X0.375000X-0.850000X-0.375000X0*%
%ADD56R,0.800000X2.060000*%
%ADD57RoundRect,0.375000X-0.625000X-0.375000X0.625000X-0.375000X0.625000X0.375000X-0.625000X0.375000X0*%
%ADD58RoundRect,0.500000X-0.500000X-1.400000X0.500000X-1.400000X0.500000X1.400000X-0.500000X1.400000X0*%
%ADD59R,1.000000X0.800000*%
%ADD60C,0.900000*%
%ADD61R,0.700000X1.500000*%
%ADD62RoundRect,0.218750X0.256250X-0.218750X0.256250X0.218750X-0.256250X0.218750X-0.256250X-0.218750X0*%
%ADD63C,3.556000*%
%ADD64C,3.180000*%
%ADD65C,2.387600*%
%ADD66C,1.828800*%
G04 APERTURE END LIST*
D10*
%TO.C,J6*%
X42026200Y-54576200D02*
X39773800Y-54576200D01*
X39773800Y-51423800D01*
X42026200Y-51423800D01*
X42026200Y-54576200D01*
G36*
X42026200Y-54576200D02*
G01*
X39773800Y-54576200D01*
X39773800Y-51423800D01*
X42026200Y-51423800D01*
X42026200Y-54576200D01*
G37*
X43926200Y-50976200D02*
X42973800Y-50976200D01*
X42973800Y-49523800D01*
X43926200Y-49523800D01*
X43926200Y-50976200D01*
G36*
X43926200Y-50976200D02*
G01*
X42973800Y-50976200D01*
X42973800Y-49523800D01*
X43926200Y-49523800D01*
X43926200Y-50976200D01*
G37*
X45176200Y-50976200D02*
X44223800Y-50976200D01*
X44223800Y-49523800D01*
X45176200Y-49523800D01*
X45176200Y-50976200D01*
G36*
X45176200Y-50976200D02*
G01*
X44223800Y-50976200D01*
X44223800Y-49523800D01*
X45176200Y-49523800D01*
X45176200Y-50976200D01*
G37*
X48376200Y-54576200D02*
X46123800Y-54576200D01*
X46123800Y-51423800D01*
X48376200Y-51423800D01*
X48376200Y-54576200D01*
G36*
X48376200Y-54576200D02*
G01*
X46123800Y-54576200D01*
X46123800Y-51423800D01*
X48376200Y-51423800D01*
X48376200Y-54576200D01*
G37*
%TO.C,J7*%
X29445000Y-42730000D02*
X29400000Y-42769000D01*
X29349000Y-42816000D01*
X29300000Y-42864000D01*
X29252000Y-42913000D01*
X29205000Y-42964000D01*
X29160000Y-43016000D01*
X29116000Y-43070000D01*
X29074000Y-43125000D01*
X29034000Y-43180000D01*
X28995000Y-43238000D01*
X28958000Y-43296000D01*
X28923000Y-43355000D01*
X28889000Y-43415000D01*
X28857000Y-43476000D01*
X28827000Y-43538000D01*
X28799000Y-43601000D01*
X28773000Y-43665000D01*
X28748000Y-43730000D01*
X28725000Y-43795000D01*
X28705000Y-43861000D01*
X28686000Y-43927000D01*
X28669000Y-43994000D01*
X28654000Y-44061000D01*
X28641000Y-44129000D01*
X28630000Y-44197000D01*
X28621000Y-44265000D01*
X28614000Y-44334000D01*
X28609000Y-44403000D01*
X28606000Y-44472000D01*
X28605000Y-44550000D01*
X28609000Y-44626000D01*
X28614000Y-44690000D01*
X28621000Y-44754000D01*
X28629000Y-44818000D01*
X28640000Y-44881000D01*
X28652000Y-44944000D01*
X28667000Y-45007000D01*
X28683000Y-45069000D01*
X28701000Y-45131000D01*
X28720000Y-45192000D01*
X28742000Y-45253000D01*
X28765000Y-45313000D01*
X28790000Y-45372000D01*
X28817000Y-45431000D01*
X28845000Y-45488000D01*
X28875000Y-45545000D01*
X28907000Y-45601000D01*
X28940000Y-45656000D01*
X28975000Y-45710000D01*
X29011000Y-45763000D01*
X29049000Y-45815000D01*
X29089000Y-45866000D01*
X29130000Y-45916000D01*
X29172000Y-45964000D01*
X29216000Y-46011000D01*
X29261000Y-46057000D01*
X29307000Y-46102000D01*
X29355000Y-46145000D01*
X29404000Y-46187000D01*
X29445000Y-46220000D01*
X29445000Y-48480000D01*
X26805000Y-48480000D01*
X26805000Y-40520000D01*
X29445000Y-40520000D01*
X29445000Y-42730000D01*
G36*
X29445000Y-42730000D02*
G01*
X29400000Y-42769000D01*
X29349000Y-42816000D01*
X29300000Y-42864000D01*
X29252000Y-42913000D01*
X29205000Y-42964000D01*
X29160000Y-43016000D01*
X29116000Y-43070000D01*
X29074000Y-43125000D01*
X29034000Y-43180000D01*
X28995000Y-43238000D01*
X28958000Y-43296000D01*
X28923000Y-43355000D01*
X28889000Y-43415000D01*
X28857000Y-43476000D01*
X28827000Y-43538000D01*
X28799000Y-43601000D01*
X28773000Y-43665000D01*
X28748000Y-43730000D01*
X28725000Y-43795000D01*
X28705000Y-43861000D01*
X28686000Y-43927000D01*
X28669000Y-43994000D01*
X28654000Y-44061000D01*
X28641000Y-44129000D01*
X28630000Y-44197000D01*
X28621000Y-44265000D01*
X28614000Y-44334000D01*
X28609000Y-44403000D01*
X28606000Y-44472000D01*
X28605000Y-44550000D01*
X28609000Y-44626000D01*
X28614000Y-44690000D01*
X28621000Y-44754000D01*
X28629000Y-44818000D01*
X28640000Y-44881000D01*
X28652000Y-44944000D01*
X28667000Y-45007000D01*
X28683000Y-45069000D01*
X28701000Y-45131000D01*
X28720000Y-45192000D01*
X28742000Y-45253000D01*
X28765000Y-45313000D01*
X28790000Y-45372000D01*
X28817000Y-45431000D01*
X28845000Y-45488000D01*
X28875000Y-45545000D01*
X28907000Y-45601000D01*
X28940000Y-45656000D01*
X28975000Y-45710000D01*
X29011000Y-45763000D01*
X29049000Y-45815000D01*
X29089000Y-45866000D01*
X29130000Y-45916000D01*
X29172000Y-45964000D01*
X29216000Y-46011000D01*
X29261000Y-46057000D01*
X29307000Y-46102000D01*
X29355000Y-46145000D01*
X29404000Y-46187000D01*
X29445000Y-46220000D01*
X29445000Y-48480000D01*
X26805000Y-48480000D01*
X26805000Y-40520000D01*
X29445000Y-40520000D01*
X29445000Y-42730000D01*
G37*
X34765000Y-48480000D02*
X32125000Y-48480000D01*
X32125000Y-46220000D01*
X32176000Y-46177000D01*
X32226000Y-46133000D01*
X32274000Y-46088000D01*
X32321000Y-46042000D01*
X32366000Y-45994000D01*
X32410000Y-45945000D01*
X32452000Y-45895000D01*
X32493000Y-45843000D01*
X32533000Y-45790000D01*
X32571000Y-45737000D01*
X32607000Y-45682000D01*
X32642000Y-45626000D01*
X32675000Y-45569000D01*
X32706000Y-45511000D01*
X32736000Y-45452000D01*
X32764000Y-45392000D01*
X32790000Y-45332000D01*
X32815000Y-45271000D01*
X32838000Y-45209000D01*
X32859000Y-45147000D01*
X32878000Y-45084000D01*
X32895000Y-45020000D01*
X32910000Y-44956000D01*
X32924000Y-44891000D01*
X32935000Y-44827000D01*
X32945000Y-44761000D01*
X32953000Y-44696000D01*
X32959000Y-44630000D01*
X32963000Y-44565000D01*
X32965000Y-44500000D01*
X32964000Y-44448000D01*
X32961000Y-44381000D01*
X32956000Y-44314000D01*
X32949000Y-44247000D01*
X32941000Y-44180000D01*
X32930000Y-44113000D01*
X32917000Y-44047000D01*
X32903000Y-43981000D01*
X32886000Y-43916000D01*
X32868000Y-43851000D01*
X32847000Y-43787000D01*
X32825000Y-43723000D01*
X32801000Y-43660000D01*
X32775000Y-43598000D01*
X32748000Y-43536000D01*
X32718000Y-43475000D01*
X32687000Y-43416000D01*
X32655000Y-43357000D01*
X32620000Y-43299000D01*
X32584000Y-43242000D01*
X32546000Y-43186000D01*
X32506000Y-43132000D01*
X32465000Y-43078000D01*
X32423000Y-43026000D01*
X32379000Y-42975000D01*
X32333000Y-42925000D01*
X32286000Y-42877000D01*
X32238000Y-42830000D01*
X32188000Y-42784000D01*
X32125000Y-42730000D01*
X32125000Y-40520000D01*
X34765000Y-40520000D01*
X34765000Y-48480000D01*
G36*
X34765000Y-48480000D02*
G01*
X32125000Y-48480000D01*
X32125000Y-46220000D01*
X32176000Y-46177000D01*
X32226000Y-46133000D01*
X32274000Y-46088000D01*
X32321000Y-46042000D01*
X32366000Y-45994000D01*
X32410000Y-45945000D01*
X32452000Y-45895000D01*
X32493000Y-45843000D01*
X32533000Y-45790000D01*
X32571000Y-45737000D01*
X32607000Y-45682000D01*
X32642000Y-45626000D01*
X32675000Y-45569000D01*
X32706000Y-45511000D01*
X32736000Y-45452000D01*
X32764000Y-45392000D01*
X32790000Y-45332000D01*
X32815000Y-45271000D01*
X32838000Y-45209000D01*
X32859000Y-45147000D01*
X32878000Y-45084000D01*
X32895000Y-45020000D01*
X32910000Y-44956000D01*
X32924000Y-44891000D01*
X32935000Y-44827000D01*
X32945000Y-44761000D01*
X32953000Y-44696000D01*
X32959000Y-44630000D01*
X32963000Y-44565000D01*
X32965000Y-44500000D01*
X32964000Y-44448000D01*
X32961000Y-44381000D01*
X32956000Y-44314000D01*
X32949000Y-44247000D01*
X32941000Y-44180000D01*
X32930000Y-44113000D01*
X32917000Y-44047000D01*
X32903000Y-43981000D01*
X32886000Y-43916000D01*
X32868000Y-43851000D01*
X32847000Y-43787000D01*
X32825000Y-43723000D01*
X32801000Y-43660000D01*
X32775000Y-43598000D01*
X32748000Y-43536000D01*
X32718000Y-43475000D01*
X32687000Y-43416000D01*
X32655000Y-43357000D01*
X32620000Y-43299000D01*
X32584000Y-43242000D01*
X32546000Y-43186000D01*
X32506000Y-43132000D01*
X32465000Y-43078000D01*
X32423000Y-43026000D01*
X32379000Y-42975000D01*
X32333000Y-42925000D01*
X32286000Y-42877000D01*
X32238000Y-42830000D01*
X32188000Y-42784000D01*
X32125000Y-42730000D01*
X32125000Y-40520000D01*
X34765000Y-40520000D01*
X34765000Y-48480000D01*
G37*
%TD*%
D11*
%TO.C,C24*%
X40000000Y-38080000D03*
X40000000Y-37120000D03*
%TD*%
D12*
%TO.C,C121*%
X37760000Y-33800000D03*
X36800000Y-33800000D03*
%TD*%
D11*
%TO.C,C123*%
X32750000Y-34460000D03*
X32750000Y-33500000D03*
%TD*%
%TO.C,C4*%
X70675000Y-42180000D03*
X70675000Y-41220000D03*
%TD*%
D13*
%TO.C,IC2*%
X91375000Y-33100000D03*
X91375000Y-32600000D03*
X91375000Y-32100000D03*
X91375000Y-31600000D03*
X91375000Y-31100000D03*
X91375000Y-30600000D03*
D14*
X90625000Y-29850000D03*
X90125000Y-29850000D03*
X89625000Y-29850000D03*
X89125000Y-29850000D03*
D13*
X88375000Y-30600000D03*
X88375000Y-31100000D03*
X88375000Y-31600000D03*
X88375000Y-32100000D03*
X88375000Y-32600000D03*
X88375000Y-33100000D03*
D14*
X89125000Y-33850000D03*
X89625000Y-33850000D03*
X90125000Y-33850000D03*
X90625000Y-33850000D03*
D15*
X89875000Y-31850000D03*
%TD*%
D16*
%TO.C,FB4*%
X47370000Y-26800000D03*
X46400000Y-26800000D03*
%TD*%
D17*
%TO.C,IC1*%
X61813000Y-48280000D03*
X62613000Y-48280000D03*
X63413000Y-48280000D03*
X64213000Y-48280000D03*
X65013000Y-48280000D03*
X65813000Y-48280000D03*
X66613000Y-48280000D03*
X67413000Y-48280000D03*
D18*
X68793000Y-46900000D03*
X68793000Y-46100000D03*
X68793000Y-45300000D03*
X68793000Y-44500000D03*
X68793000Y-43700000D03*
X68793000Y-42900000D03*
X68793000Y-42100000D03*
X68793000Y-41300000D03*
D17*
X67413000Y-39920000D03*
X66613000Y-39920000D03*
X65813000Y-39920000D03*
X65013000Y-39920000D03*
X64213000Y-39920000D03*
X63413000Y-39920000D03*
X62613000Y-39920000D03*
X61813000Y-39920000D03*
D18*
X60433000Y-41300000D03*
X60433000Y-42100000D03*
X60433000Y-42900000D03*
X60433000Y-43700000D03*
X60433000Y-44500000D03*
X60433000Y-45300000D03*
X60433000Y-46100000D03*
X60433000Y-46900000D03*
%TD*%
D19*
%TO.C,C28*%
X91375000Y-35400000D03*
X89825000Y-35400000D03*
%TD*%
D20*
%TO.C,C18*%
X45000000Y-56200000D03*
X45960000Y-56200000D03*
%TD*%
D21*
%TO.C,C10*%
X68000000Y-34240000D03*
X68000000Y-32340000D03*
%TD*%
D22*
%TO.C,U7*%
X106640000Y-31140043D03*
D23*
X106640000Y-33680043D03*
X106640000Y-36220043D03*
X106640000Y-38760043D03*
X106640000Y-41300043D03*
X106640000Y-43840043D03*
%TD*%
D20*
%TO.C,C124*%
X36840000Y-32800000D03*
X37800000Y-32800000D03*
%TD*%
D24*
%TO.C,Y1*%
X62550000Y-53950000D03*
X64750000Y-53950000D03*
X64750000Y-52250000D03*
X62550000Y-52250000D03*
%TD*%
D25*
%TO.C,FB2*%
X41700000Y-57800000D03*
X43275000Y-57800000D03*
%TD*%
D26*
%TO.C,U8*%
X44205000Y-35600000D03*
X44205000Y-35100000D03*
X44205000Y-34600000D03*
X44205000Y-34100000D03*
X44205000Y-33600000D03*
D27*
X43425000Y-32820000D03*
X42925000Y-32820000D03*
X42425000Y-32820000D03*
X41925000Y-32820000D03*
X41425000Y-32820000D03*
D26*
X40645000Y-33600000D03*
X40645000Y-34100000D03*
X40645000Y-34600000D03*
X40645000Y-35100000D03*
X40645000Y-35600000D03*
D27*
X41425000Y-36380000D03*
X41925000Y-36380000D03*
X42425000Y-36380000D03*
X42925000Y-36380000D03*
X43425000Y-36380000D03*
D28*
X42425000Y-34600000D03*
%TD*%
D29*
%TO.C,Y2*%
X44000000Y-25800000D03*
X41800000Y-25800000D03*
X41800000Y-27500000D03*
X44000000Y-27500000D03*
%TD*%
D30*
%TO.C,R6*%
X84600000Y-51287500D03*
X84600000Y-53112500D03*
%TD*%
D11*
%TO.C,C23*%
X42800000Y-38760000D03*
X42800000Y-37800000D03*
%TD*%
D31*
%TO.C,J8*%
X28600000Y-28400000D03*
%TD*%
D32*
%TO.C,C8*%
X66250000Y-52750000D03*
X66250000Y-53710000D03*
%TD*%
D25*
%TO.C,FB3*%
X44887500Y-57800000D03*
X46462500Y-57800000D03*
%TD*%
D33*
%TO.C,J7*%
X30785000Y-44500000D03*
%TD*%
D19*
%TO.C,C5*%
X73025000Y-39800000D03*
X71475000Y-39800000D03*
%TD*%
%TO.C,C14*%
X46350000Y-63200000D03*
X44800000Y-63200000D03*
%TD*%
D34*
%TO.C,C13*%
X50000000Y-56225000D03*
X50000000Y-57775000D03*
%TD*%
D35*
%TO.C,R5*%
X86600000Y-53112500D03*
X86600000Y-51287500D03*
%TD*%
D36*
%TO.C,L121*%
X38800000Y-33770000D03*
X38800000Y-32800000D03*
%TD*%
D37*
%TO.C,C11*%
X74800000Y-28440000D03*
X72900000Y-28440000D03*
%TD*%
D19*
%TO.C,C26*%
X86975000Y-30200000D03*
X85425000Y-30200000D03*
%TD*%
D25*
%TO.C,D1*%
X58800000Y-31900000D03*
X60375000Y-31900000D03*
%TD*%
D16*
%TO.C,L123*%
X33720000Y-35500000D03*
X32750000Y-35500000D03*
%TD*%
D35*
%TO.C,R12*%
X76125000Y-48912500D03*
X76125000Y-47087500D03*
%TD*%
D20*
%TO.C,C7*%
X61750000Y-55500000D03*
X62710000Y-55500000D03*
%TD*%
D38*
%TO.C,U3*%
X84170000Y-48870000D03*
X85440000Y-48870000D03*
X86710000Y-48870000D03*
X87980000Y-48870000D03*
X87980000Y-43530000D03*
X86710000Y-43530000D03*
X85440000Y-43530000D03*
X84170000Y-43530000D03*
%TD*%
D37*
%TO.C,C16*%
X40100000Y-59600000D03*
X38200000Y-59600000D03*
%TD*%
D39*
%TO.C,R171*%
X41800000Y-37780000D03*
X41800000Y-38800000D03*
%TD*%
D19*
%TO.C,C6*%
X73025000Y-37800000D03*
X71475000Y-37800000D03*
%TD*%
D37*
%TO.C,C19*%
X48300000Y-28400000D03*
X46400000Y-28400000D03*
%TD*%
D40*
%TO.C,J4*%
X72875000Y-54500000D03*
D41*
X76355000Y-62200000D03*
D42*
X69325000Y-55700000D03*
X76525000Y-59500000D03*
D41*
X69425000Y-62200000D03*
%TD*%
D43*
%TO.C,J2*%
X31400000Y-62480000D03*
X34710000Y-59940000D03*
X31400000Y-57400000D03*
%TD*%
D20*
%TO.C,C81*%
X43640000Y-29000000D03*
X44600000Y-29000000D03*
%TD*%
D40*
%TO.C,J5*%
X55725000Y-54500000D03*
D41*
X59205000Y-62200000D03*
D42*
X52175000Y-55700000D03*
X59375000Y-59500000D03*
D41*
X52275000Y-62200000D03*
%TD*%
D44*
%TO.C,L131*%
X36800000Y-35000000D03*
X37770000Y-35000000D03*
%TD*%
D11*
%TO.C,C22*%
X39000000Y-38080000D03*
X39000000Y-37120000D03*
%TD*%
D45*
%TO.C,U2*%
X91695000Y-56280000D03*
X92965000Y-56280000D03*
X94235000Y-56280000D03*
X95505000Y-56280000D03*
X95505000Y-50920000D03*
X94235000Y-50920000D03*
X92965000Y-50920000D03*
X91695000Y-50920000D03*
%TD*%
D46*
%TO.C,C15*%
X38650000Y-61400000D03*
X40200000Y-61400000D03*
%TD*%
D19*
%TO.C,C1*%
X60525000Y-51700000D03*
X58975000Y-51700000D03*
%TD*%
D20*
%TO.C,C101*%
X40320000Y-29000000D03*
X41280000Y-29000000D03*
%TD*%
D47*
%TO.C,R1*%
X57275000Y-31900000D03*
X57275000Y-30880000D03*
%TD*%
D19*
%TO.C,C27*%
X86975000Y-33400000D03*
X85425000Y-33400000D03*
%TD*%
D48*
%TO.C,U5*%
X42011900Y-59436900D03*
X42011900Y-60086900D03*
X42011900Y-60736900D03*
X42011900Y-61386900D03*
X46236900Y-61386900D03*
X46236900Y-60736900D03*
X46236900Y-60086900D03*
X46236900Y-59436900D03*
%TD*%
D49*
%TO.C,R8*%
X88587500Y-40750000D03*
X90412500Y-40750000D03*
%TD*%
D16*
%TO.C,L122*%
X35750000Y-34400000D03*
X34780000Y-34400000D03*
%TD*%
D20*
%TO.C,C25*%
X38520000Y-31800000D03*
X39480000Y-31800000D03*
%TD*%
D11*
%TO.C,C131*%
X38800000Y-35960000D03*
X38800000Y-35000000D03*
%TD*%
D35*
%TO.C,R11*%
X76125000Y-44662500D03*
X76125000Y-42837500D03*
%TD*%
D39*
%TO.C,R2*%
X52925000Y-29620000D03*
X52925000Y-30640000D03*
%TD*%
D49*
%TO.C,R10*%
X81087500Y-40250000D03*
X82912500Y-40250000D03*
%TD*%
D50*
%TO.C,J1*%
X66300000Y-28055000D03*
X61300000Y-28055000D03*
D51*
X65100000Y-29155000D03*
X64450000Y-29155000D03*
X63800000Y-29155000D03*
X63150000Y-29155000D03*
X62500000Y-29155000D03*
D52*
X67675000Y-25305000D03*
D53*
X67525000Y-29105000D03*
X60075000Y-29105000D03*
D52*
X59925000Y-25305000D03*
%TD*%
D54*
%TO.C,U4*%
X82215000Y-43530000D03*
X80945000Y-43530000D03*
X79675000Y-43530000D03*
X78405000Y-43530000D03*
X78405000Y-48870000D03*
X79675000Y-48870000D03*
X80945000Y-48870000D03*
X82215000Y-48870000D03*
%TD*%
D35*
%TO.C,R13*%
X50000000Y-61312500D03*
X50000000Y-59487500D03*
%TD*%
D12*
%TO.C,C125*%
X31750000Y-34500000D03*
X30790000Y-34500000D03*
%TD*%
D55*
%TO.C,L1*%
X94400000Y-32875000D03*
X94400000Y-30725000D03*
%TD*%
D22*
%TO.C,J3*%
X106675000Y-51000000D03*
D23*
X106675000Y-53540000D03*
X106675000Y-56080000D03*
X106675000Y-58620000D03*
%TD*%
D35*
%TO.C,R3*%
X81600000Y-31112500D03*
X81600000Y-29287500D03*
%TD*%
D20*
%TO.C,C17*%
X42270000Y-56200000D03*
X43230000Y-56200000D03*
%TD*%
%TO.C,C51*%
X45320000Y-33000000D03*
X46280000Y-33000000D03*
%TD*%
D56*
%TO.C,K1*%
X87875000Y-56200000D03*
X84675000Y-56200000D03*
X82475000Y-56200000D03*
X80275000Y-56200000D03*
X80275000Y-62340000D03*
X82475000Y-62340000D03*
X84675000Y-62340000D03*
X87875000Y-62340000D03*
%TD*%
D12*
%TO.C,C20*%
X46280000Y-34000000D03*
X45320000Y-34000000D03*
%TD*%
D35*
%TO.C,R7*%
X95750000Y-42662500D03*
X95750000Y-40837500D03*
%TD*%
%TO.C,R4*%
X81600000Y-34512500D03*
X81600000Y-32687500D03*
%TD*%
D49*
%TO.C,R14*%
X41300000Y-63250000D03*
X43125000Y-63250000D03*
%TD*%
D57*
%TO.C,U1*%
X70400000Y-31140000D03*
X70400000Y-33440000D03*
D58*
X76700000Y-33440000D03*
D57*
X70400000Y-35740000D03*
%TD*%
D49*
%TO.C,R9*%
X84837500Y-40750000D03*
X86662500Y-40750000D03*
%TD*%
D59*
%TO.C,SW2*%
X94375000Y-27510000D03*
X94375000Y-25300000D03*
D60*
X92225000Y-26400000D03*
X89225000Y-26400000D03*
D59*
X87075000Y-27510000D03*
X87075000Y-25300000D03*
D61*
X92975000Y-28160000D03*
X89975000Y-28160000D03*
X88475000Y-28160000D03*
%TD*%
D32*
%TO.C,C21*%
X41800000Y-30320000D03*
X41800000Y-31280000D03*
%TD*%
D20*
%TO.C,C3*%
X67375000Y-38400000D03*
X68335000Y-38400000D03*
%TD*%
D12*
%TO.C,C2*%
X61355000Y-50300000D03*
X60395000Y-50300000D03*
%TD*%
D20*
%TO.C,C9*%
X67270000Y-52250000D03*
X68230000Y-52250000D03*
%TD*%
D37*
%TO.C,C12*%
X93950000Y-40750000D03*
X92050000Y-40750000D03*
%TD*%
D32*
%TO.C,C122*%
X34750000Y-35500000D03*
X34750000Y-36460000D03*
%TD*%
D62*
%TO.C,FB1*%
X74875000Y-39575000D03*
X74875000Y-38000000D03*
%TD*%
D59*
%TO.C,SW1*%
X57375000Y-27500000D03*
X57375000Y-25290000D03*
D60*
X55225000Y-26390000D03*
X52225000Y-26390000D03*
D59*
X50075000Y-27500000D03*
X50075000Y-25290000D03*
D61*
X55975000Y-28150000D03*
X52975000Y-28150000D03*
X51475000Y-28150000D03*
%TD*%
D63*
%TO.C,B1*%
X37200000Y-26873700D03*
D64*
X37200000Y-44400000D03*
X92400000Y-44400000D03*
D63*
X92400000Y-61874900D03*
D65*
X100901000Y-26873700D03*
D66*
X28979700Y-53950100D03*
X28980000Y-34823900D03*
X100620000Y-34823900D03*
X100620000Y-53950100D03*
%TD*%
M02*
