%TF.GenerationSoftware,KiCad,Pcbnew,9.0.6*%
%TF.CreationDate,2026-03-25T10:17:24+01:00*%
%TF.ProjectId,Audio_watermark_generator,41756469-6f5f-4776-9174-65726d61726b,1.0*%
%TF.SameCoordinates,Original*%
%TF.FileFunction,Copper,L2,Inr*%
%TF.FilePolarity,Positive*%
%FSLAX46Y46*%
G04 Gerber Fmt 4.6, Leading zero omitted, Abs format (unit mm)*
G04 Created by KiCad (PCBNEW 9.0.6) date 2026-03-25 10:17:24*
%MOMM*%
%LPD*%
G01*
G04 APERTURE LIST*
%TA.AperFunction,ComponentPad*%
%ADD10R,1.700000X1.700000*%
%TD*%
%TA.AperFunction,ComponentPad*%
%ADD11C,1.700000*%
%TD*%
%TA.AperFunction,HeatsinkPad*%
%ADD12O,1.150000X1.800000*%
%TD*%
%TA.AperFunction,HeatsinkPad*%
%ADD13O,1.450000X2.000000*%
%TD*%
%TA.AperFunction,WasherPad*%
%ADD14C,3.180000*%
%TD*%
%TA.AperFunction,ComponentPad*%
%ADD15C,1.828800*%
%TD*%
%TA.AperFunction,ViaPad*%
%ADD16C,0.700000*%
%TD*%
G04 APERTURE END LIST*
D10*
%TO.N,unconnected-(U7-32K-Pad1)*%
%TO.C,U7*%
X106640000Y-31140043D03*
D11*
%TO.N,unconnected-(U7-SQW-Pad2)*%
X106640000Y-33680043D03*
%TO.N,/RTC/SCL*%
X106640000Y-36220043D03*
%TO.N,/RTC/SDA*%
X106640000Y-38760043D03*
%TO.N,/RTC/RTC_PWR*%
X106640000Y-41300043D03*
%TO.N,GND*%
X106640000Y-43840043D03*
%TD*%
D12*
%TO.N,unconnected-(J1-Shield-Pad6)_2*%
%TO.C,J1*%
X67675000Y-25305000D03*
D13*
%TO.N,unconnected-(J1-Shield-Pad6)_3*%
X67525000Y-29105000D03*
%TO.N,unconnected-(J1-Shield-Pad6)*%
X60075000Y-29105000D03*
D12*
%TO.N,unconnected-(J1-Shield-Pad6)_1*%
X59925000Y-25305000D03*
%TD*%
D10*
%TO.N,+3.3V*%
%TO.C,J3*%
X106675000Y-51000000D03*
D11*
%TO.N,/STM32/SWDIO*%
X106675000Y-53540000D03*
%TO.N,/STM32/SWCLK*%
X106675000Y-56080000D03*
%TO.N,GND*%
X106675000Y-58620000D03*
%TD*%
D14*
%TO.N,*%
%TO.C,B1*%
X37200000Y-44400000D03*
X92400000Y-44400000D03*
D15*
%TO.N,GND*%
X28979700Y-53950100D03*
X28980000Y-34823900D03*
%TO.N,Net-(SW2-C)*%
X100620000Y-34823900D03*
X100620000Y-53950100D03*
%TD*%
D16*
%TO.N,GND*%
X86975000Y-31800000D03*
X33800000Y-33400000D03*
X47200000Y-33000000D03*
X92800000Y-36000000D03*
X37600000Y-36200000D03*
X35800000Y-48000000D03*
X104625000Y-43500000D03*
X28200000Y-47200000D03*
X66797831Y-31977169D03*
X49200000Y-29800000D03*
X39089000Y-39000000D03*
X42425000Y-34600000D03*
X28200000Y-41800000D03*
X83000000Y-53112500D03*
X34800000Y-37400000D03*
X81600000Y-35800000D03*
X57375000Y-62728838D03*
X64750000Y-55400000D03*
X42400000Y-29000000D03*
X71125000Y-28950000D03*
X31400000Y-49400000D03*
X40075000Y-55800000D03*
X28200000Y-49400000D03*
X35800000Y-46400000D03*
X61000000Y-54500000D03*
X58800000Y-47200000D03*
X74375000Y-62000000D03*
X38600000Y-62600000D03*
X47404248Y-59050000D03*
X104375000Y-59250000D03*
X78750000Y-42000000D03*
X37600000Y-31800000D03*
X92525000Y-31250000D03*
X27600000Y-36600000D03*
X40000000Y-39000000D03*
X90400000Y-50800000D03*
X41800000Y-39600000D03*
X88400000Y-50600000D03*
X58175000Y-29800000D03*
X43125000Y-35250000D03*
X41625000Y-34000000D03*
X70459888Y-37938566D03*
X47250000Y-56500000D03*
X61825000Y-31050000D03*
X47500000Y-63250000D03*
X94400000Y-28460002D03*
X59250000Y-49550000D03*
X69400000Y-39000000D03*
X84200000Y-30200000D03*
X33400000Y-47200000D03*
X33000000Y-49400000D03*
X57500000Y-52250000D03*
X28000000Y-55600000D03*
X71830898Y-40957627D03*
X96800000Y-50800000D03*
X40800000Y-30000000D03*
X72125000Y-31750000D03*
X28200000Y-39600000D03*
X66250000Y-54800000D03*
X38400000Y-58200000D03*
X84200000Y-33400000D03*
X35800000Y-41000000D03*
X35800000Y-42600000D03*
X43125000Y-34000000D03*
X70375000Y-39500000D03*
X69800000Y-40400000D03*
X56875000Y-29750000D03*
X33400000Y-41800000D03*
X41000000Y-37200000D03*
X44200000Y-37800000D03*
X47250000Y-50600000D03*
X92475000Y-32550000D03*
X41625000Y-35250000D03*
X27625000Y-52750000D03*
X42800000Y-39600000D03*
X35000000Y-39600000D03*
X34600000Y-49400000D03*
X71615213Y-42657627D03*
X27400000Y-33600000D03*
X35800000Y-32800000D03*
X29800000Y-49400000D03*
X47200000Y-34000000D03*
X61000000Y-53500000D03*
X33400000Y-39600000D03*
X41000000Y-56500000D03*
X67800000Y-53400000D03*
%TO.N,+3.3V*%
X68375000Y-40000000D03*
X85800000Y-32200000D03*
X60500000Y-52750000D03*
X73325000Y-31750000D03*
X76237000Y-37862000D03*
X74875000Y-31750000D03*
X40400000Y-58200000D03*
X89874998Y-31850000D03*
X105750000Y-48750000D03*
X50875000Y-29750000D03*
X48400000Y-26800000D03*
X39800000Y-62800000D03*
X96000000Y-44000000D03*
X93000000Y-58000000D03*
X89200000Y-53200000D03*
X94200000Y-58000000D03*
%TO.N,/STM32/SWDIO*%
X62775000Y-37900000D03*
X99400000Y-41200000D03*
%TO.N,/STM32/BOOT0*%
X53875000Y-43375000D03*
X52924999Y-34249999D03*
%TO.N,/Mixer/RELAY_2_CTR*%
X74317524Y-45843642D03*
X89400000Y-45800000D03*
%TO.N,/STM32/SWCLK*%
X62375000Y-36900000D03*
X98600000Y-39400000D03*
%TO.N,/STM32/LED_PWR*%
X64975000Y-33250000D03*
X62725000Y-33250000D03*
%TO.N,/Mixer/RELAY_1_CTR*%
X89525000Y-44725000D03*
X74250000Y-44750000D03*
%TO.N,/STM32/PA2*%
X69125327Y-49896649D03*
X38800000Y-57200000D03*
%TO.N,/STM32/PA15*%
X59062500Y-40337500D03*
X33600000Y-55200000D03*
%TO.N,/Mixer/DAC*%
X49999999Y-54800000D03*
X79200000Y-46800000D03*
X74375000Y-46750000D03*
X70150000Y-48800000D03*
%TO.N,/STM32/SPI_CSN*%
X51000000Y-35000000D03*
X51000000Y-38200000D03*
%TO.N,/STM32/SPI_MOSI*%
X52000000Y-35800000D03*
X52000000Y-38000000D03*
%TO.N,/STM32/SPI_GOD0*%
X49800000Y-38200000D03*
X49800000Y-35000000D03*
%TO.N,Net-(U3A--)*%
X82000000Y-50875000D03*
X78750000Y-50500000D03*
%TO.N,/STM32/SPEAKER_EN*%
X48200000Y-60648000D03*
X70800000Y-44500000D03*
%TO.N,/STM32/PA3*%
X36800000Y-59800000D03*
X70400000Y-49800000D03*
%TO.N,/STM32/BAT_ADC*%
X73200000Y-47800000D03*
X79750000Y-35750000D03*
%TO.N,/Mixer/OpAmp_PWR*%
X72197512Y-49797512D03*
X80174540Y-51450459D03*
%TO.N,/Transceiver/VCC_CC1101*%
X40400000Y-32200000D03*
X45999998Y-35000000D03*
X43800000Y-40400000D03*
X45800002Y-30400000D03*
X42904625Y-30420501D03*
%TD*%
%TA.AperFunction,Conductor*%
%TO.N,GND*%
G36*
X50116206Y-24320185D02*
G01*
X50136848Y-24336819D01*
X50540489Y-24740460D01*
X50599829Y-24774720D01*
X50609008Y-24780020D01*
X50609012Y-24780022D01*
X50685438Y-24800500D01*
X50764562Y-24800500D01*
X56714352Y-24800500D01*
X56718154Y-24801415D01*
X56753842Y-24800500D01*
X56789562Y-24800500D01*
X56789563Y-24800499D01*
X56791708Y-24800217D01*
X56792345Y-24800167D01*
X56794482Y-24799858D01*
X56795114Y-24799724D01*
X56797244Y-24799387D01*
X56797252Y-24799387D01*
X56831495Y-24789263D01*
X56865989Y-24780021D01*
X56869377Y-24778064D01*
X56873128Y-24776956D01*
X56902250Y-24759131D01*
X56904963Y-24757519D01*
X56934511Y-24740460D01*
X56934516Y-24740454D01*
X56936211Y-24739155D01*
X56936220Y-24739148D01*
X56938526Y-24737378D01*
X56938945Y-24737001D01*
X56940603Y-24735658D01*
X56940614Y-24735652D01*
X56965219Y-24709751D01*
X56990460Y-24684511D01*
X56992415Y-24681124D01*
X57317344Y-24339095D01*
X57377789Y-24304049D01*
X57407244Y-24300500D01*
X58861811Y-24300500D01*
X58928850Y-24320185D01*
X58974605Y-24372989D01*
X58984549Y-24442147D01*
X58972296Y-24480795D01*
X58928296Y-24567147D01*
X58875981Y-24728152D01*
X58849500Y-24895350D01*
X58849500Y-25714649D01*
X58875981Y-25881847D01*
X58928296Y-26042853D01*
X58965935Y-26116722D01*
X59001067Y-26185672D01*
X59005152Y-26193688D01*
X59104648Y-26330634D01*
X59104652Y-26330639D01*
X59224360Y-26450347D01*
X59224365Y-26450351D01*
X59292702Y-26500000D01*
X59361315Y-26549850D01*
X59448596Y-26594322D01*
X59512146Y-26626703D01*
X59512148Y-26626703D01*
X59512151Y-26626705D01*
X59598450Y-26654745D01*
X59673152Y-26679018D01*
X59840351Y-26705500D01*
X59840356Y-26705500D01*
X60009649Y-26705500D01*
X60176847Y-26679018D01*
X60337849Y-26626705D01*
X60488685Y-26549850D01*
X60625641Y-26450346D01*
X60745346Y-26330641D01*
X60844850Y-26193685D01*
X60921705Y-26042849D01*
X60974018Y-25881847D01*
X61000500Y-25714649D01*
X61000500Y-24895350D01*
X60974018Y-24728152D01*
X60956053Y-24672864D01*
X60921705Y-24567151D01*
X60877703Y-24480794D01*
X60864808Y-24412126D01*
X60891084Y-24347386D01*
X60948190Y-24307128D01*
X60988189Y-24300500D01*
X66611811Y-24300500D01*
X66678850Y-24320185D01*
X66724605Y-24372989D01*
X66734549Y-24442147D01*
X66722296Y-24480795D01*
X66678296Y-24567147D01*
X66625981Y-24728152D01*
X66599500Y-24895350D01*
X66599500Y-25714649D01*
X66625981Y-25881847D01*
X66678296Y-26042853D01*
X66715935Y-26116722D01*
X66751067Y-26185672D01*
X66755152Y-26193688D01*
X66854648Y-26330634D01*
X66854652Y-26330639D01*
X66974360Y-26450347D01*
X66974365Y-26450351D01*
X67042702Y-26500000D01*
X67111315Y-26549850D01*
X67198596Y-26594322D01*
X67262146Y-26626703D01*
X67262148Y-26626703D01*
X67262151Y-26626705D01*
X67348450Y-26654745D01*
X67423152Y-26679018D01*
X67590351Y-26705500D01*
X67590356Y-26705500D01*
X67759649Y-26705500D01*
X67926847Y-26679018D01*
X68087849Y-26626705D01*
X68238685Y-26549850D01*
X68349973Y-26468995D01*
X88524499Y-26468995D01*
X88551418Y-26604322D01*
X88551421Y-26604332D01*
X88604221Y-26731804D01*
X88604228Y-26731817D01*
X88680885Y-26846541D01*
X88680888Y-26846545D01*
X88778454Y-26944111D01*
X88778458Y-26944114D01*
X88893182Y-27020771D01*
X88893195Y-27020778D01*
X88996532Y-27063581D01*
X89020672Y-27073580D01*
X89020676Y-27073580D01*
X89020677Y-27073581D01*
X89156004Y-27100500D01*
X89156007Y-27100500D01*
X89293995Y-27100500D01*
X89385041Y-27082389D01*
X89429328Y-27073580D01*
X89556811Y-27020775D01*
X89671542Y-26944114D01*
X89769114Y-26846542D01*
X89845775Y-26731811D01*
X89898580Y-26604328D01*
X89909417Y-26549847D01*
X89925500Y-26468995D01*
X91524499Y-26468995D01*
X91551418Y-26604322D01*
X91551421Y-26604332D01*
X91604221Y-26731804D01*
X91604228Y-26731817D01*
X91680885Y-26846541D01*
X91680888Y-26846545D01*
X91778454Y-26944111D01*
X91778458Y-26944114D01*
X91893182Y-27020771D01*
X91893195Y-27020778D01*
X91996532Y-27063581D01*
X92020672Y-27073580D01*
X92020676Y-27073580D01*
X92020677Y-27073581D01*
X92156004Y-27100500D01*
X92156007Y-27100500D01*
X92293995Y-27100500D01*
X92385041Y-27082389D01*
X92429328Y-27073580D01*
X92556811Y-27020775D01*
X92671542Y-26944114D01*
X92769114Y-26846542D01*
X92826919Y-26760031D01*
X99456700Y-26760031D01*
X99456700Y-26987369D01*
X99468771Y-27063580D01*
X99492264Y-27211909D01*
X99492264Y-27211912D01*
X99562513Y-27428116D01*
X99612968Y-27527139D01*
X99665724Y-27630678D01*
X99799350Y-27814598D01*
X99960102Y-27975350D01*
X100144022Y-28108976D01*
X100298521Y-28187697D01*
X100346583Y-28212186D01*
X100562788Y-28282435D01*
X100562789Y-28282435D01*
X100562792Y-28282436D01*
X100787331Y-28318000D01*
X100787332Y-28318000D01*
X101014668Y-28318000D01*
X101014669Y-28318000D01*
X101239208Y-28282436D01*
X101239211Y-28282435D01*
X101239212Y-28282435D01*
X101455416Y-28212186D01*
X101455416Y-28212185D01*
X101455419Y-28212185D01*
X101657978Y-28108976D01*
X101841898Y-27975350D01*
X102002650Y-27814598D01*
X102136276Y-27630678D01*
X102239485Y-27428119D01*
X102295089Y-27256987D01*
X102309735Y-27211912D01*
X102309735Y-27211911D01*
X102309736Y-27211908D01*
X102345300Y-26987369D01*
X102345300Y-26760031D01*
X102309736Y-26535492D01*
X102309735Y-26535488D01*
X102309735Y-26535487D01*
X102239486Y-26319283D01*
X102189032Y-26220261D01*
X102136276Y-26116722D01*
X102002650Y-25932802D01*
X101841898Y-25772050D01*
X101657978Y-25638424D01*
X101455416Y-25535213D01*
X101239211Y-25464964D01*
X101070803Y-25438291D01*
X101014669Y-25429400D01*
X100787331Y-25429400D01*
X100712484Y-25441254D01*
X100562790Y-25464964D01*
X100562787Y-25464964D01*
X100346583Y-25535213D01*
X100144021Y-25638424D01*
X100073722Y-25689500D01*
X99960102Y-25772050D01*
X99960100Y-25772052D01*
X99960099Y-25772052D01*
X99799352Y-25932799D01*
X99799352Y-25932800D01*
X99799350Y-25932802D01*
X99784343Y-25953458D01*
X99665724Y-26116721D01*
X99562513Y-26319283D01*
X99492264Y-26535487D01*
X99492264Y-26535490D01*
X99462753Y-26721817D01*
X99456700Y-26760031D01*
X92826919Y-26760031D01*
X92845775Y-26731811D01*
X92898580Y-26604328D01*
X92909417Y-26549847D01*
X92925500Y-26468995D01*
X92925500Y-26331004D01*
X92898581Y-26195677D01*
X92898580Y-26195676D01*
X92898580Y-26195672D01*
X92875261Y-26139374D01*
X92845778Y-26068195D01*
X92845771Y-26068182D01*
X92769114Y-25953458D01*
X92769111Y-25953454D01*
X92671545Y-25855888D01*
X92671541Y-25855885D01*
X92556817Y-25779228D01*
X92556804Y-25779221D01*
X92429332Y-25726421D01*
X92429322Y-25726418D01*
X92293995Y-25699500D01*
X92293993Y-25699500D01*
X92156007Y-25699500D01*
X92156005Y-25699500D01*
X92020677Y-25726418D01*
X92020667Y-25726421D01*
X91893195Y-25779221D01*
X91893182Y-25779228D01*
X91778458Y-25855885D01*
X91778454Y-25855888D01*
X91680888Y-25953454D01*
X91680885Y-25953458D01*
X91604228Y-26068182D01*
X91604221Y-26068195D01*
X91551421Y-26195667D01*
X91551418Y-26195677D01*
X91524500Y-26331004D01*
X91524500Y-26331007D01*
X91524500Y-26468993D01*
X91524500Y-26468995D01*
X91524499Y-26468995D01*
X89925500Y-26468995D01*
X89925500Y-26331004D01*
X89898581Y-26195677D01*
X89898580Y-26195676D01*
X89898580Y-26195672D01*
X89875261Y-26139374D01*
X89845778Y-26068195D01*
X89845771Y-26068182D01*
X89769114Y-25953458D01*
X89769111Y-25953454D01*
X89671545Y-25855888D01*
X89671541Y-25855885D01*
X89556817Y-25779228D01*
X89556804Y-25779221D01*
X89429332Y-25726421D01*
X89429322Y-25726418D01*
X89293995Y-25699500D01*
X89293993Y-25699500D01*
X89156007Y-25699500D01*
X89156005Y-25699500D01*
X89020677Y-25726418D01*
X89020667Y-25726421D01*
X88893195Y-25779221D01*
X88893182Y-25779228D01*
X88778458Y-25855885D01*
X88778454Y-25855888D01*
X88680888Y-25953454D01*
X88680885Y-25953458D01*
X88604228Y-26068182D01*
X88604221Y-26068195D01*
X88551421Y-26195667D01*
X88551418Y-26195677D01*
X88524500Y-26331004D01*
X88524500Y-26331007D01*
X88524500Y-26468993D01*
X88524500Y-26468995D01*
X88524499Y-26468995D01*
X68349973Y-26468995D01*
X68375641Y-26450346D01*
X68495346Y-26330641D01*
X68499986Y-26324254D01*
X68552461Y-26252030D01*
X68575549Y-26220251D01*
X68594850Y-26193685D01*
X68671705Y-26042849D01*
X68724018Y-25881847D01*
X68750500Y-25714649D01*
X68750500Y-24895350D01*
X68724018Y-24728152D01*
X68706053Y-24672864D01*
X68671705Y-24567151D01*
X68627703Y-24480794D01*
X68614808Y-24412126D01*
X68641084Y-24347386D01*
X68698190Y-24307128D01*
X68738189Y-24300500D01*
X87074167Y-24300500D01*
X87141206Y-24320185D01*
X87161848Y-24336819D01*
X87565489Y-24740460D01*
X87624829Y-24774720D01*
X87634008Y-24780020D01*
X87634012Y-24780022D01*
X87710438Y-24800500D01*
X87710440Y-24800500D01*
X93789560Y-24800500D01*
X93789562Y-24800500D01*
X93865989Y-24780021D01*
X93934511Y-24740460D01*
X93990460Y-24684511D01*
X94338152Y-24336819D01*
X94399475Y-24303334D01*
X94425833Y-24300500D01*
X108575500Y-24300500D01*
X108642539Y-24320185D01*
X108688294Y-24372989D01*
X108699500Y-24424500D01*
X108699500Y-64575500D01*
X108679815Y-64642539D01*
X108627011Y-64688294D01*
X108575500Y-64699500D01*
X75199500Y-64699500D01*
X75132461Y-64679815D01*
X75086706Y-64627011D01*
X75075500Y-64575500D01*
X75075500Y-63760439D01*
X75058799Y-63698112D01*
X75055021Y-63684011D01*
X75035673Y-63650499D01*
X75015464Y-63615495D01*
X75015458Y-63615487D01*
X74959512Y-63559541D01*
X74959504Y-63559535D01*
X74890995Y-63519982D01*
X74890990Y-63519979D01*
X74865513Y-63513152D01*
X74814562Y-63499500D01*
X71014562Y-63499500D01*
X70935438Y-63499500D01*
X70897224Y-63509739D01*
X70859009Y-63519979D01*
X70859004Y-63519982D01*
X70790495Y-63559535D01*
X70790487Y-63559541D01*
X70734541Y-63615487D01*
X70734535Y-63615495D01*
X70694982Y-63684004D01*
X70694979Y-63684009D01*
X70674500Y-63760439D01*
X70674500Y-64575500D01*
X70654815Y-64642539D01*
X70602011Y-64688294D01*
X70550500Y-64699500D01*
X58049500Y-64699500D01*
X57982461Y-64679815D01*
X57936706Y-64627011D01*
X57925500Y-64575500D01*
X57925500Y-63760439D01*
X57908799Y-63698112D01*
X57905021Y-63684011D01*
X57885673Y-63650499D01*
X57865464Y-63615495D01*
X57865458Y-63615487D01*
X57809512Y-63559541D01*
X57809504Y-63559535D01*
X57740995Y-63519982D01*
X57740990Y-63519979D01*
X57715513Y-63513152D01*
X57664562Y-63499500D01*
X53864562Y-63499500D01*
X53785438Y-63499500D01*
X53747224Y-63509739D01*
X53709009Y-63519979D01*
X53709004Y-63519982D01*
X53640495Y-63559535D01*
X53640487Y-63559541D01*
X53584541Y-63615487D01*
X53584535Y-63615495D01*
X53544982Y-63684004D01*
X53544979Y-63684009D01*
X53524500Y-63760439D01*
X53524500Y-64575500D01*
X53504815Y-64642539D01*
X53452011Y-64688294D01*
X53400500Y-64699500D01*
X26424500Y-64699500D01*
X26357461Y-64679815D01*
X26311706Y-64627011D01*
X26300500Y-64575500D01*
X26300500Y-62716228D01*
X38949500Y-62716228D01*
X38949500Y-62883771D01*
X38982182Y-63048074D01*
X38982184Y-63048082D01*
X39046295Y-63202860D01*
X39139373Y-63342162D01*
X39257837Y-63460626D01*
X39346666Y-63519979D01*
X39397137Y-63553703D01*
X39397138Y-63553703D01*
X39397139Y-63553704D01*
X39432201Y-63568227D01*
X39551918Y-63617816D01*
X39716228Y-63650499D01*
X39716232Y-63650500D01*
X39716233Y-63650500D01*
X39883768Y-63650500D01*
X39883769Y-63650499D01*
X40048082Y-63617816D01*
X40202863Y-63553703D01*
X40342162Y-63460626D01*
X40460626Y-63342162D01*
X40553703Y-63202863D01*
X40617816Y-63048082D01*
X40650500Y-62883767D01*
X40650500Y-62716233D01*
X40617816Y-62551918D01*
X40553703Y-62397137D01*
X40522537Y-62350494D01*
X40460626Y-62257837D01*
X40342162Y-62139373D01*
X40202860Y-62046295D01*
X40048082Y-61982184D01*
X40048074Y-61982182D01*
X39883771Y-61949500D01*
X39883767Y-61949500D01*
X39716233Y-61949500D01*
X39716228Y-61949500D01*
X39551925Y-61982182D01*
X39551917Y-61982184D01*
X39397139Y-62046295D01*
X39257837Y-62139373D01*
X39139373Y-62257837D01*
X39046295Y-62397139D01*
X38982184Y-62551917D01*
X38982182Y-62551925D01*
X38949500Y-62716228D01*
X26300500Y-62716228D01*
X26300500Y-61741937D01*
X90371500Y-61741937D01*
X90371500Y-62007862D01*
X90388815Y-62139373D01*
X90406209Y-62271490D01*
X90475031Y-62528338D01*
X90475034Y-62528348D01*
X90552857Y-62716228D01*
X90576790Y-62774007D01*
X90709745Y-63004292D01*
X90862112Y-63202860D01*
X90871625Y-63215257D01*
X91059642Y-63403274D01*
X91059646Y-63403277D01*
X91059648Y-63403279D01*
X91270608Y-63565155D01*
X91500893Y-63698110D01*
X91746561Y-63799869D01*
X92003410Y-63868691D01*
X92267045Y-63903400D01*
X92267052Y-63903400D01*
X92532948Y-63903400D01*
X92532955Y-63903400D01*
X92796590Y-63868691D01*
X93053439Y-63799869D01*
X93299107Y-63698110D01*
X93529392Y-63565155D01*
X93740352Y-63403279D01*
X93928379Y-63215252D01*
X94090255Y-63004292D01*
X94223210Y-62774007D01*
X94324969Y-62528339D01*
X94393791Y-62271490D01*
X94428500Y-62007855D01*
X94428500Y-61741945D01*
X94393791Y-61478310D01*
X94324969Y-61221461D01*
X94223210Y-60975793D01*
X94090255Y-60745508D01*
X93928379Y-60534548D01*
X93928377Y-60534546D01*
X93928374Y-60534542D01*
X93740357Y-60346525D01*
X93734671Y-60342162D01*
X93529392Y-60184645D01*
X93392894Y-60105838D01*
X93299109Y-60051691D01*
X93299100Y-60051687D01*
X93053448Y-59949934D01*
X93053441Y-59949932D01*
X93053439Y-59949931D01*
X92796590Y-59881109D01*
X92752528Y-59875308D01*
X92532962Y-59846400D01*
X92532955Y-59846400D01*
X92267045Y-59846400D01*
X92267037Y-59846400D01*
X92016103Y-59879437D01*
X92003410Y-59881109D01*
X91746561Y-59949931D01*
X91746551Y-59949934D01*
X91500899Y-60051687D01*
X91500890Y-60051691D01*
X91270614Y-60184641D01*
X91270607Y-60184646D01*
X91059642Y-60346525D01*
X90871625Y-60534542D01*
X90709746Y-60745507D01*
X90709741Y-60745514D01*
X90576791Y-60975790D01*
X90576787Y-60975799D01*
X90475034Y-61221451D01*
X90475031Y-61221461D01*
X90409557Y-61465817D01*
X90406210Y-61478307D01*
X90406208Y-61478318D01*
X90371500Y-61741937D01*
X26300500Y-61741937D01*
X26300500Y-59716228D01*
X35949500Y-59716228D01*
X35949500Y-59883771D01*
X35982182Y-60048074D01*
X35982184Y-60048082D01*
X36046295Y-60202860D01*
X36139373Y-60342162D01*
X36257837Y-60460626D01*
X36350494Y-60522537D01*
X36397137Y-60553703D01*
X36551918Y-60617816D01*
X36716228Y-60650499D01*
X36716232Y-60650500D01*
X36716233Y-60650500D01*
X36883768Y-60650500D01*
X36883769Y-60650499D01*
X37048082Y-60617816D01*
X37177454Y-60564228D01*
X47349500Y-60564228D01*
X47349500Y-60731771D01*
X47382182Y-60896074D01*
X47382184Y-60896082D01*
X47446295Y-61050860D01*
X47539373Y-61190162D01*
X47657837Y-61308626D01*
X47750494Y-61370537D01*
X47797137Y-61401703D01*
X47951918Y-61465816D01*
X48116228Y-61498499D01*
X48116232Y-61498500D01*
X48116233Y-61498500D01*
X48283768Y-61498500D01*
X48283769Y-61498499D01*
X48448082Y-61465816D01*
X48602863Y-61401703D01*
X48742162Y-61308626D01*
X48860626Y-61190162D01*
X48953703Y-61050863D01*
X49017816Y-60896082D01*
X49050500Y-60731767D01*
X49050500Y-60564233D01*
X49017816Y-60399918D01*
X48953703Y-60245137D01*
X48913281Y-60184641D01*
X48860626Y-60105837D01*
X48742162Y-59987373D01*
X48602860Y-59894295D01*
X48448082Y-59830184D01*
X48448074Y-59830182D01*
X48344742Y-59809628D01*
X48283771Y-59797500D01*
X48283767Y-59797500D01*
X48116233Y-59797500D01*
X48116228Y-59797500D01*
X47951925Y-59830182D01*
X47951917Y-59830184D01*
X47797139Y-59894295D01*
X47657837Y-59987373D01*
X47539373Y-60105837D01*
X47446295Y-60245139D01*
X47382184Y-60399917D01*
X47382182Y-60399925D01*
X47349500Y-60564228D01*
X37177454Y-60564228D01*
X37202863Y-60553703D01*
X37342162Y-60460626D01*
X37460626Y-60342162D01*
X37553703Y-60202863D01*
X37617816Y-60048082D01*
X37650500Y-59883767D01*
X37650500Y-59716233D01*
X37617816Y-59551918D01*
X37553703Y-59397137D01*
X37507206Y-59327550D01*
X37460626Y-59257837D01*
X37342162Y-59139373D01*
X37202860Y-59046295D01*
X37048082Y-58982184D01*
X37048074Y-58982182D01*
X36883771Y-58949500D01*
X36883767Y-58949500D01*
X36716233Y-58949500D01*
X36716228Y-58949500D01*
X36551925Y-58982182D01*
X36551917Y-58982184D01*
X36397139Y-59046295D01*
X36257837Y-59139373D01*
X36139373Y-59257837D01*
X36046295Y-59397139D01*
X35982184Y-59551917D01*
X35982182Y-59551925D01*
X35949500Y-59716228D01*
X26300500Y-59716228D01*
X26300500Y-57116228D01*
X37949500Y-57116228D01*
X37949500Y-57283771D01*
X37982182Y-57448074D01*
X37982184Y-57448082D01*
X38046295Y-57602860D01*
X38139373Y-57742162D01*
X38257837Y-57860626D01*
X38324570Y-57905215D01*
X38397137Y-57953703D01*
X38551918Y-58017816D01*
X38716228Y-58050499D01*
X38716232Y-58050500D01*
X38716233Y-58050500D01*
X38883768Y-58050500D01*
X38883769Y-58050499D01*
X39048082Y-58017816D01*
X39202863Y-57953703D01*
X39342162Y-57860626D01*
X39376405Y-57826383D01*
X39437727Y-57792897D01*
X39507419Y-57797881D01*
X39563353Y-57839751D01*
X39587771Y-57905215D01*
X39583212Y-57945911D01*
X39583372Y-57945943D01*
X39582999Y-57947815D01*
X39582749Y-57950052D01*
X39582184Y-57951913D01*
X39549500Y-58116228D01*
X39549500Y-58283771D01*
X39582182Y-58448074D01*
X39582184Y-58448082D01*
X39646295Y-58602860D01*
X39739373Y-58742162D01*
X39857837Y-58860626D01*
X39950494Y-58922537D01*
X39997137Y-58953703D01*
X40151918Y-59017816D01*
X40295093Y-59046295D01*
X40316228Y-59050499D01*
X40316232Y-59050500D01*
X40316233Y-59050500D01*
X40483768Y-59050500D01*
X40483769Y-59050499D01*
X40648082Y-59017816D01*
X40802863Y-58953703D01*
X40942162Y-58860626D01*
X41060626Y-58742162D01*
X41153703Y-58602863D01*
X41217816Y-58448082D01*
X41250500Y-58283767D01*
X41250500Y-58116233D01*
X41230924Y-58017815D01*
X41217817Y-57951921D01*
X41203032Y-57916228D01*
X92149500Y-57916228D01*
X92149500Y-58083771D01*
X92182182Y-58248074D01*
X92182184Y-58248082D01*
X92246295Y-58402860D01*
X92339373Y-58542162D01*
X92457837Y-58660626D01*
X92468890Y-58668011D01*
X92597137Y-58753703D01*
X92751918Y-58817816D01*
X92916228Y-58850499D01*
X92916232Y-58850500D01*
X92916233Y-58850500D01*
X93083768Y-58850500D01*
X93083769Y-58850499D01*
X93248082Y-58817816D01*
X93402863Y-58753703D01*
X93531110Y-58668010D01*
X93597786Y-58647133D01*
X93665167Y-58665617D01*
X93668874Y-58668000D01*
X93797137Y-58753703D01*
X93951918Y-58817816D01*
X94116228Y-58850499D01*
X94116232Y-58850500D01*
X94116233Y-58850500D01*
X94283768Y-58850500D01*
X94283769Y-58850499D01*
X94448082Y-58817816D01*
X94602863Y-58753703D01*
X94742162Y-58660626D01*
X94860626Y-58542162D01*
X94953703Y-58402863D01*
X95017816Y-58248082D01*
X95050500Y-58083767D01*
X95050500Y-57916233D01*
X95017816Y-57751918D01*
X94953703Y-57597137D01*
X94891957Y-57504728D01*
X94860626Y-57457837D01*
X94742162Y-57339373D01*
X94602860Y-57246295D01*
X94448082Y-57182184D01*
X94448074Y-57182182D01*
X94283771Y-57149500D01*
X94283767Y-57149500D01*
X94116233Y-57149500D01*
X94116228Y-57149500D01*
X93951925Y-57182182D01*
X93951917Y-57182184D01*
X93797138Y-57246296D01*
X93797134Y-57246298D01*
X93668890Y-57331988D01*
X93602213Y-57352866D01*
X93534833Y-57334381D01*
X93531110Y-57331988D01*
X93402865Y-57246298D01*
X93402861Y-57246296D01*
X93248082Y-57182184D01*
X93248074Y-57182182D01*
X93083771Y-57149500D01*
X93083767Y-57149500D01*
X92916233Y-57149500D01*
X92916228Y-57149500D01*
X92751925Y-57182182D01*
X92751917Y-57182184D01*
X92597139Y-57246295D01*
X92457837Y-57339373D01*
X92339373Y-57457837D01*
X92246295Y-57597139D01*
X92182184Y-57751917D01*
X92182182Y-57751925D01*
X92149500Y-57916228D01*
X41203032Y-57916228D01*
X41179030Y-57858282D01*
X41153704Y-57797139D01*
X41123488Y-57751918D01*
X41116970Y-57742162D01*
X41060626Y-57657837D01*
X40942162Y-57539373D01*
X40802860Y-57446295D01*
X40648082Y-57382184D01*
X40648074Y-57382182D01*
X40483771Y-57349500D01*
X40483767Y-57349500D01*
X40316233Y-57349500D01*
X40316228Y-57349500D01*
X40151925Y-57382182D01*
X40151917Y-57382184D01*
X39997139Y-57446295D01*
X39857837Y-57539373D01*
X39823592Y-57573618D01*
X39762269Y-57607103D01*
X39692577Y-57602117D01*
X39636644Y-57560245D01*
X39612228Y-57494780D01*
X39616788Y-57454088D01*
X39616628Y-57454057D01*
X39617004Y-57452165D01*
X39617255Y-57449928D01*
X39617808Y-57448099D01*
X39617816Y-57448082D01*
X39650500Y-57283767D01*
X39650500Y-57116233D01*
X39617816Y-56951918D01*
X39553703Y-56797137D01*
X39522537Y-56750494D01*
X39460626Y-56657837D01*
X39342162Y-56539373D01*
X39202860Y-56446295D01*
X39048082Y-56382184D01*
X39048074Y-56382182D01*
X38883771Y-56349500D01*
X38883767Y-56349500D01*
X38716233Y-56349500D01*
X38716228Y-56349500D01*
X38551925Y-56382182D01*
X38551917Y-56382184D01*
X38397139Y-56446295D01*
X38257837Y-56539373D01*
X38139373Y-56657837D01*
X38046295Y-56797139D01*
X37982184Y-56951917D01*
X37982182Y-56951925D01*
X37949500Y-57116228D01*
X26300500Y-57116228D01*
X26300500Y-53838778D01*
X27565300Y-53838778D01*
X27565300Y-54061421D01*
X27600126Y-54281306D01*
X27668925Y-54493045D01*
X27769996Y-54691407D01*
X27818323Y-54757922D01*
X27818323Y-54757923D01*
X28370698Y-54205547D01*
X28394461Y-54262917D01*
X28466734Y-54371080D01*
X28558720Y-54463066D01*
X28666883Y-54535339D01*
X28724250Y-54559101D01*
X28171875Y-55111475D01*
X28238392Y-55159803D01*
X28436754Y-55260874D01*
X28648493Y-55329673D01*
X28868379Y-55364500D01*
X29091021Y-55364500D01*
X29310906Y-55329673D01*
X29522645Y-55260874D01*
X29721007Y-55159803D01*
X29780981Y-55116228D01*
X32749500Y-55116228D01*
X32749500Y-55283771D01*
X32782182Y-55448074D01*
X32782184Y-55448082D01*
X32846295Y-55602860D01*
X32939373Y-55742162D01*
X33057837Y-55860626D01*
X33150494Y-55922537D01*
X33197137Y-55953703D01*
X33351918Y-56017816D01*
X33516228Y-56050499D01*
X33516232Y-56050500D01*
X33516233Y-56050500D01*
X33683768Y-56050500D01*
X33683769Y-56050499D01*
X33848082Y-56017816D01*
X34002863Y-55953703D01*
X34142162Y-55860626D01*
X34260626Y-55742162D01*
X34353703Y-55602863D01*
X34417816Y-55448082D01*
X34450500Y-55283767D01*
X34450500Y-55116233D01*
X34417816Y-54951918D01*
X34377386Y-54854313D01*
X34353705Y-54797141D01*
X34353704Y-54797139D01*
X34353703Y-54797137D01*
X34299641Y-54716228D01*
X49149499Y-54716228D01*
X49149499Y-54883771D01*
X49182181Y-55048074D01*
X49182183Y-55048082D01*
X49246294Y-55202860D01*
X49339372Y-55342162D01*
X49457836Y-55460626D01*
X49550493Y-55522537D01*
X49597136Y-55553703D01*
X49597137Y-55553703D01*
X49597138Y-55553704D01*
X49616172Y-55561588D01*
X49751917Y-55617816D01*
X49916227Y-55650499D01*
X49916231Y-55650500D01*
X49916232Y-55650500D01*
X50083767Y-55650500D01*
X50083768Y-55650499D01*
X50248081Y-55617816D01*
X50402862Y-55553703D01*
X50542161Y-55460626D01*
X50660625Y-55342162D01*
X50753702Y-55202863D01*
X50817815Y-55048082D01*
X50850499Y-54883767D01*
X50850499Y-54716233D01*
X50817815Y-54551918D01*
X50757530Y-54406379D01*
X54774500Y-54406379D01*
X54774500Y-54593620D01*
X54811025Y-54777243D01*
X54811027Y-54777251D01*
X54882676Y-54950228D01*
X54882681Y-54950237D01*
X54986697Y-55105907D01*
X54986700Y-55105911D01*
X55119088Y-55238299D01*
X55119092Y-55238302D01*
X55274762Y-55342318D01*
X55274768Y-55342321D01*
X55274769Y-55342322D01*
X55447749Y-55413973D01*
X55619188Y-55448074D01*
X55631379Y-55450499D01*
X55631383Y-55450500D01*
X55631384Y-55450500D01*
X55818617Y-55450500D01*
X55818618Y-55450499D01*
X56002251Y-55413973D01*
X56175231Y-55342322D01*
X56330908Y-55238302D01*
X56463302Y-55105908D01*
X56567322Y-54950231D01*
X56638973Y-54777251D01*
X56675500Y-54593616D01*
X56675500Y-54406384D01*
X56675499Y-54406379D01*
X71924500Y-54406379D01*
X71924500Y-54593620D01*
X71961025Y-54777243D01*
X71961027Y-54777251D01*
X72032676Y-54950228D01*
X72032681Y-54950237D01*
X72136697Y-55105907D01*
X72136700Y-55105911D01*
X72269088Y-55238299D01*
X72269092Y-55238302D01*
X72424762Y-55342318D01*
X72424768Y-55342321D01*
X72424769Y-55342322D01*
X72597749Y-55413973D01*
X72769188Y-55448074D01*
X72781379Y-55450499D01*
X72781383Y-55450500D01*
X72781384Y-55450500D01*
X72968617Y-55450500D01*
X72968618Y-55450499D01*
X73152251Y-55413973D01*
X73325231Y-55342322D01*
X73480908Y-55238302D01*
X73613302Y-55105908D01*
X73717322Y-54950231D01*
X73788973Y-54777251D01*
X73825500Y-54593616D01*
X73825500Y-54406384D01*
X73788973Y-54222749D01*
X73722162Y-54061454D01*
X73717323Y-54049771D01*
X73717318Y-54049762D01*
X73613302Y-53894092D01*
X73613299Y-53894088D01*
X73480911Y-53761700D01*
X73480907Y-53761697D01*
X73325237Y-53657681D01*
X73325228Y-53657676D01*
X73152251Y-53586027D01*
X73152243Y-53586025D01*
X72968620Y-53549500D01*
X72968616Y-53549500D01*
X72781384Y-53549500D01*
X72781379Y-53549500D01*
X72597756Y-53586025D01*
X72597748Y-53586027D01*
X72424771Y-53657676D01*
X72424762Y-53657681D01*
X72269092Y-53761697D01*
X72269088Y-53761700D01*
X72136700Y-53894088D01*
X72136697Y-53894092D01*
X72032681Y-54049762D01*
X72032676Y-54049771D01*
X71961027Y-54222748D01*
X71961025Y-54222756D01*
X71924500Y-54406379D01*
X56675499Y-54406379D01*
X56638973Y-54222749D01*
X56572162Y-54061454D01*
X56567323Y-54049771D01*
X56567318Y-54049762D01*
X56463302Y-53894092D01*
X56463299Y-53894088D01*
X56330911Y-53761700D01*
X56330907Y-53761697D01*
X56175237Y-53657681D01*
X56175228Y-53657676D01*
X56002251Y-53586027D01*
X56002243Y-53586025D01*
X55818620Y-53549500D01*
X55818616Y-53549500D01*
X55631384Y-53549500D01*
X55631379Y-53549500D01*
X55447756Y-53586025D01*
X55447748Y-53586027D01*
X55274771Y-53657676D01*
X55274762Y-53657681D01*
X55119092Y-53761697D01*
X55119088Y-53761700D01*
X54986700Y-53894088D01*
X54986697Y-53894092D01*
X54882681Y-54049762D01*
X54882676Y-54049771D01*
X54811027Y-54222748D01*
X54811025Y-54222756D01*
X54774500Y-54406379D01*
X50757530Y-54406379D01*
X50753702Y-54397137D01*
X50676385Y-54281424D01*
X50660625Y-54257837D01*
X50542161Y-54139373D01*
X50402859Y-54046295D01*
X50248081Y-53982184D01*
X50248073Y-53982182D01*
X50083770Y-53949500D01*
X50083766Y-53949500D01*
X49916232Y-53949500D01*
X49916227Y-53949500D01*
X49751924Y-53982182D01*
X49751916Y-53982184D01*
X49597138Y-54046295D01*
X49457836Y-54139373D01*
X49339372Y-54257837D01*
X49246294Y-54397139D01*
X49182183Y-54551917D01*
X49182181Y-54551925D01*
X49149499Y-54716228D01*
X34299641Y-54716228D01*
X34260626Y-54657838D01*
X34260625Y-54657837D01*
X34260623Y-54657834D01*
X34142162Y-54539373D01*
X34002860Y-54446295D01*
X33848082Y-54382184D01*
X33848074Y-54382182D01*
X33683771Y-54349500D01*
X33683767Y-54349500D01*
X33516233Y-54349500D01*
X33516228Y-54349500D01*
X33351925Y-54382182D01*
X33351917Y-54382184D01*
X33197139Y-54446295D01*
X33057837Y-54539373D01*
X32939373Y-54657837D01*
X32846295Y-54797139D01*
X32782184Y-54951917D01*
X32782182Y-54951925D01*
X32749500Y-55116228D01*
X29780981Y-55116228D01*
X29787523Y-55111475D01*
X29235148Y-54559101D01*
X29292517Y-54535339D01*
X29400680Y-54463066D01*
X29492666Y-54371080D01*
X29564939Y-54262917D01*
X29588701Y-54205549D01*
X30141075Y-54757923D01*
X30141075Y-54757922D01*
X30189403Y-54691407D01*
X30290474Y-54493045D01*
X30359273Y-54281306D01*
X30394100Y-54061421D01*
X30394100Y-53838778D01*
X30359273Y-53618893D01*
X30290474Y-53407154D01*
X30189403Y-53208792D01*
X30141075Y-53142276D01*
X30141075Y-53142275D01*
X29588701Y-53694650D01*
X29564939Y-53637283D01*
X29492666Y-53529120D01*
X29400680Y-53437134D01*
X29292517Y-53364861D01*
X29235147Y-53341098D01*
X29787523Y-52788723D01*
X29748621Y-52760459D01*
X29721007Y-52740396D01*
X29575445Y-52666228D01*
X59649500Y-52666228D01*
X59649500Y-52833771D01*
X59682182Y-52998074D01*
X59682184Y-52998082D01*
X59746295Y-53152860D01*
X59839373Y-53292162D01*
X59957837Y-53410626D01*
X60050494Y-53472537D01*
X60097137Y-53503703D01*
X60251918Y-53567816D01*
X60396355Y-53596546D01*
X60416228Y-53600499D01*
X60416232Y-53600500D01*
X60416233Y-53600500D01*
X60583768Y-53600500D01*
X60583769Y-53600499D01*
X60748082Y-53567816D01*
X60902863Y-53503703D01*
X61042162Y-53410626D01*
X61160626Y-53292162D01*
X61253703Y-53152863D01*
X61268878Y-53116228D01*
X88349500Y-53116228D01*
X88349500Y-53283771D01*
X88382182Y-53448074D01*
X88382184Y-53448082D01*
X88446295Y-53602860D01*
X88539373Y-53742162D01*
X88657837Y-53860626D01*
X88707917Y-53894088D01*
X88797137Y-53953703D01*
X88951918Y-54017816D01*
X89095093Y-54046295D01*
X89116228Y-54050499D01*
X89116232Y-54050500D01*
X89116233Y-54050500D01*
X89283768Y-54050500D01*
X89283769Y-54050499D01*
X89448082Y-54017816D01*
X89602863Y-53953703D01*
X89742162Y-53860626D01*
X89764043Y-53838745D01*
X99205100Y-53838745D01*
X99205100Y-54061454D01*
X99239940Y-54281424D01*
X99239940Y-54281427D01*
X99308759Y-54493230D01*
X99368511Y-54610500D01*
X99409869Y-54691669D01*
X99540775Y-54871845D01*
X99698255Y-55029325D01*
X99878431Y-55160231D01*
X100075954Y-55260874D01*
X100076869Y-55261340D01*
X100288673Y-55330159D01*
X100288674Y-55330159D01*
X100288677Y-55330160D01*
X100508645Y-55365000D01*
X100508646Y-55365000D01*
X100731354Y-55365000D01*
X100731355Y-55365000D01*
X100951323Y-55330160D01*
X100951326Y-55330159D01*
X100951327Y-55330159D01*
X101163130Y-55261340D01*
X101163130Y-55261339D01*
X101163133Y-55261339D01*
X101361569Y-55160231D01*
X101541745Y-55029325D01*
X101699225Y-54871845D01*
X101830131Y-54691669D01*
X101931239Y-54493233D01*
X101959458Y-54406383D01*
X102000059Y-54281427D01*
X102000059Y-54281426D01*
X102000060Y-54281423D01*
X102034900Y-54061455D01*
X102034900Y-53838745D01*
X102000060Y-53618777D01*
X102000059Y-53618773D01*
X102000059Y-53618772D01*
X101931240Y-53406969D01*
X101872743Y-53292162D01*
X101830131Y-53208531D01*
X101699225Y-53028355D01*
X101541745Y-52870875D01*
X101361569Y-52739969D01*
X101216852Y-52666232D01*
X101163130Y-52638859D01*
X100951326Y-52570040D01*
X100757708Y-52539374D01*
X100731355Y-52535200D01*
X100508645Y-52535200D01*
X100482292Y-52539374D01*
X100288675Y-52570040D01*
X100288672Y-52570040D01*
X100076869Y-52638859D01*
X99878430Y-52739969D01*
X99775633Y-52814656D01*
X99698255Y-52870875D01*
X99698253Y-52870877D01*
X99698252Y-52870877D01*
X99540777Y-53028352D01*
X99540777Y-53028353D01*
X99540775Y-53028355D01*
X99515831Y-53062688D01*
X99409869Y-53208530D01*
X99308759Y-53406969D01*
X99239940Y-53618772D01*
X99239940Y-53618775D01*
X99205100Y-53838745D01*
X89764043Y-53838745D01*
X89856597Y-53746192D01*
X89860623Y-53742165D01*
X89860626Y-53742162D01*
X89953703Y-53602863D01*
X90017816Y-53448082D01*
X90050500Y-53283767D01*
X90050500Y-53116233D01*
X90017816Y-52951918D01*
X89953703Y-52797137D01*
X89915504Y-52739969D01*
X89860626Y-52657837D01*
X89742162Y-52539373D01*
X89602860Y-52446295D01*
X89448082Y-52382184D01*
X89448074Y-52382182D01*
X89283771Y-52349500D01*
X89283767Y-52349500D01*
X89116233Y-52349500D01*
X89116228Y-52349500D01*
X88951925Y-52382182D01*
X88951917Y-52382184D01*
X88797139Y-52446295D01*
X88657837Y-52539373D01*
X88539373Y-52657837D01*
X88446295Y-52797139D01*
X88382184Y-52951917D01*
X88382182Y-52951925D01*
X88349500Y-53116228D01*
X61268878Y-53116228D01*
X61317816Y-52998082D01*
X61350500Y-52833767D01*
X61350500Y-52666233D01*
X61317816Y-52501918D01*
X61253703Y-52347137D01*
X61201008Y-52268274D01*
X61160626Y-52207837D01*
X61042162Y-52089373D01*
X60902860Y-51996295D01*
X60748082Y-51932184D01*
X60748074Y-51932182D01*
X60583771Y-51899500D01*
X60583767Y-51899500D01*
X60416233Y-51899500D01*
X60416228Y-51899500D01*
X60251925Y-51932182D01*
X60251917Y-51932184D01*
X60097139Y-51996295D01*
X59957837Y-52089373D01*
X59839373Y-52207837D01*
X59746295Y-52347139D01*
X59682184Y-52501917D01*
X59682182Y-52501925D01*
X59649500Y-52666228D01*
X29575445Y-52666228D01*
X29522645Y-52639325D01*
X29310906Y-52570526D01*
X29091021Y-52535700D01*
X28868379Y-52535700D01*
X28648493Y-52570526D01*
X28436754Y-52639325D01*
X28238391Y-52740397D01*
X28171876Y-52788722D01*
X28171875Y-52788723D01*
X28724251Y-53341098D01*
X28666883Y-53364861D01*
X28558720Y-53437134D01*
X28466734Y-53529120D01*
X28394461Y-53637283D01*
X28370698Y-53694651D01*
X27818323Y-53142275D01*
X27818322Y-53142276D01*
X27769997Y-53208791D01*
X27668925Y-53407154D01*
X27600126Y-53618893D01*
X27565300Y-53838778D01*
X26300500Y-53838778D01*
X26300500Y-49812877D01*
X68274827Y-49812877D01*
X68274827Y-49980420D01*
X68307509Y-50144723D01*
X68307511Y-50144731D01*
X68371622Y-50299509D01*
X68464700Y-50438811D01*
X68583164Y-50557275D01*
X68647046Y-50599959D01*
X68722464Y-50650352D01*
X68722465Y-50650352D01*
X68722466Y-50650353D01*
X68722821Y-50650500D01*
X68877245Y-50714465D01*
X69041555Y-50747148D01*
X69041559Y-50747149D01*
X69041560Y-50747149D01*
X69209095Y-50747149D01*
X69209096Y-50747148D01*
X69373409Y-50714465D01*
X69528190Y-50650352D01*
X69667489Y-50557275D01*
X69729712Y-50495051D01*
X69791033Y-50461568D01*
X69860725Y-50466552D01*
X69886280Y-50479630D01*
X69997137Y-50553703D01*
X70151918Y-50617816D01*
X70303720Y-50648011D01*
X70316228Y-50650499D01*
X70316232Y-50650500D01*
X70316233Y-50650500D01*
X70483768Y-50650500D01*
X70483769Y-50650499D01*
X70648082Y-50617816D01*
X70802863Y-50553703D01*
X70942162Y-50460626D01*
X71060626Y-50342162D01*
X71153703Y-50202863D01*
X71184710Y-50128005D01*
X71228551Y-50073602D01*
X71294845Y-50051537D01*
X71362544Y-50068816D01*
X71410155Y-50119953D01*
X71413832Y-50128005D01*
X71443807Y-50200372D01*
X71536885Y-50339674D01*
X71655349Y-50458138D01*
X71710597Y-50495053D01*
X71794649Y-50551215D01*
X71794650Y-50551215D01*
X71794651Y-50551216D01*
X71800658Y-50553704D01*
X71949430Y-50615328D01*
X72113740Y-50648011D01*
X72113744Y-50648012D01*
X72113745Y-50648012D01*
X72281280Y-50648012D01*
X72281281Y-50648011D01*
X72445594Y-50615328D01*
X72600375Y-50551215D01*
X72739674Y-50458138D01*
X72781584Y-50416228D01*
X77899500Y-50416228D01*
X77899500Y-50583771D01*
X77932182Y-50748074D01*
X77932184Y-50748082D01*
X77996295Y-50902860D01*
X78089373Y-51042162D01*
X78207837Y-51160626D01*
X78300494Y-51222537D01*
X78347137Y-51253703D01*
X78501918Y-51317816D01*
X78666228Y-51350499D01*
X78666232Y-51350500D01*
X78666233Y-51350500D01*
X78833768Y-51350500D01*
X78833769Y-51350499D01*
X78998082Y-51317816D01*
X79152588Y-51253816D01*
X79222056Y-51246348D01*
X79284535Y-51277623D01*
X79320188Y-51337712D01*
X79324040Y-51368378D01*
X79324040Y-51534230D01*
X79356722Y-51698533D01*
X79356724Y-51698541D01*
X79420835Y-51853319D01*
X79513913Y-51992621D01*
X79632377Y-52111085D01*
X79725034Y-52172996D01*
X79771677Y-52204162D01*
X79771678Y-52204162D01*
X79771679Y-52204163D01*
X79806741Y-52218686D01*
X79926458Y-52268275D01*
X80054747Y-52293793D01*
X80090768Y-52300958D01*
X80090772Y-52300959D01*
X80090773Y-52300959D01*
X80258308Y-52300959D01*
X80258309Y-52300958D01*
X80422622Y-52268275D01*
X80577403Y-52204162D01*
X80716702Y-52111085D01*
X80835166Y-51992621D01*
X80928243Y-51853322D01*
X80992356Y-51698541D01*
X81025040Y-51534226D01*
X81025040Y-51366692D01*
X81025040Y-51360600D01*
X81026219Y-51360600D01*
X81038068Y-51298126D01*
X81086133Y-51247416D01*
X81153984Y-51230743D01*
X81220079Y-51253399D01*
X81251553Y-51285729D01*
X81339370Y-51417157D01*
X81339376Y-51417165D01*
X81457837Y-51535626D01*
X81550494Y-51597537D01*
X81597137Y-51628703D01*
X81751918Y-51692816D01*
X81916228Y-51725499D01*
X81916232Y-51725500D01*
X81916233Y-51725500D01*
X82083768Y-51725500D01*
X82083769Y-51725499D01*
X82248082Y-51692816D01*
X82402863Y-51628703D01*
X82542162Y-51535626D01*
X82660626Y-51417162D01*
X82753703Y-51277863D01*
X82817816Y-51123082D01*
X82850500Y-50958767D01*
X82850500Y-50791233D01*
X82817816Y-50626918D01*
X82753703Y-50472137D01*
X82711380Y-50408796D01*
X82660626Y-50332837D01*
X82542162Y-50214373D01*
X82402860Y-50121295D01*
X82248082Y-50057184D01*
X82248074Y-50057182D01*
X82083771Y-50024500D01*
X82083767Y-50024500D01*
X81916233Y-50024500D01*
X81916228Y-50024500D01*
X81751925Y-50057182D01*
X81751917Y-50057184D01*
X81597139Y-50121295D01*
X81457837Y-50214373D01*
X81339373Y-50332837D01*
X81246295Y-50472139D01*
X81182184Y-50626917D01*
X81182182Y-50626925D01*
X81149500Y-50791228D01*
X81149500Y-50964859D01*
X81148325Y-50964859D01*
X81136463Y-51027349D01*
X81088390Y-51078051D01*
X81020536Y-51094715D01*
X80954445Y-51072048D01*
X80922989Y-51039733D01*
X80835166Y-50908297D01*
X80835164Y-50908294D01*
X80716702Y-50789832D01*
X80577400Y-50696754D01*
X80422622Y-50632643D01*
X80422614Y-50632641D01*
X80258311Y-50599959D01*
X80258307Y-50599959D01*
X80090773Y-50599959D01*
X80090768Y-50599959D01*
X79926465Y-50632641D01*
X79926457Y-50632643D01*
X79771953Y-50696641D01*
X79702483Y-50704110D01*
X79640004Y-50672835D01*
X79604352Y-50612746D01*
X79600500Y-50582080D01*
X79600500Y-50416232D01*
X79600499Y-50416228D01*
X79585272Y-50339675D01*
X79567816Y-50251918D01*
X79518227Y-50132201D01*
X79503704Y-50097139D01*
X79410626Y-49957837D01*
X79292162Y-49839373D01*
X79152860Y-49746295D01*
X78998082Y-49682184D01*
X78998074Y-49682182D01*
X78833771Y-49649500D01*
X78833767Y-49649500D01*
X78666233Y-49649500D01*
X78666228Y-49649500D01*
X78501925Y-49682182D01*
X78501917Y-49682184D01*
X78347139Y-49746295D01*
X78207837Y-49839373D01*
X78089373Y-49957837D01*
X77996295Y-50097139D01*
X77932184Y-50251917D01*
X77932182Y-50251925D01*
X77899500Y-50416228D01*
X72781584Y-50416228D01*
X72858138Y-50339674D01*
X72951215Y-50200375D01*
X73015328Y-50045594D01*
X73048012Y-49881279D01*
X73048012Y-49713745D01*
X73015328Y-49549430D01*
X72952247Y-49397141D01*
X72951216Y-49394651D01*
X72858138Y-49255349D01*
X72739674Y-49136885D01*
X72600372Y-49043807D01*
X72445594Y-48979696D01*
X72445586Y-48979694D01*
X72281283Y-48947012D01*
X72281279Y-48947012D01*
X72113745Y-48947012D01*
X72113740Y-48947012D01*
X71949437Y-48979694D01*
X71949429Y-48979696D01*
X71794651Y-49043807D01*
X71655349Y-49136885D01*
X71536885Y-49255349D01*
X71443808Y-49394649D01*
X71412801Y-49469507D01*
X71368959Y-49523910D01*
X71302665Y-49545974D01*
X71234965Y-49528694D01*
X71187355Y-49477556D01*
X71183679Y-49469505D01*
X71153705Y-49397141D01*
X71153704Y-49397139D01*
X71152040Y-49394649D01*
X71083561Y-49292162D01*
X71060626Y-49257837D01*
X70992150Y-49189361D01*
X70958665Y-49128038D01*
X70963649Y-49058346D01*
X70965273Y-49054220D01*
X70967816Y-49048082D01*
X71000500Y-48883767D01*
X71000500Y-48716233D01*
X70990553Y-48666228D01*
X104899500Y-48666228D01*
X104899500Y-48833771D01*
X104932182Y-48998074D01*
X104932184Y-48998082D01*
X104996295Y-49152860D01*
X105089373Y-49292162D01*
X105207837Y-49410626D01*
X105258230Y-49444297D01*
X105347137Y-49503703D01*
X105347138Y-49503703D01*
X105347139Y-49503704D01*
X105471736Y-49555314D01*
X105526139Y-49599155D01*
X105548204Y-49665449D01*
X105530925Y-49733149D01*
X105498596Y-49769140D01*
X105467454Y-49792453D01*
X105467452Y-49792455D01*
X105381206Y-49907664D01*
X105381202Y-49907671D01*
X105330908Y-50042517D01*
X105325036Y-50097139D01*
X105324501Y-50102123D01*
X105324500Y-50102135D01*
X105324500Y-51897870D01*
X105324501Y-51897876D01*
X105330908Y-51957483D01*
X105381202Y-52092328D01*
X105381206Y-52092335D01*
X105467452Y-52207544D01*
X105467454Y-52207546D01*
X105582664Y-52293793D01*
X105582671Y-52293797D01*
X105714082Y-52342810D01*
X105770016Y-52384681D01*
X105794433Y-52450145D01*
X105779582Y-52518418D01*
X105758431Y-52546673D01*
X105644889Y-52660215D01*
X105519951Y-52832179D01*
X105423444Y-53021585D01*
X105357753Y-53223760D01*
X105324500Y-53433713D01*
X105324500Y-53646286D01*
X105354987Y-53838778D01*
X105357754Y-53856243D01*
X105420872Y-54050500D01*
X105423444Y-54058414D01*
X105519951Y-54247820D01*
X105644890Y-54419786D01*
X105795213Y-54570109D01*
X105967182Y-54695050D01*
X105975946Y-54699516D01*
X106026742Y-54747491D01*
X106043536Y-54815312D01*
X106020998Y-54881447D01*
X105975946Y-54920484D01*
X105967182Y-54924949D01*
X105795213Y-55049890D01*
X105644890Y-55200213D01*
X105519951Y-55372179D01*
X105423444Y-55561585D01*
X105357753Y-55763760D01*
X105324500Y-55973713D01*
X105324500Y-56186286D01*
X105350350Y-56349500D01*
X105357754Y-56396243D01*
X105404260Y-56539374D01*
X105423444Y-56598414D01*
X105519951Y-56787820D01*
X105644890Y-56959786D01*
X105795213Y-57110109D01*
X105967179Y-57235048D01*
X105967181Y-57235049D01*
X105967184Y-57235051D01*
X105976493Y-57239794D01*
X106027290Y-57287766D01*
X106044087Y-57355587D01*
X106021552Y-57421722D01*
X105976505Y-57460760D01*
X105967446Y-57465376D01*
X105967440Y-57465380D01*
X105913282Y-57504727D01*
X105913282Y-57504728D01*
X106545591Y-58137037D01*
X106482007Y-58154075D01*
X106367993Y-58219901D01*
X106274901Y-58312993D01*
X106209075Y-58427007D01*
X106192037Y-58490591D01*
X105559728Y-57858282D01*
X105559727Y-57858282D01*
X105520380Y-57912439D01*
X105423904Y-58101782D01*
X105358242Y-58303869D01*
X105358242Y-58303872D01*
X105325000Y-58513753D01*
X105325000Y-58726246D01*
X105358242Y-58936127D01*
X105358242Y-58936130D01*
X105423904Y-59138217D01*
X105520375Y-59327550D01*
X105559728Y-59381716D01*
X106192037Y-58749408D01*
X106209075Y-58812993D01*
X106274901Y-58927007D01*
X106367993Y-59020099D01*
X106482007Y-59085925D01*
X106545590Y-59102962D01*
X105913282Y-59735269D01*
X105913282Y-59735270D01*
X105967449Y-59774624D01*
X106156782Y-59871095D01*
X106358870Y-59936757D01*
X106568754Y-59970000D01*
X106781246Y-59970000D01*
X106991127Y-59936757D01*
X106991130Y-59936757D01*
X107193217Y-59871095D01*
X107382554Y-59774622D01*
X107436716Y-59735270D01*
X107436717Y-59735270D01*
X106804408Y-59102962D01*
X106867993Y-59085925D01*
X106982007Y-59020099D01*
X107075099Y-58927007D01*
X107140925Y-58812993D01*
X107157962Y-58749408D01*
X107790270Y-59381717D01*
X107790270Y-59381716D01*
X107829622Y-59327554D01*
X107926095Y-59138217D01*
X107991757Y-58936130D01*
X107991757Y-58936127D01*
X108025000Y-58726246D01*
X108025000Y-58513753D01*
X107991757Y-58303872D01*
X107991757Y-58303869D01*
X107926095Y-58101782D01*
X107829624Y-57912449D01*
X107790270Y-57858282D01*
X107790269Y-57858282D01*
X107157962Y-58490590D01*
X107140925Y-58427007D01*
X107075099Y-58312993D01*
X106982007Y-58219901D01*
X106867993Y-58154075D01*
X106804409Y-58137037D01*
X107436716Y-57504728D01*
X107382547Y-57465373D01*
X107382547Y-57465372D01*
X107373500Y-57460763D01*
X107322706Y-57412788D01*
X107305912Y-57344966D01*
X107328451Y-57278832D01*
X107373508Y-57239793D01*
X107382816Y-57235051D01*
X107500568Y-57149500D01*
X107554786Y-57110109D01*
X107554788Y-57110106D01*
X107554792Y-57110104D01*
X107705104Y-56959792D01*
X107705106Y-56959788D01*
X107705109Y-56959786D01*
X107830048Y-56787820D01*
X107830047Y-56787820D01*
X107830051Y-56787816D01*
X107926557Y-56598412D01*
X107992246Y-56396243D01*
X108025500Y-56186287D01*
X108025500Y-55973713D01*
X107992246Y-55763757D01*
X107926557Y-55561588D01*
X107830051Y-55372184D01*
X107830049Y-55372181D01*
X107830048Y-55372179D01*
X107705109Y-55200213D01*
X107554786Y-55049890D01*
X107382820Y-54924951D01*
X107382115Y-54924591D01*
X107374054Y-54920485D01*
X107323259Y-54872512D01*
X107306463Y-54804692D01*
X107328999Y-54738556D01*
X107374054Y-54699515D01*
X107382816Y-54695051D01*
X107434041Y-54657834D01*
X107554786Y-54570109D01*
X107554788Y-54570106D01*
X107554792Y-54570104D01*
X107705104Y-54419792D01*
X107705106Y-54419788D01*
X107705109Y-54419786D01*
X107830048Y-54247820D01*
X107830047Y-54247820D01*
X107830051Y-54247816D01*
X107926557Y-54058412D01*
X107992246Y-53856243D01*
X108025500Y-53646287D01*
X108025500Y-53433713D01*
X107992246Y-53223757D01*
X107926557Y-53021588D01*
X107830051Y-52832184D01*
X107830049Y-52832181D01*
X107830048Y-52832179D01*
X107705109Y-52660213D01*
X107591569Y-52546673D01*
X107558084Y-52485350D01*
X107563068Y-52415658D01*
X107604940Y-52359725D01*
X107635915Y-52342810D01*
X107767331Y-52293796D01*
X107882546Y-52207546D01*
X107968796Y-52092331D01*
X108019091Y-51957483D01*
X108025500Y-51897873D01*
X108025499Y-50102128D01*
X108019091Y-50042517D01*
X107995930Y-49980420D01*
X107968797Y-49907671D01*
X107968793Y-49907664D01*
X107882547Y-49792455D01*
X107882544Y-49792452D01*
X107767335Y-49706206D01*
X107767328Y-49706202D01*
X107632482Y-49655908D01*
X107632483Y-49655908D01*
X107572883Y-49649501D01*
X107572881Y-49649500D01*
X107572873Y-49649500D01*
X107572865Y-49649500D01*
X106343434Y-49649500D01*
X106276395Y-49629815D01*
X106230640Y-49577011D01*
X106220696Y-49507853D01*
X106249721Y-49444297D01*
X106274542Y-49422398D01*
X106292162Y-49410626D01*
X106410626Y-49292162D01*
X106503703Y-49152863D01*
X106567816Y-48998082D01*
X106600500Y-48833767D01*
X106600500Y-48666233D01*
X106567816Y-48501918D01*
X106503703Y-48347137D01*
X106444035Y-48257838D01*
X106410626Y-48207837D01*
X106292162Y-48089373D01*
X106152860Y-47996295D01*
X105998082Y-47932184D01*
X105998074Y-47932182D01*
X105833771Y-47899500D01*
X105833767Y-47899500D01*
X105666233Y-47899500D01*
X105666228Y-47899500D01*
X105501925Y-47932182D01*
X105501917Y-47932184D01*
X105347139Y-47996295D01*
X105207837Y-48089373D01*
X105089373Y-48207837D01*
X104996295Y-48347139D01*
X104932184Y-48501917D01*
X104932182Y-48501925D01*
X104899500Y-48666228D01*
X70990553Y-48666228D01*
X70967816Y-48551918D01*
X70903703Y-48397137D01*
X70866970Y-48342162D01*
X70810626Y-48257837D01*
X70692162Y-48139373D01*
X70552860Y-48046295D01*
X70398082Y-47982184D01*
X70398074Y-47982182D01*
X70233771Y-47949500D01*
X70233767Y-47949500D01*
X70066233Y-47949500D01*
X70066228Y-47949500D01*
X69901925Y-47982182D01*
X69901917Y-47982184D01*
X69747139Y-48046295D01*
X69607837Y-48139373D01*
X69489373Y-48257837D01*
X69396295Y-48397139D01*
X69332184Y-48551917D01*
X69332182Y-48551925D01*
X69299500Y-48716228D01*
X69299500Y-48716232D01*
X69299500Y-48716233D01*
X69299500Y-48883767D01*
X69299501Y-48883771D01*
X69302323Y-48897959D01*
X69296094Y-48967551D01*
X69253230Y-49022728D01*
X69187340Y-49045971D01*
X69180705Y-49046149D01*
X69041555Y-49046149D01*
X68877252Y-49078831D01*
X68877244Y-49078833D01*
X68722466Y-49142944D01*
X68583164Y-49236022D01*
X68464700Y-49354486D01*
X68371622Y-49493788D01*
X68307511Y-49648566D01*
X68307509Y-49648574D01*
X68274827Y-49812877D01*
X26300500Y-49812877D01*
X26300500Y-47716228D01*
X72349500Y-47716228D01*
X72349500Y-47883771D01*
X72382182Y-48048074D01*
X72382184Y-48048082D01*
X72446295Y-48202860D01*
X72539373Y-48342162D01*
X72657837Y-48460626D01*
X72719646Y-48501925D01*
X72797137Y-48553703D01*
X72951918Y-48617816D01*
X73116228Y-48650499D01*
X73116232Y-48650500D01*
X73116233Y-48650500D01*
X73283768Y-48650500D01*
X73283769Y-48650499D01*
X73448082Y-48617816D01*
X73602863Y-48553703D01*
X73742162Y-48460626D01*
X73860626Y-48342162D01*
X73953703Y-48202863D01*
X74017816Y-48048082D01*
X74050500Y-47883767D01*
X74050500Y-47716233D01*
X74050499Y-47716228D01*
X74050452Y-47715752D01*
X74050500Y-47715498D01*
X74050500Y-47710141D01*
X74051515Y-47710141D01*
X74063461Y-47647104D01*
X74111519Y-47596387D01*
X74179368Y-47579704D01*
X74198044Y-47581964D01*
X74252123Y-47592720D01*
X74291230Y-47600499D01*
X74291232Y-47600500D01*
X74291233Y-47600500D01*
X74458768Y-47600500D01*
X74458769Y-47600499D01*
X74623082Y-47567816D01*
X74777863Y-47503703D01*
X74917162Y-47410626D01*
X75035626Y-47292162D01*
X75128703Y-47152863D01*
X75192816Y-46998082D01*
X75225500Y-46833767D01*
X75225500Y-46716228D01*
X78349500Y-46716228D01*
X78349500Y-46883771D01*
X78382182Y-47048074D01*
X78382184Y-47048082D01*
X78446295Y-47202860D01*
X78539373Y-47342162D01*
X78657837Y-47460626D01*
X78741543Y-47516556D01*
X78797137Y-47553703D01*
X78951918Y-47617816D01*
X79099160Y-47647104D01*
X79116228Y-47650499D01*
X79116232Y-47650500D01*
X79116233Y-47650500D01*
X79283768Y-47650500D01*
X79283769Y-47650499D01*
X79448082Y-47617816D01*
X79602863Y-47553703D01*
X79742162Y-47460626D01*
X79860626Y-47342162D01*
X79953703Y-47202863D01*
X80017816Y-47048082D01*
X80050500Y-46883767D01*
X80050500Y-46716233D01*
X80017816Y-46551918D01*
X79953703Y-46397137D01*
X79915412Y-46339830D01*
X79860626Y-46257837D01*
X79742162Y-46139373D01*
X79602860Y-46046295D01*
X79448082Y-45982184D01*
X79448074Y-45982182D01*
X79283771Y-45949500D01*
X79283767Y-45949500D01*
X79116233Y-45949500D01*
X79116228Y-45949500D01*
X78951925Y-45982182D01*
X78951917Y-45982184D01*
X78797139Y-46046295D01*
X78657837Y-46139373D01*
X78539373Y-46257837D01*
X78446295Y-46397139D01*
X78382184Y-46551917D01*
X78382182Y-46551925D01*
X78349500Y-46716228D01*
X75225500Y-46716228D01*
X75225500Y-46666233D01*
X75192816Y-46501918D01*
X75128703Y-46347137D01*
X75123821Y-46339830D01*
X75104313Y-46310634D01*
X75083435Y-46243957D01*
X75092852Y-46194296D01*
X75135340Y-46091724D01*
X75168024Y-45927409D01*
X75168024Y-45759875D01*
X75162943Y-45734330D01*
X75162943Y-45734328D01*
X75159343Y-45716228D01*
X88549500Y-45716228D01*
X88549500Y-45883771D01*
X88582182Y-46048074D01*
X88582184Y-46048082D01*
X88646295Y-46202860D01*
X88739373Y-46342162D01*
X88857837Y-46460626D01*
X88919646Y-46501925D01*
X88997137Y-46553703D01*
X89151918Y-46617816D01*
X89316228Y-46650499D01*
X89316232Y-46650500D01*
X89316233Y-46650500D01*
X89483768Y-46650500D01*
X89483769Y-46650499D01*
X89648082Y-46617816D01*
X89802863Y-46553703D01*
X89942162Y-46460626D01*
X90060626Y-46342162D01*
X90153703Y-46202863D01*
X90217816Y-46048082D01*
X90250500Y-45883767D01*
X90250500Y-45716233D01*
X90217816Y-45551918D01*
X90171780Y-45440779D01*
X90156691Y-45404350D01*
X90149222Y-45334880D01*
X90169619Y-45285856D01*
X90175859Y-45276928D01*
X90185626Y-45267162D01*
X90249382Y-45171743D01*
X90250085Y-45170739D01*
X90276382Y-45149683D01*
X90302227Y-45128085D01*
X90303570Y-45127916D01*
X90304627Y-45127070D01*
X90338129Y-45123574D01*
X90371552Y-45119376D01*
X90372773Y-45119960D01*
X90374119Y-45119820D01*
X90404172Y-45134982D01*
X90434579Y-45149530D01*
X90435452Y-45150763D01*
X90436499Y-45151292D01*
X90439843Y-45156969D01*
X90466279Y-45194327D01*
X90521062Y-45326585D01*
X90521067Y-45326596D01*
X90658078Y-45563904D01*
X90658089Y-45563920D01*
X90824904Y-45781318D01*
X90824910Y-45781325D01*
X91018674Y-45975089D01*
X91018681Y-45975095D01*
X91113789Y-46048074D01*
X91236088Y-46141917D01*
X91236095Y-46141921D01*
X91473403Y-46278932D01*
X91473408Y-46278934D01*
X91473411Y-46278936D01*
X91473415Y-46278937D01*
X91473420Y-46278940D01*
X91726573Y-46383799D01*
X91726579Y-46383800D01*
X91726589Y-46383805D01*
X91991289Y-46454731D01*
X92262981Y-46490500D01*
X92262988Y-46490500D01*
X92537012Y-46490500D01*
X92537019Y-46490500D01*
X92808711Y-46454731D01*
X93073411Y-46383805D01*
X93073423Y-46383799D01*
X93073426Y-46383799D01*
X93250063Y-46310634D01*
X93326589Y-46278936D01*
X93563912Y-46141917D01*
X93781320Y-45975094D01*
X93975094Y-45781320D01*
X94141917Y-45563912D01*
X94278936Y-45326589D01*
X94358302Y-45134982D01*
X94383799Y-45073426D01*
X94383799Y-45073423D01*
X94383805Y-45073411D01*
X94454731Y-44808711D01*
X94490500Y-44537019D01*
X94490500Y-44262981D01*
X94454731Y-43991289D01*
X94434619Y-43916228D01*
X95149500Y-43916228D01*
X95149500Y-44083771D01*
X95182182Y-44248074D01*
X95182184Y-44248082D01*
X95246295Y-44402860D01*
X95339373Y-44542162D01*
X95457837Y-44660626D01*
X95466229Y-44666233D01*
X95597137Y-44753703D01*
X95751918Y-44817816D01*
X95916228Y-44850499D01*
X95916232Y-44850500D01*
X95916233Y-44850500D01*
X96083768Y-44850500D01*
X96083769Y-44850499D01*
X96248082Y-44817816D01*
X96402863Y-44753703D01*
X96542162Y-44660626D01*
X96660626Y-44542162D01*
X96753703Y-44402863D01*
X96817816Y-44248082D01*
X96850500Y-44083767D01*
X96850500Y-43916233D01*
X96848700Y-43907182D01*
X96818055Y-43753115D01*
X96817817Y-43751924D01*
X96817816Y-43751918D01*
X96753703Y-43597137D01*
X96710872Y-43533036D01*
X96660626Y-43457837D01*
X96542162Y-43339373D01*
X96402860Y-43246295D01*
X96248082Y-43182184D01*
X96248074Y-43182182D01*
X96083771Y-43149500D01*
X96083767Y-43149500D01*
X95916233Y-43149500D01*
X95916228Y-43149500D01*
X95751925Y-43182182D01*
X95751917Y-43182184D01*
X95597139Y-43246295D01*
X95457837Y-43339373D01*
X95339373Y-43457837D01*
X95246295Y-43597139D01*
X95182184Y-43751917D01*
X95182182Y-43751925D01*
X95149500Y-43916228D01*
X94434619Y-43916228D01*
X94383805Y-43726589D01*
X94383800Y-43726579D01*
X94383799Y-43726573D01*
X94278940Y-43473420D01*
X94278932Y-43473403D01*
X94141921Y-43236095D01*
X94141917Y-43236088D01*
X93975094Y-43018680D01*
X93975089Y-43018674D01*
X93781325Y-42824910D01*
X93781318Y-42824904D01*
X93563920Y-42658089D01*
X93563918Y-42658087D01*
X93563912Y-42658083D01*
X93563907Y-42658080D01*
X93563904Y-42658078D01*
X93326596Y-42521067D01*
X93326579Y-42521059D01*
X93073426Y-42416200D01*
X93073414Y-42416196D01*
X93073411Y-42416195D01*
X92808711Y-42345269D01*
X92808705Y-42345268D01*
X92808700Y-42345267D01*
X92537028Y-42309501D01*
X92537025Y-42309500D01*
X92537019Y-42309500D01*
X92262981Y-42309500D01*
X92262975Y-42309500D01*
X92262971Y-42309501D01*
X91991299Y-42345267D01*
X91991292Y-42345268D01*
X91991289Y-42345269D01*
X91726589Y-42416195D01*
X91726573Y-42416200D01*
X91473420Y-42521059D01*
X91473403Y-42521067D01*
X91236095Y-42658078D01*
X91236079Y-42658089D01*
X91018681Y-42824904D01*
X91018674Y-42824910D01*
X90824910Y-43018674D01*
X90824904Y-43018681D01*
X90658089Y-43236079D01*
X90658078Y-43236095D01*
X90521067Y-43473403D01*
X90521059Y-43473420D01*
X90416200Y-43726573D01*
X90416195Y-43726589D01*
X90350627Y-43971295D01*
X90345270Y-43991286D01*
X90345268Y-43991297D01*
X90337233Y-44052329D01*
X90308966Y-44116225D01*
X90250642Y-44154696D01*
X90180777Y-44155527D01*
X90126613Y-44123824D01*
X90067162Y-44064373D01*
X89927860Y-43971295D01*
X89773082Y-43907184D01*
X89773074Y-43907182D01*
X89608771Y-43874500D01*
X89608767Y-43874500D01*
X89441233Y-43874500D01*
X89441228Y-43874500D01*
X89276925Y-43907182D01*
X89276917Y-43907184D01*
X89122139Y-43971295D01*
X88982837Y-44064373D01*
X88864373Y-44182837D01*
X88771295Y-44322139D01*
X88707184Y-44476917D01*
X88707182Y-44476925D01*
X88674500Y-44641228D01*
X88674500Y-44808771D01*
X88707182Y-44973074D01*
X88707185Y-44973086D01*
X88768308Y-45120650D01*
X88775777Y-45190119D01*
X88744502Y-45252598D01*
X88741435Y-45255776D01*
X88739378Y-45257833D01*
X88739371Y-45257841D01*
X88646295Y-45397139D01*
X88582184Y-45551917D01*
X88582182Y-45551925D01*
X88549500Y-45716228D01*
X75159343Y-45716228D01*
X75135341Y-45595567D01*
X75135340Y-45595560D01*
X75071227Y-45440779D01*
X74987305Y-45315182D01*
X74966428Y-45248505D01*
X74984913Y-45181125D01*
X74987270Y-45177455D01*
X75003703Y-45152863D01*
X75067816Y-44998082D01*
X75100500Y-44833767D01*
X75100500Y-44666233D01*
X75067816Y-44501918D01*
X75003703Y-44347137D01*
X74940084Y-44251925D01*
X74910626Y-44207837D01*
X74792162Y-44089373D01*
X74652860Y-43996295D01*
X74498082Y-43932184D01*
X74498074Y-43932182D01*
X74333771Y-43899500D01*
X74333767Y-43899500D01*
X74166233Y-43899500D01*
X74166228Y-43899500D01*
X74001925Y-43932182D01*
X74001917Y-43932184D01*
X73847139Y-43996295D01*
X73707837Y-44089373D01*
X73589373Y-44207837D01*
X73496295Y-44347139D01*
X73432184Y-44501917D01*
X73432182Y-44501925D01*
X73399500Y-44666228D01*
X73399500Y-44833771D01*
X73432182Y-44998074D01*
X73432184Y-44998082D01*
X73496295Y-45152860D01*
X73580217Y-45278458D01*
X73601095Y-45345136D01*
X73582610Y-45412516D01*
X73580218Y-45416239D01*
X73563820Y-45440780D01*
X73499708Y-45595559D01*
X73499706Y-45595567D01*
X73467024Y-45759870D01*
X73467024Y-45927413D01*
X73499706Y-46091716D01*
X73499708Y-46091724D01*
X73562765Y-46243957D01*
X73563821Y-46246505D01*
X73588211Y-46283007D01*
X73609088Y-46349685D01*
X73599669Y-46399350D01*
X73557184Y-46501917D01*
X73557182Y-46501925D01*
X73524500Y-46666228D01*
X73524500Y-46833766D01*
X73524549Y-46834264D01*
X73524500Y-46834522D01*
X73524500Y-46839859D01*
X73523488Y-46839859D01*
X73511530Y-46902910D01*
X73463465Y-46953620D01*
X73395614Y-46970295D01*
X73376956Y-46968036D01*
X73322262Y-46957157D01*
X73283767Y-46949500D01*
X73116233Y-46949500D01*
X73116228Y-46949500D01*
X72951925Y-46982182D01*
X72951917Y-46982184D01*
X72797139Y-47046295D01*
X72657837Y-47139373D01*
X72539373Y-47257837D01*
X72446295Y-47397139D01*
X72382184Y-47551917D01*
X72382182Y-47551925D01*
X72349500Y-47716228D01*
X26300500Y-47716228D01*
X26300500Y-44262987D01*
X35109500Y-44262987D01*
X35109500Y-44537012D01*
X35109501Y-44537028D01*
X35145267Y-44808700D01*
X35145268Y-44808705D01*
X35145269Y-44808711D01*
X35162626Y-44873488D01*
X35216195Y-45073410D01*
X35216200Y-45073426D01*
X35321059Y-45326579D01*
X35321067Y-45326596D01*
X35458078Y-45563904D01*
X35458089Y-45563920D01*
X35624904Y-45781318D01*
X35624910Y-45781325D01*
X35818674Y-45975089D01*
X35818681Y-45975095D01*
X35913789Y-46048074D01*
X36036088Y-46141917D01*
X36036095Y-46141921D01*
X36273403Y-46278932D01*
X36273408Y-46278934D01*
X36273411Y-46278936D01*
X36273415Y-46278937D01*
X36273420Y-46278940D01*
X36526573Y-46383799D01*
X36526579Y-46383800D01*
X36526589Y-46383805D01*
X36791289Y-46454731D01*
X37062981Y-46490500D01*
X37062988Y-46490500D01*
X37337012Y-46490500D01*
X37337019Y-46490500D01*
X37608711Y-46454731D01*
X37873411Y-46383805D01*
X37873423Y-46383799D01*
X37873426Y-46383799D01*
X38050063Y-46310634D01*
X38126589Y-46278936D01*
X38363912Y-46141917D01*
X38581320Y-45975094D01*
X38775094Y-45781320D01*
X38941917Y-45563912D01*
X39078936Y-45326589D01*
X39158302Y-45134982D01*
X39183799Y-45073426D01*
X39183799Y-45073423D01*
X39183805Y-45073411D01*
X39254731Y-44808711D01*
X39290500Y-44537019D01*
X39290500Y-44416228D01*
X69949500Y-44416228D01*
X69949500Y-44583771D01*
X69982182Y-44748074D01*
X69982184Y-44748082D01*
X70046295Y-44902860D01*
X70139373Y-45042162D01*
X70257837Y-45160626D01*
X70350494Y-45222537D01*
X70397137Y-45253703D01*
X70397138Y-45253703D01*
X70397139Y-45253704D01*
X70407127Y-45257841D01*
X70551918Y-45317816D01*
X70655196Y-45338359D01*
X70716228Y-45350499D01*
X70716232Y-45350500D01*
X70716233Y-45350500D01*
X70883768Y-45350500D01*
X70883769Y-45350499D01*
X71048082Y-45317816D01*
X71202863Y-45253703D01*
X71342162Y-45160626D01*
X71460626Y-45042162D01*
X71553703Y-44902863D01*
X71617816Y-44748082D01*
X71650500Y-44583767D01*
X71650500Y-44416233D01*
X71617816Y-44251918D01*
X71553703Y-44097137D01*
X71522537Y-44050494D01*
X71460626Y-43957837D01*
X71342162Y-43839373D01*
X71202860Y-43746295D01*
X71048082Y-43682184D01*
X71048074Y-43682182D01*
X70883771Y-43649500D01*
X70883767Y-43649500D01*
X70716233Y-43649500D01*
X70716228Y-43649500D01*
X70551925Y-43682182D01*
X70551917Y-43682184D01*
X70397139Y-43746295D01*
X70257837Y-43839373D01*
X70139373Y-43957837D01*
X70046295Y-44097139D01*
X69982184Y-44251917D01*
X69982182Y-44251925D01*
X69949500Y-44416228D01*
X39290500Y-44416228D01*
X39290500Y-44262981D01*
X39254731Y-43991289D01*
X39183805Y-43726589D01*
X39183800Y-43726579D01*
X39183799Y-43726573D01*
X39078940Y-43473420D01*
X39078932Y-43473403D01*
X39006034Y-43347141D01*
X38973752Y-43291228D01*
X53024500Y-43291228D01*
X53024500Y-43458771D01*
X53057182Y-43623074D01*
X53057184Y-43623082D01*
X53121295Y-43777860D01*
X53214373Y-43917162D01*
X53332837Y-44035626D01*
X53375862Y-44064374D01*
X53472137Y-44128703D01*
X53626918Y-44192816D01*
X53791228Y-44225499D01*
X53791232Y-44225500D01*
X53791233Y-44225500D01*
X53958768Y-44225500D01*
X53958769Y-44225499D01*
X54123082Y-44192816D01*
X54277863Y-44128703D01*
X54417162Y-44035626D01*
X54535626Y-43917162D01*
X54628703Y-43777863D01*
X54692816Y-43623082D01*
X54725500Y-43458767D01*
X54725500Y-43291233D01*
X54692816Y-43126918D01*
X54628703Y-42972137D01*
X54597537Y-42925494D01*
X54535626Y-42832837D01*
X54417162Y-42714373D01*
X54277860Y-42621295D01*
X54123082Y-42557184D01*
X54123074Y-42557182D01*
X53958771Y-42524500D01*
X53958767Y-42524500D01*
X53791233Y-42524500D01*
X53791228Y-42524500D01*
X53626925Y-42557182D01*
X53626917Y-42557184D01*
X53472139Y-42621295D01*
X53332837Y-42714373D01*
X53214373Y-42832837D01*
X53121295Y-42972139D01*
X53057184Y-43126917D01*
X53057182Y-43126925D01*
X53024500Y-43291228D01*
X38973752Y-43291228D01*
X38941921Y-43236095D01*
X38941917Y-43236088D01*
X38775094Y-43018680D01*
X38775089Y-43018674D01*
X38581325Y-42824910D01*
X38581318Y-42824904D01*
X38363920Y-42658089D01*
X38363918Y-42658087D01*
X38363912Y-42658083D01*
X38363907Y-42658080D01*
X38363904Y-42658078D01*
X38126596Y-42521067D01*
X38126579Y-42521059D01*
X37873426Y-42416200D01*
X37873414Y-42416196D01*
X37873411Y-42416195D01*
X37608711Y-42345269D01*
X37608705Y-42345268D01*
X37608700Y-42345267D01*
X37337028Y-42309501D01*
X37337025Y-42309500D01*
X37337019Y-42309500D01*
X37062981Y-42309500D01*
X37062975Y-42309500D01*
X37062971Y-42309501D01*
X36791299Y-42345267D01*
X36791292Y-42345268D01*
X36791289Y-42345269D01*
X36526589Y-42416195D01*
X36526573Y-42416200D01*
X36273420Y-42521059D01*
X36273403Y-42521067D01*
X36036095Y-42658078D01*
X36036079Y-42658089D01*
X35818681Y-42824904D01*
X35818674Y-42824910D01*
X35624910Y-43018674D01*
X35624904Y-43018681D01*
X35458089Y-43236079D01*
X35458078Y-43236095D01*
X35321067Y-43473403D01*
X35321059Y-43473420D01*
X35216200Y-43726573D01*
X35216195Y-43726589D01*
X35150627Y-43971295D01*
X35145270Y-43991286D01*
X35145267Y-43991299D01*
X35109501Y-44262971D01*
X35109500Y-44262987D01*
X26300500Y-44262987D01*
X26300500Y-40316228D01*
X42949500Y-40316228D01*
X42949500Y-40483771D01*
X42982182Y-40648074D01*
X42982184Y-40648082D01*
X43046295Y-40802860D01*
X43139373Y-40942162D01*
X43257837Y-41060626D01*
X43303601Y-41091204D01*
X43397137Y-41153703D01*
X43397138Y-41153703D01*
X43397139Y-41153704D01*
X43432201Y-41168227D01*
X43551918Y-41217816D01*
X43716228Y-41250499D01*
X43716232Y-41250500D01*
X43716233Y-41250500D01*
X43883768Y-41250500D01*
X43883769Y-41250499D01*
X44048082Y-41217816D01*
X44202863Y-41153703D01*
X44342162Y-41060626D01*
X44460626Y-40942162D01*
X44553703Y-40802863D01*
X44617816Y-40648082D01*
X44650500Y-40483767D01*
X44650500Y-40316233D01*
X44641668Y-40271831D01*
X44641668Y-40271828D01*
X44638068Y-40253728D01*
X58212000Y-40253728D01*
X58212000Y-40421271D01*
X58244682Y-40585574D01*
X58244684Y-40585582D01*
X58308795Y-40740360D01*
X58401873Y-40879662D01*
X58520337Y-40998126D01*
X58612994Y-41060037D01*
X58659637Y-41091203D01*
X58814418Y-41155316D01*
X58978728Y-41187999D01*
X58978732Y-41188000D01*
X58978733Y-41188000D01*
X59146268Y-41188000D01*
X59146269Y-41187999D01*
X59310582Y-41155316D01*
X59404948Y-41116228D01*
X98549500Y-41116228D01*
X98549500Y-41283771D01*
X98582182Y-41448074D01*
X98582184Y-41448082D01*
X98646295Y-41602860D01*
X98739373Y-41742162D01*
X98857837Y-41860626D01*
X98950494Y-41922537D01*
X98997137Y-41953703D01*
X99151918Y-42017816D01*
X99316228Y-42050499D01*
X99316232Y-42050500D01*
X99316233Y-42050500D01*
X99483768Y-42050500D01*
X99483769Y-42050499D01*
X99648082Y-42017816D01*
X99802863Y-41953703D01*
X99942162Y-41860626D01*
X100060626Y-41742162D01*
X100153703Y-41602863D01*
X100217816Y-41448082D01*
X100250500Y-41283767D01*
X100250500Y-41116233D01*
X100217816Y-40951918D01*
X100153703Y-40797137D01*
X100115766Y-40740360D01*
X100060626Y-40657837D01*
X99942162Y-40539373D01*
X99802860Y-40446295D01*
X99648082Y-40382184D01*
X99648074Y-40382182D01*
X99483771Y-40349500D01*
X99483767Y-40349500D01*
X99316233Y-40349500D01*
X99316228Y-40349500D01*
X99151925Y-40382182D01*
X99151917Y-40382184D01*
X98997139Y-40446295D01*
X98857837Y-40539373D01*
X98739373Y-40657837D01*
X98646295Y-40797139D01*
X98582184Y-40951917D01*
X98582182Y-40951925D01*
X98549500Y-41116228D01*
X59404948Y-41116228D01*
X59465363Y-41091203D01*
X59604662Y-40998126D01*
X59723126Y-40879662D01*
X59816203Y-40740363D01*
X59880316Y-40585582D01*
X59913000Y-40421267D01*
X59913000Y-40253733D01*
X59880316Y-40089418D01*
X59816203Y-39934637D01*
X59803902Y-39916228D01*
X67524500Y-39916228D01*
X67524500Y-40083771D01*
X67557182Y-40248074D01*
X67557184Y-40248082D01*
X67621295Y-40402860D01*
X67714373Y-40542162D01*
X67832837Y-40660626D01*
X67925494Y-40722537D01*
X67972137Y-40753703D01*
X68126918Y-40817816D01*
X68291228Y-40850499D01*
X68291232Y-40850500D01*
X68291233Y-40850500D01*
X68458768Y-40850500D01*
X68458769Y-40850499D01*
X68623082Y-40817816D01*
X68777863Y-40753703D01*
X68917162Y-40660626D01*
X69035626Y-40542162D01*
X69128703Y-40402863D01*
X69192816Y-40248082D01*
X69225500Y-40083767D01*
X69225500Y-39916233D01*
X69192816Y-39751918D01*
X69128703Y-39597137D01*
X69096873Y-39549500D01*
X69035626Y-39457837D01*
X68917162Y-39339373D01*
X68882523Y-39316228D01*
X97749500Y-39316228D01*
X97749500Y-39483771D01*
X97782182Y-39648074D01*
X97782184Y-39648082D01*
X97846295Y-39802860D01*
X97939373Y-39942162D01*
X98057837Y-40060626D01*
X98118995Y-40101490D01*
X98197137Y-40153703D01*
X98351918Y-40217816D01*
X98504037Y-40248074D01*
X98516228Y-40250499D01*
X98516232Y-40250500D01*
X98516233Y-40250500D01*
X98683768Y-40250500D01*
X98683769Y-40250499D01*
X98848082Y-40217816D01*
X99002863Y-40153703D01*
X99142162Y-40060626D01*
X99260626Y-39942162D01*
X99353703Y-39802863D01*
X99417816Y-39648082D01*
X99450500Y-39483767D01*
X99450500Y-39316233D01*
X99417816Y-39151918D01*
X99353703Y-38997137D01*
X99322537Y-38950494D01*
X99260626Y-38857837D01*
X99142162Y-38739373D01*
X99002860Y-38646295D01*
X98848082Y-38582184D01*
X98848074Y-38582182D01*
X98683771Y-38549500D01*
X98683767Y-38549500D01*
X98516233Y-38549500D01*
X98516228Y-38549500D01*
X98351925Y-38582182D01*
X98351917Y-38582184D01*
X98197139Y-38646295D01*
X98057837Y-38739373D01*
X97939373Y-38857837D01*
X97846295Y-38997139D01*
X97782184Y-39151917D01*
X97782182Y-39151925D01*
X97749500Y-39316228D01*
X68882523Y-39316228D01*
X68777860Y-39246295D01*
X68623082Y-39182184D01*
X68623074Y-39182182D01*
X68458771Y-39149500D01*
X68458767Y-39149500D01*
X68291233Y-39149500D01*
X68291228Y-39149500D01*
X68126925Y-39182182D01*
X68126917Y-39182184D01*
X67972139Y-39246295D01*
X67832837Y-39339373D01*
X67714373Y-39457837D01*
X67621295Y-39597139D01*
X67557184Y-39751917D01*
X67557182Y-39751925D01*
X67524500Y-39916228D01*
X59803902Y-39916228D01*
X59785037Y-39887994D01*
X59723126Y-39795337D01*
X59604662Y-39676873D01*
X59465360Y-39583795D01*
X59310582Y-39519684D01*
X59310574Y-39519682D01*
X59146271Y-39487000D01*
X59146267Y-39487000D01*
X58978733Y-39487000D01*
X58978728Y-39487000D01*
X58814425Y-39519682D01*
X58814417Y-39519684D01*
X58659639Y-39583795D01*
X58520337Y-39676873D01*
X58401873Y-39795337D01*
X58308795Y-39934639D01*
X58244684Y-40089417D01*
X58244682Y-40089425D01*
X58212000Y-40253728D01*
X44638068Y-40253728D01*
X44617817Y-40151925D01*
X44617816Y-40151918D01*
X44553703Y-39997137D01*
X44501867Y-39919559D01*
X44460626Y-39857837D01*
X44342162Y-39739373D01*
X44202860Y-39646295D01*
X44048082Y-39582184D01*
X44048074Y-39582182D01*
X43883771Y-39549500D01*
X43883767Y-39549500D01*
X43716233Y-39549500D01*
X43716228Y-39549500D01*
X43551925Y-39582182D01*
X43551917Y-39582184D01*
X43397139Y-39646295D01*
X43257837Y-39739373D01*
X43139373Y-39857837D01*
X43046295Y-39997139D01*
X42982184Y-40151917D01*
X42982182Y-40151925D01*
X42949500Y-40316228D01*
X26300500Y-40316228D01*
X26300500Y-38116228D01*
X48949500Y-38116228D01*
X48949500Y-38283771D01*
X48982182Y-38448074D01*
X48982184Y-38448082D01*
X49046295Y-38602860D01*
X49139373Y-38742162D01*
X49257837Y-38860626D01*
X49268890Y-38868011D01*
X49397137Y-38953703D01*
X49551918Y-39017816D01*
X49716228Y-39050499D01*
X49716232Y-39050500D01*
X49716233Y-39050500D01*
X49883768Y-39050500D01*
X49883769Y-39050499D01*
X50048082Y-39017816D01*
X50202863Y-38953703D01*
X50331110Y-38868010D01*
X50397786Y-38847133D01*
X50465167Y-38865617D01*
X50468874Y-38868000D01*
X50597137Y-38953703D01*
X50751918Y-39017816D01*
X50916228Y-39050499D01*
X50916232Y-39050500D01*
X50916233Y-39050500D01*
X51083768Y-39050500D01*
X51083769Y-39050499D01*
X51248082Y-39017816D01*
X51402863Y-38953703D01*
X51542162Y-38860626D01*
X51575282Y-38827505D01*
X51636603Y-38794020D01*
X51706295Y-38799004D01*
X51710409Y-38800622D01*
X51751918Y-38817816D01*
X51899306Y-38847133D01*
X51916228Y-38850499D01*
X51916232Y-38850500D01*
X51916233Y-38850500D01*
X52083768Y-38850500D01*
X52083769Y-38850499D01*
X52248082Y-38817816D01*
X52402863Y-38753703D01*
X52542162Y-38660626D01*
X52660626Y-38542162D01*
X52753703Y-38402863D01*
X52817816Y-38248082D01*
X52850500Y-38083767D01*
X52850500Y-37916233D01*
X52817816Y-37751918D01*
X52753703Y-37597137D01*
X52694468Y-37508486D01*
X52660626Y-37457837D01*
X52542162Y-37339373D01*
X52402860Y-37246295D01*
X52248082Y-37182184D01*
X52248074Y-37182182D01*
X52083771Y-37149500D01*
X52083767Y-37149500D01*
X51916233Y-37149500D01*
X51916228Y-37149500D01*
X51751925Y-37182182D01*
X51751917Y-37182184D01*
X51597139Y-37246295D01*
X51457841Y-37339371D01*
X51424714Y-37372497D01*
X51363390Y-37405980D01*
X51293698Y-37400994D01*
X51289582Y-37399374D01*
X51248082Y-37382184D01*
X51248074Y-37382182D01*
X51083771Y-37349500D01*
X51083767Y-37349500D01*
X50916233Y-37349500D01*
X50916228Y-37349500D01*
X50751925Y-37382182D01*
X50751917Y-37382184D01*
X50597138Y-37446296D01*
X50597134Y-37446298D01*
X50468890Y-37531988D01*
X50402213Y-37552866D01*
X50334833Y-37534381D01*
X50331110Y-37531988D01*
X50202865Y-37446298D01*
X50202861Y-37446296D01*
X50048082Y-37382184D01*
X50048074Y-37382182D01*
X49883771Y-37349500D01*
X49883767Y-37349500D01*
X49716233Y-37349500D01*
X49716228Y-37349500D01*
X49551925Y-37382182D01*
X49551917Y-37382184D01*
X49397139Y-37446295D01*
X49257837Y-37539373D01*
X49139373Y-37657837D01*
X49046295Y-37797139D01*
X48982184Y-37951917D01*
X48982182Y-37951925D01*
X48949500Y-38116228D01*
X26300500Y-38116228D01*
X26300500Y-36816228D01*
X61524500Y-36816228D01*
X61524500Y-36983771D01*
X61557182Y-37148074D01*
X61557184Y-37148082D01*
X61621295Y-37302860D01*
X61714373Y-37442162D01*
X61832834Y-37560623D01*
X61832838Y-37560626D01*
X61889734Y-37598643D01*
X61934539Y-37652255D01*
X61943246Y-37721580D01*
X61942461Y-37725935D01*
X61932791Y-37774549D01*
X61928299Y-37797137D01*
X61924500Y-37816234D01*
X61924500Y-37983771D01*
X61957182Y-38148074D01*
X61957184Y-38148082D01*
X62021295Y-38302860D01*
X62114373Y-38442162D01*
X62232837Y-38560626D01*
X62296045Y-38602860D01*
X62372137Y-38653703D01*
X62526918Y-38717816D01*
X62649315Y-38742162D01*
X62691228Y-38750499D01*
X62691232Y-38750500D01*
X62691233Y-38750500D01*
X62858768Y-38750500D01*
X62858769Y-38750499D01*
X63023082Y-38717816D01*
X63177863Y-38653703D01*
X63317162Y-38560626D01*
X63435626Y-38442162D01*
X63528703Y-38302863D01*
X63592816Y-38148082D01*
X63625500Y-37983767D01*
X63625500Y-37816233D01*
X63621702Y-37797137D01*
X63621542Y-37796332D01*
X63617941Y-37778228D01*
X75386500Y-37778228D01*
X75386500Y-37945771D01*
X75419182Y-38110074D01*
X75419184Y-38110082D01*
X75483295Y-38264860D01*
X75576373Y-38404162D01*
X75694837Y-38522626D01*
X75783969Y-38582182D01*
X75834137Y-38615703D01*
X75988918Y-38679816D01*
X76153228Y-38712499D01*
X76153232Y-38712500D01*
X76153233Y-38712500D01*
X76320768Y-38712500D01*
X76320769Y-38712499D01*
X76485082Y-38679816D01*
X76639863Y-38615703D01*
X76779162Y-38522626D01*
X76897626Y-38404162D01*
X76990703Y-38264863D01*
X77054816Y-38110082D01*
X77087500Y-37945767D01*
X77087500Y-37778233D01*
X77054816Y-37613918D01*
X77001306Y-37484735D01*
X76990704Y-37459139D01*
X76982123Y-37446297D01*
X76959537Y-37412494D01*
X76897626Y-37319837D01*
X76779162Y-37201373D01*
X76639860Y-37108295D01*
X76485082Y-37044184D01*
X76485074Y-37044182D01*
X76320771Y-37011500D01*
X76320767Y-37011500D01*
X76153233Y-37011500D01*
X76153228Y-37011500D01*
X75988925Y-37044182D01*
X75988917Y-37044184D01*
X75834139Y-37108295D01*
X75694837Y-37201373D01*
X75576373Y-37319837D01*
X75483295Y-37459139D01*
X75419184Y-37613917D01*
X75419182Y-37613925D01*
X75386500Y-37778228D01*
X63617941Y-37778228D01*
X63605164Y-37713999D01*
X63592816Y-37651918D01*
X63528703Y-37497137D01*
X63482196Y-37427534D01*
X63435626Y-37357837D01*
X63317165Y-37239376D01*
X63317161Y-37239373D01*
X63260265Y-37201356D01*
X63215460Y-37147744D01*
X63206753Y-37078419D01*
X63207539Y-37074062D01*
X63213482Y-37044184D01*
X63225500Y-36983767D01*
X63225500Y-36816233D01*
X63192816Y-36651918D01*
X63128703Y-36497137D01*
X63070898Y-36410626D01*
X63035626Y-36357837D01*
X62917162Y-36239373D01*
X62777860Y-36146295D01*
X62623082Y-36082184D01*
X62623074Y-36082182D01*
X62458771Y-36049500D01*
X62458767Y-36049500D01*
X62291233Y-36049500D01*
X62291228Y-36049500D01*
X62126925Y-36082182D01*
X62126917Y-36082184D01*
X61972139Y-36146295D01*
X61832837Y-36239373D01*
X61714373Y-36357837D01*
X61621295Y-36497139D01*
X61557184Y-36651917D01*
X61557182Y-36651925D01*
X61524500Y-36816228D01*
X26300500Y-36816228D01*
X26300500Y-34712578D01*
X27565600Y-34712578D01*
X27565600Y-34935221D01*
X27600426Y-35155106D01*
X27669225Y-35366845D01*
X27770296Y-35565207D01*
X27818623Y-35631722D01*
X27818623Y-35631723D01*
X28370998Y-35079347D01*
X28394761Y-35136717D01*
X28467034Y-35244880D01*
X28559020Y-35336866D01*
X28667183Y-35409139D01*
X28724550Y-35432901D01*
X28172175Y-35985275D01*
X28238692Y-36033603D01*
X28437054Y-36134674D01*
X28648793Y-36203473D01*
X28868679Y-36238300D01*
X29091321Y-36238300D01*
X29311206Y-36203473D01*
X29522945Y-36134674D01*
X29721307Y-36033603D01*
X29787822Y-35985275D01*
X29235448Y-35432901D01*
X29292817Y-35409139D01*
X29400980Y-35336866D01*
X29492966Y-35244880D01*
X29565239Y-35136717D01*
X29589001Y-35079348D01*
X30141375Y-35631722D01*
X30189703Y-35565207D01*
X30290774Y-35366845D01*
X30359573Y-35155106D01*
X30394400Y-34935221D01*
X30394400Y-34916228D01*
X45149498Y-34916228D01*
X45149498Y-35083771D01*
X45182180Y-35248074D01*
X45182182Y-35248082D01*
X45246293Y-35402860D01*
X45339371Y-35542162D01*
X45457835Y-35660626D01*
X45519204Y-35701631D01*
X45597135Y-35753703D01*
X45751916Y-35817816D01*
X45916226Y-35850499D01*
X45916230Y-35850500D01*
X45916231Y-35850500D01*
X46083766Y-35850500D01*
X46083767Y-35850499D01*
X46248080Y-35817816D01*
X46402861Y-35753703D01*
X46542160Y-35660626D01*
X46660624Y-35542162D01*
X46753701Y-35402863D01*
X46817814Y-35248082D01*
X46850498Y-35083767D01*
X46850498Y-34916233D01*
X46850497Y-34916228D01*
X48949500Y-34916228D01*
X48949500Y-35083771D01*
X48982182Y-35248074D01*
X48982184Y-35248082D01*
X49046295Y-35402860D01*
X49139373Y-35542162D01*
X49257837Y-35660626D01*
X49319206Y-35701631D01*
X49397137Y-35753703D01*
X49551918Y-35817816D01*
X49716228Y-35850499D01*
X49716232Y-35850500D01*
X49716233Y-35850500D01*
X49883768Y-35850500D01*
X49883769Y-35850499D01*
X50048082Y-35817816D01*
X50202863Y-35753703D01*
X50331110Y-35668010D01*
X50397786Y-35647133D01*
X50465167Y-35665617D01*
X50468874Y-35668000D01*
X50597137Y-35753703D01*
X50751918Y-35817816D01*
X50916228Y-35850499D01*
X50916232Y-35850500D01*
X51041118Y-35850500D01*
X51108157Y-35870185D01*
X51153912Y-35922989D01*
X51162735Y-35950309D01*
X51182182Y-36048074D01*
X51182184Y-36048082D01*
X51246295Y-36202860D01*
X51339373Y-36342162D01*
X51457837Y-36460626D01*
X51550494Y-36522537D01*
X51597137Y-36553703D01*
X51751918Y-36617816D01*
X51916228Y-36650499D01*
X51916232Y-36650500D01*
X51916233Y-36650500D01*
X52083768Y-36650500D01*
X52083769Y-36650499D01*
X52248082Y-36617816D01*
X52402863Y-36553703D01*
X52542162Y-36460626D01*
X52660626Y-36342162D01*
X52753703Y-36202863D01*
X52817816Y-36048082D01*
X52850500Y-35883767D01*
X52850500Y-35716233D01*
X52840554Y-35666233D01*
X52840553Y-35666228D01*
X78899500Y-35666228D01*
X78899500Y-35833771D01*
X78932182Y-35998074D01*
X78932184Y-35998082D01*
X78996295Y-36152860D01*
X79089373Y-36292162D01*
X79207837Y-36410626D01*
X79282668Y-36460626D01*
X79347137Y-36503703D01*
X79501918Y-36567816D01*
X79666228Y-36600499D01*
X79666232Y-36600500D01*
X79666233Y-36600500D01*
X79833768Y-36600500D01*
X79833769Y-36600499D01*
X79998082Y-36567816D01*
X80152863Y-36503703D01*
X80292162Y-36410626D01*
X80410626Y-36292162D01*
X80503703Y-36152863D01*
X80567816Y-35998082D01*
X80600500Y-35833767D01*
X80600500Y-35666233D01*
X80567816Y-35501918D01*
X80503703Y-35347137D01*
X80444035Y-35257838D01*
X80410626Y-35207837D01*
X80292162Y-35089373D01*
X80152860Y-34996295D01*
X79998082Y-34932184D01*
X79998074Y-34932182D01*
X79833771Y-34899500D01*
X79833767Y-34899500D01*
X79666233Y-34899500D01*
X79666228Y-34899500D01*
X79501925Y-34932182D01*
X79501917Y-34932184D01*
X79347139Y-34996295D01*
X79207837Y-35089373D01*
X79089373Y-35207837D01*
X78996295Y-35347139D01*
X78932184Y-35501917D01*
X78932182Y-35501925D01*
X78899500Y-35666228D01*
X52840553Y-35666228D01*
X52817817Y-35551925D01*
X52817816Y-35551918D01*
X52768227Y-35432201D01*
X52753704Y-35397139D01*
X52678014Y-35283861D01*
X52657136Y-35217183D01*
X52675621Y-35149803D01*
X52727599Y-35103113D01*
X52796569Y-35091937D01*
X52805294Y-35093350D01*
X52841232Y-35100499D01*
X53008767Y-35100499D01*
X53008768Y-35100498D01*
X53173081Y-35067815D01*
X53327862Y-35003702D01*
X53467161Y-34910625D01*
X53585625Y-34792161D01*
X53638823Y-34712545D01*
X99205100Y-34712545D01*
X99205100Y-34935255D01*
X99222520Y-35045239D01*
X99239940Y-35155224D01*
X99239940Y-35155227D01*
X99308759Y-35367030D01*
X99402964Y-35551917D01*
X99409869Y-35565469D01*
X99540775Y-35745645D01*
X99698255Y-35903125D01*
X99878431Y-36034031D01*
X100075954Y-36134674D01*
X100076869Y-36135140D01*
X100288673Y-36203959D01*
X100288674Y-36203959D01*
X100288677Y-36203960D01*
X100508645Y-36238800D01*
X100508646Y-36238800D01*
X100731354Y-36238800D01*
X100731355Y-36238800D01*
X100951323Y-36203960D01*
X100951326Y-36203959D01*
X100951327Y-36203959D01*
X101163130Y-36135140D01*
X101163130Y-36135139D01*
X101163133Y-36135139D01*
X101361569Y-36034031D01*
X101541745Y-35903125D01*
X101699225Y-35745645D01*
X101830131Y-35565469D01*
X101931239Y-35367033D01*
X101958263Y-35283861D01*
X102000059Y-35155227D01*
X102000059Y-35155226D01*
X102000060Y-35155223D01*
X102034900Y-34935255D01*
X102034900Y-34712545D01*
X102000060Y-34492577D01*
X102000059Y-34492573D01*
X102000059Y-34492572D01*
X101931240Y-34280769D01*
X101884420Y-34188879D01*
X101830131Y-34082331D01*
X101699225Y-33902155D01*
X101541745Y-33744675D01*
X101361569Y-33613769D01*
X101283039Y-33573756D01*
X101163130Y-33512659D01*
X100951326Y-33443840D01*
X100786347Y-33417710D01*
X100731355Y-33409000D01*
X100508645Y-33409000D01*
X100435322Y-33420613D01*
X100288675Y-33443840D01*
X100288672Y-33443840D01*
X100076869Y-33512659D01*
X99878430Y-33613769D01*
X99811328Y-33662522D01*
X99698255Y-33744675D01*
X99698253Y-33744677D01*
X99698252Y-33744677D01*
X99540777Y-33902152D01*
X99540777Y-33902153D01*
X99540775Y-33902155D01*
X99484556Y-33979533D01*
X99409869Y-34082330D01*
X99308759Y-34280769D01*
X99239940Y-34492572D01*
X99239940Y-34492575D01*
X99239068Y-34498081D01*
X99205100Y-34712545D01*
X53638823Y-34712545D01*
X53678702Y-34652862D01*
X53742815Y-34498081D01*
X53775499Y-34333766D01*
X53775499Y-34166232D01*
X53742815Y-34001917D01*
X53678702Y-33847136D01*
X53610241Y-33744677D01*
X53585625Y-33707836D01*
X53467161Y-33589372D01*
X53327859Y-33496294D01*
X53173081Y-33432183D01*
X53173073Y-33432181D01*
X53008770Y-33399499D01*
X53008766Y-33399499D01*
X52841232Y-33399499D01*
X52841227Y-33399499D01*
X52676924Y-33432181D01*
X52676916Y-33432183D01*
X52522138Y-33496294D01*
X52382836Y-33589372D01*
X52264372Y-33707836D01*
X52171294Y-33847138D01*
X52107183Y-34001916D01*
X52107181Y-34001924D01*
X52074499Y-34166227D01*
X52074499Y-34333770D01*
X52107181Y-34498073D01*
X52107183Y-34498081D01*
X52171294Y-34652859D01*
X52246984Y-34766137D01*
X52267862Y-34832815D01*
X52249377Y-34900195D01*
X52197398Y-34946885D01*
X52137504Y-34958864D01*
X52128516Y-34958401D01*
X52083767Y-34949500D01*
X51955688Y-34949500D01*
X51952504Y-34949336D01*
X51922419Y-34938793D01*
X51891843Y-34929815D01*
X51889681Y-34927320D01*
X51886566Y-34926229D01*
X51866951Y-34901088D01*
X51846088Y-34877011D01*
X51844620Y-34872466D01*
X51843587Y-34871142D01*
X51843347Y-34868524D01*
X51837265Y-34849691D01*
X51817817Y-34751925D01*
X51817816Y-34751918D01*
X51753703Y-34597137D01*
X51722537Y-34550494D01*
X51660626Y-34457837D01*
X51542162Y-34339373D01*
X51402860Y-34246295D01*
X51248082Y-34182184D01*
X51248074Y-34182182D01*
X51083771Y-34149500D01*
X51083767Y-34149500D01*
X50916233Y-34149500D01*
X50916228Y-34149500D01*
X50751925Y-34182182D01*
X50751917Y-34182184D01*
X50597138Y-34246296D01*
X50597134Y-34246298D01*
X50468890Y-34331988D01*
X50402213Y-34352866D01*
X50334833Y-34334381D01*
X50331110Y-34331988D01*
X50202865Y-34246298D01*
X50202861Y-34246296D01*
X50048082Y-34182184D01*
X50048074Y-34182182D01*
X49883771Y-34149500D01*
X49883767Y-34149500D01*
X49716233Y-34149500D01*
X49716228Y-34149500D01*
X49551925Y-34182182D01*
X49551917Y-34182184D01*
X49397139Y-34246295D01*
X49257837Y-34339373D01*
X49139373Y-34457837D01*
X49046295Y-34597139D01*
X48982184Y-34751917D01*
X48982182Y-34751925D01*
X48949500Y-34916228D01*
X46850497Y-34916228D01*
X46817814Y-34751918D01*
X46753701Y-34597137D01*
X46722535Y-34550494D01*
X46660624Y-34457837D01*
X46542160Y-34339373D01*
X46402858Y-34246295D01*
X46248080Y-34182184D01*
X46248072Y-34182182D01*
X46083769Y-34149500D01*
X46083765Y-34149500D01*
X45916231Y-34149500D01*
X45916226Y-34149500D01*
X45751923Y-34182182D01*
X45751915Y-34182184D01*
X45597137Y-34246295D01*
X45457835Y-34339373D01*
X45339371Y-34457837D01*
X45246293Y-34597139D01*
X45182182Y-34751917D01*
X45182180Y-34751925D01*
X45149498Y-34916228D01*
X30394400Y-34916228D01*
X30394400Y-34712578D01*
X30359573Y-34492693D01*
X30290774Y-34280954D01*
X30189703Y-34082592D01*
X30141375Y-34016076D01*
X30141375Y-34016075D01*
X29589001Y-34568450D01*
X29565239Y-34511083D01*
X29492966Y-34402920D01*
X29400980Y-34310934D01*
X29292817Y-34238661D01*
X29235447Y-34214898D01*
X29787823Y-33662523D01*
X29721307Y-33614196D01*
X29522945Y-33513125D01*
X29311206Y-33444326D01*
X29091321Y-33409500D01*
X28868679Y-33409500D01*
X28648793Y-33444326D01*
X28437054Y-33513125D01*
X28238691Y-33614197D01*
X28172176Y-33662522D01*
X28172175Y-33662523D01*
X28724551Y-34214898D01*
X28667183Y-34238661D01*
X28559020Y-34310934D01*
X28467034Y-34402920D01*
X28394761Y-34511083D01*
X28370998Y-34568451D01*
X27818623Y-34016075D01*
X27818622Y-34016076D01*
X27770297Y-34082591D01*
X27669225Y-34280954D01*
X27600426Y-34492693D01*
X27565600Y-34712578D01*
X26300500Y-34712578D01*
X26300500Y-33166228D01*
X61874500Y-33166228D01*
X61874500Y-33333771D01*
X61907182Y-33498074D01*
X61907184Y-33498082D01*
X61971295Y-33652860D01*
X62064373Y-33792162D01*
X62182837Y-33910626D01*
X62275494Y-33972537D01*
X62322137Y-34003703D01*
X62476918Y-34067816D01*
X62641228Y-34100499D01*
X62641232Y-34100500D01*
X62641233Y-34100500D01*
X62808768Y-34100500D01*
X62808769Y-34100499D01*
X62973082Y-34067816D01*
X63127863Y-34003703D01*
X63267162Y-33910626D01*
X63385626Y-33792162D01*
X63478703Y-33652863D01*
X63542816Y-33498082D01*
X63575500Y-33333767D01*
X63575500Y-33166233D01*
X63575499Y-33166228D01*
X64124500Y-33166228D01*
X64124500Y-33333771D01*
X64157182Y-33498074D01*
X64157184Y-33498082D01*
X64221295Y-33652860D01*
X64314373Y-33792162D01*
X64432837Y-33910626D01*
X64525494Y-33972537D01*
X64572137Y-34003703D01*
X64726918Y-34067816D01*
X64891228Y-34100499D01*
X64891232Y-34100500D01*
X64891233Y-34100500D01*
X65058768Y-34100500D01*
X65058769Y-34100499D01*
X65223082Y-34067816D01*
X65377863Y-34003703D01*
X65517162Y-33910626D01*
X65635626Y-33792162D01*
X65728703Y-33652863D01*
X65792816Y-33498082D01*
X65825500Y-33333767D01*
X65825500Y-33166233D01*
X65792816Y-33001918D01*
X65728703Y-32847137D01*
X65658561Y-32742162D01*
X65635626Y-32707837D01*
X65517162Y-32589373D01*
X65377860Y-32496295D01*
X65223082Y-32432184D01*
X65223074Y-32432182D01*
X65058771Y-32399500D01*
X65058767Y-32399500D01*
X64891233Y-32399500D01*
X64891228Y-32399500D01*
X64726925Y-32432182D01*
X64726917Y-32432184D01*
X64572139Y-32496295D01*
X64432837Y-32589373D01*
X64314373Y-32707837D01*
X64221295Y-32847139D01*
X64157184Y-33001917D01*
X64157182Y-33001925D01*
X64124500Y-33166228D01*
X63575499Y-33166228D01*
X63542816Y-33001918D01*
X63478703Y-32847137D01*
X63408561Y-32742162D01*
X63385626Y-32707837D01*
X63267162Y-32589373D01*
X63127860Y-32496295D01*
X62973082Y-32432184D01*
X62973074Y-32432182D01*
X62808771Y-32399500D01*
X62808767Y-32399500D01*
X62641233Y-32399500D01*
X62641228Y-32399500D01*
X62476925Y-32432182D01*
X62476917Y-32432184D01*
X62322139Y-32496295D01*
X62182837Y-32589373D01*
X62064373Y-32707837D01*
X61971295Y-32847139D01*
X61907184Y-33001917D01*
X61907182Y-33001925D01*
X61874500Y-33166228D01*
X26300500Y-33166228D01*
X26300500Y-32116228D01*
X39549500Y-32116228D01*
X39549500Y-32283771D01*
X39582182Y-32448074D01*
X39582184Y-32448082D01*
X39646295Y-32602860D01*
X39739373Y-32742162D01*
X39857837Y-32860626D01*
X39950494Y-32922537D01*
X39997137Y-32953703D01*
X40151918Y-33017816D01*
X40316228Y-33050499D01*
X40316232Y-33050500D01*
X40316233Y-33050500D01*
X40483768Y-33050500D01*
X40483768Y-33050499D01*
X40513662Y-33044553D01*
X40543977Y-33038524D01*
X40586538Y-33030057D01*
X40648082Y-33017816D01*
X40802863Y-32953703D01*
X40942162Y-32860626D01*
X41060626Y-32742162D01*
X41153703Y-32602863D01*
X41217816Y-32448082D01*
X41250500Y-32283767D01*
X41250500Y-32116233D01*
X41217816Y-31951918D01*
X41168227Y-31832201D01*
X41153704Y-31797139D01*
X41153703Y-31797137D01*
X41066232Y-31666228D01*
X72474500Y-31666228D01*
X72474500Y-31833771D01*
X72507182Y-31998074D01*
X72507184Y-31998082D01*
X72571295Y-32152860D01*
X72664373Y-32292162D01*
X72782837Y-32410626D01*
X72875494Y-32472537D01*
X72922137Y-32503703D01*
X73076918Y-32567816D01*
X73189391Y-32590188D01*
X73241228Y-32600499D01*
X73241232Y-32600500D01*
X73241233Y-32600500D01*
X73408768Y-32600500D01*
X73408769Y-32600499D01*
X73573082Y-32567816D01*
X73727863Y-32503703D01*
X73867162Y-32410626D01*
X73985626Y-32292162D01*
X73996897Y-32275294D01*
X74050508Y-32230488D01*
X74119833Y-32221779D01*
X74182861Y-32251933D01*
X74203103Y-32275294D01*
X74214372Y-32292160D01*
X74214376Y-32292165D01*
X74332837Y-32410626D01*
X74425494Y-32472537D01*
X74472137Y-32503703D01*
X74626918Y-32567816D01*
X74739391Y-32590188D01*
X74791228Y-32600499D01*
X74791232Y-32600500D01*
X74791233Y-32600500D01*
X74958768Y-32600500D01*
X74958769Y-32600499D01*
X75123082Y-32567816D01*
X75277863Y-32503703D01*
X75417162Y-32410626D01*
X75535626Y-32292162D01*
X75628703Y-32152863D01*
X75643878Y-32116228D01*
X84949500Y-32116228D01*
X84949500Y-32283771D01*
X84982182Y-32448074D01*
X84982184Y-32448082D01*
X85046295Y-32602860D01*
X85139373Y-32742162D01*
X85257837Y-32860626D01*
X85350494Y-32922537D01*
X85397137Y-32953703D01*
X85551918Y-33017816D01*
X85716228Y-33050499D01*
X85716232Y-33050500D01*
X85716233Y-33050500D01*
X85883768Y-33050500D01*
X85883769Y-33050499D01*
X86048082Y-33017816D01*
X86202863Y-32953703D01*
X86342162Y-32860626D01*
X86460626Y-32742162D01*
X86553703Y-32602863D01*
X86617816Y-32448082D01*
X86650500Y-32283767D01*
X86650500Y-32116233D01*
X86617816Y-31951918D01*
X86586360Y-31875979D01*
X86558035Y-31807594D01*
X86558034Y-31807593D01*
X86553705Y-31797140D01*
X86553704Y-31797139D01*
X86533053Y-31766233D01*
X86533050Y-31766228D01*
X89024498Y-31766228D01*
X89024498Y-31933771D01*
X89057180Y-32098074D01*
X89057182Y-32098082D01*
X89121293Y-32252860D01*
X89214371Y-32392162D01*
X89332835Y-32510626D01*
X89418428Y-32567817D01*
X89472135Y-32603703D01*
X89626916Y-32667816D01*
X89721934Y-32686716D01*
X89791226Y-32700499D01*
X89791230Y-32700500D01*
X89791231Y-32700500D01*
X89958766Y-32700500D01*
X89958767Y-32700499D01*
X90123080Y-32667816D01*
X90277861Y-32603703D01*
X90417160Y-32510626D01*
X90535624Y-32392162D01*
X90628701Y-32252863D01*
X90692814Y-32098082D01*
X90725498Y-31933767D01*
X90725498Y-31766233D01*
X90692814Y-31601918D01*
X90628701Y-31447137D01*
X90563462Y-31349500D01*
X90535624Y-31307837D01*
X90417160Y-31189373D01*
X90277858Y-31096295D01*
X90123080Y-31032184D01*
X90123072Y-31032182D01*
X89958769Y-30999500D01*
X89958765Y-30999500D01*
X89791231Y-30999500D01*
X89791226Y-30999500D01*
X89626923Y-31032182D01*
X89626915Y-31032184D01*
X89472137Y-31096295D01*
X89332835Y-31189373D01*
X89214371Y-31307837D01*
X89121293Y-31447139D01*
X89057182Y-31601917D01*
X89057180Y-31601925D01*
X89024498Y-31766228D01*
X86533050Y-31766228D01*
X86508196Y-31729031D01*
X86460626Y-31657837D01*
X86342162Y-31539373D01*
X86202860Y-31446295D01*
X86048082Y-31382184D01*
X86048074Y-31382182D01*
X85883771Y-31349500D01*
X85883767Y-31349500D01*
X85716233Y-31349500D01*
X85716228Y-31349500D01*
X85551925Y-31382182D01*
X85551917Y-31382184D01*
X85397139Y-31446295D01*
X85257837Y-31539373D01*
X85139373Y-31657837D01*
X85046295Y-31797139D01*
X84982184Y-31951917D01*
X84982182Y-31951925D01*
X84949500Y-32116228D01*
X75643878Y-32116228D01*
X75692816Y-31998082D01*
X75725500Y-31833767D01*
X75725500Y-31666233D01*
X75692816Y-31501918D01*
X75628703Y-31347137D01*
X75582653Y-31278219D01*
X75535626Y-31207837D01*
X75417162Y-31089373D01*
X75277860Y-30996295D01*
X75123082Y-30932184D01*
X75123074Y-30932182D01*
X74958771Y-30899500D01*
X74958767Y-30899500D01*
X74791233Y-30899500D01*
X74791228Y-30899500D01*
X74626925Y-30932182D01*
X74626917Y-30932184D01*
X74472139Y-30996295D01*
X74332837Y-31089373D01*
X74214376Y-31207834D01*
X74214373Y-31207838D01*
X74203102Y-31224707D01*
X74149489Y-31269512D01*
X74080164Y-31278219D01*
X74017137Y-31248064D01*
X73996898Y-31224707D01*
X73985626Y-31207838D01*
X73985623Y-31207834D01*
X73867162Y-31089373D01*
X73727860Y-30996295D01*
X73573082Y-30932184D01*
X73573074Y-30932182D01*
X73408771Y-30899500D01*
X73408767Y-30899500D01*
X73241233Y-30899500D01*
X73241228Y-30899500D01*
X73076925Y-30932182D01*
X73076917Y-30932184D01*
X72922139Y-30996295D01*
X72782837Y-31089373D01*
X72664373Y-31207837D01*
X72571295Y-31347139D01*
X72507184Y-31501917D01*
X72507182Y-31501925D01*
X72474500Y-31666228D01*
X41066232Y-31666228D01*
X41060626Y-31657838D01*
X41060625Y-31657837D01*
X41060624Y-31657835D01*
X40942162Y-31539373D01*
X40802860Y-31446295D01*
X40648082Y-31382184D01*
X40648074Y-31382182D01*
X40483771Y-31349500D01*
X40483767Y-31349500D01*
X40316233Y-31349500D01*
X40316228Y-31349500D01*
X40151925Y-31382182D01*
X40151917Y-31382184D01*
X39997139Y-31446295D01*
X39857837Y-31539373D01*
X39739373Y-31657837D01*
X39646295Y-31797139D01*
X39582184Y-31951917D01*
X39582182Y-31951925D01*
X39549500Y-32116228D01*
X26300500Y-32116228D01*
X26300500Y-30374000D01*
X26311444Y-30336729D01*
X42054125Y-30336729D01*
X42054125Y-30504272D01*
X42086807Y-30668575D01*
X42086809Y-30668583D01*
X42150920Y-30823361D01*
X42243998Y-30962663D01*
X42362462Y-31081127D01*
X42374805Y-31089374D01*
X42501762Y-31174204D01*
X42656543Y-31238317D01*
X42813372Y-31269512D01*
X42820853Y-31271000D01*
X42820857Y-31271001D01*
X42820858Y-31271001D01*
X42988393Y-31271001D01*
X42988394Y-31271000D01*
X43152707Y-31238317D01*
X43307488Y-31174204D01*
X43446787Y-31081127D01*
X43565251Y-30962663D01*
X43658328Y-30823364D01*
X43722441Y-30668583D01*
X43755125Y-30504268D01*
X43755125Y-30336734D01*
X43755119Y-30336706D01*
X43754647Y-30334328D01*
X43754647Y-30334327D01*
X43751047Y-30316228D01*
X44949502Y-30316228D01*
X44949502Y-30483771D01*
X44982184Y-30648074D01*
X44982186Y-30648082D01*
X45046297Y-30802860D01*
X45139375Y-30942162D01*
X45257839Y-31060626D01*
X45300864Y-31089374D01*
X45397139Y-31153703D01*
X45551920Y-31217816D01*
X45703988Y-31248064D01*
X45716230Y-31250499D01*
X45716234Y-31250500D01*
X45716235Y-31250500D01*
X45883770Y-31250500D01*
X45883771Y-31250499D01*
X46048084Y-31217816D01*
X46202865Y-31153703D01*
X46342164Y-31060626D01*
X46460628Y-30942162D01*
X46553705Y-30802863D01*
X46617818Y-30648082D01*
X46650502Y-30483767D01*
X46650502Y-30316233D01*
X46617818Y-30151918D01*
X46562197Y-30017638D01*
X46553706Y-29997139D01*
X46460628Y-29857837D01*
X46342164Y-29739373D01*
X46232694Y-29666228D01*
X50024500Y-29666228D01*
X50024500Y-29833771D01*
X50057182Y-29998074D01*
X50057184Y-29998082D01*
X50121295Y-30152860D01*
X50214373Y-30292162D01*
X50332837Y-30410626D01*
X50425494Y-30472537D01*
X50472137Y-30503703D01*
X50472138Y-30503703D01*
X50472139Y-30503704D01*
X50501131Y-30515713D01*
X50626918Y-30567816D01*
X50791228Y-30600499D01*
X50791232Y-30600500D01*
X50791233Y-30600500D01*
X50958768Y-30600500D01*
X50958769Y-30600499D01*
X51123082Y-30567816D01*
X51277863Y-30503703D01*
X51417162Y-30410626D01*
X51535626Y-30292162D01*
X51628703Y-30152863D01*
X51692816Y-29998082D01*
X51725500Y-29833767D01*
X51725500Y-29666233D01*
X51692816Y-29501918D01*
X51628703Y-29347137D01*
X51597537Y-29300494D01*
X51535626Y-29207837D01*
X51417162Y-29089373D01*
X51277860Y-28996295D01*
X51123082Y-28932184D01*
X51123074Y-28932182D01*
X50958771Y-28899500D01*
X50958767Y-28899500D01*
X50791233Y-28899500D01*
X50791228Y-28899500D01*
X50626925Y-28932182D01*
X50626917Y-28932184D01*
X50472139Y-28996295D01*
X50332837Y-29089373D01*
X50214373Y-29207837D01*
X50121295Y-29347139D01*
X50057184Y-29501917D01*
X50057182Y-29501925D01*
X50024500Y-29666228D01*
X46232694Y-29666228D01*
X46202862Y-29646295D01*
X46048084Y-29582184D01*
X46048076Y-29582182D01*
X45883773Y-29549500D01*
X45883769Y-29549500D01*
X45716235Y-29549500D01*
X45716230Y-29549500D01*
X45551927Y-29582182D01*
X45551919Y-29582184D01*
X45397141Y-29646295D01*
X45257839Y-29739373D01*
X45139375Y-29857837D01*
X45046297Y-29997139D01*
X44982186Y-30151917D01*
X44982184Y-30151925D01*
X44949502Y-30316228D01*
X43751047Y-30316228D01*
X43723623Y-30178361D01*
X43722441Y-30172419D01*
X43658328Y-30017638D01*
X43601439Y-29932498D01*
X43565251Y-29878338D01*
X43446787Y-29759874D01*
X43307485Y-29666796D01*
X43152707Y-29602685D01*
X43152699Y-29602683D01*
X42988396Y-29570001D01*
X42988392Y-29570001D01*
X42820858Y-29570001D01*
X42820853Y-29570001D01*
X42656550Y-29602683D01*
X42656542Y-29602685D01*
X42501764Y-29666796D01*
X42362462Y-29759874D01*
X42243998Y-29878338D01*
X42150920Y-30017640D01*
X42086809Y-30172418D01*
X42086807Y-30172426D01*
X42054125Y-30336729D01*
X26311444Y-30336729D01*
X26320185Y-30306961D01*
X26372989Y-30261206D01*
X26424500Y-30250000D01*
X30500000Y-30250000D01*
X30500000Y-26740737D01*
X35171500Y-26740737D01*
X35171500Y-27006662D01*
X35195520Y-27189103D01*
X35206209Y-27270290D01*
X35229051Y-27355538D01*
X35275031Y-27527138D01*
X35275034Y-27527148D01*
X35376787Y-27772800D01*
X35376791Y-27772809D01*
X35400919Y-27814600D01*
X35509745Y-28003092D01*
X35617634Y-28143695D01*
X35671620Y-28214051D01*
X35671625Y-28214057D01*
X35859642Y-28402074D01*
X35859646Y-28402077D01*
X35859648Y-28402079D01*
X36070608Y-28563955D01*
X36300893Y-28696910D01*
X36546561Y-28798669D01*
X36803410Y-28867491D01*
X37067045Y-28902200D01*
X37067052Y-28902200D01*
X37332948Y-28902200D01*
X37332955Y-28902200D01*
X37596590Y-28867491D01*
X37853439Y-28798669D01*
X38010648Y-28733551D01*
X58849500Y-28733551D01*
X58849500Y-29476448D01*
X58879675Y-29666969D01*
X58879676Y-29666972D01*
X58939285Y-29850429D01*
X59026859Y-30022302D01*
X59140241Y-30178359D01*
X59276641Y-30314759D01*
X59432698Y-30428141D01*
X59604571Y-30515715D01*
X59788028Y-30575324D01*
X59978551Y-30605500D01*
X59978552Y-30605500D01*
X60171448Y-30605500D01*
X60171449Y-30605500D01*
X60361972Y-30575324D01*
X60545429Y-30515715D01*
X60717302Y-30428141D01*
X60873359Y-30314759D01*
X61009759Y-30178359D01*
X61123141Y-30022302D01*
X61210715Y-29850429D01*
X61270324Y-29666972D01*
X61300500Y-29476449D01*
X61300500Y-29074806D01*
X61320185Y-29007767D01*
X61372989Y-28962012D01*
X61400309Y-28953189D01*
X61562658Y-28920896D01*
X61562661Y-28920894D01*
X61562666Y-28920894D01*
X61726547Y-28853013D01*
X61874035Y-28754464D01*
X61999464Y-28629035D01*
X62098013Y-28481547D01*
X62165894Y-28317666D01*
X62200500Y-28143691D01*
X62200500Y-27966309D01*
X62200500Y-27966306D01*
X62200499Y-27966304D01*
X65399500Y-27966304D01*
X65399500Y-28143695D01*
X65434103Y-28317658D01*
X65434106Y-28317667D01*
X65501983Y-28481540D01*
X65501990Y-28481553D01*
X65600535Y-28629034D01*
X65600538Y-28629038D01*
X65725961Y-28754461D01*
X65725965Y-28754464D01*
X65873446Y-28853009D01*
X65873459Y-28853016D01*
X65985684Y-28899500D01*
X66037334Y-28920894D01*
X66037336Y-28920894D01*
X66037341Y-28920896D01*
X66199691Y-28953189D01*
X66261602Y-28985574D01*
X66296176Y-29046289D01*
X66299500Y-29074806D01*
X66299500Y-29476448D01*
X66329675Y-29666969D01*
X66329676Y-29666972D01*
X66389285Y-29850429D01*
X66476859Y-30022302D01*
X66590241Y-30178359D01*
X66726641Y-30314759D01*
X66882698Y-30428141D01*
X67054571Y-30515715D01*
X67238028Y-30575324D01*
X67428551Y-30605500D01*
X67428552Y-30605500D01*
X67621448Y-30605500D01*
X67621449Y-30605500D01*
X67811972Y-30575324D01*
X67995429Y-30515715D01*
X68167302Y-30428141D01*
X68323359Y-30314759D01*
X68395940Y-30242178D01*
X105289500Y-30242178D01*
X105289500Y-32037913D01*
X105289501Y-32037919D01*
X105295908Y-32097526D01*
X105346202Y-32232371D01*
X105346206Y-32232378D01*
X105432452Y-32347587D01*
X105432455Y-32347590D01*
X105547664Y-32433836D01*
X105547671Y-32433840D01*
X105679082Y-32482853D01*
X105735016Y-32524724D01*
X105759433Y-32590188D01*
X105744582Y-32658461D01*
X105723431Y-32686716D01*
X105609889Y-32800258D01*
X105484951Y-32972222D01*
X105388444Y-33161628D01*
X105322753Y-33363803D01*
X105289500Y-33573756D01*
X105289500Y-33786329D01*
X105307844Y-33902152D01*
X105322754Y-33996286D01*
X105383156Y-34182184D01*
X105388444Y-34198457D01*
X105484951Y-34387863D01*
X105609890Y-34559829D01*
X105760213Y-34710152D01*
X105932182Y-34835093D01*
X105940946Y-34839559D01*
X105991742Y-34887534D01*
X106008536Y-34955355D01*
X105985998Y-35021490D01*
X105940946Y-35060527D01*
X105932182Y-35064992D01*
X105760213Y-35189933D01*
X105609890Y-35340256D01*
X105484951Y-35512222D01*
X105388444Y-35701628D01*
X105322753Y-35903803D01*
X105289500Y-36113756D01*
X105289500Y-36326329D01*
X105316553Y-36497139D01*
X105322754Y-36536286D01*
X105360325Y-36651918D01*
X105388444Y-36738457D01*
X105484951Y-36927863D01*
X105609890Y-37099829D01*
X105760213Y-37250152D01*
X105932182Y-37375093D01*
X105940946Y-37379559D01*
X105991742Y-37427534D01*
X106008536Y-37495355D01*
X105985998Y-37561490D01*
X105940946Y-37600527D01*
X105932182Y-37604992D01*
X105760213Y-37729933D01*
X105609890Y-37880256D01*
X105484951Y-38052222D01*
X105388444Y-38241628D01*
X105322753Y-38443803D01*
X105289500Y-38653756D01*
X105289500Y-38866329D01*
X105318669Y-39050499D01*
X105322754Y-39076286D01*
X105377994Y-39246297D01*
X105388444Y-39278457D01*
X105484951Y-39467863D01*
X105609890Y-39639829D01*
X105760213Y-39790152D01*
X105932182Y-39915093D01*
X105940946Y-39919559D01*
X105991742Y-39967534D01*
X106008536Y-40035355D01*
X105985998Y-40101490D01*
X105940946Y-40140527D01*
X105932182Y-40144992D01*
X105760213Y-40269933D01*
X105609890Y-40420256D01*
X105484951Y-40592222D01*
X105388444Y-40781628D01*
X105322753Y-40983803D01*
X105289500Y-41193756D01*
X105289500Y-41406329D01*
X105322753Y-41616282D01*
X105388444Y-41818457D01*
X105484951Y-42007863D01*
X105609890Y-42179829D01*
X105760213Y-42330152D01*
X105932179Y-42455091D01*
X105932181Y-42455092D01*
X105932184Y-42455094D01*
X105941493Y-42459837D01*
X105992290Y-42507809D01*
X106009087Y-42575630D01*
X105986552Y-42641765D01*
X105941505Y-42680803D01*
X105932446Y-42685419D01*
X105932440Y-42685423D01*
X105878282Y-42724770D01*
X105878282Y-42724771D01*
X106510591Y-43357080D01*
X106447007Y-43374118D01*
X106332993Y-43439944D01*
X106239901Y-43533036D01*
X106174075Y-43647050D01*
X106157037Y-43710634D01*
X105524728Y-43078325D01*
X105524727Y-43078325D01*
X105485380Y-43132482D01*
X105388904Y-43321825D01*
X105323242Y-43523912D01*
X105323242Y-43523915D01*
X105290000Y-43733796D01*
X105290000Y-43946289D01*
X105323242Y-44156170D01*
X105323242Y-44156173D01*
X105388904Y-44358260D01*
X105485375Y-44547593D01*
X105524728Y-44601759D01*
X106157037Y-43969451D01*
X106174075Y-44033036D01*
X106239901Y-44147050D01*
X106332993Y-44240142D01*
X106447007Y-44305968D01*
X106510590Y-44323005D01*
X105878282Y-44955312D01*
X105878282Y-44955313D01*
X105932449Y-44994667D01*
X106121782Y-45091138D01*
X106323870Y-45156800D01*
X106533754Y-45190043D01*
X106746246Y-45190043D01*
X106956127Y-45156800D01*
X106956130Y-45156800D01*
X107158217Y-45091138D01*
X107347554Y-44994665D01*
X107401716Y-44955313D01*
X107401717Y-44955313D01*
X106769408Y-44323005D01*
X106832993Y-44305968D01*
X106947007Y-44240142D01*
X107040099Y-44147050D01*
X107105925Y-44033036D01*
X107122962Y-43969451D01*
X107755270Y-44601760D01*
X107755270Y-44601759D01*
X107794622Y-44547597D01*
X107891095Y-44358260D01*
X107956757Y-44156173D01*
X107956757Y-44156170D01*
X107990000Y-43946289D01*
X107990000Y-43733796D01*
X107956757Y-43523915D01*
X107956757Y-43523912D01*
X107891095Y-43321825D01*
X107794624Y-43132492D01*
X107755270Y-43078325D01*
X107755269Y-43078325D01*
X107122962Y-43710633D01*
X107105925Y-43647050D01*
X107040099Y-43533036D01*
X106947007Y-43439944D01*
X106832993Y-43374118D01*
X106769409Y-43357080D01*
X107401716Y-42724771D01*
X107347547Y-42685416D01*
X107347547Y-42685415D01*
X107338500Y-42680806D01*
X107287706Y-42632831D01*
X107270912Y-42565009D01*
X107293451Y-42498875D01*
X107338508Y-42459836D01*
X107347816Y-42455094D01*
X107427007Y-42397558D01*
X107519786Y-42330152D01*
X107519788Y-42330149D01*
X107519792Y-42330147D01*
X107670104Y-42179835D01*
X107670106Y-42179831D01*
X107670109Y-42179829D01*
X107795048Y-42007863D01*
X107795047Y-42007863D01*
X107795051Y-42007859D01*
X107891557Y-41818455D01*
X107957246Y-41616286D01*
X107990500Y-41406330D01*
X107990500Y-41193756D01*
X107957246Y-40983800D01*
X107891557Y-40781631D01*
X107795051Y-40592227D01*
X107795049Y-40592224D01*
X107795048Y-40592222D01*
X107670109Y-40420256D01*
X107519786Y-40269933D01*
X107347820Y-40144994D01*
X107347115Y-40144634D01*
X107339054Y-40140528D01*
X107288259Y-40092555D01*
X107271463Y-40024735D01*
X107293999Y-39958599D01*
X107339054Y-39919558D01*
X107347816Y-39915094D01*
X107426624Y-39857837D01*
X107519786Y-39790152D01*
X107519788Y-39790149D01*
X107519792Y-39790147D01*
X107670104Y-39639835D01*
X107670106Y-39639831D01*
X107670109Y-39639829D01*
X107783490Y-39483771D01*
X107795051Y-39467859D01*
X107891557Y-39278455D01*
X107957246Y-39076286D01*
X107990500Y-38866330D01*
X107990500Y-38653756D01*
X107957246Y-38443800D01*
X107891557Y-38241631D01*
X107795051Y-38052227D01*
X107795049Y-38052224D01*
X107795048Y-38052222D01*
X107670109Y-37880256D01*
X107519786Y-37729933D01*
X107347820Y-37604994D01*
X107347115Y-37604634D01*
X107339054Y-37600528D01*
X107288259Y-37552555D01*
X107271463Y-37484735D01*
X107293999Y-37418599D01*
X107339054Y-37379558D01*
X107347816Y-37375094D01*
X107423870Y-37319838D01*
X107519786Y-37250152D01*
X107519788Y-37250149D01*
X107519792Y-37250147D01*
X107670104Y-37099835D01*
X107670106Y-37099831D01*
X107670109Y-37099829D01*
X107795048Y-36927863D01*
X107795047Y-36927863D01*
X107795051Y-36927859D01*
X107891557Y-36738455D01*
X107957246Y-36536286D01*
X107990500Y-36326330D01*
X107990500Y-36113756D01*
X107957246Y-35903800D01*
X107891557Y-35701631D01*
X107795051Y-35512227D01*
X107795049Y-35512224D01*
X107795048Y-35512222D01*
X107670109Y-35340256D01*
X107519786Y-35189933D01*
X107347820Y-35064994D01*
X107347115Y-35064634D01*
X107339054Y-35060528D01*
X107288259Y-35012555D01*
X107271463Y-34944735D01*
X107293999Y-34878599D01*
X107339054Y-34839558D01*
X107347816Y-34835094D01*
X107442728Y-34766137D01*
X107519786Y-34710152D01*
X107519788Y-34710149D01*
X107519792Y-34710147D01*
X107670104Y-34559835D01*
X107670106Y-34559831D01*
X107670109Y-34559829D01*
X107795048Y-34387863D01*
X107795047Y-34387863D01*
X107795051Y-34387859D01*
X107891557Y-34198455D01*
X107957246Y-33996286D01*
X107990500Y-33786330D01*
X107990500Y-33573756D01*
X107957246Y-33363800D01*
X107891557Y-33161631D01*
X107795051Y-32972227D01*
X107795049Y-32972224D01*
X107795048Y-32972222D01*
X107670109Y-32800256D01*
X107556569Y-32686716D01*
X107523084Y-32625393D01*
X107528068Y-32555701D01*
X107569940Y-32499768D01*
X107600915Y-32482853D01*
X107732331Y-32433839D01*
X107847546Y-32347589D01*
X107933796Y-32232374D01*
X107984091Y-32097526D01*
X107990500Y-32037916D01*
X107990499Y-30242171D01*
X107984091Y-30182560D01*
X107980311Y-30172426D01*
X107933797Y-30047714D01*
X107933793Y-30047707D01*
X107847547Y-29932498D01*
X107847544Y-29932495D01*
X107732335Y-29846249D01*
X107732328Y-29846245D01*
X107597482Y-29795951D01*
X107597483Y-29795951D01*
X107537883Y-29789544D01*
X107537881Y-29789543D01*
X107537873Y-29789543D01*
X107537864Y-29789543D01*
X105742129Y-29789543D01*
X105742123Y-29789544D01*
X105682516Y-29795951D01*
X105547671Y-29846245D01*
X105547664Y-29846249D01*
X105432455Y-29932495D01*
X105432452Y-29932498D01*
X105346206Y-30047707D01*
X105346202Y-30047714D01*
X105295908Y-30182560D01*
X105289501Y-30242159D01*
X105289501Y-30242166D01*
X105289500Y-30242178D01*
X68395940Y-30242178D01*
X68459759Y-30178359D01*
X68478965Y-30151925D01*
X68498674Y-30124796D01*
X68573141Y-30022302D01*
X68660715Y-29850429D01*
X68720324Y-29666972D01*
X68750500Y-29476449D01*
X68750500Y-28733551D01*
X68720324Y-28543028D01*
X68660715Y-28359571D01*
X68573141Y-28187698D01*
X68459759Y-28031641D01*
X68323359Y-27895241D01*
X68167302Y-27781859D01*
X67995429Y-27694285D01*
X67811972Y-27634676D01*
X67811970Y-27634675D01*
X67811969Y-27634675D01*
X67665614Y-27611495D01*
X67621449Y-27604500D01*
X67428551Y-27604500D01*
X67365043Y-27614558D01*
X67238026Y-27634676D01*
X67238018Y-27634678D01*
X67215672Y-27641938D01*
X67145831Y-27643931D01*
X67085999Y-27607849D01*
X67074256Y-27592897D01*
X66999464Y-27480965D01*
X66999461Y-27480961D01*
X66874038Y-27355538D01*
X66874034Y-27355535D01*
X66726553Y-27256990D01*
X66726540Y-27256983D01*
X66562667Y-27189106D01*
X66562658Y-27189103D01*
X66388694Y-27154500D01*
X66388691Y-27154500D01*
X66211309Y-27154500D01*
X66211306Y-27154500D01*
X66037341Y-27189103D01*
X66037332Y-27189106D01*
X65873459Y-27256983D01*
X65873446Y-27256990D01*
X65725965Y-27355535D01*
X65725961Y-27355538D01*
X65600538Y-27480961D01*
X65600535Y-27480965D01*
X65501990Y-27628446D01*
X65501983Y-27628459D01*
X65434106Y-27792332D01*
X65434103Y-27792341D01*
X65399500Y-27966304D01*
X62200499Y-27966304D01*
X62165896Y-27792341D01*
X62165893Y-27792332D01*
X62157806Y-27772809D01*
X62125281Y-27694285D01*
X62098016Y-27628459D01*
X62098009Y-27628446D01*
X61999464Y-27480965D01*
X61999461Y-27480961D01*
X61874038Y-27355538D01*
X61874034Y-27355535D01*
X61726553Y-27256990D01*
X61726540Y-27256983D01*
X61562667Y-27189106D01*
X61562658Y-27189103D01*
X61388694Y-27154500D01*
X61388691Y-27154500D01*
X61211309Y-27154500D01*
X61211306Y-27154500D01*
X61037341Y-27189103D01*
X61037332Y-27189106D01*
X60873459Y-27256983D01*
X60873446Y-27256990D01*
X60725965Y-27355535D01*
X60725961Y-27355538D01*
X60600538Y-27480961D01*
X60525743Y-27592899D01*
X60472130Y-27637703D01*
X60402805Y-27646410D01*
X60384325Y-27641939D01*
X60384322Y-27641938D01*
X60361972Y-27634676D01*
X60361968Y-27634675D01*
X60361967Y-27634675D01*
X60253790Y-27617541D01*
X60171449Y-27604500D01*
X59978551Y-27604500D01*
X59942697Y-27610178D01*
X59788030Y-27634675D01*
X59604568Y-27694286D01*
X59432697Y-27781859D01*
X59343661Y-27846547D01*
X59276641Y-27895241D01*
X59276639Y-27895243D01*
X59276638Y-27895243D01*
X59140243Y-28031638D01*
X59140243Y-28031639D01*
X59140241Y-28031641D01*
X59091547Y-28098661D01*
X59026859Y-28187697D01*
X58939286Y-28359568D01*
X58879675Y-28543030D01*
X58849500Y-28733551D01*
X38010648Y-28733551D01*
X38099107Y-28696910D01*
X38329392Y-28563955D01*
X38540352Y-28402079D01*
X38728379Y-28214052D01*
X38890255Y-28003092D01*
X39023210Y-27772807D01*
X39124969Y-27527139D01*
X39193791Y-27270290D01*
X39228500Y-27006655D01*
X39228500Y-26740745D01*
X39226007Y-26721811D01*
X39225272Y-26716228D01*
X47549500Y-26716228D01*
X47549500Y-26883771D01*
X47582182Y-27048074D01*
X47582184Y-27048082D01*
X47646295Y-27202860D01*
X47739373Y-27342162D01*
X47857837Y-27460626D01*
X47888271Y-27480961D01*
X47997137Y-27553703D01*
X48151918Y-27617816D01*
X48295671Y-27646410D01*
X48316228Y-27650499D01*
X48316232Y-27650500D01*
X48316233Y-27650500D01*
X48483768Y-27650500D01*
X48483769Y-27650499D01*
X48648082Y-27617816D01*
X48802863Y-27553703D01*
X48942162Y-27460626D01*
X49060626Y-27342162D01*
X49153703Y-27202863D01*
X49217816Y-27048082D01*
X49250500Y-26883767D01*
X49250500Y-26716233D01*
X49217816Y-26551918D01*
X49179326Y-26458995D01*
X51524499Y-26458995D01*
X51551418Y-26594322D01*
X51551421Y-26594332D01*
X51604221Y-26721804D01*
X51604228Y-26721817D01*
X51680885Y-26836541D01*
X51680888Y-26836545D01*
X51778454Y-26934111D01*
X51778458Y-26934114D01*
X51893182Y-27010771D01*
X51893195Y-27010778D01*
X51983237Y-27048074D01*
X52020672Y-27063580D01*
X52020676Y-27063580D01*
X52020677Y-27063581D01*
X52156004Y-27090500D01*
X52156007Y-27090500D01*
X52293995Y-27090500D01*
X52385041Y-27072389D01*
X52429328Y-27063580D01*
X52556811Y-27010775D01*
X52671542Y-26934114D01*
X52769114Y-26836542D01*
X52845775Y-26721811D01*
X52848086Y-26716233D01*
X52898578Y-26594332D01*
X52898580Y-26594328D01*
X52921895Y-26477118D01*
X52925500Y-26458995D01*
X54524499Y-26458995D01*
X54551418Y-26594322D01*
X54551421Y-26594332D01*
X54604221Y-26721804D01*
X54604228Y-26721817D01*
X54680885Y-26836541D01*
X54680888Y-26836545D01*
X54778454Y-26934111D01*
X54778458Y-26934114D01*
X54893182Y-27010771D01*
X54893195Y-27010778D01*
X54983237Y-27048074D01*
X55020672Y-27063580D01*
X55020676Y-27063580D01*
X55020677Y-27063581D01*
X55156004Y-27090500D01*
X55156007Y-27090500D01*
X55293995Y-27090500D01*
X55385041Y-27072389D01*
X55429328Y-27063580D01*
X55556811Y-27010775D01*
X55671542Y-26934114D01*
X55769114Y-26836542D01*
X55845775Y-26721811D01*
X55848086Y-26716233D01*
X55898578Y-26594332D01*
X55898580Y-26594328D01*
X55921895Y-26477118D01*
X55925500Y-26458995D01*
X55925500Y-26321004D01*
X55898581Y-26185677D01*
X55898580Y-26185676D01*
X55898580Y-26185672D01*
X55879403Y-26139374D01*
X55845778Y-26058195D01*
X55845771Y-26058182D01*
X55769114Y-25943458D01*
X55769111Y-25943454D01*
X55671545Y-25845888D01*
X55671541Y-25845885D01*
X55556817Y-25769228D01*
X55556804Y-25769221D01*
X55429332Y-25716421D01*
X55429322Y-25716418D01*
X55293995Y-25689500D01*
X55293993Y-25689500D01*
X55156007Y-25689500D01*
X55156005Y-25689500D01*
X55020677Y-25716418D01*
X55020667Y-25716421D01*
X54893195Y-25769221D01*
X54893182Y-25769228D01*
X54778458Y-25845885D01*
X54778454Y-25845888D01*
X54680888Y-25943454D01*
X54680885Y-25943458D01*
X54604228Y-26058182D01*
X54604221Y-26058195D01*
X54551421Y-26185667D01*
X54551418Y-26185677D01*
X54524500Y-26321004D01*
X54524500Y-26321007D01*
X54524500Y-26458993D01*
X54524500Y-26458995D01*
X54524499Y-26458995D01*
X52925500Y-26458995D01*
X52925500Y-26321004D01*
X52898581Y-26185677D01*
X52898580Y-26185676D01*
X52898580Y-26185672D01*
X52879403Y-26139374D01*
X52845778Y-26058195D01*
X52845771Y-26058182D01*
X52769114Y-25943458D01*
X52769111Y-25943454D01*
X52671545Y-25845888D01*
X52671541Y-25845885D01*
X52556817Y-25769228D01*
X52556804Y-25769221D01*
X52429332Y-25716421D01*
X52429322Y-25716418D01*
X52293995Y-25689500D01*
X52293993Y-25689500D01*
X52156007Y-25689500D01*
X52156005Y-25689500D01*
X52020677Y-25716418D01*
X52020667Y-25716421D01*
X51893195Y-25769221D01*
X51893182Y-25769228D01*
X51778458Y-25845885D01*
X51778454Y-25845888D01*
X51680888Y-25943454D01*
X51680885Y-25943458D01*
X51604228Y-26058182D01*
X51604221Y-26058195D01*
X51551421Y-26185667D01*
X51551418Y-26185677D01*
X51524500Y-26321004D01*
X51524500Y-26321007D01*
X51524500Y-26458993D01*
X51524500Y-26458995D01*
X51524499Y-26458995D01*
X49179326Y-26458995D01*
X49153703Y-26397137D01*
X49102832Y-26321004D01*
X49060629Y-26257842D01*
X49060623Y-26257834D01*
X48942162Y-26139373D01*
X48802860Y-26046295D01*
X48648082Y-25982184D01*
X48648074Y-25982182D01*
X48483771Y-25949500D01*
X48483767Y-25949500D01*
X48316233Y-25949500D01*
X48316228Y-25949500D01*
X48151925Y-25982182D01*
X48151917Y-25982184D01*
X47997139Y-26046295D01*
X47857837Y-26139373D01*
X47739373Y-26257837D01*
X47646295Y-26397139D01*
X47582184Y-26551917D01*
X47582182Y-26551925D01*
X47549500Y-26716228D01*
X39225272Y-26716228D01*
X39209223Y-26594328D01*
X39193791Y-26477110D01*
X39124969Y-26220261D01*
X39023210Y-25974593D01*
X38890255Y-25744308D01*
X38728379Y-25533348D01*
X38728377Y-25533346D01*
X38728374Y-25533342D01*
X38540357Y-25345325D01*
X38540352Y-25345321D01*
X38329392Y-25183445D01*
X38099107Y-25050490D01*
X38099100Y-25050487D01*
X37853448Y-24948734D01*
X37853441Y-24948732D01*
X37853439Y-24948731D01*
X37596590Y-24879909D01*
X37552528Y-24874108D01*
X37332962Y-24845200D01*
X37332955Y-24845200D01*
X37067045Y-24845200D01*
X37067037Y-24845200D01*
X36816103Y-24878237D01*
X36803410Y-24879909D01*
X36745761Y-24895356D01*
X36546561Y-24948731D01*
X36546551Y-24948734D01*
X36300899Y-25050487D01*
X36300890Y-25050491D01*
X36070614Y-25183441D01*
X36070607Y-25183446D01*
X35859642Y-25345325D01*
X35671625Y-25533342D01*
X35509746Y-25744307D01*
X35509741Y-25744314D01*
X35376791Y-25974590D01*
X35376787Y-25974599D01*
X35275034Y-26220251D01*
X35275031Y-26220261D01*
X35208384Y-26468995D01*
X35206210Y-26477107D01*
X35206208Y-26477118D01*
X35171500Y-26740737D01*
X30500000Y-26740737D01*
X30500000Y-26500000D01*
X26424500Y-26500000D01*
X26357461Y-26480315D01*
X26311706Y-26427511D01*
X26300500Y-26376000D01*
X26300500Y-24424500D01*
X26320185Y-24357461D01*
X26372989Y-24311706D01*
X26424500Y-24300500D01*
X50049167Y-24300500D01*
X50116206Y-24320185D01*
G37*
%TD.AperFunction*%
%TD*%
M02*
