%TF.GenerationSoftware,KiCad,Pcbnew,9.0.6*%
%TF.CreationDate,2026-03-25T10:17:24+01:00*%
%TF.ProjectId,Audio_watermark_generator,41756469-6f5f-4776-9174-65726d61726b,1.0*%
%TF.SameCoordinates,Original*%
%TF.FileFunction,Copper,L3,Inr*%
%TF.FilePolarity,Positive*%
%FSLAX46Y46*%
G04 Gerber Fmt 4.6, Leading zero omitted, Abs format (unit mm)*
G04 Created by KiCad (PCBNEW 9.0.6) date 2026-03-25 10:17:24*
%MOMM*%
%LPD*%
G01*
G04 APERTURE LIST*
%TA.AperFunction,ComponentPad*%
%ADD10R,1.700000X1.700000*%
%TD*%
%TA.AperFunction,ComponentPad*%
%ADD11C,1.700000*%
%TD*%
%TA.AperFunction,HeatsinkPad*%
%ADD12O,1.150000X1.800000*%
%TD*%
%TA.AperFunction,HeatsinkPad*%
%ADD13O,1.450000X2.000000*%
%TD*%
%TA.AperFunction,WasherPad*%
%ADD14C,3.180000*%
%TD*%
%TA.AperFunction,ComponentPad*%
%ADD15C,1.828800*%
%TD*%
%TA.AperFunction,ViaPad*%
%ADD16C,0.700000*%
%TD*%
G04 APERTURE END LIST*
D10*
%TO.N,unconnected-(U7-32K-Pad1)*%
%TO.C,U7*%
X106640000Y-31140043D03*
D11*
%TO.N,unconnected-(U7-SQW-Pad2)*%
X106640000Y-33680043D03*
%TO.N,/RTC/SCL*%
X106640000Y-36220043D03*
%TO.N,/RTC/SDA*%
X106640000Y-38760043D03*
%TO.N,/RTC/RTC_PWR*%
X106640000Y-41300043D03*
%TO.N,GND*%
X106640000Y-43840043D03*
%TD*%
D12*
%TO.N,unconnected-(J1-Shield-Pad6)_2*%
%TO.C,J1*%
X67675000Y-25305000D03*
D13*
%TO.N,unconnected-(J1-Shield-Pad6)_3*%
X67525000Y-29105000D03*
%TO.N,unconnected-(J1-Shield-Pad6)*%
X60075000Y-29105000D03*
D12*
%TO.N,unconnected-(J1-Shield-Pad6)_1*%
X59925000Y-25305000D03*
%TD*%
D10*
%TO.N,+3.3V*%
%TO.C,J3*%
X106675000Y-51000000D03*
D11*
%TO.N,/STM32/SWDIO*%
X106675000Y-53540000D03*
%TO.N,/STM32/SWCLK*%
X106675000Y-56080000D03*
%TO.N,GND*%
X106675000Y-58620000D03*
%TD*%
D14*
%TO.N,*%
%TO.C,B1*%
X37200000Y-44400000D03*
X92400000Y-44400000D03*
D15*
%TO.N,GND*%
X28979700Y-53950100D03*
X28980000Y-34823900D03*
%TO.N,Net-(SW2-C)*%
X100620000Y-34823900D03*
X100620000Y-53950100D03*
%TD*%
D16*
%TO.N,GND*%
X86975000Y-31800000D03*
X33800000Y-33400000D03*
X47200000Y-33000000D03*
X92800000Y-36000000D03*
X37600000Y-36200000D03*
X35800000Y-48000000D03*
X104625000Y-43500000D03*
X28200000Y-47200000D03*
X66797831Y-31977169D03*
X49200000Y-29800000D03*
X39089000Y-39000000D03*
X42425000Y-34600000D03*
X28200000Y-41800000D03*
X83000000Y-53112500D03*
X34800000Y-37400000D03*
X81600000Y-35800000D03*
X57375000Y-62728838D03*
X64750000Y-55400000D03*
X42400000Y-29000000D03*
X71125000Y-28950000D03*
X31400000Y-49400000D03*
X40075000Y-55800000D03*
X28200000Y-49400000D03*
X35800000Y-46400000D03*
X61000000Y-54500000D03*
X58800000Y-47200000D03*
X74375000Y-62000000D03*
X38600000Y-62600000D03*
X47404248Y-59050000D03*
X104375000Y-59250000D03*
X78750000Y-42000000D03*
X37600000Y-31800000D03*
X92525000Y-31250000D03*
X27600000Y-36600000D03*
X40000000Y-39000000D03*
X90400000Y-50800000D03*
X41800000Y-39600000D03*
X88400000Y-50600000D03*
X58175000Y-29800000D03*
X43125000Y-35250000D03*
X41625000Y-34000000D03*
X70459888Y-37938566D03*
X47250000Y-56500000D03*
X61825000Y-31050000D03*
X47500000Y-63250000D03*
X94400000Y-28460002D03*
X59250000Y-49550000D03*
X69400000Y-39000000D03*
X84200000Y-30200000D03*
X33400000Y-47200000D03*
X33000000Y-49400000D03*
X57500000Y-52250000D03*
X28000000Y-55600000D03*
X71830898Y-40957627D03*
X96800000Y-50800000D03*
X40800000Y-30000000D03*
X72125000Y-31750000D03*
X28200000Y-39600000D03*
X66250000Y-54800000D03*
X38400000Y-58200000D03*
X84200000Y-33400000D03*
X35800000Y-41000000D03*
X35800000Y-42600000D03*
X43125000Y-34000000D03*
X70375000Y-39500000D03*
X69800000Y-40400000D03*
X56875000Y-29750000D03*
X33400000Y-41800000D03*
X41000000Y-37200000D03*
X44200000Y-37800000D03*
X47250000Y-50600000D03*
X92475000Y-32550000D03*
X41625000Y-35250000D03*
X27625000Y-52750000D03*
X42800000Y-39600000D03*
X35000000Y-39600000D03*
X34600000Y-49400000D03*
X71615213Y-42657627D03*
X27400000Y-33600000D03*
X35800000Y-32800000D03*
X29800000Y-49400000D03*
X47200000Y-34000000D03*
X61000000Y-53500000D03*
X33400000Y-39600000D03*
X41000000Y-56500000D03*
X67800000Y-53400000D03*
%TO.N,+3.3V*%
X68375000Y-40000000D03*
X85800000Y-32200000D03*
X60500000Y-52750000D03*
X73325000Y-31750000D03*
X76237000Y-37862000D03*
X74875000Y-31750000D03*
X40400000Y-58200000D03*
X89874998Y-31850000D03*
X105750000Y-48750000D03*
X50875000Y-29750000D03*
X48400000Y-26800000D03*
X39800000Y-62800000D03*
X96000000Y-44000000D03*
X93000000Y-58000000D03*
X89200000Y-53200000D03*
X94200000Y-58000000D03*
%TO.N,/STM32/SWDIO*%
X62775000Y-37900000D03*
X99400000Y-41200000D03*
%TO.N,/STM32/BOOT0*%
X53875000Y-43375000D03*
X52924999Y-34249999D03*
%TO.N,/Mixer/RELAY_2_CTR*%
X74317524Y-45843642D03*
X89400000Y-45800000D03*
%TO.N,/STM32/SWCLK*%
X62375000Y-36900000D03*
X98600000Y-39400000D03*
%TO.N,/STM32/LED_PWR*%
X64975000Y-33250000D03*
X62725000Y-33250000D03*
%TO.N,/Mixer/RELAY_1_CTR*%
X89525000Y-44725000D03*
X74250000Y-44750000D03*
%TO.N,/STM32/PA2*%
X69125327Y-49896649D03*
X38800000Y-57200000D03*
%TO.N,/STM32/PA15*%
X59062500Y-40337500D03*
X33600000Y-55200000D03*
%TO.N,/Mixer/DAC*%
X49999999Y-54800000D03*
X79200000Y-46800000D03*
X74375000Y-46750000D03*
X70150000Y-48800000D03*
%TO.N,/STM32/SPI_CSN*%
X51000000Y-35000000D03*
X51000000Y-38200000D03*
%TO.N,/STM32/SPI_MOSI*%
X52000000Y-35800000D03*
X52000000Y-38000000D03*
%TO.N,/STM32/SPI_GOD0*%
X49800000Y-38200000D03*
X49800000Y-35000000D03*
%TO.N,Net-(U3A--)*%
X82000000Y-50875000D03*
X78750000Y-50500000D03*
%TO.N,/STM32/SPEAKER_EN*%
X48200000Y-60648000D03*
X70800000Y-44500000D03*
%TO.N,/STM32/PA3*%
X36800000Y-59800000D03*
X70400000Y-49800000D03*
%TO.N,/STM32/BAT_ADC*%
X73200000Y-47800000D03*
X79750000Y-35750000D03*
%TO.N,/Mixer/OpAmp_PWR*%
X72197512Y-49797512D03*
X80174540Y-51450459D03*
%TO.N,/Transceiver/VCC_CC1101*%
X40400000Y-32200000D03*
X45999998Y-35000000D03*
X43800000Y-40400000D03*
X45800002Y-30400000D03*
X42904625Y-30420501D03*
%TD*%
%TA.AperFunction,Conductor*%
%TO.N,+3.3V*%
G36*
X50116206Y-24320185D02*
G01*
X50136848Y-24336819D01*
X50540489Y-24740460D01*
X50599829Y-24774720D01*
X50609008Y-24780020D01*
X50609012Y-24780022D01*
X50685438Y-24800500D01*
X50764562Y-24800500D01*
X56714352Y-24800500D01*
X56718154Y-24801415D01*
X56753842Y-24800500D01*
X56789562Y-24800500D01*
X56789563Y-24800499D01*
X56791708Y-24800217D01*
X56792345Y-24800167D01*
X56794482Y-24799858D01*
X56795114Y-24799724D01*
X56797244Y-24799387D01*
X56797252Y-24799387D01*
X56831495Y-24789263D01*
X56865989Y-24780021D01*
X56869377Y-24778064D01*
X56873128Y-24776956D01*
X56902250Y-24759131D01*
X56904963Y-24757519D01*
X56934511Y-24740460D01*
X56934516Y-24740454D01*
X56936211Y-24739155D01*
X56936220Y-24739148D01*
X56938526Y-24737378D01*
X56938945Y-24737001D01*
X56940603Y-24735658D01*
X56940614Y-24735652D01*
X56965219Y-24709751D01*
X56990460Y-24684511D01*
X56992415Y-24681124D01*
X57317344Y-24339095D01*
X57377789Y-24304049D01*
X57407244Y-24300500D01*
X58861811Y-24300500D01*
X58928850Y-24320185D01*
X58974605Y-24372989D01*
X58984549Y-24442147D01*
X58972296Y-24480795D01*
X58928296Y-24567147D01*
X58875981Y-24728152D01*
X58849500Y-24895350D01*
X58849500Y-25714649D01*
X58875981Y-25881847D01*
X58928296Y-26042853D01*
X58965935Y-26116722D01*
X59001067Y-26185672D01*
X59005152Y-26193688D01*
X59104648Y-26330634D01*
X59104652Y-26330639D01*
X59224360Y-26450347D01*
X59224365Y-26450351D01*
X59341546Y-26535487D01*
X59361315Y-26549850D01*
X59448596Y-26594322D01*
X59512146Y-26626703D01*
X59512148Y-26626703D01*
X59512151Y-26626705D01*
X59598450Y-26654745D01*
X59673152Y-26679018D01*
X59840351Y-26705500D01*
X59840356Y-26705500D01*
X60009649Y-26705500D01*
X60176847Y-26679018D01*
X60337849Y-26626705D01*
X60488685Y-26549850D01*
X60625641Y-26450346D01*
X60745346Y-26330641D01*
X60844850Y-26193685D01*
X60921705Y-26042849D01*
X60974018Y-25881847D01*
X61000500Y-25714649D01*
X61000500Y-24895350D01*
X60974018Y-24728152D01*
X60956053Y-24672864D01*
X60921705Y-24567151D01*
X60877703Y-24480794D01*
X60864808Y-24412126D01*
X60891084Y-24347386D01*
X60948190Y-24307128D01*
X60988189Y-24300500D01*
X66611811Y-24300500D01*
X66678850Y-24320185D01*
X66724605Y-24372989D01*
X66734549Y-24442147D01*
X66722296Y-24480795D01*
X66678296Y-24567147D01*
X66625981Y-24728152D01*
X66599500Y-24895350D01*
X66599500Y-25714649D01*
X66625981Y-25881847D01*
X66678296Y-26042853D01*
X66715935Y-26116722D01*
X66751067Y-26185672D01*
X66755152Y-26193688D01*
X66854648Y-26330634D01*
X66854652Y-26330639D01*
X66974360Y-26450347D01*
X66974365Y-26450351D01*
X67091546Y-26535487D01*
X67111315Y-26549850D01*
X67198596Y-26594322D01*
X67262146Y-26626703D01*
X67262148Y-26626703D01*
X67262151Y-26626705D01*
X67348450Y-26654745D01*
X67423152Y-26679018D01*
X67590351Y-26705500D01*
X67590356Y-26705500D01*
X67759649Y-26705500D01*
X67926847Y-26679018D01*
X68087849Y-26626705D01*
X68238685Y-26549850D01*
X68349973Y-26468995D01*
X88524499Y-26468995D01*
X88551418Y-26604322D01*
X88551421Y-26604332D01*
X88604221Y-26731804D01*
X88604228Y-26731817D01*
X88680885Y-26846541D01*
X88680888Y-26846545D01*
X88778454Y-26944111D01*
X88778458Y-26944114D01*
X88893182Y-27020771D01*
X88893195Y-27020778D01*
X88996532Y-27063581D01*
X89020672Y-27073580D01*
X89020676Y-27073580D01*
X89020677Y-27073581D01*
X89156004Y-27100500D01*
X89156007Y-27100500D01*
X89293995Y-27100500D01*
X89385041Y-27082389D01*
X89429328Y-27073580D01*
X89556811Y-27020775D01*
X89671542Y-26944114D01*
X89769114Y-26846542D01*
X89845775Y-26731811D01*
X89898580Y-26604328D01*
X89909417Y-26549847D01*
X89925500Y-26468995D01*
X91524499Y-26468995D01*
X91551418Y-26604322D01*
X91551421Y-26604332D01*
X91604221Y-26731804D01*
X91604228Y-26731817D01*
X91680885Y-26846541D01*
X91680888Y-26846545D01*
X91778454Y-26944111D01*
X91778458Y-26944114D01*
X91893182Y-27020771D01*
X91893195Y-27020778D01*
X91996532Y-27063581D01*
X92020672Y-27073580D01*
X92020676Y-27073580D01*
X92020677Y-27073581D01*
X92156004Y-27100500D01*
X92156007Y-27100500D01*
X92293995Y-27100500D01*
X92385041Y-27082389D01*
X92429328Y-27073580D01*
X92556811Y-27020775D01*
X92671542Y-26944114D01*
X92769114Y-26846542D01*
X92826919Y-26760031D01*
X99456700Y-26760031D01*
X99456700Y-26987369D01*
X99468771Y-27063580D01*
X99492264Y-27211909D01*
X99492264Y-27211912D01*
X99562513Y-27428116D01*
X99612968Y-27527139D01*
X99665724Y-27630678D01*
X99799350Y-27814598D01*
X99960102Y-27975350D01*
X100144022Y-28108976D01*
X100223555Y-28149500D01*
X100346583Y-28212186D01*
X100562788Y-28282435D01*
X100562789Y-28282435D01*
X100562792Y-28282436D01*
X100787331Y-28318000D01*
X100787332Y-28318000D01*
X101014668Y-28318000D01*
X101014669Y-28318000D01*
X101239208Y-28282436D01*
X101239211Y-28282435D01*
X101239212Y-28282435D01*
X101455416Y-28212186D01*
X101455416Y-28212185D01*
X101455419Y-28212185D01*
X101657978Y-28108976D01*
X101841898Y-27975350D01*
X102002650Y-27814598D01*
X102136276Y-27630678D01*
X102239485Y-27428119D01*
X102295089Y-27256987D01*
X102309735Y-27211912D01*
X102309735Y-27211911D01*
X102309736Y-27211908D01*
X102345300Y-26987369D01*
X102345300Y-26760031D01*
X102309736Y-26535492D01*
X102309735Y-26535488D01*
X102309735Y-26535487D01*
X102239486Y-26319283D01*
X102189032Y-26220261D01*
X102136276Y-26116722D01*
X102002650Y-25932802D01*
X101841898Y-25772050D01*
X101657978Y-25638424D01*
X101455416Y-25535213D01*
X101239211Y-25464964D01*
X101070803Y-25438291D01*
X101014669Y-25429400D01*
X100787331Y-25429400D01*
X100712484Y-25441254D01*
X100562790Y-25464964D01*
X100562787Y-25464964D01*
X100346583Y-25535213D01*
X100144021Y-25638424D01*
X100073722Y-25689500D01*
X99960102Y-25772050D01*
X99960100Y-25772052D01*
X99960099Y-25772052D01*
X99799352Y-25932799D01*
X99799352Y-25932800D01*
X99799350Y-25932802D01*
X99784343Y-25953458D01*
X99665724Y-26116721D01*
X99562513Y-26319283D01*
X99492264Y-26535487D01*
X99492264Y-26535490D01*
X99462753Y-26721817D01*
X99456700Y-26760031D01*
X92826919Y-26760031D01*
X92845775Y-26731811D01*
X92898580Y-26604328D01*
X92909417Y-26549847D01*
X92925500Y-26468995D01*
X92925500Y-26331004D01*
X92898581Y-26195677D01*
X92898580Y-26195676D01*
X92898580Y-26195672D01*
X92865878Y-26116721D01*
X92845778Y-26068195D01*
X92845771Y-26068182D01*
X92769114Y-25953458D01*
X92769111Y-25953454D01*
X92671545Y-25855888D01*
X92671541Y-25855885D01*
X92556817Y-25779228D01*
X92556804Y-25779221D01*
X92429332Y-25726421D01*
X92429322Y-25726418D01*
X92293995Y-25699500D01*
X92293993Y-25699500D01*
X92156007Y-25699500D01*
X92156005Y-25699500D01*
X92020677Y-25726418D01*
X92020667Y-25726421D01*
X91893195Y-25779221D01*
X91893182Y-25779228D01*
X91778458Y-25855885D01*
X91778454Y-25855888D01*
X91680888Y-25953454D01*
X91680885Y-25953458D01*
X91604228Y-26068182D01*
X91604221Y-26068195D01*
X91551421Y-26195667D01*
X91551418Y-26195677D01*
X91524500Y-26331004D01*
X91524500Y-26331007D01*
X91524500Y-26468993D01*
X91524500Y-26468995D01*
X91524499Y-26468995D01*
X89925500Y-26468995D01*
X89925500Y-26331004D01*
X89898581Y-26195677D01*
X89898580Y-26195676D01*
X89898580Y-26195672D01*
X89865878Y-26116721D01*
X89845778Y-26068195D01*
X89845771Y-26068182D01*
X89769114Y-25953458D01*
X89769111Y-25953454D01*
X89671545Y-25855888D01*
X89671541Y-25855885D01*
X89556817Y-25779228D01*
X89556804Y-25779221D01*
X89429332Y-25726421D01*
X89429322Y-25726418D01*
X89293995Y-25699500D01*
X89293993Y-25699500D01*
X89156007Y-25699500D01*
X89156005Y-25699500D01*
X89020677Y-25726418D01*
X89020667Y-25726421D01*
X88893195Y-25779221D01*
X88893182Y-25779228D01*
X88778458Y-25855885D01*
X88778454Y-25855888D01*
X88680888Y-25953454D01*
X88680885Y-25953458D01*
X88604228Y-26068182D01*
X88604221Y-26068195D01*
X88551421Y-26195667D01*
X88551418Y-26195677D01*
X88524500Y-26331004D01*
X88524500Y-26331007D01*
X88524500Y-26468993D01*
X88524500Y-26468995D01*
X88524499Y-26468995D01*
X68349973Y-26468995D01*
X68375641Y-26450346D01*
X68495346Y-26330641D01*
X68499986Y-26324254D01*
X68552461Y-26252030D01*
X68575549Y-26220251D01*
X68594850Y-26193685D01*
X68671705Y-26042849D01*
X68724018Y-25881847D01*
X68750500Y-25714649D01*
X68750500Y-24895350D01*
X68724018Y-24728152D01*
X68706053Y-24672864D01*
X68671705Y-24567151D01*
X68627703Y-24480794D01*
X68614808Y-24412126D01*
X68641084Y-24347386D01*
X68698190Y-24307128D01*
X68738189Y-24300500D01*
X87074167Y-24300500D01*
X87141206Y-24320185D01*
X87161848Y-24336819D01*
X87565489Y-24740460D01*
X87624829Y-24774720D01*
X87634008Y-24780020D01*
X87634012Y-24780022D01*
X87710438Y-24800500D01*
X87710440Y-24800500D01*
X93789560Y-24800500D01*
X93789562Y-24800500D01*
X93865989Y-24780021D01*
X93934511Y-24740460D01*
X93990460Y-24684511D01*
X94338152Y-24336819D01*
X94399475Y-24303334D01*
X94425833Y-24300500D01*
X108575500Y-24300500D01*
X108642539Y-24320185D01*
X108688294Y-24372989D01*
X108699500Y-24424500D01*
X108699500Y-64575500D01*
X108679815Y-64642539D01*
X108627011Y-64688294D01*
X108575500Y-64699500D01*
X75199500Y-64699500D01*
X75132461Y-64679815D01*
X75086706Y-64627011D01*
X75075500Y-64575500D01*
X75075500Y-63760439D01*
X75058799Y-63698112D01*
X75055021Y-63684011D01*
X75037036Y-63652860D01*
X75015464Y-63615495D01*
X75015458Y-63615487D01*
X74959512Y-63559541D01*
X74959504Y-63559535D01*
X74890995Y-63519982D01*
X74890990Y-63519979D01*
X74858498Y-63511273D01*
X74814562Y-63499500D01*
X71014562Y-63499500D01*
X70935438Y-63499500D01*
X70897224Y-63509739D01*
X70859009Y-63519979D01*
X70859004Y-63519982D01*
X70790495Y-63559535D01*
X70790487Y-63559541D01*
X70734541Y-63615487D01*
X70734535Y-63615495D01*
X70694982Y-63684004D01*
X70694979Y-63684009D01*
X70674500Y-63760439D01*
X70674500Y-64575500D01*
X70654815Y-64642539D01*
X70602011Y-64688294D01*
X70550500Y-64699500D01*
X58049500Y-64699500D01*
X57982461Y-64679815D01*
X57936706Y-64627011D01*
X57925500Y-64575500D01*
X57925500Y-63760439D01*
X57908799Y-63698112D01*
X57905021Y-63684011D01*
X57887036Y-63652860D01*
X57865464Y-63615495D01*
X57865458Y-63615487D01*
X57857516Y-63607545D01*
X57824031Y-63546222D01*
X57829015Y-63476530D01*
X57870887Y-63420597D01*
X57876278Y-63416781D01*
X57917162Y-63389464D01*
X58035626Y-63271000D01*
X58128703Y-63131701D01*
X58192816Y-62976920D01*
X58225500Y-62812605D01*
X58225500Y-62645071D01*
X58192816Y-62480756D01*
X58128703Y-62325975D01*
X58097537Y-62279332D01*
X58035626Y-62186675D01*
X57917165Y-62068214D01*
X57917157Y-62068208D01*
X57834945Y-62013276D01*
X57834895Y-62013243D01*
X57826831Y-62007855D01*
X57777863Y-61975135D01*
X57777862Y-61975134D01*
X57777860Y-61975133D01*
X57635650Y-61916228D01*
X73524500Y-61916228D01*
X73524500Y-62083771D01*
X73557182Y-62248074D01*
X73557184Y-62248082D01*
X73621295Y-62402860D01*
X73714373Y-62542162D01*
X73832837Y-62660626D01*
X73903494Y-62707837D01*
X73972137Y-62753703D01*
X74126918Y-62817816D01*
X74274326Y-62847137D01*
X74291228Y-62850499D01*
X74291232Y-62850500D01*
X74291233Y-62850500D01*
X74458768Y-62850500D01*
X74458769Y-62850499D01*
X74623082Y-62817816D01*
X74777863Y-62753703D01*
X74917162Y-62660626D01*
X75035626Y-62542162D01*
X75128703Y-62402863D01*
X75192816Y-62248082D01*
X75225500Y-62083767D01*
X75225500Y-61916233D01*
X75192816Y-61751918D01*
X75188682Y-61741937D01*
X90371500Y-61741937D01*
X90371500Y-62007862D01*
X90395043Y-62186676D01*
X90406209Y-62271490D01*
X90475031Y-62528338D01*
X90475034Y-62528348D01*
X90576787Y-62774000D01*
X90576791Y-62774009D01*
X90619557Y-62848082D01*
X90709745Y-63004292D01*
X90871621Y-63215252D01*
X90871625Y-63215257D01*
X91059642Y-63403274D01*
X91059646Y-63403277D01*
X91059648Y-63403279D01*
X91270608Y-63565155D01*
X91500893Y-63698110D01*
X91651366Y-63760438D01*
X91727954Y-63792162D01*
X91746561Y-63799869D01*
X92003410Y-63868691D01*
X92267045Y-63903400D01*
X92267052Y-63903400D01*
X92532948Y-63903400D01*
X92532955Y-63903400D01*
X92796590Y-63868691D01*
X93053439Y-63799869D01*
X93299107Y-63698110D01*
X93529392Y-63565155D01*
X93740352Y-63403279D01*
X93928379Y-63215252D01*
X94090255Y-63004292D01*
X94223210Y-62774007D01*
X94324969Y-62528339D01*
X94393791Y-62271490D01*
X94428500Y-62007855D01*
X94428500Y-61741945D01*
X94393791Y-61478310D01*
X94324969Y-61221461D01*
X94223210Y-60975793D01*
X94090255Y-60745508D01*
X93928379Y-60534548D01*
X93928377Y-60534546D01*
X93928374Y-60534542D01*
X93740357Y-60346525D01*
X93734671Y-60342162D01*
X93529392Y-60184645D01*
X93392894Y-60105838D01*
X93299109Y-60051691D01*
X93299100Y-60051687D01*
X93053448Y-59949934D01*
X93053441Y-59949932D01*
X93053439Y-59949931D01*
X92796590Y-59881109D01*
X92752528Y-59875308D01*
X92532962Y-59846400D01*
X92532955Y-59846400D01*
X92267045Y-59846400D01*
X92267037Y-59846400D01*
X92016103Y-59879437D01*
X92003410Y-59881109D01*
X91746561Y-59949931D01*
X91746551Y-59949934D01*
X91500899Y-60051687D01*
X91500890Y-60051691D01*
X91270614Y-60184641D01*
X91270607Y-60184646D01*
X91059642Y-60346525D01*
X90871625Y-60534542D01*
X90709746Y-60745507D01*
X90709741Y-60745514D01*
X90576791Y-60975790D01*
X90576787Y-60975799D01*
X90475034Y-61221451D01*
X90475031Y-61221461D01*
X90409557Y-61465817D01*
X90406210Y-61478307D01*
X90406208Y-61478318D01*
X90371500Y-61741937D01*
X75188682Y-61741937D01*
X75128703Y-61597137D01*
X75062795Y-61498499D01*
X75035626Y-61457837D01*
X74917162Y-61339373D01*
X74777860Y-61246295D01*
X74623082Y-61182184D01*
X74623074Y-61182182D01*
X74458771Y-61149500D01*
X74458767Y-61149500D01*
X74291233Y-61149500D01*
X74291228Y-61149500D01*
X74126925Y-61182182D01*
X74126917Y-61182184D01*
X73972139Y-61246295D01*
X73832837Y-61339373D01*
X73714373Y-61457837D01*
X73621295Y-61597139D01*
X73557184Y-61751917D01*
X73557182Y-61751925D01*
X73524500Y-61916228D01*
X57635650Y-61916228D01*
X57623082Y-61911022D01*
X57623074Y-61911020D01*
X57458771Y-61878338D01*
X57458767Y-61878338D01*
X57291233Y-61878338D01*
X57291228Y-61878338D01*
X57126925Y-61911020D01*
X57126917Y-61911022D01*
X56972139Y-61975133D01*
X56832837Y-62068211D01*
X56714373Y-62186675D01*
X56621295Y-62325977D01*
X56557184Y-62480755D01*
X56557182Y-62480763D01*
X56524500Y-62645066D01*
X56524500Y-62812609D01*
X56557182Y-62976912D01*
X56557184Y-62976920D01*
X56621295Y-63131698D01*
X56714373Y-63271000D01*
X56731192Y-63287819D01*
X56764677Y-63349142D01*
X56759693Y-63418834D01*
X56717821Y-63474767D01*
X56652357Y-63499184D01*
X56643511Y-63499500D01*
X53864562Y-63499500D01*
X53785438Y-63499500D01*
X53747224Y-63509739D01*
X53709009Y-63519979D01*
X53709004Y-63519982D01*
X53640495Y-63559535D01*
X53640487Y-63559541D01*
X53584541Y-63615487D01*
X53584535Y-63615495D01*
X53544982Y-63684004D01*
X53544979Y-63684009D01*
X53524500Y-63760439D01*
X53524500Y-64575500D01*
X53504815Y-64642539D01*
X53452011Y-64688294D01*
X53400500Y-64699500D01*
X26424500Y-64699500D01*
X26357461Y-64679815D01*
X26311706Y-64627011D01*
X26300500Y-64575500D01*
X26300500Y-62516228D01*
X37749500Y-62516228D01*
X37749500Y-62683771D01*
X37782182Y-62848074D01*
X37782184Y-62848082D01*
X37846295Y-63002860D01*
X37939373Y-63142162D01*
X38057837Y-63260626D01*
X38150494Y-63322537D01*
X38197137Y-63353703D01*
X38351918Y-63417816D01*
X38516228Y-63450499D01*
X38516232Y-63450500D01*
X38516233Y-63450500D01*
X38683768Y-63450500D01*
X38683769Y-63450499D01*
X38848082Y-63417816D01*
X39002863Y-63353703D01*
X39142162Y-63260626D01*
X39236560Y-63166228D01*
X46649500Y-63166228D01*
X46649500Y-63333771D01*
X46682182Y-63498074D01*
X46682184Y-63498082D01*
X46746295Y-63652860D01*
X46839373Y-63792162D01*
X46957837Y-63910626D01*
X47050494Y-63972537D01*
X47097137Y-64003703D01*
X47251918Y-64067816D01*
X47416228Y-64100499D01*
X47416232Y-64100500D01*
X47416233Y-64100500D01*
X47583768Y-64100500D01*
X47583769Y-64100499D01*
X47748082Y-64067816D01*
X47902863Y-64003703D01*
X48042162Y-63910626D01*
X48160626Y-63792162D01*
X48253703Y-63652863D01*
X48317816Y-63498082D01*
X48350500Y-63333767D01*
X48350500Y-63166233D01*
X48317816Y-63001918D01*
X48255096Y-62850499D01*
X48253704Y-62847139D01*
X48234110Y-62817815D01*
X48191272Y-62753703D01*
X48160626Y-62707837D01*
X48042162Y-62589373D01*
X47902860Y-62496295D01*
X47748082Y-62432184D01*
X47748074Y-62432182D01*
X47583771Y-62399500D01*
X47583767Y-62399500D01*
X47416233Y-62399500D01*
X47416228Y-62399500D01*
X47251925Y-62432182D01*
X47251917Y-62432184D01*
X47097139Y-62496295D01*
X46957837Y-62589373D01*
X46839373Y-62707837D01*
X46746295Y-62847139D01*
X46682184Y-63001917D01*
X46682182Y-63001925D01*
X46649500Y-63166228D01*
X39236560Y-63166228D01*
X39260626Y-63142162D01*
X39279302Y-63114210D01*
X39294645Y-63091250D01*
X39309236Y-63069412D01*
X39353703Y-63002863D01*
X39417816Y-62848082D01*
X39450500Y-62683767D01*
X39450500Y-62516233D01*
X39417816Y-62351918D01*
X39353703Y-62197137D01*
X39277952Y-62083768D01*
X39260626Y-62057837D01*
X39142162Y-61939373D01*
X39002860Y-61846295D01*
X38848082Y-61782184D01*
X38848074Y-61782182D01*
X38683771Y-61749500D01*
X38683767Y-61749500D01*
X38516233Y-61749500D01*
X38516228Y-61749500D01*
X38351925Y-61782182D01*
X38351917Y-61782184D01*
X38197139Y-61846295D01*
X38057837Y-61939373D01*
X37939373Y-62057837D01*
X37846295Y-62197139D01*
X37782184Y-62351917D01*
X37782182Y-62351925D01*
X37749500Y-62516228D01*
X26300500Y-62516228D01*
X26300500Y-59716228D01*
X35949500Y-59716228D01*
X35949500Y-59883771D01*
X35982182Y-60048074D01*
X35982184Y-60048082D01*
X36046295Y-60202860D01*
X36139373Y-60342162D01*
X36257837Y-60460626D01*
X36350494Y-60522537D01*
X36397137Y-60553703D01*
X36551918Y-60617816D01*
X36716228Y-60650499D01*
X36716232Y-60650500D01*
X36716233Y-60650500D01*
X36883768Y-60650500D01*
X36883769Y-60650499D01*
X37048082Y-60617816D01*
X37202863Y-60553703D01*
X37342162Y-60460626D01*
X37460626Y-60342162D01*
X37553703Y-60202863D01*
X37617816Y-60048082D01*
X37650500Y-59883767D01*
X37650500Y-59716233D01*
X37617816Y-59551918D01*
X37553703Y-59397137D01*
X37507384Y-59327816D01*
X37460626Y-59257837D01*
X37342162Y-59139373D01*
X37202860Y-59046295D01*
X37048082Y-58982184D01*
X37048074Y-58982182D01*
X36883771Y-58949500D01*
X36883767Y-58949500D01*
X36716233Y-58949500D01*
X36716228Y-58949500D01*
X36551925Y-58982182D01*
X36551917Y-58982184D01*
X36397139Y-59046295D01*
X36257837Y-59139373D01*
X36139373Y-59257837D01*
X36046295Y-59397139D01*
X35982184Y-59551917D01*
X35982182Y-59551925D01*
X35949500Y-59716228D01*
X26300500Y-59716228D01*
X26300500Y-58116228D01*
X37549500Y-58116228D01*
X37549500Y-58283771D01*
X37582182Y-58448074D01*
X37582184Y-58448082D01*
X37646295Y-58602860D01*
X37739373Y-58742162D01*
X37857837Y-58860626D01*
X37950494Y-58922537D01*
X37997137Y-58953703D01*
X38151918Y-59017816D01*
X38295093Y-59046295D01*
X38316228Y-59050499D01*
X38316232Y-59050500D01*
X38316233Y-59050500D01*
X38483768Y-59050500D01*
X38483769Y-59050499D01*
X38648082Y-59017816D01*
X38772625Y-58966228D01*
X46553748Y-58966228D01*
X46553748Y-59133771D01*
X46586430Y-59298074D01*
X46586432Y-59298082D01*
X46650543Y-59452860D01*
X46743621Y-59592162D01*
X46862085Y-59710626D01*
X46954742Y-59772537D01*
X47001385Y-59803703D01*
X47156166Y-59867816D01*
X47320476Y-59900499D01*
X47320480Y-59900500D01*
X47445714Y-59900500D01*
X47512753Y-59920185D01*
X47558508Y-59972989D01*
X47568452Y-60042147D01*
X47542652Y-60100702D01*
X47542758Y-60100773D01*
X47542358Y-60101370D01*
X47541569Y-60103163D01*
X47539373Y-60105838D01*
X47446295Y-60245139D01*
X47382184Y-60399917D01*
X47382182Y-60399925D01*
X47349500Y-60564228D01*
X47349500Y-60731771D01*
X47382182Y-60896074D01*
X47382184Y-60896082D01*
X47446295Y-61050860D01*
X47539373Y-61190162D01*
X47657837Y-61308626D01*
X47703855Y-61339374D01*
X47797137Y-61401703D01*
X47951918Y-61465816D01*
X48116228Y-61498499D01*
X48116232Y-61498500D01*
X48116233Y-61498500D01*
X48283768Y-61498500D01*
X48283769Y-61498499D01*
X48448082Y-61465816D01*
X48602863Y-61401703D01*
X48742162Y-61308626D01*
X48860626Y-61190162D01*
X48953703Y-61050863D01*
X49017816Y-60896082D01*
X49050500Y-60731767D01*
X49050500Y-60564233D01*
X49017816Y-60399918D01*
X48953703Y-60245137D01*
X48913281Y-60184641D01*
X48860626Y-60105837D01*
X48742162Y-59987373D01*
X48602860Y-59894295D01*
X48448082Y-59830184D01*
X48448074Y-59830182D01*
X48283771Y-59797500D01*
X48283767Y-59797500D01*
X48158534Y-59797500D01*
X48091495Y-59777815D01*
X48045740Y-59725011D01*
X48035796Y-59655853D01*
X48061595Y-59597297D01*
X48061490Y-59597227D01*
X48061889Y-59596629D01*
X48062679Y-59594837D01*
X48064869Y-59592166D01*
X48064874Y-59592162D01*
X48157951Y-59452863D01*
X48222064Y-59298082D01*
X48248291Y-59166228D01*
X103524500Y-59166228D01*
X103524500Y-59333771D01*
X103557182Y-59498074D01*
X103557184Y-59498082D01*
X103621295Y-59652860D01*
X103714373Y-59792162D01*
X103832837Y-59910626D01*
X103891666Y-59949934D01*
X103972137Y-60003703D01*
X104126918Y-60067816D01*
X104291228Y-60100499D01*
X104291232Y-60100500D01*
X104291233Y-60100500D01*
X104458768Y-60100500D01*
X104458769Y-60100499D01*
X104623082Y-60067816D01*
X104777863Y-60003703D01*
X104917162Y-59910626D01*
X105035626Y-59792162D01*
X105128703Y-59652863D01*
X105192816Y-59498082D01*
X105225500Y-59333767D01*
X105225500Y-59266424D01*
X105245185Y-59199385D01*
X105297989Y-59153630D01*
X105367147Y-59143686D01*
X105430703Y-59172711D01*
X105459983Y-59210127D01*
X105488668Y-59266424D01*
X105519951Y-59327820D01*
X105644890Y-59499786D01*
X105795213Y-59650109D01*
X105967179Y-59775048D01*
X105967181Y-59775049D01*
X105967184Y-59775051D01*
X106156588Y-59871557D01*
X106358757Y-59937246D01*
X106568713Y-59970500D01*
X106568714Y-59970500D01*
X106781286Y-59970500D01*
X106781287Y-59970500D01*
X106991243Y-59937246D01*
X107193412Y-59871557D01*
X107382816Y-59775051D01*
X107463774Y-59716232D01*
X107554786Y-59650109D01*
X107554788Y-59650106D01*
X107554792Y-59650104D01*
X107705104Y-59499792D01*
X107705106Y-59499788D01*
X107705109Y-59499786D01*
X107830048Y-59327820D01*
X107830047Y-59327820D01*
X107830051Y-59327816D01*
X107926557Y-59138412D01*
X107992246Y-58936243D01*
X108025500Y-58726287D01*
X108025500Y-58513713D01*
X107992246Y-58303757D01*
X107926557Y-58101588D01*
X107830051Y-57912184D01*
X107830049Y-57912181D01*
X107830048Y-57912179D01*
X107705109Y-57740213D01*
X107554786Y-57589890D01*
X107382820Y-57464951D01*
X107382115Y-57464591D01*
X107374054Y-57460485D01*
X107323259Y-57412512D01*
X107306463Y-57344692D01*
X107328999Y-57278556D01*
X107374054Y-57239515D01*
X107382816Y-57235051D01*
X107485254Y-57160626D01*
X107554786Y-57110109D01*
X107554788Y-57110106D01*
X107554792Y-57110104D01*
X107705104Y-56959792D01*
X107705106Y-56959788D01*
X107705109Y-56959786D01*
X107830048Y-56787820D01*
X107830047Y-56787820D01*
X107830051Y-56787816D01*
X107926557Y-56598412D01*
X107992246Y-56396243D01*
X108025500Y-56186287D01*
X108025500Y-55973713D01*
X107992246Y-55763757D01*
X107926557Y-55561588D01*
X107830051Y-55372184D01*
X107830049Y-55372181D01*
X107830048Y-55372179D01*
X107705109Y-55200213D01*
X107554786Y-55049890D01*
X107382820Y-54924951D01*
X107382115Y-54924591D01*
X107374054Y-54920485D01*
X107323259Y-54872512D01*
X107306463Y-54804692D01*
X107328999Y-54738556D01*
X107374054Y-54699515D01*
X107382816Y-54695051D01*
X107449921Y-54646297D01*
X107554786Y-54570109D01*
X107554788Y-54570106D01*
X107554792Y-54570104D01*
X107705104Y-54419792D01*
X107705106Y-54419788D01*
X107705109Y-54419786D01*
X107830048Y-54247820D01*
X107830047Y-54247820D01*
X107830051Y-54247816D01*
X107926557Y-54058412D01*
X107992246Y-53856243D01*
X108025500Y-53646287D01*
X108025500Y-53433713D01*
X107992246Y-53223757D01*
X107926557Y-53021588D01*
X107830051Y-52832184D01*
X107830049Y-52832181D01*
X107830048Y-52832179D01*
X107705109Y-52660213D01*
X107591181Y-52546285D01*
X107557696Y-52484962D01*
X107562680Y-52415270D01*
X107604552Y-52359337D01*
X107635529Y-52342422D01*
X107767086Y-52293354D01*
X107767093Y-52293350D01*
X107882187Y-52207190D01*
X107882190Y-52207187D01*
X107968350Y-52092093D01*
X107968354Y-52092086D01*
X108018596Y-51957379D01*
X108018598Y-51957372D01*
X108024999Y-51897844D01*
X108025000Y-51897827D01*
X108025000Y-51250000D01*
X107108012Y-51250000D01*
X107140925Y-51192993D01*
X107175000Y-51065826D01*
X107175000Y-50934174D01*
X107140925Y-50807007D01*
X107108012Y-50750000D01*
X108025000Y-50750000D01*
X108025000Y-50102172D01*
X108024999Y-50102155D01*
X108018598Y-50042627D01*
X108018596Y-50042620D01*
X107968354Y-49907913D01*
X107968350Y-49907906D01*
X107882190Y-49792812D01*
X107882187Y-49792809D01*
X107767093Y-49706649D01*
X107767086Y-49706645D01*
X107632379Y-49656403D01*
X107632372Y-49656401D01*
X107572844Y-49650000D01*
X106925000Y-49650000D01*
X106925000Y-50566988D01*
X106867993Y-50534075D01*
X106740826Y-50500000D01*
X106609174Y-50500000D01*
X106482007Y-50534075D01*
X106425000Y-50566988D01*
X106425000Y-49650000D01*
X105777155Y-49650000D01*
X105717627Y-49656401D01*
X105717620Y-49656403D01*
X105582913Y-49706645D01*
X105582906Y-49706649D01*
X105467812Y-49792809D01*
X105467809Y-49792812D01*
X105381649Y-49907906D01*
X105381645Y-49907913D01*
X105331403Y-50042620D01*
X105331401Y-50042627D01*
X105325000Y-50102155D01*
X105325000Y-50750000D01*
X106241988Y-50750000D01*
X106209075Y-50807007D01*
X106175000Y-50934174D01*
X106175000Y-51065826D01*
X106209075Y-51192993D01*
X106241988Y-51250000D01*
X105325000Y-51250000D01*
X105325000Y-51897844D01*
X105331401Y-51957372D01*
X105331403Y-51957379D01*
X105381645Y-52092086D01*
X105381649Y-52092093D01*
X105467809Y-52207187D01*
X105467812Y-52207190D01*
X105582906Y-52293350D01*
X105582913Y-52293354D01*
X105714470Y-52342422D01*
X105770404Y-52384293D01*
X105794821Y-52449758D01*
X105779969Y-52518031D01*
X105758819Y-52546285D01*
X105644889Y-52660215D01*
X105519951Y-52832179D01*
X105423444Y-53021585D01*
X105357753Y-53223760D01*
X105336084Y-53360574D01*
X105324500Y-53433713D01*
X105324500Y-53646287D01*
X105325827Y-53654665D01*
X105354982Y-53838745D01*
X105357754Y-53856243D01*
X105420635Y-54049771D01*
X105423444Y-54058414D01*
X105519951Y-54247820D01*
X105644890Y-54419786D01*
X105795213Y-54570109D01*
X105967182Y-54695050D01*
X105975946Y-54699516D01*
X106026742Y-54747491D01*
X106043536Y-54815312D01*
X106020998Y-54881447D01*
X105975946Y-54920484D01*
X105967182Y-54924949D01*
X105795213Y-55049890D01*
X105644890Y-55200213D01*
X105519951Y-55372179D01*
X105423444Y-55561585D01*
X105357753Y-55763760D01*
X105327014Y-55957838D01*
X105324500Y-55973713D01*
X105324500Y-56186287D01*
X105329494Y-56217815D01*
X105350350Y-56349500D01*
X105357754Y-56396243D01*
X105423157Y-56597533D01*
X105423444Y-56598414D01*
X105519951Y-56787820D01*
X105644890Y-56959786D01*
X105795213Y-57110109D01*
X105967182Y-57235050D01*
X105975946Y-57239516D01*
X106026742Y-57287491D01*
X106043536Y-57355312D01*
X106020998Y-57421447D01*
X105975946Y-57460484D01*
X105967182Y-57464949D01*
X105795213Y-57589890D01*
X105644890Y-57740213D01*
X105519951Y-57912179D01*
X105423444Y-58101585D01*
X105357753Y-58303760D01*
X105324500Y-58513713D01*
X105324500Y-58731159D01*
X105322152Y-58731159D01*
X105309772Y-58790080D01*
X105260718Y-58839834D01*
X105192552Y-58855170D01*
X105126916Y-58831217D01*
X105097419Y-58800317D01*
X105035626Y-58707838D01*
X105035623Y-58707834D01*
X104917162Y-58589373D01*
X104777860Y-58496295D01*
X104623082Y-58432184D01*
X104623074Y-58432182D01*
X104458771Y-58399500D01*
X104458767Y-58399500D01*
X104291233Y-58399500D01*
X104291228Y-58399500D01*
X104126925Y-58432182D01*
X104126917Y-58432184D01*
X103972139Y-58496295D01*
X103832837Y-58589373D01*
X103714373Y-58707837D01*
X103621295Y-58847139D01*
X103557184Y-59001917D01*
X103557182Y-59001925D01*
X103524500Y-59166228D01*
X48248291Y-59166228D01*
X48254748Y-59133767D01*
X48254748Y-58966233D01*
X48222064Y-58801918D01*
X48157951Y-58647137D01*
X48068800Y-58513713D01*
X48064874Y-58507837D01*
X47946410Y-58389373D01*
X47807108Y-58296295D01*
X47652330Y-58232184D01*
X47652322Y-58232182D01*
X47488019Y-58199500D01*
X47488015Y-58199500D01*
X47320481Y-58199500D01*
X47320476Y-58199500D01*
X47156173Y-58232182D01*
X47156165Y-58232184D01*
X47001387Y-58296295D01*
X46862085Y-58389373D01*
X46743621Y-58507837D01*
X46650543Y-58647139D01*
X46586432Y-58801917D01*
X46586430Y-58801925D01*
X46553748Y-58966228D01*
X38772625Y-58966228D01*
X38802863Y-58953703D01*
X38942162Y-58860626D01*
X39060626Y-58742162D01*
X39153703Y-58602863D01*
X39217816Y-58448082D01*
X39250500Y-58283767D01*
X39250500Y-58116233D01*
X39232539Y-58025935D01*
X39238766Y-57956344D01*
X39281629Y-57901166D01*
X39285201Y-57898685D01*
X39342162Y-57860626D01*
X39460626Y-57742162D01*
X39553703Y-57602863D01*
X39617816Y-57448082D01*
X39650500Y-57283767D01*
X39650500Y-57116233D01*
X39617816Y-56951918D01*
X39553703Y-56797137D01*
X39509905Y-56731589D01*
X39489028Y-56664914D01*
X39507512Y-56597533D01*
X39559491Y-56550843D01*
X39628461Y-56539667D01*
X39666364Y-56551721D01*
X39666509Y-56551372D01*
X39670624Y-56553076D01*
X39671465Y-56553344D01*
X39672136Y-56553703D01*
X39736249Y-56580259D01*
X39826918Y-56617816D01*
X39987377Y-56649733D01*
X39991228Y-56650499D01*
X39991232Y-56650500D01*
X40061009Y-56650500D01*
X40128048Y-56670185D01*
X40173803Y-56722989D01*
X40180059Y-56742357D01*
X40180415Y-56742250D01*
X40182184Y-56748082D01*
X40246295Y-56902860D01*
X40339373Y-57042162D01*
X40457837Y-57160626D01*
X40550494Y-57222537D01*
X40597137Y-57253703D01*
X40751918Y-57317816D01*
X40887034Y-57344692D01*
X40916228Y-57350499D01*
X40916232Y-57350500D01*
X40916233Y-57350500D01*
X41083768Y-57350500D01*
X41083769Y-57350499D01*
X41248082Y-57317816D01*
X41402863Y-57253703D01*
X41542162Y-57160626D01*
X41660626Y-57042162D01*
X41753703Y-56902863D01*
X41817816Y-56748082D01*
X41850500Y-56583767D01*
X41850500Y-56416233D01*
X41850499Y-56416228D01*
X46399500Y-56416228D01*
X46399500Y-56583771D01*
X46432182Y-56748074D01*
X46432184Y-56748082D01*
X46496295Y-56902860D01*
X46589373Y-57042162D01*
X46707837Y-57160626D01*
X46800494Y-57222537D01*
X46847137Y-57253703D01*
X47001918Y-57317816D01*
X47137034Y-57344692D01*
X47166228Y-57350499D01*
X47166232Y-57350500D01*
X47166233Y-57350500D01*
X47333768Y-57350500D01*
X47333769Y-57350499D01*
X47498082Y-57317816D01*
X47652863Y-57253703D01*
X47792162Y-57160626D01*
X47910626Y-57042162D01*
X48003703Y-56902863D01*
X48067816Y-56748082D01*
X48100500Y-56583767D01*
X48100500Y-56416233D01*
X48067816Y-56251918D01*
X48003703Y-56097137D01*
X47940709Y-56002860D01*
X47910626Y-55957837D01*
X47792162Y-55839373D01*
X47652860Y-55746295D01*
X47498082Y-55682184D01*
X47498074Y-55682182D01*
X47333771Y-55649500D01*
X47333767Y-55649500D01*
X47166233Y-55649500D01*
X47166228Y-55649500D01*
X47001925Y-55682182D01*
X47001917Y-55682184D01*
X46847139Y-55746295D01*
X46707837Y-55839373D01*
X46589373Y-55957837D01*
X46496295Y-56097139D01*
X46432184Y-56251917D01*
X46432182Y-56251925D01*
X46399500Y-56416228D01*
X41850499Y-56416228D01*
X41817816Y-56251918D01*
X41753703Y-56097137D01*
X41690709Y-56002860D01*
X41660626Y-55957837D01*
X41542162Y-55839373D01*
X41402860Y-55746295D01*
X41248082Y-55682184D01*
X41248074Y-55682182D01*
X41083771Y-55649500D01*
X41083767Y-55649500D01*
X41013990Y-55649500D01*
X40946951Y-55629815D01*
X40901196Y-55577011D01*
X40894940Y-55557639D01*
X40894584Y-55557748D01*
X40892817Y-55551925D01*
X40892816Y-55551918D01*
X40828703Y-55397137D01*
X40775702Y-55317815D01*
X40735626Y-55257837D01*
X40617162Y-55139373D01*
X40477860Y-55046295D01*
X40323082Y-54982184D01*
X40323074Y-54982182D01*
X40158771Y-54949500D01*
X40158767Y-54949500D01*
X39991233Y-54949500D01*
X39991228Y-54949500D01*
X39826925Y-54982182D01*
X39826917Y-54982184D01*
X39672139Y-55046295D01*
X39532837Y-55139373D01*
X39414373Y-55257837D01*
X39321295Y-55397139D01*
X39257184Y-55551917D01*
X39257182Y-55551925D01*
X39224500Y-55716228D01*
X39224500Y-55883771D01*
X39257182Y-56048074D01*
X39257184Y-56048082D01*
X39321295Y-56202860D01*
X39321296Y-56202862D01*
X39321297Y-56202863D01*
X39353126Y-56250499D01*
X39365093Y-56268408D01*
X39385971Y-56335086D01*
X39367486Y-56402466D01*
X39315507Y-56449156D01*
X39246537Y-56460332D01*
X39208635Y-56448279D01*
X39208491Y-56448628D01*
X39204389Y-56446929D01*
X39203540Y-56446659D01*
X39202860Y-56446295D01*
X39048082Y-56382184D01*
X39048074Y-56382182D01*
X38883771Y-56349500D01*
X38883767Y-56349500D01*
X38716233Y-56349500D01*
X38716228Y-56349500D01*
X38551925Y-56382182D01*
X38551917Y-56382184D01*
X38397139Y-56446295D01*
X38257837Y-56539373D01*
X38139373Y-56657837D01*
X38046295Y-56797139D01*
X37982184Y-56951917D01*
X37982182Y-56951925D01*
X37949500Y-57116228D01*
X37949500Y-57283771D01*
X37967460Y-57374063D01*
X37961233Y-57443655D01*
X37918369Y-57498832D01*
X37914735Y-57501355D01*
X37857840Y-57539371D01*
X37857834Y-57539376D01*
X37739373Y-57657837D01*
X37646295Y-57797139D01*
X37582184Y-57951917D01*
X37582182Y-57951925D01*
X37549500Y-58116228D01*
X26300500Y-58116228D01*
X26300500Y-52666228D01*
X26774500Y-52666228D01*
X26774500Y-52833771D01*
X26807182Y-52998074D01*
X26807184Y-52998082D01*
X26871295Y-53152860D01*
X26964373Y-53292162D01*
X27082837Y-53410626D01*
X27175494Y-53472537D01*
X27222137Y-53503703D01*
X27376918Y-53567816D01*
X27453233Y-53582995D01*
X27483729Y-53589062D01*
X27545640Y-53621446D01*
X27580214Y-53682162D01*
X27582011Y-53730076D01*
X27570483Y-53802863D01*
X27564800Y-53838745D01*
X27564800Y-54061455D01*
X27565978Y-54068891D01*
X27599640Y-54281424D01*
X27599640Y-54281427D01*
X27668459Y-54493230D01*
X27668461Y-54493233D01*
X27743676Y-54640851D01*
X27756572Y-54709519D01*
X27730296Y-54774260D01*
X27680645Y-54811706D01*
X27597137Y-54846296D01*
X27457837Y-54939373D01*
X27339373Y-55057837D01*
X27246295Y-55197139D01*
X27182184Y-55351917D01*
X27182182Y-55351925D01*
X27149500Y-55516228D01*
X27149500Y-55683771D01*
X27182182Y-55848074D01*
X27182184Y-55848082D01*
X27246295Y-56002860D01*
X27339373Y-56142162D01*
X27457837Y-56260626D01*
X27550494Y-56322537D01*
X27597137Y-56353703D01*
X27751918Y-56417816D01*
X27895093Y-56446295D01*
X27916228Y-56450499D01*
X27916232Y-56450500D01*
X27916233Y-56450500D01*
X28083768Y-56450500D01*
X28083769Y-56450499D01*
X28248082Y-56417816D01*
X28402863Y-56353703D01*
X28542162Y-56260626D01*
X28660626Y-56142162D01*
X28753703Y-56002863D01*
X28817816Y-55848082D01*
X28850500Y-55683767D01*
X28850500Y-55516233D01*
X28849896Y-55513196D01*
X28850041Y-55511572D01*
X28849903Y-55510170D01*
X28850168Y-55510143D01*
X28856120Y-55443605D01*
X28898981Y-55388425D01*
X28964870Y-55365178D01*
X28971512Y-55365000D01*
X29091054Y-55365000D01*
X29091055Y-55365000D01*
X29311023Y-55330160D01*
X29311026Y-55330159D01*
X29311027Y-55330159D01*
X29522830Y-55261340D01*
X29522830Y-55261339D01*
X29522833Y-55261339D01*
X29721269Y-55160231D01*
X29781834Y-55116228D01*
X32749500Y-55116228D01*
X32749500Y-55283771D01*
X32782182Y-55448074D01*
X32782184Y-55448082D01*
X32846295Y-55602860D01*
X32939373Y-55742162D01*
X33057837Y-55860626D01*
X33150494Y-55922537D01*
X33197137Y-55953703D01*
X33197138Y-55953703D01*
X33197139Y-55953704D01*
X33232201Y-55968227D01*
X33351918Y-56017816D01*
X33504037Y-56048074D01*
X33516228Y-56050499D01*
X33516232Y-56050500D01*
X33516233Y-56050500D01*
X33683768Y-56050500D01*
X33683769Y-56050499D01*
X33848082Y-56017816D01*
X34002863Y-55953703D01*
X34142162Y-55860626D01*
X34260626Y-55742162D01*
X34353703Y-55602863D01*
X34417816Y-55448082D01*
X34450500Y-55283767D01*
X34450500Y-55116233D01*
X34417816Y-54951918D01*
X34374066Y-54846296D01*
X34353705Y-54797141D01*
X34353704Y-54797139D01*
X34353703Y-54797137D01*
X34299641Y-54716228D01*
X49149499Y-54716228D01*
X49149499Y-54883771D01*
X49182181Y-55048074D01*
X49182183Y-55048082D01*
X49246294Y-55202860D01*
X49339372Y-55342162D01*
X49457836Y-55460626D01*
X49534083Y-55511572D01*
X49597136Y-55553703D01*
X49597137Y-55553703D01*
X49597138Y-55553704D01*
X49616172Y-55561588D01*
X49751917Y-55617816D01*
X49904036Y-55648074D01*
X49916227Y-55650499D01*
X49916231Y-55650500D01*
X49916232Y-55650500D01*
X50083767Y-55650500D01*
X50083768Y-55650499D01*
X50248081Y-55617816D01*
X50402862Y-55553703D01*
X50542161Y-55460626D01*
X50660625Y-55342162D01*
X50753702Y-55202863D01*
X50817815Y-55048082D01*
X50850499Y-54883767D01*
X50850499Y-54716233D01*
X50817815Y-54551918D01*
X50761611Y-54416232D01*
X50757530Y-54406379D01*
X54774500Y-54406379D01*
X54774500Y-54593620D01*
X54811025Y-54777243D01*
X54811027Y-54777251D01*
X54882676Y-54950228D01*
X54882681Y-54950237D01*
X54986697Y-55105907D01*
X54986700Y-55105911D01*
X55119088Y-55238299D01*
X55119092Y-55238302D01*
X55274762Y-55342318D01*
X55274771Y-55342323D01*
X55301243Y-55353288D01*
X55447749Y-55413973D01*
X55619188Y-55448074D01*
X55631379Y-55450499D01*
X55631383Y-55450500D01*
X55631384Y-55450500D01*
X55818617Y-55450500D01*
X55818618Y-55450499D01*
X56002251Y-55413973D01*
X56175231Y-55342322D01*
X56330908Y-55238302D01*
X56463302Y-55105908D01*
X56567322Y-54950231D01*
X56638973Y-54777251D01*
X56675500Y-54593616D01*
X56675500Y-54406384D01*
X56638973Y-54222749D01*
X56567322Y-54049769D01*
X56567321Y-54049768D01*
X56567318Y-54049762D01*
X56463302Y-53894092D01*
X56463299Y-53894088D01*
X56330911Y-53761700D01*
X56330907Y-53761697D01*
X56175237Y-53657681D01*
X56175228Y-53657676D01*
X56002251Y-53586027D01*
X56002243Y-53586025D01*
X55818620Y-53549500D01*
X55818616Y-53549500D01*
X55631384Y-53549500D01*
X55631379Y-53549500D01*
X55447756Y-53586025D01*
X55447748Y-53586027D01*
X55274771Y-53657676D01*
X55274762Y-53657681D01*
X55119092Y-53761697D01*
X55119088Y-53761700D01*
X54986700Y-53894088D01*
X54986697Y-53894092D01*
X54882681Y-54049762D01*
X54882676Y-54049771D01*
X54811027Y-54222748D01*
X54811025Y-54222756D01*
X54774500Y-54406379D01*
X50757530Y-54406379D01*
X50753703Y-54397139D01*
X50743710Y-54382184D01*
X50676385Y-54281424D01*
X50660625Y-54257837D01*
X50542161Y-54139373D01*
X50402859Y-54046295D01*
X50248081Y-53982184D01*
X50248073Y-53982182D01*
X50083770Y-53949500D01*
X50083766Y-53949500D01*
X49916232Y-53949500D01*
X49916227Y-53949500D01*
X49751924Y-53982182D01*
X49751916Y-53982184D01*
X49597138Y-54046295D01*
X49457836Y-54139373D01*
X49339372Y-54257837D01*
X49246294Y-54397139D01*
X49182183Y-54551917D01*
X49182181Y-54551925D01*
X49149499Y-54716228D01*
X34299641Y-54716228D01*
X34283231Y-54691669D01*
X34260629Y-54657842D01*
X34260623Y-54657834D01*
X34142162Y-54539373D01*
X34002860Y-54446295D01*
X33848082Y-54382184D01*
X33848074Y-54382182D01*
X33683771Y-54349500D01*
X33683767Y-54349500D01*
X33516233Y-54349500D01*
X33516228Y-54349500D01*
X33351925Y-54382182D01*
X33351917Y-54382184D01*
X33197139Y-54446295D01*
X33057837Y-54539373D01*
X32939373Y-54657837D01*
X32846295Y-54797139D01*
X32782184Y-54951917D01*
X32782182Y-54951925D01*
X32749500Y-55116228D01*
X29781834Y-55116228D01*
X29901445Y-55029325D01*
X30058925Y-54871845D01*
X30189831Y-54691669D01*
X30290939Y-54493233D01*
X30319158Y-54406383D01*
X30359759Y-54281427D01*
X30359759Y-54281426D01*
X30359760Y-54281423D01*
X30394600Y-54061455D01*
X30394600Y-53838745D01*
X30359760Y-53618777D01*
X30359759Y-53618773D01*
X30359759Y-53618772D01*
X30304421Y-53448459D01*
X30293948Y-53416228D01*
X60149500Y-53416228D01*
X60149500Y-53583771D01*
X60182182Y-53748074D01*
X60182184Y-53748082D01*
X60246295Y-53902859D01*
X60246302Y-53902872D01*
X60265170Y-53931111D01*
X60286047Y-53997789D01*
X60267561Y-54065168D01*
X60265170Y-54068889D01*
X60246302Y-54097127D01*
X60246295Y-54097140D01*
X60182184Y-54251917D01*
X60182182Y-54251925D01*
X60149500Y-54416228D01*
X60149500Y-54583771D01*
X60182182Y-54748074D01*
X60182184Y-54748082D01*
X60246295Y-54902860D01*
X60339373Y-55042162D01*
X60457837Y-55160626D01*
X60550494Y-55222537D01*
X60597137Y-55253703D01*
X60597138Y-55253703D01*
X60597139Y-55253704D01*
X60615572Y-55261339D01*
X60751918Y-55317816D01*
X60916228Y-55350499D01*
X60916232Y-55350500D01*
X60916233Y-55350500D01*
X61083768Y-55350500D01*
X61083769Y-55350499D01*
X61248082Y-55317816D01*
X61251916Y-55316228D01*
X63899500Y-55316228D01*
X63899500Y-55483771D01*
X63932182Y-55648074D01*
X63932184Y-55648082D01*
X63996295Y-55802860D01*
X64089373Y-55942162D01*
X64207837Y-56060626D01*
X64262480Y-56097137D01*
X64347137Y-56153703D01*
X64501918Y-56217816D01*
X64666228Y-56250499D01*
X64666232Y-56250500D01*
X64666233Y-56250500D01*
X64833768Y-56250500D01*
X64833769Y-56250499D01*
X64998082Y-56217816D01*
X65152863Y-56153703D01*
X65292162Y-56060626D01*
X65410626Y-55942162D01*
X65503703Y-55802863D01*
X65567816Y-55648082D01*
X65580951Y-55582045D01*
X65613335Y-55520137D01*
X65674050Y-55485562D01*
X65743820Y-55489301D01*
X65771456Y-55503134D01*
X65847137Y-55553703D01*
X65847138Y-55553703D01*
X65847139Y-55553704D01*
X65866173Y-55561588D01*
X66001918Y-55617816D01*
X66154037Y-55648074D01*
X66166228Y-55650499D01*
X66166232Y-55650500D01*
X66166233Y-55650500D01*
X66333768Y-55650500D01*
X66333769Y-55650499D01*
X66498082Y-55617816D01*
X66652863Y-55553703D01*
X66792162Y-55460626D01*
X66910626Y-55342162D01*
X67003703Y-55202863D01*
X67067816Y-55048082D01*
X67100500Y-54883767D01*
X67100500Y-54716233D01*
X67067816Y-54551918D01*
X67011612Y-54416232D01*
X67007531Y-54406379D01*
X71924500Y-54406379D01*
X71924500Y-54593620D01*
X71961025Y-54777243D01*
X71961027Y-54777251D01*
X72032676Y-54950228D01*
X72032681Y-54950237D01*
X72136697Y-55105907D01*
X72136700Y-55105911D01*
X72269088Y-55238299D01*
X72269092Y-55238302D01*
X72424762Y-55342318D01*
X72424771Y-55342323D01*
X72451243Y-55353288D01*
X72597749Y-55413973D01*
X72769188Y-55448074D01*
X72781379Y-55450499D01*
X72781383Y-55450500D01*
X72781384Y-55450500D01*
X72968617Y-55450500D01*
X72968618Y-55450499D01*
X73152251Y-55413973D01*
X73325231Y-55342322D01*
X73480908Y-55238302D01*
X73613302Y-55105908D01*
X73717322Y-54950231D01*
X73788973Y-54777251D01*
X73825500Y-54593616D01*
X73825500Y-54406384D01*
X73788973Y-54222749D01*
X73717322Y-54049769D01*
X73717321Y-54049768D01*
X73717318Y-54049762D01*
X73613302Y-53894092D01*
X73613299Y-53894088D01*
X73480911Y-53761700D01*
X73480907Y-53761697D01*
X73325237Y-53657681D01*
X73325228Y-53657676D01*
X73152251Y-53586027D01*
X73152243Y-53586025D01*
X72968620Y-53549500D01*
X72968616Y-53549500D01*
X72781384Y-53549500D01*
X72781379Y-53549500D01*
X72597756Y-53586025D01*
X72597748Y-53586027D01*
X72424771Y-53657676D01*
X72424762Y-53657681D01*
X72269092Y-53761697D01*
X72269088Y-53761700D01*
X72136700Y-53894088D01*
X72136697Y-53894092D01*
X72032681Y-54049762D01*
X72032676Y-54049771D01*
X71961027Y-54222748D01*
X71961025Y-54222756D01*
X71924500Y-54406379D01*
X67007531Y-54406379D01*
X67003704Y-54397139D01*
X66993711Y-54382184D01*
X66926386Y-54281424D01*
X66910626Y-54257837D01*
X66792162Y-54139373D01*
X66652860Y-54046295D01*
X66498082Y-53982184D01*
X66498074Y-53982182D01*
X66333771Y-53949500D01*
X66333767Y-53949500D01*
X66166233Y-53949500D01*
X66166228Y-53949500D01*
X66001925Y-53982182D01*
X66001917Y-53982184D01*
X65847139Y-54046295D01*
X65707837Y-54139373D01*
X65589373Y-54257837D01*
X65496295Y-54397139D01*
X65432184Y-54551917D01*
X65432182Y-54551923D01*
X65419048Y-54617953D01*
X65386663Y-54679864D01*
X65325947Y-54714438D01*
X65256177Y-54710697D01*
X65228540Y-54696863D01*
X65152860Y-54646295D01*
X64998082Y-54582184D01*
X64998074Y-54582182D01*
X64833771Y-54549500D01*
X64833767Y-54549500D01*
X64666233Y-54549500D01*
X64666228Y-54549500D01*
X64501925Y-54582182D01*
X64501917Y-54582184D01*
X64347139Y-54646295D01*
X64207837Y-54739373D01*
X64089373Y-54857837D01*
X63996295Y-54997139D01*
X63932184Y-55151917D01*
X63932182Y-55151925D01*
X63899500Y-55316228D01*
X61251916Y-55316228D01*
X61402863Y-55253703D01*
X61542162Y-55160626D01*
X61660626Y-55042162D01*
X61753703Y-54902863D01*
X61817816Y-54748082D01*
X61850500Y-54583767D01*
X61850500Y-54416233D01*
X61817816Y-54251918D01*
X61753703Y-54097137D01*
X61734828Y-54068889D01*
X61713951Y-54002214D01*
X61732435Y-53934834D01*
X61734829Y-53931109D01*
X61753703Y-53902863D01*
X61817816Y-53748082D01*
X61850500Y-53583767D01*
X61850500Y-53416233D01*
X61834209Y-53334331D01*
X61834209Y-53334328D01*
X61830609Y-53316228D01*
X66949500Y-53316228D01*
X66949500Y-53483771D01*
X66982182Y-53648074D01*
X66982184Y-53648082D01*
X67046295Y-53802860D01*
X67139373Y-53942162D01*
X67257837Y-54060626D01*
X67350494Y-54122537D01*
X67397137Y-54153703D01*
X67551918Y-54217816D01*
X67702740Y-54247816D01*
X67716228Y-54250499D01*
X67716232Y-54250500D01*
X67716233Y-54250500D01*
X67883768Y-54250500D01*
X67883769Y-54250499D01*
X68048082Y-54217816D01*
X68202863Y-54153703D01*
X68342162Y-54060626D01*
X68460626Y-53942162D01*
X68553703Y-53802863D01*
X68617816Y-53648082D01*
X68650500Y-53483767D01*
X68650500Y-53316233D01*
X68617816Y-53151918D01*
X68566789Y-53028728D01*
X82149500Y-53028728D01*
X82149500Y-53196271D01*
X82182182Y-53360574D01*
X82182184Y-53360582D01*
X82246295Y-53515360D01*
X82339373Y-53654662D01*
X82457837Y-53773126D01*
X82502342Y-53802863D01*
X82597137Y-53866203D01*
X82751918Y-53930316D01*
X82916228Y-53962999D01*
X82916232Y-53963000D01*
X82916233Y-53963000D01*
X83083768Y-53963000D01*
X83083769Y-53962999D01*
X83248082Y-53930316D01*
X83402863Y-53866203D01*
X83443957Y-53838745D01*
X99205100Y-53838745D01*
X99205100Y-54061455D01*
X99206278Y-54068891D01*
X99239940Y-54281424D01*
X99239940Y-54281427D01*
X99308759Y-54493230D01*
X99372309Y-54617953D01*
X99409869Y-54691669D01*
X99540775Y-54871845D01*
X99698255Y-55029325D01*
X99878431Y-55160231D01*
X100069994Y-55257837D01*
X100076869Y-55261340D01*
X100288673Y-55330159D01*
X100288674Y-55330159D01*
X100288677Y-55330160D01*
X100508645Y-55365000D01*
X100508646Y-55365000D01*
X100731354Y-55365000D01*
X100731355Y-55365000D01*
X100951323Y-55330160D01*
X100951326Y-55330159D01*
X100951327Y-55330159D01*
X101163130Y-55261340D01*
X101163130Y-55261339D01*
X101163133Y-55261339D01*
X101361569Y-55160231D01*
X101541745Y-55029325D01*
X101699225Y-54871845D01*
X101830131Y-54691669D01*
X101931239Y-54493233D01*
X101959458Y-54406383D01*
X102000059Y-54281427D01*
X102000059Y-54281426D01*
X102000060Y-54281423D01*
X102034900Y-54061455D01*
X102034900Y-53838745D01*
X102000060Y-53618777D01*
X102000059Y-53618773D01*
X102000059Y-53618772D01*
X101931240Y-53406969D01*
X101894229Y-53334331D01*
X101830131Y-53208531D01*
X101699225Y-53028355D01*
X101541745Y-52870875D01*
X101361569Y-52739969D01*
X101302039Y-52709637D01*
X101163130Y-52638859D01*
X100951326Y-52570040D01*
X100786347Y-52543910D01*
X100731355Y-52535200D01*
X100508645Y-52535200D01*
X100438658Y-52546285D01*
X100288675Y-52570040D01*
X100288672Y-52570040D01*
X100076869Y-52638859D01*
X99878430Y-52739969D01*
X99775633Y-52814656D01*
X99698255Y-52870875D01*
X99698253Y-52870877D01*
X99698252Y-52870877D01*
X99540777Y-53028352D01*
X99540777Y-53028353D01*
X99540775Y-53028355D01*
X99512106Y-53067815D01*
X99409869Y-53208530D01*
X99308759Y-53406969D01*
X99239940Y-53618772D01*
X99239940Y-53618775D01*
X99222312Y-53730076D01*
X99205100Y-53838745D01*
X83443957Y-53838745D01*
X83542162Y-53773126D01*
X83553591Y-53761697D01*
X83569097Y-53746192D01*
X83660623Y-53654665D01*
X83660626Y-53654662D01*
X83682820Y-53621446D01*
X83753703Y-53515363D01*
X83817816Y-53360582D01*
X83850500Y-53196267D01*
X83850500Y-53028733D01*
X83817816Y-52864418D01*
X83753703Y-52709637D01*
X83713521Y-52649500D01*
X83660626Y-52570337D01*
X83542162Y-52451873D01*
X83402860Y-52358795D01*
X83248082Y-52294684D01*
X83248074Y-52294682D01*
X83083771Y-52262000D01*
X83083767Y-52262000D01*
X82916233Y-52262000D01*
X82916228Y-52262000D01*
X82751925Y-52294682D01*
X82751917Y-52294684D01*
X82597139Y-52358795D01*
X82457837Y-52451873D01*
X82339373Y-52570337D01*
X82246295Y-52709639D01*
X82182184Y-52864417D01*
X82182182Y-52864425D01*
X82149500Y-53028728D01*
X68566789Y-53028728D01*
X68556423Y-53003703D01*
X68553704Y-52997139D01*
X68460626Y-52857837D01*
X68342162Y-52739373D01*
X68202860Y-52646295D01*
X68048082Y-52582184D01*
X68048074Y-52582182D01*
X67883771Y-52549500D01*
X67883767Y-52549500D01*
X67716233Y-52549500D01*
X67716228Y-52549500D01*
X67551925Y-52582182D01*
X67551917Y-52582184D01*
X67397139Y-52646295D01*
X67257837Y-52739373D01*
X67139373Y-52857837D01*
X67046295Y-52997139D01*
X66982184Y-53151917D01*
X66982182Y-53151925D01*
X66949500Y-53316228D01*
X61830609Y-53316228D01*
X61817817Y-53251923D01*
X61817816Y-53251922D01*
X61817816Y-53251918D01*
X61753703Y-53097137D01*
X61707996Y-53028732D01*
X61660626Y-52957837D01*
X61542162Y-52839373D01*
X61402860Y-52746295D01*
X61248082Y-52682184D01*
X61248074Y-52682182D01*
X61083771Y-52649500D01*
X61083767Y-52649500D01*
X60916233Y-52649500D01*
X60916228Y-52649500D01*
X60751925Y-52682182D01*
X60751917Y-52682184D01*
X60597139Y-52746295D01*
X60457837Y-52839373D01*
X60339373Y-52957837D01*
X60246295Y-53097139D01*
X60182184Y-53251917D01*
X60182182Y-53251925D01*
X60149500Y-53416228D01*
X30293948Y-53416228D01*
X30290940Y-53406969D01*
X30253929Y-53334331D01*
X30189831Y-53208531D01*
X30058925Y-53028355D01*
X29901445Y-52870875D01*
X29721269Y-52739969D01*
X29661739Y-52709637D01*
X29522830Y-52638859D01*
X29311026Y-52570040D01*
X29146047Y-52543910D01*
X29091055Y-52535200D01*
X28868345Y-52535200D01*
X28824351Y-52542168D01*
X28648373Y-52570040D01*
X28600337Y-52585648D01*
X28530496Y-52587643D01*
X28470663Y-52551562D01*
X28445472Y-52507411D01*
X28445147Y-52507546D01*
X28444081Y-52504973D01*
X28443356Y-52503702D01*
X28442817Y-52501925D01*
X28442816Y-52501918D01*
X28378703Y-52347137D01*
X28369770Y-52333768D01*
X28299791Y-52229036D01*
X28299788Y-52229033D01*
X28285626Y-52207838D01*
X28285625Y-52207837D01*
X28285623Y-52207834D01*
X28244017Y-52166228D01*
X56649500Y-52166228D01*
X56649500Y-52333771D01*
X56682182Y-52498074D01*
X56682184Y-52498082D01*
X56746295Y-52652860D01*
X56839373Y-52792162D01*
X56957837Y-52910626D01*
X57028494Y-52957837D01*
X57097137Y-53003703D01*
X57251918Y-53067816D01*
X57399326Y-53097137D01*
X57416228Y-53100499D01*
X57416232Y-53100500D01*
X57416233Y-53100500D01*
X57583768Y-53100500D01*
X57583769Y-53100499D01*
X57748082Y-53067816D01*
X57902863Y-53003703D01*
X58042162Y-52910626D01*
X58160626Y-52792162D01*
X58253703Y-52652863D01*
X58317816Y-52498082D01*
X58350500Y-52333767D01*
X58350500Y-52166233D01*
X58317816Y-52001918D01*
X58253703Y-51847137D01*
X58222537Y-51800494D01*
X58160626Y-51707837D01*
X58042162Y-51589373D01*
X57902860Y-51496295D01*
X57748082Y-51432184D01*
X57748074Y-51432182D01*
X57583771Y-51399500D01*
X57583767Y-51399500D01*
X57416233Y-51399500D01*
X57416228Y-51399500D01*
X57251925Y-51432182D01*
X57251917Y-51432184D01*
X57097139Y-51496295D01*
X56957837Y-51589373D01*
X56839373Y-51707837D01*
X56746295Y-51847139D01*
X56682184Y-52001917D01*
X56682182Y-52001925D01*
X56649500Y-52166228D01*
X28244017Y-52166228D01*
X28167162Y-52089373D01*
X28027860Y-51996295D01*
X27873082Y-51932184D01*
X27873074Y-51932182D01*
X27708771Y-51899500D01*
X27708767Y-51899500D01*
X27541233Y-51899500D01*
X27541228Y-51899500D01*
X27376925Y-51932182D01*
X27376917Y-51932184D01*
X27222139Y-51996295D01*
X27082837Y-52089373D01*
X26964373Y-52207837D01*
X26871295Y-52347139D01*
X26807184Y-52501917D01*
X26807182Y-52501925D01*
X26774500Y-52666228D01*
X26300500Y-52666228D01*
X26300500Y-50516228D01*
X46399500Y-50516228D01*
X46399500Y-50683771D01*
X46432182Y-50848074D01*
X46432184Y-50848082D01*
X46496295Y-51002860D01*
X46589373Y-51142162D01*
X46707837Y-51260626D01*
X46793430Y-51317817D01*
X46847137Y-51353703D01*
X46847138Y-51353703D01*
X46847139Y-51353704D01*
X46878495Y-51366692D01*
X47001918Y-51417816D01*
X47166228Y-51450499D01*
X47166232Y-51450500D01*
X47166233Y-51450500D01*
X47333768Y-51450500D01*
X47333769Y-51450499D01*
X47498082Y-51417816D01*
X47652863Y-51353703D01*
X47792162Y-51260626D01*
X47910626Y-51142162D01*
X48003703Y-51002863D01*
X48067816Y-50848082D01*
X48100500Y-50683767D01*
X48100500Y-50516233D01*
X48067816Y-50351918D01*
X48010843Y-50214374D01*
X48003704Y-50197139D01*
X47910626Y-50057837D01*
X47792162Y-49939373D01*
X47652860Y-49846295D01*
X47498082Y-49782184D01*
X47498074Y-49782182D01*
X47333771Y-49749500D01*
X47333767Y-49749500D01*
X47166233Y-49749500D01*
X47166228Y-49749500D01*
X47001925Y-49782182D01*
X47001917Y-49782184D01*
X46847139Y-49846295D01*
X46707837Y-49939373D01*
X46589373Y-50057837D01*
X46496295Y-50197139D01*
X46432184Y-50351917D01*
X46432182Y-50351925D01*
X46399500Y-50516228D01*
X26300500Y-50516228D01*
X26300500Y-49316228D01*
X27349500Y-49316228D01*
X27349500Y-49483771D01*
X27382182Y-49648074D01*
X27382184Y-49648082D01*
X27446295Y-49802860D01*
X27539373Y-49942162D01*
X27657837Y-50060626D01*
X27746627Y-50119953D01*
X27797137Y-50153703D01*
X27951918Y-50217816D01*
X28116228Y-50250499D01*
X28116232Y-50250500D01*
X28116233Y-50250500D01*
X28283768Y-50250500D01*
X28283769Y-50250499D01*
X28448082Y-50217816D01*
X28602863Y-50153703D01*
X28742162Y-50060626D01*
X28860626Y-49942162D01*
X28896898Y-49887876D01*
X28950509Y-49843072D01*
X29019834Y-49834365D01*
X29082862Y-49864519D01*
X29103100Y-49887875D01*
X29125745Y-49921765D01*
X29139375Y-49942164D01*
X29257837Y-50060626D01*
X29346627Y-50119953D01*
X29397137Y-50153703D01*
X29551918Y-50217816D01*
X29716228Y-50250499D01*
X29716232Y-50250500D01*
X29716233Y-50250500D01*
X29883768Y-50250500D01*
X29883769Y-50250499D01*
X30048082Y-50217816D01*
X30202863Y-50153703D01*
X30342162Y-50060626D01*
X30460626Y-49942162D01*
X30496898Y-49887876D01*
X30550509Y-49843072D01*
X30619834Y-49834365D01*
X30682862Y-49864519D01*
X30703100Y-49887875D01*
X30725745Y-49921765D01*
X30739375Y-49942164D01*
X30857837Y-50060626D01*
X30946627Y-50119953D01*
X30997137Y-50153703D01*
X31151918Y-50217816D01*
X31316228Y-50250499D01*
X31316232Y-50250500D01*
X31316233Y-50250500D01*
X31483768Y-50250500D01*
X31483769Y-50250499D01*
X31648082Y-50217816D01*
X31802863Y-50153703D01*
X31942162Y-50060626D01*
X32060626Y-49942162D01*
X32096898Y-49887876D01*
X32150509Y-49843072D01*
X32219834Y-49834365D01*
X32282862Y-49864519D01*
X32303100Y-49887875D01*
X32325745Y-49921765D01*
X32339375Y-49942164D01*
X32457837Y-50060626D01*
X32546627Y-50119953D01*
X32597137Y-50153703D01*
X32751918Y-50217816D01*
X32916228Y-50250499D01*
X32916232Y-50250500D01*
X32916233Y-50250500D01*
X33083768Y-50250500D01*
X33083769Y-50250499D01*
X33248082Y-50217816D01*
X33402863Y-50153703D01*
X33542162Y-50060626D01*
X33660626Y-49942162D01*
X33696898Y-49887876D01*
X33750509Y-49843072D01*
X33819834Y-49834365D01*
X33882862Y-49864519D01*
X33903100Y-49887875D01*
X33925745Y-49921765D01*
X33939375Y-49942164D01*
X34057837Y-50060626D01*
X34146627Y-50119953D01*
X34197137Y-50153703D01*
X34351918Y-50217816D01*
X34516228Y-50250499D01*
X34516232Y-50250500D01*
X34516233Y-50250500D01*
X34683768Y-50250500D01*
X34683769Y-50250499D01*
X34848082Y-50217816D01*
X35002863Y-50153703D01*
X35142162Y-50060626D01*
X35260626Y-49942162D01*
X35353703Y-49802863D01*
X35417816Y-49648082D01*
X35450500Y-49483767D01*
X35450500Y-49466228D01*
X58399500Y-49466228D01*
X58399500Y-49633771D01*
X58432182Y-49798074D01*
X58432184Y-49798082D01*
X58496295Y-49952860D01*
X58589373Y-50092162D01*
X58707837Y-50210626D01*
X58769646Y-50251925D01*
X58847137Y-50303703D01*
X59001918Y-50367816D01*
X59149326Y-50397137D01*
X59166228Y-50400499D01*
X59166232Y-50400500D01*
X59166233Y-50400500D01*
X59333768Y-50400500D01*
X59333769Y-50400499D01*
X59498082Y-50367816D01*
X59652863Y-50303703D01*
X59792162Y-50210626D01*
X59910626Y-50092162D01*
X60003703Y-49952863D01*
X60061688Y-49812877D01*
X68274827Y-49812877D01*
X68274827Y-49980420D01*
X68307509Y-50144723D01*
X68307511Y-50144731D01*
X68371622Y-50299509D01*
X68464700Y-50438811D01*
X68583164Y-50557275D01*
X68646959Y-50599901D01*
X68722464Y-50650352D01*
X68722465Y-50650352D01*
X68722466Y-50650353D01*
X68722821Y-50650500D01*
X68877245Y-50714465D01*
X69041555Y-50747148D01*
X69041559Y-50747149D01*
X69041560Y-50747149D01*
X69209095Y-50747149D01*
X69209096Y-50747148D01*
X69373409Y-50714465D01*
X69528190Y-50650352D01*
X69667489Y-50557275D01*
X69729712Y-50495051D01*
X69791033Y-50461568D01*
X69860725Y-50466552D01*
X69886280Y-50479630D01*
X69997137Y-50553703D01*
X69997138Y-50553703D01*
X69997139Y-50553704D01*
X70032201Y-50568227D01*
X70151918Y-50617816D01*
X70303720Y-50648011D01*
X70316228Y-50650499D01*
X70316232Y-50650500D01*
X70316233Y-50650500D01*
X70483768Y-50650500D01*
X70483769Y-50650499D01*
X70648082Y-50617816D01*
X70802863Y-50553703D01*
X70942162Y-50460626D01*
X71060626Y-50342162D01*
X71153703Y-50202863D01*
X71184710Y-50128005D01*
X71228551Y-50073602D01*
X71294845Y-50051537D01*
X71362544Y-50068816D01*
X71410155Y-50119953D01*
X71413832Y-50128005D01*
X71443807Y-50200372D01*
X71536885Y-50339674D01*
X71655349Y-50458138D01*
X71742287Y-50516228D01*
X71794649Y-50551215D01*
X71794650Y-50551215D01*
X71794651Y-50551216D01*
X71800658Y-50553704D01*
X71949430Y-50615328D01*
X72113740Y-50648011D01*
X72113744Y-50648012D01*
X72113745Y-50648012D01*
X72281280Y-50648012D01*
X72281281Y-50648011D01*
X72445594Y-50615328D01*
X72600375Y-50551215D01*
X72739674Y-50458138D01*
X72781584Y-50416228D01*
X77899500Y-50416228D01*
X77899500Y-50583771D01*
X77932182Y-50748074D01*
X77932184Y-50748082D01*
X77996295Y-50902860D01*
X78089373Y-51042162D01*
X78207837Y-51160626D01*
X78271045Y-51202860D01*
X78347137Y-51253703D01*
X78501918Y-51317816D01*
X78624315Y-51342162D01*
X78666228Y-51350499D01*
X78666232Y-51350500D01*
X78666233Y-51350500D01*
X78833768Y-51350500D01*
X78833769Y-51350499D01*
X78998082Y-51317816D01*
X79152588Y-51253816D01*
X79222056Y-51246348D01*
X79284535Y-51277623D01*
X79320188Y-51337712D01*
X79324040Y-51368378D01*
X79324040Y-51534230D01*
X79356722Y-51698533D01*
X79356724Y-51698541D01*
X79420835Y-51853319D01*
X79513913Y-51992621D01*
X79632377Y-52111085D01*
X79714905Y-52166228D01*
X79771677Y-52204162D01*
X79771678Y-52204162D01*
X79771679Y-52204163D01*
X79806741Y-52218686D01*
X79926458Y-52268275D01*
X80090768Y-52300958D01*
X80090772Y-52300959D01*
X80090773Y-52300959D01*
X80258308Y-52300959D01*
X80258309Y-52300958D01*
X80422622Y-52268275D01*
X80577403Y-52204162D01*
X80716702Y-52111085D01*
X80835166Y-51992621D01*
X80928243Y-51853322D01*
X80992356Y-51698541D01*
X81025040Y-51534226D01*
X81025040Y-51366692D01*
X81025040Y-51360600D01*
X81026219Y-51360600D01*
X81038068Y-51298126D01*
X81086133Y-51247416D01*
X81153984Y-51230743D01*
X81220079Y-51253399D01*
X81251553Y-51285729D01*
X81339370Y-51417157D01*
X81339376Y-51417165D01*
X81457837Y-51535626D01*
X81538276Y-51589373D01*
X81597137Y-51628703D01*
X81751918Y-51692816D01*
X81916228Y-51725499D01*
X81916232Y-51725500D01*
X81916233Y-51725500D01*
X82083768Y-51725500D01*
X82083769Y-51725499D01*
X82248082Y-51692816D01*
X82402863Y-51628703D01*
X82542162Y-51535626D01*
X82660626Y-51417162D01*
X82753703Y-51277863D01*
X82817816Y-51123082D01*
X82850500Y-50958767D01*
X82850500Y-50791233D01*
X82817816Y-50626918D01*
X82787489Y-50553704D01*
X82771966Y-50516228D01*
X87549500Y-50516228D01*
X87549500Y-50683771D01*
X87582182Y-50848074D01*
X87582184Y-50848082D01*
X87646295Y-51002860D01*
X87739373Y-51142162D01*
X87857837Y-51260626D01*
X87943430Y-51317817D01*
X87997137Y-51353703D01*
X87997138Y-51353703D01*
X87997139Y-51353704D01*
X88028495Y-51366692D01*
X88151918Y-51417816D01*
X88316228Y-51450499D01*
X88316232Y-51450500D01*
X88316233Y-51450500D01*
X88483768Y-51450500D01*
X88483769Y-51450499D01*
X88648082Y-51417816D01*
X88802863Y-51353703D01*
X88942162Y-51260626D01*
X89060626Y-51142162D01*
X89153703Y-51002863D01*
X89217816Y-50848082D01*
X89244043Y-50716228D01*
X89549500Y-50716228D01*
X89549500Y-50883771D01*
X89582182Y-51048074D01*
X89582184Y-51048082D01*
X89646295Y-51202860D01*
X89739373Y-51342162D01*
X89857837Y-51460626D01*
X89865768Y-51465925D01*
X89997137Y-51553703D01*
X90151918Y-51617816D01*
X90316228Y-51650499D01*
X90316232Y-51650500D01*
X90316233Y-51650500D01*
X90483768Y-51650500D01*
X90483769Y-51650499D01*
X90648082Y-51617816D01*
X90802863Y-51553703D01*
X90942162Y-51460626D01*
X91060626Y-51342162D01*
X91153703Y-51202863D01*
X91217816Y-51048082D01*
X91250500Y-50883767D01*
X91250500Y-50716233D01*
X91250499Y-50716228D01*
X95949500Y-50716228D01*
X95949500Y-50883771D01*
X95982182Y-51048074D01*
X95982184Y-51048082D01*
X96046295Y-51202860D01*
X96139373Y-51342162D01*
X96257837Y-51460626D01*
X96265768Y-51465925D01*
X96397137Y-51553703D01*
X96551918Y-51617816D01*
X96716228Y-51650499D01*
X96716232Y-51650500D01*
X96716233Y-51650500D01*
X96883768Y-51650500D01*
X96883769Y-51650499D01*
X97048082Y-51617816D01*
X97202863Y-51553703D01*
X97342162Y-51460626D01*
X97460626Y-51342162D01*
X97553703Y-51202863D01*
X97617816Y-51048082D01*
X97650500Y-50883767D01*
X97650500Y-50716233D01*
X97617816Y-50551918D01*
X97561613Y-50416233D01*
X97553704Y-50397139D01*
X97534110Y-50367815D01*
X97488470Y-50299509D01*
X97460626Y-50257837D01*
X97342162Y-50139373D01*
X97202860Y-50046295D01*
X97048082Y-49982184D01*
X97048074Y-49982182D01*
X96883771Y-49949500D01*
X96883767Y-49949500D01*
X96716233Y-49949500D01*
X96716228Y-49949500D01*
X96551925Y-49982182D01*
X96551917Y-49982184D01*
X96397139Y-50046295D01*
X96257837Y-50139373D01*
X96139373Y-50257837D01*
X96046295Y-50397139D01*
X95982184Y-50551917D01*
X95982182Y-50551925D01*
X95949500Y-50716228D01*
X91250499Y-50716228D01*
X91217816Y-50551918D01*
X91161613Y-50416233D01*
X91153704Y-50397139D01*
X91134110Y-50367815D01*
X91088470Y-50299509D01*
X91060626Y-50257837D01*
X90942162Y-50139373D01*
X90802860Y-50046295D01*
X90648082Y-49982184D01*
X90648074Y-49982182D01*
X90483771Y-49949500D01*
X90483767Y-49949500D01*
X90316233Y-49949500D01*
X90316228Y-49949500D01*
X90151925Y-49982182D01*
X90151917Y-49982184D01*
X89997139Y-50046295D01*
X89857837Y-50139373D01*
X89739373Y-50257837D01*
X89646295Y-50397139D01*
X89582184Y-50551917D01*
X89582182Y-50551925D01*
X89549500Y-50716228D01*
X89244043Y-50716228D01*
X89250500Y-50683767D01*
X89250500Y-50516233D01*
X89217816Y-50351918D01*
X89160843Y-50214374D01*
X89153704Y-50197139D01*
X89060626Y-50057837D01*
X88942162Y-49939373D01*
X88802860Y-49846295D01*
X88648082Y-49782184D01*
X88648074Y-49782182D01*
X88483771Y-49749500D01*
X88483767Y-49749500D01*
X88316233Y-49749500D01*
X88316228Y-49749500D01*
X88151925Y-49782182D01*
X88151917Y-49782184D01*
X87997139Y-49846295D01*
X87857837Y-49939373D01*
X87739373Y-50057837D01*
X87646295Y-50197139D01*
X87582184Y-50351917D01*
X87582182Y-50351925D01*
X87549500Y-50516228D01*
X82771966Y-50516228D01*
X82753704Y-50472139D01*
X82746011Y-50460626D01*
X82711380Y-50408796D01*
X82660626Y-50332837D01*
X82542162Y-50214373D01*
X82402860Y-50121295D01*
X82248082Y-50057184D01*
X82248074Y-50057182D01*
X82083771Y-50024500D01*
X82083767Y-50024500D01*
X81916233Y-50024500D01*
X81916228Y-50024500D01*
X81751925Y-50057182D01*
X81751917Y-50057184D01*
X81597139Y-50121295D01*
X81457837Y-50214373D01*
X81339373Y-50332837D01*
X81246295Y-50472139D01*
X81182184Y-50626917D01*
X81182182Y-50626925D01*
X81149500Y-50791228D01*
X81149500Y-50964859D01*
X81148325Y-50964859D01*
X81136463Y-51027349D01*
X81088390Y-51078051D01*
X81020536Y-51094715D01*
X80954445Y-51072048D01*
X80922989Y-51039733D01*
X80835166Y-50908297D01*
X80835164Y-50908294D01*
X80716702Y-50789832D01*
X80577400Y-50696754D01*
X80422622Y-50632643D01*
X80422614Y-50632641D01*
X80258311Y-50599959D01*
X80258307Y-50599959D01*
X80090773Y-50599959D01*
X80090768Y-50599959D01*
X79926465Y-50632641D01*
X79926457Y-50632643D01*
X79771953Y-50696641D01*
X79702483Y-50704110D01*
X79640004Y-50672835D01*
X79604352Y-50612746D01*
X79600500Y-50582080D01*
X79600500Y-50416232D01*
X79600499Y-50416228D01*
X79599021Y-50408796D01*
X79567816Y-50251918D01*
X79518227Y-50132201D01*
X79503704Y-50097139D01*
X79500378Y-50092162D01*
X79426894Y-49982184D01*
X79410626Y-49957837D01*
X79292162Y-49839373D01*
X79152860Y-49746295D01*
X78998082Y-49682184D01*
X78998074Y-49682182D01*
X78833771Y-49649500D01*
X78833767Y-49649500D01*
X78666233Y-49649500D01*
X78666228Y-49649500D01*
X78501925Y-49682182D01*
X78501917Y-49682184D01*
X78347139Y-49746295D01*
X78207837Y-49839373D01*
X78089373Y-49957837D01*
X77996295Y-50097139D01*
X77932184Y-50251917D01*
X77932182Y-50251925D01*
X77899500Y-50416228D01*
X72781584Y-50416228D01*
X72858138Y-50339674D01*
X72951215Y-50200375D01*
X73015328Y-50045594D01*
X73048012Y-49881279D01*
X73048012Y-49713745D01*
X73015328Y-49549430D01*
X72952247Y-49397141D01*
X72951216Y-49394651D01*
X72858138Y-49255349D01*
X72739674Y-49136885D01*
X72600372Y-49043807D01*
X72445594Y-48979696D01*
X72445586Y-48979694D01*
X72281283Y-48947012D01*
X72281279Y-48947012D01*
X72113745Y-48947012D01*
X72113740Y-48947012D01*
X71949437Y-48979694D01*
X71949429Y-48979696D01*
X71794651Y-49043807D01*
X71655349Y-49136885D01*
X71536885Y-49255349D01*
X71443808Y-49394649D01*
X71412801Y-49469507D01*
X71368959Y-49523910D01*
X71302665Y-49545974D01*
X71234965Y-49528694D01*
X71187355Y-49477556D01*
X71183679Y-49469505D01*
X71153705Y-49397141D01*
X71153704Y-49397139D01*
X71152040Y-49394649D01*
X71122537Y-49350494D01*
X71060626Y-49257837D01*
X70992150Y-49189361D01*
X70958665Y-49128038D01*
X70963649Y-49058346D01*
X70965273Y-49054220D01*
X70967816Y-49048082D01*
X71000500Y-48883767D01*
X71000500Y-48716233D01*
X70967816Y-48551918D01*
X70903703Y-48397137D01*
X70866970Y-48342162D01*
X70810626Y-48257837D01*
X70692162Y-48139373D01*
X70552860Y-48046295D01*
X70398082Y-47982184D01*
X70398074Y-47982182D01*
X70233771Y-47949500D01*
X70233767Y-47949500D01*
X70066233Y-47949500D01*
X70066228Y-47949500D01*
X69901925Y-47982182D01*
X69901917Y-47982184D01*
X69747139Y-48046295D01*
X69607837Y-48139373D01*
X69489373Y-48257837D01*
X69396295Y-48397139D01*
X69332184Y-48551917D01*
X69332182Y-48551925D01*
X69299500Y-48716228D01*
X69299500Y-48716232D01*
X69299500Y-48716233D01*
X69299500Y-48883767D01*
X69302323Y-48897959D01*
X69296094Y-48967551D01*
X69253230Y-49022728D01*
X69187340Y-49045971D01*
X69180705Y-49046149D01*
X69041555Y-49046149D01*
X68877252Y-49078831D01*
X68877244Y-49078833D01*
X68722466Y-49142944D01*
X68583164Y-49236022D01*
X68464700Y-49354486D01*
X68371622Y-49493788D01*
X68307511Y-49648566D01*
X68307509Y-49648574D01*
X68274827Y-49812877D01*
X60061688Y-49812877D01*
X60067816Y-49798082D01*
X60100500Y-49633767D01*
X60100500Y-49466233D01*
X60067816Y-49301918D01*
X60005686Y-49151925D01*
X60003704Y-49147139D01*
X60000902Y-49142946D01*
X59941618Y-49054220D01*
X59910626Y-49007837D01*
X59792162Y-48889373D01*
X59652860Y-48796295D01*
X59498082Y-48732184D01*
X59498074Y-48732182D01*
X59333771Y-48699500D01*
X59333767Y-48699500D01*
X59166233Y-48699500D01*
X59166228Y-48699500D01*
X59001925Y-48732182D01*
X59001917Y-48732184D01*
X58847139Y-48796295D01*
X58707837Y-48889373D01*
X58589373Y-49007837D01*
X58496295Y-49147139D01*
X58432184Y-49301917D01*
X58432182Y-49301925D01*
X58399500Y-49466228D01*
X35450500Y-49466228D01*
X35450500Y-49316233D01*
X35417816Y-49151918D01*
X35353703Y-48997137D01*
X35339279Y-48975551D01*
X35318402Y-48908874D01*
X35336887Y-48841494D01*
X35388865Y-48794804D01*
X35457835Y-48783628D01*
X35489834Y-48792099D01*
X35551918Y-48817816D01*
X35716228Y-48850499D01*
X35716232Y-48850500D01*
X35716233Y-48850500D01*
X35883768Y-48850500D01*
X35883769Y-48850499D01*
X36048082Y-48817816D01*
X36202863Y-48753703D01*
X36342162Y-48660626D01*
X36460626Y-48542162D01*
X36553703Y-48402863D01*
X36617816Y-48248082D01*
X36650500Y-48083767D01*
X36650500Y-47916233D01*
X36617816Y-47751918D01*
X36553703Y-47597137D01*
X36522537Y-47550494D01*
X36460626Y-47457837D01*
X36342164Y-47339375D01*
X36321765Y-47325745D01*
X36287876Y-47303101D01*
X36270291Y-47282060D01*
X36250200Y-47263398D01*
X36248209Y-47255638D01*
X36243072Y-47249491D01*
X36239654Y-47222281D01*
X36232842Y-47195719D01*
X36235363Y-47188114D01*
X36234365Y-47180166D01*
X36246198Y-47155431D01*
X36254829Y-47129399D01*
X36262051Y-47122296D01*
X36264519Y-47117138D01*
X36265478Y-47116228D01*
X57949500Y-47116228D01*
X57949500Y-47283771D01*
X57982182Y-47448074D01*
X57982184Y-47448082D01*
X58046295Y-47602860D01*
X58139373Y-47742162D01*
X58257837Y-47860626D01*
X58341052Y-47916228D01*
X58397137Y-47953703D01*
X58551918Y-48017816D01*
X58695093Y-48046295D01*
X58716228Y-48050499D01*
X58716232Y-48050500D01*
X58716233Y-48050500D01*
X58883768Y-48050500D01*
X58883769Y-48050499D01*
X59048082Y-48017816D01*
X59202863Y-47953703D01*
X59342162Y-47860626D01*
X59460626Y-47742162D01*
X59477955Y-47716228D01*
X72349500Y-47716228D01*
X72349500Y-47883771D01*
X72382182Y-48048074D01*
X72382184Y-48048082D01*
X72446295Y-48202860D01*
X72539373Y-48342162D01*
X72657837Y-48460626D01*
X72703484Y-48491126D01*
X72797137Y-48553703D01*
X72951918Y-48617816D01*
X73095093Y-48646295D01*
X73116228Y-48650499D01*
X73116232Y-48650500D01*
X73116233Y-48650500D01*
X73283768Y-48650500D01*
X73283769Y-48650499D01*
X73448082Y-48617816D01*
X73602863Y-48553703D01*
X73742162Y-48460626D01*
X73860626Y-48342162D01*
X73953703Y-48202863D01*
X74017816Y-48048082D01*
X74050500Y-47883767D01*
X74050500Y-47716233D01*
X74050499Y-47716228D01*
X74050452Y-47715752D01*
X74050500Y-47715498D01*
X74050500Y-47710141D01*
X74051515Y-47710141D01*
X74063461Y-47647104D01*
X74111519Y-47596387D01*
X74179368Y-47579704D01*
X74198044Y-47581964D01*
X74252123Y-47592720D01*
X74291230Y-47600499D01*
X74291232Y-47600500D01*
X74291233Y-47600500D01*
X74458768Y-47600500D01*
X74458769Y-47600499D01*
X74623082Y-47567816D01*
X74777863Y-47503703D01*
X74917162Y-47410626D01*
X75035626Y-47292162D01*
X75128703Y-47152863D01*
X75192816Y-46998082D01*
X75225500Y-46833767D01*
X75225500Y-46716228D01*
X78349500Y-46716228D01*
X78349500Y-46883771D01*
X78382182Y-47048074D01*
X78382184Y-47048082D01*
X78446295Y-47202860D01*
X78539373Y-47342162D01*
X78657837Y-47460626D01*
X78741543Y-47516556D01*
X78797137Y-47553703D01*
X78951918Y-47617816D01*
X79069730Y-47641250D01*
X79116228Y-47650499D01*
X79116232Y-47650500D01*
X79116233Y-47650500D01*
X79283768Y-47650500D01*
X79283769Y-47650499D01*
X79448082Y-47617816D01*
X79602863Y-47553703D01*
X79742162Y-47460626D01*
X79860626Y-47342162D01*
X79953703Y-47202863D01*
X80017816Y-47048082D01*
X80050500Y-46883767D01*
X80050500Y-46716233D01*
X80017816Y-46551918D01*
X79953703Y-46397137D01*
X79915412Y-46339830D01*
X79860626Y-46257837D01*
X79742162Y-46139373D01*
X79602860Y-46046295D01*
X79448082Y-45982184D01*
X79448074Y-45982182D01*
X79283771Y-45949500D01*
X79283767Y-45949500D01*
X79116233Y-45949500D01*
X79116228Y-45949500D01*
X78951925Y-45982182D01*
X78951917Y-45982184D01*
X78797139Y-46046295D01*
X78657837Y-46139373D01*
X78539373Y-46257837D01*
X78446295Y-46397139D01*
X78382184Y-46551917D01*
X78382182Y-46551925D01*
X78349500Y-46716228D01*
X75225500Y-46716228D01*
X75225500Y-46666233D01*
X75192816Y-46501918D01*
X75128703Y-46347137D01*
X75123821Y-46339830D01*
X75104313Y-46310634D01*
X75083435Y-46243957D01*
X75092852Y-46194296D01*
X75135340Y-46091724D01*
X75168024Y-45927409D01*
X75168024Y-45759875D01*
X75162943Y-45734330D01*
X75162943Y-45734328D01*
X75159343Y-45716228D01*
X88549500Y-45716228D01*
X88549500Y-45883771D01*
X88582182Y-46048074D01*
X88582184Y-46048082D01*
X88646295Y-46202860D01*
X88739373Y-46342162D01*
X88857837Y-46460626D01*
X88919646Y-46501925D01*
X88997137Y-46553703D01*
X89151918Y-46617816D01*
X89304037Y-46648074D01*
X89316228Y-46650499D01*
X89316232Y-46650500D01*
X89316233Y-46650500D01*
X89483768Y-46650500D01*
X89483769Y-46650499D01*
X89648082Y-46617816D01*
X89802863Y-46553703D01*
X89942162Y-46460626D01*
X90060626Y-46342162D01*
X90153703Y-46202863D01*
X90217816Y-46048082D01*
X90250500Y-45883767D01*
X90250500Y-45716233D01*
X90217816Y-45551918D01*
X90171780Y-45440779D01*
X90156691Y-45404350D01*
X90149222Y-45334880D01*
X90169619Y-45285856D01*
X90175859Y-45276928D01*
X90185626Y-45267162D01*
X90249382Y-45171743D01*
X90250085Y-45170739D01*
X90276382Y-45149683D01*
X90302227Y-45128085D01*
X90303570Y-45127916D01*
X90304627Y-45127070D01*
X90338129Y-45123574D01*
X90371552Y-45119376D01*
X90372773Y-45119960D01*
X90374119Y-45119820D01*
X90404172Y-45134982D01*
X90434579Y-45149530D01*
X90435452Y-45150763D01*
X90436499Y-45151292D01*
X90439843Y-45156969D01*
X90466279Y-45194327D01*
X90521062Y-45326585D01*
X90521067Y-45326596D01*
X90658078Y-45563904D01*
X90658089Y-45563920D01*
X90824904Y-45781318D01*
X90824910Y-45781325D01*
X91018674Y-45975089D01*
X91018681Y-45975095D01*
X91113789Y-46048074D01*
X91236088Y-46141917D01*
X91236095Y-46141921D01*
X91473403Y-46278932D01*
X91473408Y-46278934D01*
X91473411Y-46278936D01*
X91473415Y-46278937D01*
X91473420Y-46278940D01*
X91726573Y-46383799D01*
X91726579Y-46383800D01*
X91726589Y-46383805D01*
X91991289Y-46454731D01*
X92262981Y-46490500D01*
X92262988Y-46490500D01*
X92537012Y-46490500D01*
X92537019Y-46490500D01*
X92808711Y-46454731D01*
X93073411Y-46383805D01*
X93073423Y-46383799D01*
X93073426Y-46383799D01*
X93250063Y-46310634D01*
X93326589Y-46278936D01*
X93563912Y-46141917D01*
X93781320Y-45975094D01*
X93975094Y-45781320D01*
X94141917Y-45563912D01*
X94278936Y-45326589D01*
X94358302Y-45134982D01*
X94383799Y-45073426D01*
X94383799Y-45073423D01*
X94383805Y-45073411D01*
X94454731Y-44808711D01*
X94490500Y-44537019D01*
X94490500Y-44262981D01*
X94454731Y-43991289D01*
X94383805Y-43726589D01*
X94383800Y-43726579D01*
X94383799Y-43726573D01*
X94278940Y-43473420D01*
X94278932Y-43473405D01*
X94278932Y-43473404D01*
X94278930Y-43473400D01*
X94278207Y-43472147D01*
X94278206Y-43472144D01*
X94278203Y-43472141D01*
X94245921Y-43416228D01*
X103774500Y-43416228D01*
X103774500Y-43583771D01*
X103807182Y-43748074D01*
X103807184Y-43748082D01*
X103871295Y-43902860D01*
X103964373Y-44042162D01*
X104082837Y-44160626D01*
X104175494Y-44222537D01*
X104222137Y-44253703D01*
X104376918Y-44317816D01*
X104524326Y-44347137D01*
X104541228Y-44350499D01*
X104541232Y-44350500D01*
X104541233Y-44350500D01*
X104708768Y-44350500D01*
X104708769Y-44350499D01*
X104873082Y-44317816D01*
X105027863Y-44253703D01*
X105159958Y-44165439D01*
X105226633Y-44144562D01*
X105294013Y-44163046D01*
X105340704Y-44215025D01*
X105346776Y-44230218D01*
X105367589Y-44294275D01*
X105388444Y-44358459D01*
X105484951Y-44547863D01*
X105609890Y-44719829D01*
X105760213Y-44870152D01*
X105932179Y-44995091D01*
X105932181Y-44995092D01*
X105932184Y-44995094D01*
X106121588Y-45091600D01*
X106323757Y-45157289D01*
X106533713Y-45190543D01*
X106533714Y-45190543D01*
X106746286Y-45190543D01*
X106746287Y-45190543D01*
X106956243Y-45157289D01*
X107158412Y-45091600D01*
X107347816Y-44995094D01*
X107378124Y-44973074D01*
X107519786Y-44870152D01*
X107519788Y-44870149D01*
X107519792Y-44870147D01*
X107670104Y-44719835D01*
X107670106Y-44719831D01*
X107670109Y-44719829D01*
X107795048Y-44547863D01*
X107795047Y-44547863D01*
X107795051Y-44547859D01*
X107891557Y-44358455D01*
X107957246Y-44156286D01*
X107990500Y-43946330D01*
X107990500Y-43733756D01*
X107957246Y-43523800D01*
X107891557Y-43321631D01*
X107795051Y-43132227D01*
X107795049Y-43132224D01*
X107795048Y-43132222D01*
X107670109Y-42960256D01*
X107519786Y-42809933D01*
X107347820Y-42684994D01*
X107347115Y-42684634D01*
X107339054Y-42680528D01*
X107288259Y-42632555D01*
X107271463Y-42564735D01*
X107293999Y-42498599D01*
X107339054Y-42459558D01*
X107347816Y-42455094D01*
X107369789Y-42439129D01*
X107519786Y-42330152D01*
X107519788Y-42330149D01*
X107519792Y-42330147D01*
X107670104Y-42179835D01*
X107670106Y-42179831D01*
X107670109Y-42179829D01*
X107795048Y-42007863D01*
X107795047Y-42007863D01*
X107795051Y-42007859D01*
X107891557Y-41818455D01*
X107957246Y-41616286D01*
X107990500Y-41406330D01*
X107990500Y-41193756D01*
X107957246Y-40983800D01*
X107891557Y-40781631D01*
X107795051Y-40592227D01*
X107795049Y-40592224D01*
X107795048Y-40592222D01*
X107670109Y-40420256D01*
X107519786Y-40269933D01*
X107347820Y-40144994D01*
X107347115Y-40144634D01*
X107339054Y-40140528D01*
X107288259Y-40092555D01*
X107271463Y-40024735D01*
X107293999Y-39958599D01*
X107339054Y-39919558D01*
X107347816Y-39915094D01*
X107440062Y-39848074D01*
X107519786Y-39790152D01*
X107519788Y-39790149D01*
X107519792Y-39790147D01*
X107670104Y-39639835D01*
X107670106Y-39639831D01*
X107670109Y-39639829D01*
X107783490Y-39483771D01*
X107795051Y-39467859D01*
X107891557Y-39278455D01*
X107957246Y-39076286D01*
X107990500Y-38866330D01*
X107990500Y-38653756D01*
X107957246Y-38443800D01*
X107891557Y-38241631D01*
X107795051Y-38052227D01*
X107795049Y-38052224D01*
X107795048Y-38052222D01*
X107670109Y-37880256D01*
X107519786Y-37729933D01*
X107347820Y-37604994D01*
X107347115Y-37604634D01*
X107339054Y-37600528D01*
X107288259Y-37552555D01*
X107271463Y-37484735D01*
X107293999Y-37418599D01*
X107339054Y-37379558D01*
X107347816Y-37375094D01*
X107428832Y-37316233D01*
X107519786Y-37250152D01*
X107519788Y-37250149D01*
X107519792Y-37250147D01*
X107670104Y-37099835D01*
X107670106Y-37099831D01*
X107670109Y-37099829D01*
X107795048Y-36927863D01*
X107795047Y-36927863D01*
X107795051Y-36927859D01*
X107891557Y-36738455D01*
X107957246Y-36536286D01*
X107990500Y-36326330D01*
X107990500Y-36113756D01*
X107957246Y-35903800D01*
X107891557Y-35701631D01*
X107795051Y-35512227D01*
X107795049Y-35512224D01*
X107795048Y-35512222D01*
X107670109Y-35340256D01*
X107519786Y-35189933D01*
X107347820Y-35064994D01*
X107347115Y-35064634D01*
X107339054Y-35060528D01*
X107288259Y-35012555D01*
X107271463Y-34944735D01*
X107293999Y-34878599D01*
X107339054Y-34839558D01*
X107347816Y-34835094D01*
X107442728Y-34766137D01*
X107519786Y-34710152D01*
X107519788Y-34710149D01*
X107519792Y-34710147D01*
X107670104Y-34559835D01*
X107670106Y-34559831D01*
X107670109Y-34559829D01*
X107795048Y-34387863D01*
X107795047Y-34387863D01*
X107795051Y-34387859D01*
X107891557Y-34198455D01*
X107957246Y-33996286D01*
X107990500Y-33786330D01*
X107990500Y-33573756D01*
X107957246Y-33363800D01*
X107891557Y-33161631D01*
X107795051Y-32972227D01*
X107795049Y-32972224D01*
X107795048Y-32972222D01*
X107670109Y-32800256D01*
X107556569Y-32686716D01*
X107523084Y-32625393D01*
X107528068Y-32555701D01*
X107569940Y-32499768D01*
X107600915Y-32482853D01*
X107732331Y-32433839D01*
X107847546Y-32347589D01*
X107933796Y-32232374D01*
X107984091Y-32097526D01*
X107990500Y-32037916D01*
X107990499Y-30242171D01*
X107984091Y-30182560D01*
X107981142Y-30174654D01*
X107933797Y-30047714D01*
X107933793Y-30047707D01*
X107847547Y-29932498D01*
X107847544Y-29932495D01*
X107732335Y-29846249D01*
X107732328Y-29846245D01*
X107597482Y-29795951D01*
X107597483Y-29795951D01*
X107537883Y-29789544D01*
X107537881Y-29789543D01*
X107537873Y-29789543D01*
X107537864Y-29789543D01*
X105742129Y-29789543D01*
X105742123Y-29789544D01*
X105682516Y-29795951D01*
X105547671Y-29846245D01*
X105547664Y-29846249D01*
X105432455Y-29932495D01*
X105432452Y-29932498D01*
X105346206Y-30047707D01*
X105346202Y-30047714D01*
X105295908Y-30182560D01*
X105289501Y-30242159D01*
X105289501Y-30242166D01*
X105289500Y-30242178D01*
X105289500Y-32037913D01*
X105289501Y-32037919D01*
X105295908Y-32097526D01*
X105346202Y-32232371D01*
X105346206Y-32232378D01*
X105432452Y-32347587D01*
X105432455Y-32347590D01*
X105547664Y-32433836D01*
X105547671Y-32433840D01*
X105679082Y-32482853D01*
X105735016Y-32524724D01*
X105759433Y-32590188D01*
X105744582Y-32658461D01*
X105723431Y-32686716D01*
X105609889Y-32800258D01*
X105484951Y-32972222D01*
X105388444Y-33161628D01*
X105322753Y-33363803D01*
X105289500Y-33573756D01*
X105289500Y-33786329D01*
X105314181Y-33942162D01*
X105322754Y-33996286D01*
X105383156Y-34182184D01*
X105388444Y-34198457D01*
X105484951Y-34387863D01*
X105609890Y-34559829D01*
X105760213Y-34710152D01*
X105932182Y-34835093D01*
X105940946Y-34839559D01*
X105991742Y-34887534D01*
X106008536Y-34955355D01*
X105985998Y-35021490D01*
X105940946Y-35060527D01*
X105932182Y-35064992D01*
X105760213Y-35189933D01*
X105609890Y-35340256D01*
X105484951Y-35512222D01*
X105388444Y-35701628D01*
X105322753Y-35903803D01*
X105289500Y-36113756D01*
X105289500Y-36326329D01*
X105319577Y-36516232D01*
X105322754Y-36536286D01*
X105360325Y-36651918D01*
X105388444Y-36738457D01*
X105484951Y-36927863D01*
X105609890Y-37099829D01*
X105760213Y-37250152D01*
X105932182Y-37375093D01*
X105940946Y-37379559D01*
X105991742Y-37427534D01*
X106008536Y-37495355D01*
X105985998Y-37561490D01*
X105940946Y-37600527D01*
X105932182Y-37604992D01*
X105760213Y-37729933D01*
X105609890Y-37880256D01*
X105484951Y-38052222D01*
X105388444Y-38241628D01*
X105322753Y-38443803D01*
X105289500Y-38653756D01*
X105289500Y-38866329D01*
X105318669Y-39050499D01*
X105322754Y-39076286D01*
X105379822Y-39251923D01*
X105388444Y-39278457D01*
X105484951Y-39467863D01*
X105609890Y-39639829D01*
X105760213Y-39790152D01*
X105932182Y-39915093D01*
X105940946Y-39919559D01*
X105991742Y-39967534D01*
X106008536Y-40035355D01*
X105985998Y-40101490D01*
X105940946Y-40140527D01*
X105932182Y-40144992D01*
X105760213Y-40269933D01*
X105609890Y-40420256D01*
X105484951Y-40592222D01*
X105388444Y-40781628D01*
X105322753Y-40983803D01*
X105289500Y-41193756D01*
X105289500Y-41406329D01*
X105320627Y-41602860D01*
X105322754Y-41616286D01*
X105386595Y-41812768D01*
X105388444Y-41818457D01*
X105484951Y-42007863D01*
X105609890Y-42179829D01*
X105760213Y-42330152D01*
X105932182Y-42455093D01*
X105940946Y-42459559D01*
X105991742Y-42507534D01*
X106008536Y-42575355D01*
X105985998Y-42641490D01*
X105940946Y-42680527D01*
X105932182Y-42684992D01*
X105760213Y-42809933D01*
X105609894Y-42960252D01*
X105609890Y-42960257D01*
X105546392Y-43047656D01*
X105491063Y-43090322D01*
X105421449Y-43096301D01*
X105359654Y-43063696D01*
X105342972Y-43043662D01*
X105285626Y-42957837D01*
X105167162Y-42839373D01*
X105027860Y-42746295D01*
X104873082Y-42682184D01*
X104873074Y-42682182D01*
X104708771Y-42649500D01*
X104708767Y-42649500D01*
X104541233Y-42649500D01*
X104541228Y-42649500D01*
X104376925Y-42682182D01*
X104376917Y-42682184D01*
X104222139Y-42746295D01*
X104082837Y-42839373D01*
X103964373Y-42957837D01*
X103871295Y-43097139D01*
X103807184Y-43251917D01*
X103807182Y-43251925D01*
X103774500Y-43416228D01*
X94245921Y-43416228D01*
X94141921Y-43236095D01*
X94141917Y-43236088D01*
X93997328Y-43047656D01*
X93975095Y-43018681D01*
X93975089Y-43018674D01*
X93781325Y-42824910D01*
X93781318Y-42824904D01*
X93563920Y-42658089D01*
X93563918Y-42658087D01*
X93563912Y-42658083D01*
X93563907Y-42658080D01*
X93563904Y-42658078D01*
X93326596Y-42521067D01*
X93326579Y-42521059D01*
X93073426Y-42416200D01*
X93073414Y-42416196D01*
X93073411Y-42416195D01*
X92808711Y-42345269D01*
X92808705Y-42345268D01*
X92808700Y-42345267D01*
X92537028Y-42309501D01*
X92537025Y-42309500D01*
X92537019Y-42309500D01*
X92262981Y-42309500D01*
X92262975Y-42309500D01*
X92262971Y-42309501D01*
X91991299Y-42345267D01*
X91991292Y-42345268D01*
X91991289Y-42345269D01*
X91776356Y-42402860D01*
X91726589Y-42416195D01*
X91726573Y-42416200D01*
X91473420Y-42521059D01*
X91473403Y-42521067D01*
X91236095Y-42658078D01*
X91236079Y-42658089D01*
X91018681Y-42824904D01*
X91018674Y-42824910D01*
X90824910Y-43018674D01*
X90824904Y-43018681D01*
X90658089Y-43236079D01*
X90658078Y-43236095D01*
X90521067Y-43473403D01*
X90521059Y-43473420D01*
X90416200Y-43726573D01*
X90416195Y-43726589D01*
X90345269Y-43991289D01*
X90338572Y-44042162D01*
X90337233Y-44052329D01*
X90308966Y-44116225D01*
X90250642Y-44154696D01*
X90180777Y-44155527D01*
X90126613Y-44123824D01*
X90067162Y-44064373D01*
X89927860Y-43971295D01*
X89773082Y-43907184D01*
X89773074Y-43907182D01*
X89608771Y-43874500D01*
X89608767Y-43874500D01*
X89441233Y-43874500D01*
X89441228Y-43874500D01*
X89276925Y-43907182D01*
X89276917Y-43907184D01*
X89122139Y-43971295D01*
X88982837Y-44064373D01*
X88864373Y-44182837D01*
X88771295Y-44322139D01*
X88707184Y-44476917D01*
X88707182Y-44476925D01*
X88674500Y-44641228D01*
X88674500Y-44808771D01*
X88707182Y-44973074D01*
X88707185Y-44973086D01*
X88768308Y-45120650D01*
X88775777Y-45190119D01*
X88744502Y-45252598D01*
X88741435Y-45255776D01*
X88739378Y-45257833D01*
X88739371Y-45257841D01*
X88646295Y-45397139D01*
X88582184Y-45551917D01*
X88582182Y-45551925D01*
X88549500Y-45716228D01*
X75159343Y-45716228D01*
X75135341Y-45595567D01*
X75135340Y-45595560D01*
X75071227Y-45440779D01*
X74987305Y-45315182D01*
X74966428Y-45248505D01*
X74984913Y-45181125D01*
X74987270Y-45177455D01*
X75003703Y-45152863D01*
X75067816Y-44998082D01*
X75100500Y-44833767D01*
X75100500Y-44666233D01*
X75067816Y-44501918D01*
X75003703Y-44347137D01*
X74940084Y-44251925D01*
X74910626Y-44207837D01*
X74792162Y-44089373D01*
X74652860Y-43996295D01*
X74498082Y-43932184D01*
X74498074Y-43932182D01*
X74333771Y-43899500D01*
X74333767Y-43899500D01*
X74166233Y-43899500D01*
X74166228Y-43899500D01*
X74001925Y-43932182D01*
X74001917Y-43932184D01*
X73847139Y-43996295D01*
X73707837Y-44089373D01*
X73589373Y-44207837D01*
X73496295Y-44347139D01*
X73432184Y-44501917D01*
X73432182Y-44501925D01*
X73399500Y-44666228D01*
X73399500Y-44833771D01*
X73432182Y-44998074D01*
X73432184Y-44998082D01*
X73496295Y-45152860D01*
X73580217Y-45278458D01*
X73601095Y-45345136D01*
X73582610Y-45412516D01*
X73580218Y-45416239D01*
X73563820Y-45440780D01*
X73499708Y-45595559D01*
X73499706Y-45595567D01*
X73467024Y-45759870D01*
X73467024Y-45927413D01*
X73499706Y-46091716D01*
X73499708Y-46091724D01*
X73562765Y-46243957D01*
X73563821Y-46246505D01*
X73588211Y-46283007D01*
X73609088Y-46349685D01*
X73599669Y-46399350D01*
X73557184Y-46501917D01*
X73557182Y-46501925D01*
X73524500Y-46666228D01*
X73524500Y-46833766D01*
X73524549Y-46834264D01*
X73524500Y-46834522D01*
X73524500Y-46839859D01*
X73523488Y-46839859D01*
X73511530Y-46902910D01*
X73463465Y-46953620D01*
X73395614Y-46970295D01*
X73376956Y-46968036D01*
X73322262Y-46957157D01*
X73283767Y-46949500D01*
X73116233Y-46949500D01*
X73116228Y-46949500D01*
X72951925Y-46982182D01*
X72951917Y-46982184D01*
X72797139Y-47046295D01*
X72657837Y-47139373D01*
X72539373Y-47257837D01*
X72446295Y-47397139D01*
X72382184Y-47551917D01*
X72382182Y-47551925D01*
X72349500Y-47716228D01*
X59477955Y-47716228D01*
X59553703Y-47602863D01*
X59617816Y-47448082D01*
X59650500Y-47283767D01*
X59650500Y-47116233D01*
X59617816Y-46951918D01*
X59553703Y-46797137D01*
X59522537Y-46750494D01*
X59460626Y-46657837D01*
X59342162Y-46539373D01*
X59202860Y-46446295D01*
X59048082Y-46382184D01*
X59048074Y-46382182D01*
X58883771Y-46349500D01*
X58883767Y-46349500D01*
X58716233Y-46349500D01*
X58716228Y-46349500D01*
X58551925Y-46382182D01*
X58551917Y-46382184D01*
X58397139Y-46446295D01*
X58257837Y-46539373D01*
X58139373Y-46657837D01*
X58046295Y-46797139D01*
X57982184Y-46951917D01*
X57982182Y-46951925D01*
X57949500Y-47116228D01*
X36265478Y-47116228D01*
X36278849Y-47103539D01*
X36283207Y-47100018D01*
X36342162Y-47060626D01*
X36460626Y-46942162D01*
X36553703Y-46802863D01*
X36617816Y-46648082D01*
X36637279Y-46550232D01*
X36669663Y-46488323D01*
X36730379Y-46453749D01*
X36787177Y-46454595D01*
X36787308Y-46453939D01*
X36790883Y-46454650D01*
X36790994Y-46454651D01*
X36791289Y-46454731D01*
X37062981Y-46490500D01*
X37062988Y-46490500D01*
X37337012Y-46490500D01*
X37337019Y-46490500D01*
X37608711Y-46454731D01*
X37873411Y-46383805D01*
X37873423Y-46383799D01*
X37873426Y-46383799D01*
X38050063Y-46310634D01*
X38126589Y-46278936D01*
X38363912Y-46141917D01*
X38581320Y-45975094D01*
X38775094Y-45781320D01*
X38941917Y-45563912D01*
X39078936Y-45326589D01*
X39158302Y-45134982D01*
X39183799Y-45073426D01*
X39183799Y-45073423D01*
X39183805Y-45073411D01*
X39254731Y-44808711D01*
X39290500Y-44537019D01*
X39290500Y-44416228D01*
X69949500Y-44416228D01*
X69949500Y-44583771D01*
X69982182Y-44748074D01*
X69982184Y-44748082D01*
X70046295Y-44902860D01*
X70139373Y-45042162D01*
X70257837Y-45160626D01*
X70350494Y-45222537D01*
X70397137Y-45253703D01*
X70397138Y-45253703D01*
X70397139Y-45253704D01*
X70407127Y-45257841D01*
X70551918Y-45317816D01*
X70655196Y-45338359D01*
X70716228Y-45350499D01*
X70716232Y-45350500D01*
X70716233Y-45350500D01*
X70883768Y-45350500D01*
X70883769Y-45350499D01*
X71048082Y-45317816D01*
X71202863Y-45253703D01*
X71342162Y-45160626D01*
X71460626Y-45042162D01*
X71553703Y-44902863D01*
X71617816Y-44748082D01*
X71650500Y-44583767D01*
X71650500Y-44416233D01*
X71617816Y-44251918D01*
X71553703Y-44097137D01*
X71516970Y-44042162D01*
X71460626Y-43957837D01*
X71342162Y-43839373D01*
X71202860Y-43746295D01*
X71048082Y-43682184D01*
X71048074Y-43682182D01*
X70883771Y-43649500D01*
X70883767Y-43649500D01*
X70716233Y-43649500D01*
X70716228Y-43649500D01*
X70551925Y-43682182D01*
X70551917Y-43682184D01*
X70397139Y-43746295D01*
X70257837Y-43839373D01*
X70139373Y-43957837D01*
X70046295Y-44097139D01*
X69982184Y-44251917D01*
X69982182Y-44251925D01*
X69949500Y-44416228D01*
X39290500Y-44416228D01*
X39290500Y-44262981D01*
X39254731Y-43991289D01*
X39183805Y-43726589D01*
X39183800Y-43726579D01*
X39183799Y-43726573D01*
X39078940Y-43473420D01*
X39078932Y-43473403D01*
X39006034Y-43347141D01*
X38973752Y-43291228D01*
X53024500Y-43291228D01*
X53024500Y-43458771D01*
X53057182Y-43623074D01*
X53057184Y-43623082D01*
X53121295Y-43777860D01*
X53214373Y-43917162D01*
X53332837Y-44035626D01*
X53375862Y-44064374D01*
X53472137Y-44128703D01*
X53626918Y-44192816D01*
X53791228Y-44225499D01*
X53791232Y-44225500D01*
X53791233Y-44225500D01*
X53958768Y-44225500D01*
X53958769Y-44225499D01*
X54123082Y-44192816D01*
X54277863Y-44128703D01*
X54417162Y-44035626D01*
X54535626Y-43917162D01*
X54628703Y-43777863D01*
X54692816Y-43623082D01*
X54725500Y-43458767D01*
X54725500Y-43291233D01*
X54692816Y-43126918D01*
X54628703Y-42972137D01*
X54584312Y-42905701D01*
X54535626Y-42832837D01*
X54417162Y-42714373D01*
X54352054Y-42670870D01*
X54277860Y-42621295D01*
X54163329Y-42573855D01*
X70764713Y-42573855D01*
X70764713Y-42741398D01*
X70797395Y-42905701D01*
X70797397Y-42905709D01*
X70861508Y-43060487D01*
X70954586Y-43199789D01*
X71073050Y-43318253D01*
X71165707Y-43380164D01*
X71212350Y-43411330D01*
X71212351Y-43411330D01*
X71212352Y-43411331D01*
X71224187Y-43416233D01*
X71367131Y-43475443D01*
X71531441Y-43508126D01*
X71531445Y-43508127D01*
X71531446Y-43508127D01*
X71698981Y-43508127D01*
X71698982Y-43508126D01*
X71863295Y-43475443D01*
X72018076Y-43411330D01*
X72157375Y-43318253D01*
X72275839Y-43199789D01*
X72368916Y-43060490D01*
X72433029Y-42905709D01*
X72465713Y-42741394D01*
X72465713Y-42573860D01*
X72433029Y-42409545D01*
X72368916Y-42254764D01*
X72318846Y-42179829D01*
X72275839Y-42115464D01*
X72165307Y-42004932D01*
X72165303Y-42004929D01*
X72157375Y-41997001D01*
X72113825Y-41967901D01*
X72112057Y-41966630D01*
X72091860Y-41940695D01*
X72071413Y-41916228D01*
X77899500Y-41916228D01*
X77899500Y-42083771D01*
X77932182Y-42248074D01*
X77932184Y-42248082D01*
X77996295Y-42402860D01*
X78089373Y-42542162D01*
X78207837Y-42660626D01*
X78244304Y-42684992D01*
X78347137Y-42753703D01*
X78501918Y-42817816D01*
X78654037Y-42848074D01*
X78666228Y-42850499D01*
X78666232Y-42850500D01*
X78666233Y-42850500D01*
X78833768Y-42850500D01*
X78833769Y-42850499D01*
X78998082Y-42817816D01*
X79152863Y-42753703D01*
X79292162Y-42660626D01*
X79410626Y-42542162D01*
X79503703Y-42402863D01*
X79567816Y-42248082D01*
X79600500Y-42083767D01*
X79600500Y-41916233D01*
X79567816Y-41751918D01*
X79503703Y-41597137D01*
X79438657Y-41499789D01*
X79410626Y-41457837D01*
X79292162Y-41339373D01*
X79152860Y-41246295D01*
X79100729Y-41224702D01*
X78998082Y-41182184D01*
X78998074Y-41182182D01*
X78833771Y-41149500D01*
X78833767Y-41149500D01*
X78666233Y-41149500D01*
X78666228Y-41149500D01*
X78501925Y-41182182D01*
X78501917Y-41182184D01*
X78347139Y-41246295D01*
X78207837Y-41339373D01*
X78089373Y-41457837D01*
X77996295Y-41597139D01*
X77932184Y-41751917D01*
X77932182Y-41751925D01*
X77899500Y-41916228D01*
X72071413Y-41916228D01*
X72070767Y-41915455D01*
X72070490Y-41913253D01*
X72069128Y-41911504D01*
X72066158Y-41878760D01*
X72062060Y-41846130D01*
X72063017Y-41844129D01*
X72062817Y-41841920D01*
X72078021Y-41812768D01*
X72092215Y-41783102D01*
X72094242Y-41781667D01*
X72095128Y-41779970D01*
X72102968Y-41775492D01*
X72137009Y-41751406D01*
X72233761Y-41711330D01*
X72373060Y-41618253D01*
X72491524Y-41499789D01*
X72584601Y-41360490D01*
X72648714Y-41205709D01*
X72666513Y-41116228D01*
X98549500Y-41116228D01*
X98549500Y-41283771D01*
X98582182Y-41448074D01*
X98582184Y-41448082D01*
X98646295Y-41602860D01*
X98739373Y-41742162D01*
X98857837Y-41860626D01*
X98939895Y-41915455D01*
X98997137Y-41953703D01*
X99151918Y-42017816D01*
X99304037Y-42048074D01*
X99316228Y-42050499D01*
X99316232Y-42050500D01*
X99316233Y-42050500D01*
X99483768Y-42050500D01*
X99483769Y-42050499D01*
X99648082Y-42017816D01*
X99802863Y-41953703D01*
X99942162Y-41860626D01*
X100060626Y-41742162D01*
X100153703Y-41602863D01*
X100217816Y-41448082D01*
X100250500Y-41283767D01*
X100250500Y-41116233D01*
X100217816Y-40951918D01*
X100153703Y-40797137D01*
X100115766Y-40740360D01*
X100060626Y-40657837D01*
X99942162Y-40539373D01*
X99802860Y-40446295D01*
X99648082Y-40382184D01*
X99648074Y-40382182D01*
X99483771Y-40349500D01*
X99483767Y-40349500D01*
X99316233Y-40349500D01*
X99316228Y-40349500D01*
X99151925Y-40382182D01*
X99151917Y-40382184D01*
X98997139Y-40446295D01*
X98857837Y-40539373D01*
X98739373Y-40657837D01*
X98646295Y-40797139D01*
X98582184Y-40951917D01*
X98582182Y-40951925D01*
X98549500Y-41116228D01*
X72666513Y-41116228D01*
X72681398Y-41041394D01*
X72681398Y-40873860D01*
X72648714Y-40709545D01*
X72584601Y-40554764D01*
X72519837Y-40457838D01*
X72491524Y-40415464D01*
X72373060Y-40297000D01*
X72233758Y-40203922D01*
X72078980Y-40139811D01*
X72078972Y-40139809D01*
X71914669Y-40107127D01*
X71914665Y-40107127D01*
X71747131Y-40107127D01*
X71747126Y-40107127D01*
X71582823Y-40139809D01*
X71582815Y-40139811D01*
X71428037Y-40203922D01*
X71288735Y-40297000D01*
X71170271Y-40415464D01*
X71077193Y-40554766D01*
X71013082Y-40709544D01*
X71013080Y-40709552D01*
X70980398Y-40873855D01*
X70980398Y-41041398D01*
X71013080Y-41205701D01*
X71013082Y-41205709D01*
X71077193Y-41360487D01*
X71170271Y-41499789D01*
X71288732Y-41618250D01*
X71288736Y-41618253D01*
X71330538Y-41646185D01*
X71375343Y-41699798D01*
X71384050Y-41769123D01*
X71353895Y-41832150D01*
X71309100Y-41863848D01*
X71212352Y-41903922D01*
X71073050Y-41997000D01*
X70954586Y-42115464D01*
X70861508Y-42254766D01*
X70797397Y-42409544D01*
X70797395Y-42409552D01*
X70764713Y-42573855D01*
X54163329Y-42573855D01*
X54123082Y-42557184D01*
X54123074Y-42557182D01*
X53958771Y-42524500D01*
X53958767Y-42524500D01*
X53791233Y-42524500D01*
X53791228Y-42524500D01*
X53626925Y-42557182D01*
X53626917Y-42557184D01*
X53472139Y-42621295D01*
X53332837Y-42714373D01*
X53214373Y-42832837D01*
X53121295Y-42972139D01*
X53057184Y-43126917D01*
X53057182Y-43126925D01*
X53024500Y-43291228D01*
X38973752Y-43291228D01*
X38941921Y-43236095D01*
X38941917Y-43236088D01*
X38797328Y-43047656D01*
X38775095Y-43018681D01*
X38775089Y-43018674D01*
X38581325Y-42824910D01*
X38581318Y-42824904D01*
X38363920Y-42658089D01*
X38363918Y-42658087D01*
X38363912Y-42658083D01*
X38363907Y-42658080D01*
X38363904Y-42658078D01*
X38126596Y-42521067D01*
X38126579Y-42521059D01*
X37873426Y-42416200D01*
X37873414Y-42416196D01*
X37873411Y-42416195D01*
X37608711Y-42345269D01*
X37608705Y-42345268D01*
X37608700Y-42345267D01*
X37337028Y-42309501D01*
X37337025Y-42309500D01*
X37337019Y-42309500D01*
X37062981Y-42309500D01*
X37062975Y-42309500D01*
X37062971Y-42309501D01*
X36791299Y-42345267D01*
X36791291Y-42345268D01*
X36791289Y-42345269D01*
X36791282Y-42345270D01*
X36791277Y-42345272D01*
X36737704Y-42359626D01*
X36667854Y-42357962D01*
X36609993Y-42318799D01*
X36591052Y-42287304D01*
X36553704Y-42197139D01*
X36460626Y-42057837D01*
X36342164Y-41939375D01*
X36307529Y-41916233D01*
X36287876Y-41903101D01*
X36243072Y-41849491D01*
X36234365Y-41780166D01*
X36264519Y-41717138D01*
X36287877Y-41696898D01*
X36342162Y-41660626D01*
X36460626Y-41542162D01*
X36553703Y-41402863D01*
X36617816Y-41248082D01*
X36650500Y-41083767D01*
X36650500Y-40916233D01*
X36617816Y-40751918D01*
X36553703Y-40597137D01*
X36477952Y-40483768D01*
X36460626Y-40457837D01*
X36342162Y-40339373D01*
X36202860Y-40246295D01*
X36048082Y-40182184D01*
X36048074Y-40182182D01*
X35883771Y-40149500D01*
X35883767Y-40149500D01*
X35878543Y-40149500D01*
X35811504Y-40129815D01*
X35765749Y-40077011D01*
X35755805Y-40007853D01*
X35763982Y-39978047D01*
X35776407Y-39948051D01*
X35817816Y-39848082D01*
X35850500Y-39683767D01*
X35850500Y-39516233D01*
X35817816Y-39351918D01*
X35753703Y-39197137D01*
X35696898Y-39112122D01*
X35660626Y-39057837D01*
X35542162Y-38939373D01*
X35507523Y-38916228D01*
X38238500Y-38916228D01*
X38238500Y-39083771D01*
X38271182Y-39248074D01*
X38271184Y-39248082D01*
X38335295Y-39402860D01*
X38428373Y-39542162D01*
X38546837Y-39660626D01*
X38633499Y-39718531D01*
X38686137Y-39753703D01*
X38686138Y-39753703D01*
X38686139Y-39753704D01*
X38712444Y-39764600D01*
X38840918Y-39817816D01*
X38993037Y-39848074D01*
X39005228Y-39850499D01*
X39005232Y-39850500D01*
X39005233Y-39850500D01*
X39172768Y-39850500D01*
X39172769Y-39850499D01*
X39337082Y-39817816D01*
X39491863Y-39753703D01*
X39491865Y-39753701D01*
X39497047Y-39751555D01*
X39566516Y-39744086D01*
X39591953Y-39751555D01*
X39597134Y-39753701D01*
X39597137Y-39753703D01*
X39751918Y-39817816D01*
X39904037Y-39848074D01*
X39916228Y-39850499D01*
X39916232Y-39850500D01*
X39916233Y-39850500D01*
X40083768Y-39850500D01*
X40083769Y-39850499D01*
X40248082Y-39817816D01*
X40402863Y-39753703D01*
X40542162Y-39660626D01*
X40660626Y-39542162D01*
X40722399Y-39449712D01*
X40776009Y-39404908D01*
X40845334Y-39396201D01*
X40908362Y-39426355D01*
X40945082Y-39485798D01*
X40949500Y-39518604D01*
X40949500Y-39683771D01*
X40982182Y-39848074D01*
X40982184Y-39848082D01*
X41046295Y-40002860D01*
X41139373Y-40142162D01*
X41257837Y-40260626D01*
X41337644Y-40313951D01*
X41397137Y-40353703D01*
X41551918Y-40417816D01*
X41695093Y-40446295D01*
X41716228Y-40450499D01*
X41716232Y-40450500D01*
X41716233Y-40450500D01*
X41883768Y-40450500D01*
X41883769Y-40450499D01*
X42048082Y-40417816D01*
X42202863Y-40353703D01*
X42231109Y-40334828D01*
X42297786Y-40313951D01*
X42365166Y-40332435D01*
X42368879Y-40334821D01*
X42397137Y-40353703D01*
X42551918Y-40417816D01*
X42695093Y-40446295D01*
X42716228Y-40450499D01*
X42716232Y-40450500D01*
X42841118Y-40450500D01*
X42908157Y-40470185D01*
X42953912Y-40522989D01*
X42962735Y-40550309D01*
X42982182Y-40648074D01*
X42982184Y-40648082D01*
X43046295Y-40802860D01*
X43139373Y-40942162D01*
X43257837Y-41060626D01*
X43303601Y-41091204D01*
X43397137Y-41153703D01*
X43397138Y-41153703D01*
X43397139Y-41153704D01*
X43432201Y-41168227D01*
X43551918Y-41217816D01*
X43695093Y-41246295D01*
X43716228Y-41250499D01*
X43716232Y-41250500D01*
X43716233Y-41250500D01*
X43883768Y-41250500D01*
X43883769Y-41250499D01*
X44048082Y-41217816D01*
X44202863Y-41153703D01*
X44342162Y-41060626D01*
X44460626Y-40942162D01*
X44553703Y-40802863D01*
X44617816Y-40648082D01*
X44650500Y-40483767D01*
X44650500Y-40316233D01*
X44641668Y-40271831D01*
X44641668Y-40271828D01*
X44638068Y-40253728D01*
X58212000Y-40253728D01*
X58212000Y-40421271D01*
X58244682Y-40585574D01*
X58244684Y-40585582D01*
X58308795Y-40740360D01*
X58401873Y-40879662D01*
X58520337Y-40998126D01*
X58612994Y-41060037D01*
X58659637Y-41091203D01*
X58814418Y-41155316D01*
X58949484Y-41182182D01*
X58978728Y-41187999D01*
X58978732Y-41188000D01*
X58978733Y-41188000D01*
X59146268Y-41188000D01*
X59146269Y-41187999D01*
X59310582Y-41155316D01*
X59465363Y-41091203D01*
X59604662Y-40998126D01*
X59723126Y-40879662D01*
X59816203Y-40740363D01*
X59880316Y-40585582D01*
X59913000Y-40421267D01*
X59913000Y-40253733D01*
X59880316Y-40089418D01*
X59829830Y-39967534D01*
X59816204Y-39934639D01*
X59723126Y-39795337D01*
X59604662Y-39676873D01*
X59465360Y-39583795D01*
X59310582Y-39519684D01*
X59310574Y-39519682D01*
X59146271Y-39487000D01*
X59146267Y-39487000D01*
X58978733Y-39487000D01*
X58978728Y-39487000D01*
X58814425Y-39519682D01*
X58814417Y-39519684D01*
X58659639Y-39583795D01*
X58520337Y-39676873D01*
X58401873Y-39795337D01*
X58308795Y-39934639D01*
X58244684Y-40089417D01*
X58244682Y-40089425D01*
X58212000Y-40253728D01*
X44638068Y-40253728D01*
X44619548Y-40160626D01*
X44617816Y-40151918D01*
X44553703Y-39997137D01*
X44520905Y-39948051D01*
X44460626Y-39857837D01*
X44342162Y-39739373D01*
X44202860Y-39646295D01*
X44048082Y-39582184D01*
X44048074Y-39582182D01*
X43883771Y-39549500D01*
X43883767Y-39549500D01*
X43758882Y-39549500D01*
X43691843Y-39529815D01*
X43646088Y-39477011D01*
X43637265Y-39449691D01*
X43617817Y-39351925D01*
X43617816Y-39351918D01*
X43553703Y-39197137D01*
X43496898Y-39112122D01*
X43460626Y-39057837D01*
X43342162Y-38939373D01*
X43202860Y-38846295D01*
X43048082Y-38782184D01*
X43048074Y-38782182D01*
X42883771Y-38749500D01*
X42883767Y-38749500D01*
X42716233Y-38749500D01*
X42716228Y-38749500D01*
X42551925Y-38782182D01*
X42551917Y-38782184D01*
X42397140Y-38846295D01*
X42397127Y-38846302D01*
X42368889Y-38865170D01*
X42302211Y-38886047D01*
X42234832Y-38867561D01*
X42231111Y-38865170D01*
X42202872Y-38846302D01*
X42202859Y-38846295D01*
X42048082Y-38782184D01*
X42048074Y-38782182D01*
X41883771Y-38749500D01*
X41883767Y-38749500D01*
X41716233Y-38749500D01*
X41716228Y-38749500D01*
X41551925Y-38782182D01*
X41551917Y-38782184D01*
X41397139Y-38846295D01*
X41257837Y-38939373D01*
X41139373Y-39057837D01*
X41077602Y-39150286D01*
X41023990Y-39195091D01*
X40954665Y-39203798D01*
X40891638Y-39173644D01*
X40854918Y-39114201D01*
X40850500Y-39081395D01*
X40850500Y-38916232D01*
X40850499Y-38916228D01*
X40840574Y-38866330D01*
X40817816Y-38751918D01*
X40754554Y-38599192D01*
X40753704Y-38597139D01*
X40743711Y-38582184D01*
X40675921Y-38480728D01*
X40660626Y-38457837D01*
X40542162Y-38339373D01*
X40402860Y-38246295D01*
X40248082Y-38182184D01*
X40248074Y-38182182D01*
X40083771Y-38149500D01*
X40083767Y-38149500D01*
X39916233Y-38149500D01*
X39916228Y-38149500D01*
X39751925Y-38182182D01*
X39751917Y-38182184D01*
X39591953Y-38248444D01*
X39522483Y-38255913D01*
X39497047Y-38248444D01*
X39337082Y-38182184D01*
X39337074Y-38182182D01*
X39172771Y-38149500D01*
X39172767Y-38149500D01*
X39005233Y-38149500D01*
X39005228Y-38149500D01*
X38840925Y-38182182D01*
X38840917Y-38182184D01*
X38686139Y-38246295D01*
X38546837Y-38339373D01*
X38428373Y-38457837D01*
X38335295Y-38597139D01*
X38271184Y-38751917D01*
X38271182Y-38751925D01*
X38238500Y-38916228D01*
X35507523Y-38916228D01*
X35402860Y-38846295D01*
X35248082Y-38782184D01*
X35248074Y-38782182D01*
X35083771Y-38749500D01*
X35083767Y-38749500D01*
X34916233Y-38749500D01*
X34916228Y-38749500D01*
X34751925Y-38782182D01*
X34751917Y-38782184D01*
X34597139Y-38846295D01*
X34457837Y-38939373D01*
X34339376Y-39057834D01*
X34339373Y-39057838D01*
X34303102Y-39112122D01*
X34249490Y-39156927D01*
X34180165Y-39165634D01*
X34117137Y-39135479D01*
X34096898Y-39112122D01*
X34060626Y-39057838D01*
X34060623Y-39057834D01*
X33942162Y-38939373D01*
X33802860Y-38846295D01*
X33648082Y-38782184D01*
X33648074Y-38782182D01*
X33483771Y-38749500D01*
X33483767Y-38749500D01*
X33316233Y-38749500D01*
X33316228Y-38749500D01*
X33151925Y-38782182D01*
X33151917Y-38782184D01*
X32997139Y-38846295D01*
X32857837Y-38939373D01*
X32739373Y-39057837D01*
X32646295Y-39197139D01*
X32582184Y-39351917D01*
X32582182Y-39351925D01*
X32549500Y-39516228D01*
X32549500Y-39683771D01*
X32582182Y-39848074D01*
X32582184Y-39848082D01*
X32646295Y-40002860D01*
X32739373Y-40142162D01*
X32857837Y-40260626D01*
X32937644Y-40313951D01*
X32997137Y-40353703D01*
X33151918Y-40417816D01*
X33295093Y-40446295D01*
X33316228Y-40450499D01*
X33316232Y-40450500D01*
X33316233Y-40450500D01*
X33483768Y-40450500D01*
X33483769Y-40450499D01*
X33648082Y-40417816D01*
X33802863Y-40353703D01*
X33942162Y-40260626D01*
X34060626Y-40142162D01*
X34096898Y-40087876D01*
X34150509Y-40043072D01*
X34219834Y-40034365D01*
X34282862Y-40064519D01*
X34303100Y-40087875D01*
X34325745Y-40121765D01*
X34339375Y-40142164D01*
X34457837Y-40260626D01*
X34537644Y-40313951D01*
X34597137Y-40353703D01*
X34751918Y-40417816D01*
X34895093Y-40446295D01*
X34916228Y-40450499D01*
X34916232Y-40450500D01*
X34921457Y-40450500D01*
X34988496Y-40470185D01*
X35034251Y-40522989D01*
X35044195Y-40592147D01*
X35036018Y-40621953D01*
X34982184Y-40751917D01*
X34982182Y-40751925D01*
X34949500Y-40916228D01*
X34949500Y-41083771D01*
X34982182Y-41248074D01*
X34982184Y-41248082D01*
X35046295Y-41402860D01*
X35139373Y-41542162D01*
X35257834Y-41660623D01*
X35257838Y-41660626D01*
X35312122Y-41696898D01*
X35356927Y-41750510D01*
X35365634Y-41819835D01*
X35335479Y-41882863D01*
X35312122Y-41903102D01*
X35257838Y-41939373D01*
X35257834Y-41939376D01*
X35139373Y-42057837D01*
X35046295Y-42197139D01*
X34982184Y-42351917D01*
X34982182Y-42351925D01*
X34949500Y-42516228D01*
X34949500Y-42683771D01*
X34982182Y-42848074D01*
X34982184Y-42848082D01*
X35046295Y-43002860D01*
X35139373Y-43142162D01*
X35257834Y-43260623D01*
X35257838Y-43260626D01*
X35295549Y-43285824D01*
X35340354Y-43339436D01*
X35349061Y-43408761D01*
X35334046Y-43450924D01*
X35321067Y-43473405D01*
X35321058Y-43473422D01*
X35216200Y-43726573D01*
X35216195Y-43726589D01*
X35150627Y-43971295D01*
X35145270Y-43991286D01*
X35145267Y-43991299D01*
X35109501Y-44262971D01*
X35109500Y-44262987D01*
X35109500Y-44537012D01*
X35109501Y-44537028D01*
X35145267Y-44808700D01*
X35145268Y-44808705D01*
X35145269Y-44808711D01*
X35195210Y-44995094D01*
X35216195Y-45073410D01*
X35216200Y-45073426D01*
X35321059Y-45326579D01*
X35321067Y-45326596D01*
X35417371Y-45493397D01*
X35433844Y-45561297D01*
X35410992Y-45627324D01*
X35378875Y-45658499D01*
X35257838Y-45739373D01*
X35257834Y-45739376D01*
X35139373Y-45857837D01*
X35046295Y-45997139D01*
X34982184Y-46151917D01*
X34982182Y-46151925D01*
X34949500Y-46316228D01*
X34949500Y-46483771D01*
X34982182Y-46648074D01*
X34982184Y-46648082D01*
X35046295Y-46802860D01*
X35139373Y-46942162D01*
X35257834Y-47060623D01*
X35257838Y-47060626D01*
X35312122Y-47096898D01*
X35356927Y-47150510D01*
X35365634Y-47219835D01*
X35335479Y-47282863D01*
X35312122Y-47303102D01*
X35257838Y-47339373D01*
X35257834Y-47339376D01*
X35139373Y-47457837D01*
X35046295Y-47597139D01*
X34982184Y-47751917D01*
X34982182Y-47751925D01*
X34949500Y-47916228D01*
X34949500Y-48083771D01*
X34982182Y-48248074D01*
X34982184Y-48248082D01*
X35021153Y-48342162D01*
X35046297Y-48402863D01*
X35060720Y-48424448D01*
X35081597Y-48491126D01*
X35063112Y-48558506D01*
X35011133Y-48605195D01*
X34942163Y-48616371D01*
X34910165Y-48607899D01*
X34848086Y-48582185D01*
X34848074Y-48582182D01*
X34683771Y-48549500D01*
X34683767Y-48549500D01*
X34516233Y-48549500D01*
X34516228Y-48549500D01*
X34351925Y-48582182D01*
X34351917Y-48582184D01*
X34197139Y-48646295D01*
X34057837Y-48739373D01*
X33939376Y-48857834D01*
X33939373Y-48857838D01*
X33903102Y-48912122D01*
X33849490Y-48956927D01*
X33780165Y-48965634D01*
X33717137Y-48935479D01*
X33696898Y-48912122D01*
X33660626Y-48857838D01*
X33660623Y-48857834D01*
X33542162Y-48739373D01*
X33402860Y-48646295D01*
X33248082Y-48582184D01*
X33248074Y-48582182D01*
X33083771Y-48549500D01*
X33083767Y-48549500D01*
X32916233Y-48549500D01*
X32916228Y-48549500D01*
X32751925Y-48582182D01*
X32751917Y-48582184D01*
X32597139Y-48646295D01*
X32457837Y-48739373D01*
X32339376Y-48857834D01*
X32339373Y-48857838D01*
X32303102Y-48912122D01*
X32249490Y-48956927D01*
X32180165Y-48965634D01*
X32117137Y-48935479D01*
X32096898Y-48912122D01*
X32060626Y-48857838D01*
X32060623Y-48857834D01*
X31942162Y-48739373D01*
X31802860Y-48646295D01*
X31648082Y-48582184D01*
X31648074Y-48582182D01*
X31483771Y-48549500D01*
X31483767Y-48549500D01*
X31316233Y-48549500D01*
X31316228Y-48549500D01*
X31151925Y-48582182D01*
X31151917Y-48582184D01*
X30997139Y-48646295D01*
X30857837Y-48739373D01*
X30739376Y-48857834D01*
X30739373Y-48857838D01*
X30703102Y-48912122D01*
X30649490Y-48956927D01*
X30580165Y-48965634D01*
X30517137Y-48935479D01*
X30496898Y-48912122D01*
X30460626Y-48857838D01*
X30460623Y-48857834D01*
X30342162Y-48739373D01*
X30202860Y-48646295D01*
X30048082Y-48582184D01*
X30048074Y-48582182D01*
X29883771Y-48549500D01*
X29883767Y-48549500D01*
X29716233Y-48549500D01*
X29716228Y-48549500D01*
X29551925Y-48582182D01*
X29551917Y-48582184D01*
X29397139Y-48646295D01*
X29257837Y-48739373D01*
X29139376Y-48857834D01*
X29139373Y-48857838D01*
X29103102Y-48912122D01*
X29049490Y-48956927D01*
X28980165Y-48965634D01*
X28917137Y-48935479D01*
X28896898Y-48912122D01*
X28860626Y-48857838D01*
X28860623Y-48857834D01*
X28742162Y-48739373D01*
X28602860Y-48646295D01*
X28448082Y-48582184D01*
X28448074Y-48582182D01*
X28283771Y-48549500D01*
X28283767Y-48549500D01*
X28116233Y-48549500D01*
X28116228Y-48549500D01*
X27951925Y-48582182D01*
X27951917Y-48582184D01*
X27797139Y-48646295D01*
X27657837Y-48739373D01*
X27539373Y-48857837D01*
X27446295Y-48997139D01*
X27382184Y-49151917D01*
X27382182Y-49151925D01*
X27349500Y-49316228D01*
X26300500Y-49316228D01*
X26300500Y-47116228D01*
X27349500Y-47116228D01*
X27349500Y-47283771D01*
X27382182Y-47448074D01*
X27382184Y-47448082D01*
X27446295Y-47602860D01*
X27539373Y-47742162D01*
X27657837Y-47860626D01*
X27741052Y-47916228D01*
X27797137Y-47953703D01*
X27951918Y-48017816D01*
X28095093Y-48046295D01*
X28116228Y-48050499D01*
X28116232Y-48050500D01*
X28116233Y-48050500D01*
X28283768Y-48050500D01*
X28283769Y-48050499D01*
X28448082Y-48017816D01*
X28602863Y-47953703D01*
X28742162Y-47860626D01*
X28860626Y-47742162D01*
X28953703Y-47602863D01*
X29017816Y-47448082D01*
X29050500Y-47283767D01*
X29050500Y-47116233D01*
X29050499Y-47116228D01*
X32549500Y-47116228D01*
X32549500Y-47283771D01*
X32582182Y-47448074D01*
X32582184Y-47448082D01*
X32646295Y-47602860D01*
X32739373Y-47742162D01*
X32857837Y-47860626D01*
X32941052Y-47916228D01*
X32997137Y-47953703D01*
X33151918Y-48017816D01*
X33295093Y-48046295D01*
X33316228Y-48050499D01*
X33316232Y-48050500D01*
X33316233Y-48050500D01*
X33483768Y-48050500D01*
X33483769Y-48050499D01*
X33648082Y-48017816D01*
X33802863Y-47953703D01*
X33942162Y-47860626D01*
X34060626Y-47742162D01*
X34153703Y-47602863D01*
X34217816Y-47448082D01*
X34250500Y-47283767D01*
X34250500Y-47116233D01*
X34217816Y-46951918D01*
X34153703Y-46797137D01*
X34122537Y-46750494D01*
X34060626Y-46657837D01*
X33942162Y-46539373D01*
X33802860Y-46446295D01*
X33648082Y-46382184D01*
X33648074Y-46382182D01*
X33483771Y-46349500D01*
X33483767Y-46349500D01*
X33316233Y-46349500D01*
X33316228Y-46349500D01*
X33151925Y-46382182D01*
X33151917Y-46382184D01*
X32997139Y-46446295D01*
X32857837Y-46539373D01*
X32739373Y-46657837D01*
X32646295Y-46797139D01*
X32582184Y-46951917D01*
X32582182Y-46951925D01*
X32549500Y-47116228D01*
X29050499Y-47116228D01*
X29017816Y-46951918D01*
X28953703Y-46797137D01*
X28922537Y-46750494D01*
X28860626Y-46657837D01*
X28742162Y-46539373D01*
X28602860Y-46446295D01*
X28448082Y-46382184D01*
X28448074Y-46382182D01*
X28283771Y-46349500D01*
X28283767Y-46349500D01*
X28116233Y-46349500D01*
X28116228Y-46349500D01*
X27951925Y-46382182D01*
X27951917Y-46382184D01*
X27797139Y-46446295D01*
X27657837Y-46539373D01*
X27539373Y-46657837D01*
X27446295Y-46797139D01*
X27382184Y-46951917D01*
X27382182Y-46951925D01*
X27349500Y-47116228D01*
X26300500Y-47116228D01*
X26300500Y-41716228D01*
X27349500Y-41716228D01*
X27349500Y-41883771D01*
X27382182Y-42048074D01*
X27382184Y-42048082D01*
X27446295Y-42202860D01*
X27539373Y-42342162D01*
X27657837Y-42460626D01*
X27714668Y-42498599D01*
X27797137Y-42553703D01*
X27797138Y-42553703D01*
X27797139Y-42553704D01*
X27823770Y-42564735D01*
X27951918Y-42617816D01*
X28111206Y-42649500D01*
X28116228Y-42650499D01*
X28116232Y-42650500D01*
X28116233Y-42650500D01*
X28283768Y-42650500D01*
X28283769Y-42650499D01*
X28448082Y-42617816D01*
X28602863Y-42553703D01*
X28742162Y-42460626D01*
X28860626Y-42342162D01*
X28953703Y-42202863D01*
X29017816Y-42048082D01*
X29050500Y-41883767D01*
X29050500Y-41716233D01*
X29050499Y-41716228D01*
X32549500Y-41716228D01*
X32549500Y-41883771D01*
X32582182Y-42048074D01*
X32582184Y-42048082D01*
X32646295Y-42202860D01*
X32739373Y-42342162D01*
X32857837Y-42460626D01*
X32914668Y-42498599D01*
X32997137Y-42553703D01*
X32997138Y-42553703D01*
X32997139Y-42553704D01*
X33023770Y-42564735D01*
X33151918Y-42617816D01*
X33311206Y-42649500D01*
X33316228Y-42650499D01*
X33316232Y-42650500D01*
X33316233Y-42650500D01*
X33483768Y-42650500D01*
X33483769Y-42650499D01*
X33648082Y-42617816D01*
X33802863Y-42553703D01*
X33942162Y-42460626D01*
X34060626Y-42342162D01*
X34153703Y-42202863D01*
X34217816Y-42048082D01*
X34250500Y-41883767D01*
X34250500Y-41716233D01*
X34217816Y-41551918D01*
X34157511Y-41406330D01*
X34153704Y-41397139D01*
X34060626Y-41257837D01*
X33942162Y-41139373D01*
X33802860Y-41046295D01*
X33648082Y-40982184D01*
X33648074Y-40982182D01*
X33483771Y-40949500D01*
X33483767Y-40949500D01*
X33316233Y-40949500D01*
X33316228Y-40949500D01*
X33151925Y-40982182D01*
X33151917Y-40982184D01*
X32997139Y-41046295D01*
X32857837Y-41139373D01*
X32739373Y-41257837D01*
X32646295Y-41397139D01*
X32582184Y-41551917D01*
X32582182Y-41551925D01*
X32549500Y-41716228D01*
X29050499Y-41716228D01*
X29017816Y-41551918D01*
X28957511Y-41406330D01*
X28953704Y-41397139D01*
X28860626Y-41257837D01*
X28742162Y-41139373D01*
X28602860Y-41046295D01*
X28448082Y-40982184D01*
X28448074Y-40982182D01*
X28283771Y-40949500D01*
X28283767Y-40949500D01*
X28116233Y-40949500D01*
X28116228Y-40949500D01*
X27951925Y-40982182D01*
X27951917Y-40982184D01*
X27797139Y-41046295D01*
X27657837Y-41139373D01*
X27539373Y-41257837D01*
X27446295Y-41397139D01*
X27382184Y-41551917D01*
X27382182Y-41551925D01*
X27349500Y-41716228D01*
X26300500Y-41716228D01*
X26300500Y-39516228D01*
X27349500Y-39516228D01*
X27349500Y-39683771D01*
X27382182Y-39848074D01*
X27382184Y-39848082D01*
X27446295Y-40002860D01*
X27539373Y-40142162D01*
X27657837Y-40260626D01*
X27737644Y-40313951D01*
X27797137Y-40353703D01*
X27951918Y-40417816D01*
X28095093Y-40446295D01*
X28116228Y-40450499D01*
X28116232Y-40450500D01*
X28116233Y-40450500D01*
X28283768Y-40450500D01*
X28283769Y-40450499D01*
X28448082Y-40417816D01*
X28602863Y-40353703D01*
X28742162Y-40260626D01*
X28860626Y-40142162D01*
X28953703Y-40002863D01*
X29017816Y-39848082D01*
X29050500Y-39683767D01*
X29050500Y-39516233D01*
X29017816Y-39351918D01*
X28953703Y-39197137D01*
X28896898Y-39112122D01*
X28860626Y-39057837D01*
X28742162Y-38939373D01*
X28602860Y-38846295D01*
X28448082Y-38782184D01*
X28448074Y-38782182D01*
X28283771Y-38749500D01*
X28283767Y-38749500D01*
X28116233Y-38749500D01*
X28116228Y-38749500D01*
X27951925Y-38782182D01*
X27951917Y-38782184D01*
X27797139Y-38846295D01*
X27657837Y-38939373D01*
X27539373Y-39057837D01*
X27446295Y-39197139D01*
X27382184Y-39351917D01*
X27382182Y-39351925D01*
X27349500Y-39516228D01*
X26300500Y-39516228D01*
X26300500Y-33516228D01*
X26549500Y-33516228D01*
X26549500Y-33683771D01*
X26582182Y-33848074D01*
X26582184Y-33848082D01*
X26646295Y-34002860D01*
X26739373Y-34142162D01*
X26857837Y-34260626D01*
X26950494Y-34322537D01*
X26997137Y-34353703D01*
X27151918Y-34417816D01*
X27316228Y-34450499D01*
X27316232Y-34450500D01*
X27461419Y-34450500D01*
X27528458Y-34470185D01*
X27574213Y-34522989D01*
X27584157Y-34592147D01*
X27583892Y-34593898D01*
X27566507Y-34703663D01*
X27565100Y-34712545D01*
X27565100Y-34935255D01*
X27582520Y-35045239D01*
X27599940Y-35155224D01*
X27599940Y-35155227D01*
X27668759Y-35367030D01*
X27687017Y-35402863D01*
X27768995Y-35563754D01*
X27771773Y-35569205D01*
X27784669Y-35637874D01*
X27758393Y-35702615D01*
X27701286Y-35742872D01*
X27661288Y-35749500D01*
X27516228Y-35749500D01*
X27351925Y-35782182D01*
X27351917Y-35782184D01*
X27197139Y-35846295D01*
X27057837Y-35939373D01*
X26939373Y-36057837D01*
X26846295Y-36197139D01*
X26782184Y-36351917D01*
X26782182Y-36351925D01*
X26749500Y-36516228D01*
X26749500Y-36683771D01*
X26782182Y-36848074D01*
X26782184Y-36848082D01*
X26846295Y-37002860D01*
X26939373Y-37142162D01*
X27057837Y-37260626D01*
X27121045Y-37302860D01*
X27197137Y-37353703D01*
X27197138Y-37353703D01*
X27197139Y-37353704D01*
X27232201Y-37368227D01*
X27351918Y-37417816D01*
X27474315Y-37442162D01*
X27516228Y-37450499D01*
X27516232Y-37450500D01*
X27516233Y-37450500D01*
X27683768Y-37450500D01*
X27683769Y-37450499D01*
X27848082Y-37417816D01*
X28002863Y-37353703D01*
X28058948Y-37316228D01*
X33949500Y-37316228D01*
X33949500Y-37483771D01*
X33982182Y-37648074D01*
X33982184Y-37648082D01*
X34046295Y-37802860D01*
X34139373Y-37942162D01*
X34257837Y-38060626D01*
X34341052Y-38116228D01*
X34397137Y-38153703D01*
X34551918Y-38217816D01*
X34695093Y-38246295D01*
X34716228Y-38250499D01*
X34716232Y-38250500D01*
X34716233Y-38250500D01*
X34883768Y-38250500D01*
X34883769Y-38250499D01*
X35048082Y-38217816D01*
X35202863Y-38153703D01*
X35342162Y-38060626D01*
X35460626Y-37942162D01*
X35553703Y-37802863D01*
X35617816Y-37648082D01*
X35650500Y-37483767D01*
X35650500Y-37316233D01*
X35617816Y-37151918D01*
X35603033Y-37116228D01*
X40149500Y-37116228D01*
X40149500Y-37283771D01*
X40182182Y-37448074D01*
X40182184Y-37448082D01*
X40246295Y-37602860D01*
X40339373Y-37742162D01*
X40457837Y-37860626D01*
X40541052Y-37916228D01*
X40597137Y-37953703D01*
X40751918Y-38017816D01*
X40904077Y-38048082D01*
X40916228Y-38050499D01*
X40916232Y-38050500D01*
X40916233Y-38050500D01*
X41083768Y-38050500D01*
X41083769Y-38050499D01*
X41248082Y-38017816D01*
X41402863Y-37953703D01*
X41542162Y-37860626D01*
X41660626Y-37742162D01*
X41677955Y-37716228D01*
X43349500Y-37716228D01*
X43349500Y-37883771D01*
X43382181Y-38048071D01*
X43382184Y-38048082D01*
X43446295Y-38202860D01*
X43539373Y-38342162D01*
X43657837Y-38460626D01*
X43750494Y-38522537D01*
X43797137Y-38553703D01*
X43951918Y-38617816D01*
X44090855Y-38645452D01*
X44116228Y-38650499D01*
X44116232Y-38650500D01*
X44116233Y-38650500D01*
X44283768Y-38650500D01*
X44283769Y-38650499D01*
X44448082Y-38617816D01*
X44602863Y-38553703D01*
X44742162Y-38460626D01*
X44860626Y-38342162D01*
X44953703Y-38202863D01*
X44989589Y-38116228D01*
X48949500Y-38116228D01*
X48949500Y-38283771D01*
X48982182Y-38448074D01*
X48982184Y-38448082D01*
X49046295Y-38602860D01*
X49139373Y-38742162D01*
X49257837Y-38860626D01*
X49333530Y-38911202D01*
X49397137Y-38953703D01*
X49397138Y-38953703D01*
X49397139Y-38953704D01*
X49432201Y-38968227D01*
X49551918Y-39017816D01*
X49716228Y-39050499D01*
X49716232Y-39050500D01*
X49716233Y-39050500D01*
X49883768Y-39050500D01*
X49883769Y-39050499D01*
X50048082Y-39017816D01*
X50202863Y-38953703D01*
X50331110Y-38868010D01*
X50397786Y-38847133D01*
X50465167Y-38865617D01*
X50468874Y-38868000D01*
X50597137Y-38953703D01*
X50597138Y-38953703D01*
X50597139Y-38953704D01*
X50632201Y-38968227D01*
X50751918Y-39017816D01*
X50916228Y-39050499D01*
X50916232Y-39050500D01*
X50916233Y-39050500D01*
X51083768Y-39050500D01*
X51083769Y-39050499D01*
X51248082Y-39017816D01*
X51402863Y-38953703D01*
X51458948Y-38916228D01*
X68549500Y-38916228D01*
X68549500Y-39083771D01*
X68582182Y-39248074D01*
X68582184Y-39248082D01*
X68646295Y-39402860D01*
X68739373Y-39542162D01*
X68857837Y-39660626D01*
X68944499Y-39718531D01*
X68997137Y-39753703D01*
X68997138Y-39753703D01*
X68997139Y-39753704D01*
X68997141Y-39753705D01*
X69023444Y-39764600D01*
X69077848Y-39808440D01*
X69099913Y-39874734D01*
X69082634Y-39942434D01*
X69079095Y-39948051D01*
X69046295Y-39997140D01*
X68982184Y-40151917D01*
X68982182Y-40151925D01*
X68949500Y-40316228D01*
X68949500Y-40483771D01*
X68982182Y-40648074D01*
X68982184Y-40648082D01*
X69046295Y-40802860D01*
X69139373Y-40942162D01*
X69257837Y-41060626D01*
X69303601Y-41091204D01*
X69397137Y-41153703D01*
X69397138Y-41153703D01*
X69397139Y-41153704D01*
X69432201Y-41168227D01*
X69551918Y-41217816D01*
X69695093Y-41246295D01*
X69716228Y-41250499D01*
X69716232Y-41250500D01*
X69716233Y-41250500D01*
X69883768Y-41250500D01*
X69883769Y-41250499D01*
X70048082Y-41217816D01*
X70202863Y-41153703D01*
X70342162Y-41060626D01*
X70460626Y-40942162D01*
X70553703Y-40802863D01*
X70617816Y-40648082D01*
X70650500Y-40483767D01*
X70650500Y-40389312D01*
X70670185Y-40322273D01*
X70722989Y-40276518D01*
X70727048Y-40274751D01*
X70734097Y-40271831D01*
X70777863Y-40253703D01*
X70917162Y-40160626D01*
X71035626Y-40042162D01*
X71128703Y-39902863D01*
X71192816Y-39748082D01*
X71225500Y-39583767D01*
X71225500Y-39416233D01*
X71216910Y-39373048D01*
X71209209Y-39334331D01*
X71209209Y-39334328D01*
X71205609Y-39316228D01*
X97749500Y-39316228D01*
X97749500Y-39483771D01*
X97782182Y-39648074D01*
X97782184Y-39648082D01*
X97846295Y-39802860D01*
X97939373Y-39942162D01*
X98057837Y-40060626D01*
X98118995Y-40101490D01*
X98197137Y-40153703D01*
X98197138Y-40153703D01*
X98197139Y-40153704D01*
X98232201Y-40168227D01*
X98351918Y-40217816D01*
X98495093Y-40246295D01*
X98516228Y-40250499D01*
X98516232Y-40250500D01*
X98516233Y-40250500D01*
X98683768Y-40250500D01*
X98683769Y-40250499D01*
X98848082Y-40217816D01*
X99002863Y-40153703D01*
X99142162Y-40060626D01*
X99260626Y-39942162D01*
X99353703Y-39802863D01*
X99417816Y-39648082D01*
X99450500Y-39483767D01*
X99450500Y-39316233D01*
X99417816Y-39151918D01*
X99353703Y-38997137D01*
X99315106Y-38939373D01*
X99260626Y-38857837D01*
X99142162Y-38739373D01*
X99002860Y-38646295D01*
X98848082Y-38582184D01*
X98848074Y-38582182D01*
X98683771Y-38549500D01*
X98683767Y-38549500D01*
X98516233Y-38549500D01*
X98516228Y-38549500D01*
X98351925Y-38582182D01*
X98351917Y-38582184D01*
X98197139Y-38646295D01*
X98057837Y-38739373D01*
X97939373Y-38857837D01*
X97846295Y-38997139D01*
X97782184Y-39151917D01*
X97782182Y-39151925D01*
X97749500Y-39316228D01*
X71205609Y-39316228D01*
X71192817Y-39251923D01*
X71192816Y-39251922D01*
X71192816Y-39251918D01*
X71128703Y-39097137D01*
X71075702Y-39017815D01*
X71035626Y-38957837D01*
X70914025Y-38836236D01*
X70880540Y-38774913D01*
X70885524Y-38705221D01*
X70927396Y-38649288D01*
X70932793Y-38645467D01*
X71002050Y-38599192D01*
X71120514Y-38480728D01*
X71213591Y-38341429D01*
X71277704Y-38186648D01*
X71310388Y-38022333D01*
X71310388Y-37854799D01*
X71277704Y-37690484D01*
X71220571Y-37552555D01*
X71213592Y-37535705D01*
X71212707Y-37534381D01*
X71161563Y-37457838D01*
X71120514Y-37396403D01*
X71002050Y-37277939D01*
X70862748Y-37184861D01*
X70707970Y-37120750D01*
X70707962Y-37120748D01*
X70543659Y-37088066D01*
X70543655Y-37088066D01*
X70376121Y-37088066D01*
X70376116Y-37088066D01*
X70211813Y-37120748D01*
X70211805Y-37120750D01*
X70057027Y-37184861D01*
X69917725Y-37277939D01*
X69799261Y-37396403D01*
X69706183Y-37535705D01*
X69642072Y-37690483D01*
X69642070Y-37690491D01*
X69609388Y-37854794D01*
X69609388Y-38025500D01*
X69589703Y-38092539D01*
X69536899Y-38138294D01*
X69485388Y-38149500D01*
X69316228Y-38149500D01*
X69151925Y-38182182D01*
X69151917Y-38182184D01*
X68997139Y-38246295D01*
X68857837Y-38339373D01*
X68739373Y-38457837D01*
X68646295Y-38597139D01*
X68582184Y-38751917D01*
X68582182Y-38751925D01*
X68549500Y-38916228D01*
X51458948Y-38916228D01*
X51542162Y-38860626D01*
X51575282Y-38827505D01*
X51636603Y-38794020D01*
X51706295Y-38799004D01*
X51710409Y-38800622D01*
X51751918Y-38817816D01*
X51895093Y-38846295D01*
X51916228Y-38850499D01*
X51916232Y-38850500D01*
X51916233Y-38850500D01*
X52083768Y-38850500D01*
X52083769Y-38850499D01*
X52248082Y-38817816D01*
X52402863Y-38753703D01*
X52542162Y-38660626D01*
X52660626Y-38542162D01*
X52753703Y-38402863D01*
X52817816Y-38248082D01*
X52850500Y-38083767D01*
X52850500Y-37916233D01*
X52817816Y-37751918D01*
X52753703Y-37597137D01*
X52694468Y-37508486D01*
X52660626Y-37457837D01*
X52542162Y-37339373D01*
X52402860Y-37246295D01*
X52248082Y-37182184D01*
X52248074Y-37182182D01*
X52083771Y-37149500D01*
X52083767Y-37149500D01*
X51916233Y-37149500D01*
X51916228Y-37149500D01*
X51751925Y-37182182D01*
X51751917Y-37182184D01*
X51597139Y-37246295D01*
X51457841Y-37339371D01*
X51424714Y-37372497D01*
X51363390Y-37405980D01*
X51293698Y-37400994D01*
X51289582Y-37399374D01*
X51284186Y-37397139D01*
X51248082Y-37382184D01*
X51248074Y-37382182D01*
X51083771Y-37349500D01*
X51083767Y-37349500D01*
X50916233Y-37349500D01*
X50916228Y-37349500D01*
X50751925Y-37382182D01*
X50751917Y-37382184D01*
X50597138Y-37446296D01*
X50597134Y-37446298D01*
X50468890Y-37531988D01*
X50402213Y-37552866D01*
X50334833Y-37534381D01*
X50331110Y-37531988D01*
X50202865Y-37446298D01*
X50202861Y-37446296D01*
X50048082Y-37382184D01*
X50048074Y-37382182D01*
X49883771Y-37349500D01*
X49883767Y-37349500D01*
X49716233Y-37349500D01*
X49716228Y-37349500D01*
X49551925Y-37382182D01*
X49551917Y-37382184D01*
X49397139Y-37446295D01*
X49257837Y-37539373D01*
X49139373Y-37657837D01*
X49046295Y-37797139D01*
X48982184Y-37951917D01*
X48982182Y-37951925D01*
X48949500Y-38116228D01*
X44989589Y-38116228D01*
X45017816Y-38048082D01*
X45017816Y-38048077D01*
X45017819Y-38048071D01*
X45050499Y-37883771D01*
X45050500Y-37883768D01*
X45050500Y-37716232D01*
X45050499Y-37716228D01*
X45045378Y-37690483D01*
X45017816Y-37551918D01*
X44953703Y-37397137D01*
X44915105Y-37339371D01*
X44860626Y-37257837D01*
X44742162Y-37139373D01*
X44602860Y-37046295D01*
X44448082Y-36982184D01*
X44448074Y-36982182D01*
X44283771Y-36949500D01*
X44283767Y-36949500D01*
X44116233Y-36949500D01*
X44116228Y-36949500D01*
X43951925Y-36982182D01*
X43951917Y-36982184D01*
X43797139Y-37046295D01*
X43657837Y-37139373D01*
X43539373Y-37257837D01*
X43446295Y-37397139D01*
X43382184Y-37551917D01*
X43382182Y-37551925D01*
X43349500Y-37716228D01*
X41677955Y-37716228D01*
X41723494Y-37648074D01*
X41728053Y-37641251D01*
X41728053Y-37641250D01*
X41753703Y-37602863D01*
X41817816Y-37448082D01*
X41850500Y-37283767D01*
X41850500Y-37116233D01*
X41817816Y-36951918D01*
X41761613Y-36816233D01*
X41761611Y-36816228D01*
X61524500Y-36816228D01*
X61524500Y-36983771D01*
X61557182Y-37148074D01*
X61557184Y-37148082D01*
X61621295Y-37302860D01*
X61714373Y-37442162D01*
X61832834Y-37560623D01*
X61832838Y-37560626D01*
X61889734Y-37598643D01*
X61934539Y-37652255D01*
X61943246Y-37721580D01*
X61942461Y-37725935D01*
X61932791Y-37774549D01*
X61927160Y-37802863D01*
X61924500Y-37816234D01*
X61924500Y-37983771D01*
X61957182Y-38148074D01*
X61957184Y-38148082D01*
X62021295Y-38302860D01*
X62114373Y-38442162D01*
X62232837Y-38560626D01*
X62318430Y-38617817D01*
X62372137Y-38653703D01*
X62526918Y-38717816D01*
X62649315Y-38742162D01*
X62691228Y-38750499D01*
X62691232Y-38750500D01*
X62691233Y-38750500D01*
X62858768Y-38750500D01*
X62858769Y-38750499D01*
X63023082Y-38717816D01*
X63177863Y-38653703D01*
X63317162Y-38560626D01*
X63435626Y-38442162D01*
X63528703Y-38302863D01*
X63592816Y-38148082D01*
X63625500Y-37983767D01*
X63625500Y-37816233D01*
X63592816Y-37651918D01*
X63528703Y-37497137D01*
X63482196Y-37427534D01*
X63435626Y-37357837D01*
X63317165Y-37239376D01*
X63317161Y-37239373D01*
X63260265Y-37201356D01*
X63215460Y-37147744D01*
X63206753Y-37078419D01*
X63207539Y-37074062D01*
X63213062Y-37046297D01*
X63225500Y-36983767D01*
X63225500Y-36816233D01*
X63192816Y-36651918D01*
X63136613Y-36516233D01*
X63128704Y-36497139D01*
X63035626Y-36357837D01*
X62917162Y-36239373D01*
X62777860Y-36146295D01*
X62623082Y-36082184D01*
X62623074Y-36082182D01*
X62458771Y-36049500D01*
X62458767Y-36049500D01*
X62291233Y-36049500D01*
X62291228Y-36049500D01*
X62126925Y-36082182D01*
X62126917Y-36082184D01*
X61972139Y-36146295D01*
X61832837Y-36239373D01*
X61714373Y-36357837D01*
X61621295Y-36497139D01*
X61557184Y-36651917D01*
X61557182Y-36651925D01*
X61524500Y-36816228D01*
X41761611Y-36816228D01*
X41753705Y-36797141D01*
X41753704Y-36797139D01*
X41660626Y-36657837D01*
X41542162Y-36539373D01*
X41402860Y-36446295D01*
X41248082Y-36382184D01*
X41248074Y-36382182D01*
X41083771Y-36349500D01*
X41083767Y-36349500D01*
X40916233Y-36349500D01*
X40916228Y-36349500D01*
X40751925Y-36382182D01*
X40751917Y-36382184D01*
X40597139Y-36446295D01*
X40457837Y-36539373D01*
X40339373Y-36657837D01*
X40246295Y-36797139D01*
X40182184Y-36951917D01*
X40182182Y-36951925D01*
X40149500Y-37116228D01*
X35603033Y-37116228D01*
X35553703Y-36997137D01*
X35521873Y-36949500D01*
X35460626Y-36857837D01*
X35342162Y-36739373D01*
X35202860Y-36646295D01*
X35048082Y-36582184D01*
X35048074Y-36582182D01*
X34883771Y-36549500D01*
X34883767Y-36549500D01*
X34716233Y-36549500D01*
X34716228Y-36549500D01*
X34551925Y-36582182D01*
X34551917Y-36582184D01*
X34397139Y-36646295D01*
X34257837Y-36739373D01*
X34139373Y-36857837D01*
X34046295Y-36997139D01*
X33982184Y-37151917D01*
X33982182Y-37151925D01*
X33949500Y-37316228D01*
X28058948Y-37316228D01*
X28142162Y-37260626D01*
X28156493Y-37246295D01*
X28180329Y-37222460D01*
X28260623Y-37142165D01*
X28260626Y-37142162D01*
X28277952Y-37116232D01*
X28353703Y-37002863D01*
X28417816Y-36848082D01*
X28450500Y-36683767D01*
X28450500Y-36516233D01*
X28417816Y-36351918D01*
X28414028Y-36342775D01*
X28406560Y-36273307D01*
X28437835Y-36210828D01*
X28497924Y-36175175D01*
X28566908Y-36177392D01*
X28627678Y-36197137D01*
X28648677Y-36203960D01*
X28868645Y-36238800D01*
X28868646Y-36238800D01*
X29091354Y-36238800D01*
X29091355Y-36238800D01*
X29311323Y-36203960D01*
X29311326Y-36203959D01*
X29311327Y-36203959D01*
X29523130Y-36135140D01*
X29523130Y-36135139D01*
X29523133Y-36135139D01*
X29560248Y-36116228D01*
X36749500Y-36116228D01*
X36749500Y-36283771D01*
X36782182Y-36448074D01*
X36782184Y-36448082D01*
X36846295Y-36602860D01*
X36939373Y-36742162D01*
X37057837Y-36860626D01*
X37150494Y-36922537D01*
X37197137Y-36953703D01*
X37351918Y-37017816D01*
X37495093Y-37046295D01*
X37516228Y-37050499D01*
X37516232Y-37050500D01*
X37516233Y-37050500D01*
X37683768Y-37050500D01*
X37683769Y-37050499D01*
X37848082Y-37017816D01*
X38002863Y-36953703D01*
X38142162Y-36860626D01*
X38260626Y-36742162D01*
X38353703Y-36602863D01*
X38417816Y-36448082D01*
X38450500Y-36283767D01*
X38450500Y-36116233D01*
X38417816Y-35951918D01*
X38353703Y-35797137D01*
X38317444Y-35742872D01*
X38260626Y-35657837D01*
X38142162Y-35539373D01*
X38002860Y-35446295D01*
X37848082Y-35382184D01*
X37848074Y-35382182D01*
X37683771Y-35349500D01*
X37683767Y-35349500D01*
X37516233Y-35349500D01*
X37516228Y-35349500D01*
X37351925Y-35382182D01*
X37351917Y-35382184D01*
X37197139Y-35446295D01*
X37057837Y-35539373D01*
X36939373Y-35657837D01*
X36846295Y-35797139D01*
X36782184Y-35951917D01*
X36782182Y-35951925D01*
X36749500Y-36116228D01*
X29560248Y-36116228D01*
X29721569Y-36034031D01*
X29901745Y-35903125D01*
X30059225Y-35745645D01*
X30190131Y-35565469D01*
X30291239Y-35367033D01*
X30300226Y-35339373D01*
X30360059Y-35155227D01*
X30360059Y-35155226D01*
X30360060Y-35155223D01*
X30394900Y-34935255D01*
X30394900Y-34712545D01*
X30360060Y-34492577D01*
X30360059Y-34492573D01*
X30360059Y-34492572D01*
X30291240Y-34280769D01*
X30249299Y-34198455D01*
X30190131Y-34082331D01*
X30059225Y-33902155D01*
X29901745Y-33744675D01*
X29721569Y-33613769D01*
X29547042Y-33524843D01*
X29523130Y-33512659D01*
X29311326Y-33443840D01*
X29240446Y-33432614D01*
X29218268Y-33429101D01*
X29091355Y-33409000D01*
X28868645Y-33409000D01*
X28795322Y-33420613D01*
X28648675Y-33443840D01*
X28648672Y-33443840D01*
X28436869Y-33512659D01*
X28436864Y-33512661D01*
X28412956Y-33524843D01*
X28344287Y-33537737D01*
X28279547Y-33511458D01*
X28239292Y-33454351D01*
X28235048Y-33438547D01*
X28217817Y-33351925D01*
X28217816Y-33351918D01*
X28203033Y-33316228D01*
X32949500Y-33316228D01*
X32949500Y-33483771D01*
X32982182Y-33648074D01*
X32982184Y-33648082D01*
X33046295Y-33802860D01*
X33139373Y-33942162D01*
X33257837Y-34060626D01*
X33317512Y-34100499D01*
X33397137Y-34153703D01*
X33397138Y-34153703D01*
X33397139Y-34153704D01*
X33427372Y-34166227D01*
X33551918Y-34217816D01*
X33695093Y-34246295D01*
X33716228Y-34250499D01*
X33716232Y-34250500D01*
X33716233Y-34250500D01*
X33883768Y-34250500D01*
X33883769Y-34250499D01*
X34048082Y-34217816D01*
X34202863Y-34153703D01*
X34342162Y-34060626D01*
X34460626Y-33942162D01*
X34477955Y-33916228D01*
X40774500Y-33916228D01*
X40774500Y-34083771D01*
X40807182Y-34248074D01*
X40807184Y-34248082D01*
X40871295Y-34402860D01*
X40964373Y-34542161D01*
X40967800Y-34546337D01*
X40995112Y-34610647D01*
X40983319Y-34679515D01*
X40967800Y-34703663D01*
X40964373Y-34707838D01*
X40871295Y-34847139D01*
X40807184Y-35001917D01*
X40807182Y-35001925D01*
X40774500Y-35166228D01*
X40774500Y-35333771D01*
X40807182Y-35498074D01*
X40807184Y-35498082D01*
X40871295Y-35652860D01*
X40964373Y-35792162D01*
X41082837Y-35910626D01*
X41144646Y-35951925D01*
X41222137Y-36003703D01*
X41376918Y-36067816D01*
X41541228Y-36100499D01*
X41541232Y-36100500D01*
X41541233Y-36100500D01*
X41708768Y-36100500D01*
X41708769Y-36100499D01*
X41873082Y-36067816D01*
X42027863Y-36003703D01*
X42167162Y-35910626D01*
X42207603Y-35870185D01*
X42287319Y-35790470D01*
X42348642Y-35756985D01*
X42418334Y-35761969D01*
X42462681Y-35790470D01*
X42582837Y-35910626D01*
X42644646Y-35951925D01*
X42722137Y-36003703D01*
X42876918Y-36067816D01*
X43041228Y-36100499D01*
X43041232Y-36100500D01*
X43041233Y-36100500D01*
X43208768Y-36100500D01*
X43208769Y-36100499D01*
X43373082Y-36067816D01*
X43527863Y-36003703D01*
X43667162Y-35910626D01*
X43785626Y-35792162D01*
X43878703Y-35652863D01*
X43942816Y-35498082D01*
X43975500Y-35333767D01*
X43975500Y-35166233D01*
X43942816Y-35001918D01*
X43907322Y-34916228D01*
X45149498Y-34916228D01*
X45149498Y-35083771D01*
X45182180Y-35248074D01*
X45182182Y-35248082D01*
X45246293Y-35402860D01*
X45339371Y-35542162D01*
X45457835Y-35660626D01*
X45541050Y-35716228D01*
X45597135Y-35753703D01*
X45751916Y-35817816D01*
X45889993Y-35845281D01*
X45916226Y-35850499D01*
X45916230Y-35850500D01*
X45916231Y-35850500D01*
X46083766Y-35850500D01*
X46083767Y-35850499D01*
X46248080Y-35817816D01*
X46402861Y-35753703D01*
X46542160Y-35660626D01*
X46660624Y-35542162D01*
X46753701Y-35402863D01*
X46817814Y-35248082D01*
X46850498Y-35083767D01*
X46850498Y-34948736D01*
X46860043Y-34916228D01*
X48949500Y-34916228D01*
X48949500Y-35083771D01*
X48982182Y-35248074D01*
X48982184Y-35248082D01*
X49046295Y-35402860D01*
X49139373Y-35542162D01*
X49257837Y-35660626D01*
X49341052Y-35716228D01*
X49397137Y-35753703D01*
X49551918Y-35817816D01*
X49689995Y-35845281D01*
X49716228Y-35850499D01*
X49716232Y-35850500D01*
X49716233Y-35850500D01*
X49883768Y-35850500D01*
X49883769Y-35850499D01*
X50048082Y-35817816D01*
X50202863Y-35753703D01*
X50331110Y-35668010D01*
X50397786Y-35647133D01*
X50465167Y-35665617D01*
X50468874Y-35668000D01*
X50597137Y-35753703D01*
X50751918Y-35817816D01*
X50889995Y-35845281D01*
X50916228Y-35850499D01*
X50916232Y-35850500D01*
X51041118Y-35850500D01*
X51108157Y-35870185D01*
X51153912Y-35922989D01*
X51162735Y-35950309D01*
X51182182Y-36048074D01*
X51182184Y-36048082D01*
X51246295Y-36202860D01*
X51339373Y-36342162D01*
X51457837Y-36460626D01*
X51541052Y-36516228D01*
X51597137Y-36553703D01*
X51751918Y-36617816D01*
X51895093Y-36646295D01*
X51916228Y-36650499D01*
X51916232Y-36650500D01*
X51916233Y-36650500D01*
X52083768Y-36650500D01*
X52083769Y-36650499D01*
X52248082Y-36617816D01*
X52402863Y-36553703D01*
X52542162Y-36460626D01*
X52660626Y-36342162D01*
X52753703Y-36202863D01*
X52817816Y-36048082D01*
X52850500Y-35883767D01*
X52850500Y-35716233D01*
X52840554Y-35666233D01*
X52840553Y-35666228D01*
X78899500Y-35666228D01*
X78899500Y-35833771D01*
X78932182Y-35998074D01*
X78932184Y-35998082D01*
X78996295Y-36152860D01*
X79089373Y-36292162D01*
X79207837Y-36410626D01*
X79282668Y-36460626D01*
X79347137Y-36503703D01*
X79501918Y-36567816D01*
X79666228Y-36600499D01*
X79666232Y-36600500D01*
X79666233Y-36600500D01*
X79833768Y-36600500D01*
X79833769Y-36600499D01*
X79998082Y-36567816D01*
X80152863Y-36503703D01*
X80292162Y-36410626D01*
X80410626Y-36292162D01*
X80503703Y-36152863D01*
X80550184Y-36040648D01*
X80594023Y-35986246D01*
X80660317Y-35964181D01*
X80728017Y-35981460D01*
X80775628Y-36032597D01*
X80779600Y-36042558D01*
X80779853Y-36042454D01*
X80782183Y-36048081D01*
X80782184Y-36048082D01*
X80786225Y-36057837D01*
X80846295Y-36202860D01*
X80939373Y-36342162D01*
X81057837Y-36460626D01*
X81141052Y-36516228D01*
X81197137Y-36553703D01*
X81351918Y-36617816D01*
X81495093Y-36646295D01*
X81516228Y-36650499D01*
X81516232Y-36650500D01*
X81516233Y-36650500D01*
X81683768Y-36650500D01*
X81683769Y-36650499D01*
X81848082Y-36617816D01*
X82002863Y-36553703D01*
X82142162Y-36460626D01*
X82260626Y-36342162D01*
X82353703Y-36202863D01*
X82417816Y-36048082D01*
X82444043Y-35916228D01*
X91949500Y-35916228D01*
X91949500Y-36083771D01*
X91982182Y-36248074D01*
X91982184Y-36248082D01*
X92046295Y-36402860D01*
X92139373Y-36542162D01*
X92257837Y-36660626D01*
X92350494Y-36722537D01*
X92397137Y-36753703D01*
X92551918Y-36817816D01*
X92704037Y-36848074D01*
X92716228Y-36850499D01*
X92716232Y-36850500D01*
X92716233Y-36850500D01*
X92883768Y-36850500D01*
X92883769Y-36850499D01*
X93048082Y-36817816D01*
X93202863Y-36753703D01*
X93342162Y-36660626D01*
X93460626Y-36542162D01*
X93553703Y-36402863D01*
X93617816Y-36248082D01*
X93650500Y-36083767D01*
X93650500Y-35916233D01*
X93617816Y-35751918D01*
X93553703Y-35597137D01*
X93496968Y-35512227D01*
X93460626Y-35457837D01*
X93342162Y-35339373D01*
X93202860Y-35246295D01*
X93048082Y-35182184D01*
X93048074Y-35182182D01*
X92883771Y-35149500D01*
X92883767Y-35149500D01*
X92716233Y-35149500D01*
X92716228Y-35149500D01*
X92551925Y-35182182D01*
X92551917Y-35182184D01*
X92397139Y-35246295D01*
X92257837Y-35339373D01*
X92139373Y-35457837D01*
X92046295Y-35597139D01*
X91982184Y-35751917D01*
X91982182Y-35751925D01*
X91949500Y-35916228D01*
X82444043Y-35916228D01*
X82450500Y-35883767D01*
X82450500Y-35716233D01*
X82417816Y-35551918D01*
X82353703Y-35397137D01*
X82311360Y-35333767D01*
X82260626Y-35257837D01*
X82142162Y-35139373D01*
X82002860Y-35046295D01*
X81848082Y-34982184D01*
X81848074Y-34982182D01*
X81683771Y-34949500D01*
X81683767Y-34949500D01*
X81516233Y-34949500D01*
X81516228Y-34949500D01*
X81351925Y-34982182D01*
X81351917Y-34982184D01*
X81197139Y-35046295D01*
X81057837Y-35139373D01*
X80939373Y-35257837D01*
X80846295Y-35397139D01*
X80799816Y-35509350D01*
X80755975Y-35563754D01*
X80689680Y-35585818D01*
X80621981Y-35568538D01*
X80574371Y-35517401D01*
X80570401Y-35507440D01*
X80570147Y-35507546D01*
X80567815Y-35501917D01*
X80503703Y-35347137D01*
X80444035Y-35257838D01*
X80410626Y-35207837D01*
X80292162Y-35089373D01*
X80152860Y-34996295D01*
X79998082Y-34932184D01*
X79998074Y-34932182D01*
X79833771Y-34899500D01*
X79833767Y-34899500D01*
X79666233Y-34899500D01*
X79666228Y-34899500D01*
X79501925Y-34932182D01*
X79501917Y-34932184D01*
X79347139Y-34996295D01*
X79207837Y-35089373D01*
X79089373Y-35207837D01*
X78996295Y-35347139D01*
X78932184Y-35501917D01*
X78932182Y-35501925D01*
X78899500Y-35666228D01*
X52840553Y-35666228D01*
X52826811Y-35597139D01*
X52817816Y-35551918D01*
X52753703Y-35397137D01*
X52678013Y-35283860D01*
X52657136Y-35217183D01*
X52675621Y-35149803D01*
X52727599Y-35103113D01*
X52796569Y-35091937D01*
X52805294Y-35093350D01*
X52841232Y-35100499D01*
X53008767Y-35100499D01*
X53008768Y-35100498D01*
X53173081Y-35067815D01*
X53327862Y-35003702D01*
X53467161Y-34910625D01*
X53585625Y-34792161D01*
X53638823Y-34712545D01*
X99205100Y-34712545D01*
X99205100Y-34935255D01*
X99222520Y-35045239D01*
X99239940Y-35155224D01*
X99239940Y-35155227D01*
X99308759Y-35367030D01*
X99402964Y-35551917D01*
X99409869Y-35565469D01*
X99540775Y-35745645D01*
X99698255Y-35903125D01*
X99878431Y-36034031D01*
X100039752Y-36116228D01*
X100076869Y-36135140D01*
X100288673Y-36203959D01*
X100288674Y-36203959D01*
X100288677Y-36203960D01*
X100508645Y-36238800D01*
X100508646Y-36238800D01*
X100731354Y-36238800D01*
X100731355Y-36238800D01*
X100951323Y-36203960D01*
X100951326Y-36203959D01*
X100951327Y-36203959D01*
X101163130Y-36135140D01*
X101163130Y-36135139D01*
X101163133Y-36135139D01*
X101361569Y-36034031D01*
X101541745Y-35903125D01*
X101699225Y-35745645D01*
X101830131Y-35565469D01*
X101931239Y-35367033D01*
X101940226Y-35339373D01*
X102000059Y-35155227D01*
X102000059Y-35155226D01*
X102000060Y-35155223D01*
X102034900Y-34935255D01*
X102034900Y-34712545D01*
X102000060Y-34492577D01*
X102000059Y-34492573D01*
X102000059Y-34492572D01*
X101931240Y-34280769D01*
X101889299Y-34198455D01*
X101830131Y-34082331D01*
X101699225Y-33902155D01*
X101541745Y-33744675D01*
X101361569Y-33613769D01*
X101187042Y-33524843D01*
X101163130Y-33512659D01*
X100951326Y-33443840D01*
X100786347Y-33417710D01*
X100731355Y-33409000D01*
X100508645Y-33409000D01*
X100435322Y-33420613D01*
X100288675Y-33443840D01*
X100288672Y-33443840D01*
X100076869Y-33512659D01*
X99878430Y-33613769D01*
X99782087Y-33683767D01*
X99698255Y-33744675D01*
X99698253Y-33744677D01*
X99698252Y-33744677D01*
X99540777Y-33902152D01*
X99540777Y-33902153D01*
X99540775Y-33902155D01*
X99530547Y-33916233D01*
X99409869Y-34082330D01*
X99308759Y-34280769D01*
X99239940Y-34492572D01*
X99239940Y-34492575D01*
X99206507Y-34703663D01*
X99205100Y-34712545D01*
X53638823Y-34712545D01*
X53678702Y-34652862D01*
X53742815Y-34498081D01*
X53775499Y-34333766D01*
X53775499Y-34166232D01*
X53742815Y-34001917D01*
X53678702Y-33847136D01*
X53615079Y-33751918D01*
X53585625Y-33707836D01*
X53467161Y-33589372D01*
X53327859Y-33496294D01*
X53173081Y-33432183D01*
X53173073Y-33432181D01*
X53008770Y-33399499D01*
X53008766Y-33399499D01*
X52841232Y-33399499D01*
X52841227Y-33399499D01*
X52676924Y-33432181D01*
X52676916Y-33432183D01*
X52522138Y-33496294D01*
X52382836Y-33589372D01*
X52264372Y-33707836D01*
X52171294Y-33847138D01*
X52107183Y-34001916D01*
X52107181Y-34001924D01*
X52074499Y-34166227D01*
X52074499Y-34333770D01*
X52107181Y-34498073D01*
X52107183Y-34498081D01*
X52171294Y-34652859D01*
X52246984Y-34766137D01*
X52267862Y-34832815D01*
X52249377Y-34900195D01*
X52197398Y-34946885D01*
X52137504Y-34958864D01*
X52128516Y-34958401D01*
X52083767Y-34949500D01*
X51955688Y-34949500D01*
X51952504Y-34949336D01*
X51922419Y-34938793D01*
X51891843Y-34929815D01*
X51889681Y-34927320D01*
X51886566Y-34926229D01*
X51866951Y-34901088D01*
X51846088Y-34877011D01*
X51844620Y-34872466D01*
X51843587Y-34871142D01*
X51843347Y-34868524D01*
X51837265Y-34849691D01*
X51820644Y-34766137D01*
X51817816Y-34751918D01*
X51753703Y-34597137D01*
X51687516Y-34498081D01*
X51660626Y-34457837D01*
X51542162Y-34339373D01*
X51402860Y-34246295D01*
X51248082Y-34182184D01*
X51248074Y-34182182D01*
X51083771Y-34149500D01*
X51083767Y-34149500D01*
X50916233Y-34149500D01*
X50916228Y-34149500D01*
X50751925Y-34182182D01*
X50751917Y-34182184D01*
X50597138Y-34246296D01*
X50597134Y-34246298D01*
X50468890Y-34331988D01*
X50402213Y-34352866D01*
X50334833Y-34334381D01*
X50331110Y-34331988D01*
X50202865Y-34246298D01*
X50202861Y-34246296D01*
X50048082Y-34182184D01*
X50048074Y-34182182D01*
X49883771Y-34149500D01*
X49883767Y-34149500D01*
X49716233Y-34149500D01*
X49716228Y-34149500D01*
X49551925Y-34182182D01*
X49551917Y-34182184D01*
X49397139Y-34246295D01*
X49257837Y-34339373D01*
X49139373Y-34457837D01*
X49046295Y-34597139D01*
X48982184Y-34751917D01*
X48982182Y-34751925D01*
X48949500Y-34916228D01*
X46860043Y-34916228D01*
X46870183Y-34881697D01*
X46922987Y-34835942D01*
X46992145Y-34825998D01*
X46998673Y-34827116D01*
X47116231Y-34850499D01*
X47116232Y-34850500D01*
X47116233Y-34850500D01*
X47283768Y-34850500D01*
X47283769Y-34850499D01*
X47448082Y-34817816D01*
X47602863Y-34753703D01*
X47742162Y-34660626D01*
X47860626Y-34542162D01*
X47953703Y-34402863D01*
X48017816Y-34248082D01*
X48050500Y-34083767D01*
X48050500Y-33916233D01*
X48017816Y-33751918D01*
X47953703Y-33597137D01*
X47934828Y-33568889D01*
X47913951Y-33502214D01*
X47932435Y-33434834D01*
X47934829Y-33431109D01*
X47953703Y-33402863D01*
X48017816Y-33248082D01*
X48034098Y-33166228D01*
X61874500Y-33166228D01*
X61874500Y-33333771D01*
X61907182Y-33498074D01*
X61907184Y-33498082D01*
X61971295Y-33652860D01*
X62064373Y-33792162D01*
X62182837Y-33910626D01*
X62230039Y-33942165D01*
X62322137Y-34003703D01*
X62476918Y-34067816D01*
X62641228Y-34100499D01*
X62641232Y-34100500D01*
X62641233Y-34100500D01*
X62808768Y-34100500D01*
X62808769Y-34100499D01*
X62973082Y-34067816D01*
X63127863Y-34003703D01*
X63267162Y-33910626D01*
X63385626Y-33792162D01*
X63478703Y-33652863D01*
X63542816Y-33498082D01*
X63575500Y-33333767D01*
X63575500Y-33166233D01*
X63575499Y-33166228D01*
X64124500Y-33166228D01*
X64124500Y-33333771D01*
X64157182Y-33498074D01*
X64157184Y-33498082D01*
X64221295Y-33652860D01*
X64314373Y-33792162D01*
X64432837Y-33910626D01*
X64480039Y-33942165D01*
X64572137Y-34003703D01*
X64726918Y-34067816D01*
X64891228Y-34100499D01*
X64891232Y-34100500D01*
X64891233Y-34100500D01*
X65058768Y-34100500D01*
X65058769Y-34100499D01*
X65223082Y-34067816D01*
X65377863Y-34003703D01*
X65517162Y-33910626D01*
X65635626Y-33792162D01*
X65728703Y-33652863D01*
X65792816Y-33498082D01*
X65825500Y-33333767D01*
X65825500Y-33316228D01*
X83349500Y-33316228D01*
X83349500Y-33483771D01*
X83382182Y-33648074D01*
X83382184Y-33648082D01*
X83446295Y-33802860D01*
X83539373Y-33942162D01*
X83657837Y-34060626D01*
X83717512Y-34100499D01*
X83797137Y-34153703D01*
X83797138Y-34153703D01*
X83797139Y-34153704D01*
X83827372Y-34166227D01*
X83951918Y-34217816D01*
X84095093Y-34246295D01*
X84116228Y-34250499D01*
X84116232Y-34250500D01*
X84116233Y-34250500D01*
X84283768Y-34250500D01*
X84283769Y-34250499D01*
X84448082Y-34217816D01*
X84602863Y-34153703D01*
X84742162Y-34060626D01*
X84860626Y-33942162D01*
X84953703Y-33802863D01*
X85017816Y-33648082D01*
X85050500Y-33483767D01*
X85050500Y-33316233D01*
X85017816Y-33151918D01*
X84955686Y-33001925D01*
X84953704Y-32997139D01*
X84937058Y-32972227D01*
X84915106Y-32939373D01*
X84860626Y-32857837D01*
X84742162Y-32739373D01*
X84602860Y-32646295D01*
X84448082Y-32582184D01*
X84448074Y-32582182D01*
X84283771Y-32549500D01*
X84283767Y-32549500D01*
X84116233Y-32549500D01*
X84116228Y-32549500D01*
X83951925Y-32582182D01*
X83951917Y-32582184D01*
X83797139Y-32646295D01*
X83657837Y-32739373D01*
X83539373Y-32857837D01*
X83446295Y-32997139D01*
X83382184Y-33151917D01*
X83382182Y-33151925D01*
X83349500Y-33316228D01*
X65825500Y-33316228D01*
X65825500Y-33166233D01*
X65792816Y-33001918D01*
X65728703Y-32847137D01*
X65665084Y-32751925D01*
X65635626Y-32707837D01*
X65517162Y-32589373D01*
X65377860Y-32496295D01*
X65223082Y-32432184D01*
X65223074Y-32432182D01*
X65058771Y-32399500D01*
X65058767Y-32399500D01*
X64891233Y-32399500D01*
X64891228Y-32399500D01*
X64726925Y-32432182D01*
X64726917Y-32432184D01*
X64572139Y-32496295D01*
X64432837Y-32589373D01*
X64314373Y-32707837D01*
X64221295Y-32847139D01*
X64157184Y-33001917D01*
X64157182Y-33001925D01*
X64124500Y-33166228D01*
X63575499Y-33166228D01*
X63542816Y-33001918D01*
X63478703Y-32847137D01*
X63415084Y-32751925D01*
X63385626Y-32707837D01*
X63267162Y-32589373D01*
X63127860Y-32496295D01*
X62973082Y-32432184D01*
X62973074Y-32432182D01*
X62808771Y-32399500D01*
X62808767Y-32399500D01*
X62641233Y-32399500D01*
X62641228Y-32399500D01*
X62476925Y-32432182D01*
X62476917Y-32432184D01*
X62322139Y-32496295D01*
X62182837Y-32589373D01*
X62064373Y-32707837D01*
X61971295Y-32847139D01*
X61907184Y-33001917D01*
X61907182Y-33001925D01*
X61874500Y-33166228D01*
X48034098Y-33166228D01*
X48050500Y-33083767D01*
X48050500Y-32916233D01*
X48017816Y-32751918D01*
X47953703Y-32597137D01*
X47905318Y-32524724D01*
X47860626Y-32457837D01*
X47742162Y-32339373D01*
X47602860Y-32246295D01*
X47448082Y-32182184D01*
X47448074Y-32182182D01*
X47283771Y-32149500D01*
X47283767Y-32149500D01*
X47116233Y-32149500D01*
X47116228Y-32149500D01*
X46951925Y-32182182D01*
X46951917Y-32182184D01*
X46797139Y-32246295D01*
X46657837Y-32339373D01*
X46539373Y-32457837D01*
X46446295Y-32597139D01*
X46382184Y-32751917D01*
X46382182Y-32751925D01*
X46349500Y-32916228D01*
X46349500Y-33083771D01*
X46382182Y-33248074D01*
X46382184Y-33248082D01*
X46446295Y-33402859D01*
X46446302Y-33402872D01*
X46465170Y-33431111D01*
X46486047Y-33497789D01*
X46467561Y-33565168D01*
X46465170Y-33568889D01*
X46446302Y-33597127D01*
X46446295Y-33597140D01*
X46382184Y-33751917D01*
X46382182Y-33751925D01*
X46349500Y-33916228D01*
X46349500Y-34051263D01*
X46329815Y-34118302D01*
X46277011Y-34164057D01*
X46207853Y-34174001D01*
X46201309Y-34172880D01*
X46083769Y-34149500D01*
X46083765Y-34149500D01*
X45916231Y-34149500D01*
X45916226Y-34149500D01*
X45751923Y-34182182D01*
X45751915Y-34182184D01*
X45597137Y-34246295D01*
X45457835Y-34339373D01*
X45339371Y-34457837D01*
X45246293Y-34597139D01*
X45182182Y-34751917D01*
X45182180Y-34751925D01*
X45149498Y-34916228D01*
X43907322Y-34916228D01*
X43878703Y-34847137D01*
X43785626Y-34707838D01*
X43785624Y-34707835D01*
X43782205Y-34703669D01*
X43754888Y-34639361D01*
X43766676Y-34570493D01*
X43782205Y-34546331D01*
X43785624Y-34542164D01*
X43785626Y-34542162D01*
X43878703Y-34402863D01*
X43942816Y-34248082D01*
X43975500Y-34083767D01*
X43975500Y-33916233D01*
X43942816Y-33751918D01*
X43878703Y-33597137D01*
X43839013Y-33537737D01*
X43785626Y-33457837D01*
X43667162Y-33339373D01*
X43527860Y-33246295D01*
X43373082Y-33182184D01*
X43373074Y-33182182D01*
X43208771Y-33149500D01*
X43208767Y-33149500D01*
X43041233Y-33149500D01*
X43041228Y-33149500D01*
X42876925Y-33182182D01*
X42876917Y-33182184D01*
X42722139Y-33246295D01*
X42582837Y-33339373D01*
X42582834Y-33339376D01*
X42462681Y-33459530D01*
X42401358Y-33493015D01*
X42331666Y-33488031D01*
X42287319Y-33459530D01*
X42167162Y-33339373D01*
X42027860Y-33246295D01*
X41873082Y-33182184D01*
X41873074Y-33182182D01*
X41708771Y-33149500D01*
X41708767Y-33149500D01*
X41541233Y-33149500D01*
X41541228Y-33149500D01*
X41376925Y-33182182D01*
X41376917Y-33182184D01*
X41222139Y-33246295D01*
X41082837Y-33339373D01*
X40964373Y-33457837D01*
X40871295Y-33597139D01*
X40807184Y-33751917D01*
X40807182Y-33751925D01*
X40774500Y-33916228D01*
X34477955Y-33916228D01*
X34553703Y-33802863D01*
X34617816Y-33648082D01*
X34650500Y-33483767D01*
X34650500Y-33316233D01*
X34617816Y-33151918D01*
X34555686Y-33001925D01*
X34553704Y-32997139D01*
X34537058Y-32972227D01*
X34515106Y-32939373D01*
X34460626Y-32857837D01*
X34342162Y-32739373D01*
X34307523Y-32716228D01*
X34949500Y-32716228D01*
X34949500Y-32883771D01*
X34982182Y-33048074D01*
X34982184Y-33048082D01*
X35046295Y-33202860D01*
X35139373Y-33342162D01*
X35257837Y-33460626D01*
X35341052Y-33516228D01*
X35397137Y-33553703D01*
X35551918Y-33617816D01*
X35704037Y-33648074D01*
X35716228Y-33650499D01*
X35716232Y-33650500D01*
X35716233Y-33650500D01*
X35883768Y-33650500D01*
X35883769Y-33650499D01*
X36048082Y-33617816D01*
X36202863Y-33553703D01*
X36342162Y-33460626D01*
X36460626Y-33342162D01*
X36553703Y-33202863D01*
X36617816Y-33048082D01*
X36650500Y-32883767D01*
X36650500Y-32716233D01*
X36617816Y-32551918D01*
X36553703Y-32397137D01*
X36490084Y-32301925D01*
X36460626Y-32257837D01*
X36342162Y-32139373D01*
X36202860Y-32046295D01*
X36048082Y-31982184D01*
X36048074Y-31982182D01*
X35883771Y-31949500D01*
X35883767Y-31949500D01*
X35716233Y-31949500D01*
X35716228Y-31949500D01*
X35551925Y-31982182D01*
X35551917Y-31982184D01*
X35397139Y-32046295D01*
X35257837Y-32139373D01*
X35139373Y-32257837D01*
X35046295Y-32397139D01*
X34982184Y-32551917D01*
X34982182Y-32551925D01*
X34949500Y-32716228D01*
X34307523Y-32716228D01*
X34202860Y-32646295D01*
X34048082Y-32582184D01*
X34048074Y-32582182D01*
X33883771Y-32549500D01*
X33883767Y-32549500D01*
X33716233Y-32549500D01*
X33716228Y-32549500D01*
X33551925Y-32582182D01*
X33551917Y-32582184D01*
X33397139Y-32646295D01*
X33257837Y-32739373D01*
X33139373Y-32857837D01*
X33046295Y-32997139D01*
X32982184Y-33151917D01*
X32982182Y-33151925D01*
X32949500Y-33316228D01*
X28203033Y-33316228D01*
X28153703Y-33197137D01*
X28077954Y-33083771D01*
X28060626Y-33057837D01*
X27942162Y-32939373D01*
X27802860Y-32846295D01*
X27648082Y-32782184D01*
X27648074Y-32782182D01*
X27483771Y-32749500D01*
X27483767Y-32749500D01*
X27316233Y-32749500D01*
X27316228Y-32749500D01*
X27151925Y-32782182D01*
X27151917Y-32782184D01*
X26997139Y-32846295D01*
X26857837Y-32939373D01*
X26739373Y-33057837D01*
X26646295Y-33197139D01*
X26582184Y-33351917D01*
X26582182Y-33351925D01*
X26549500Y-33516228D01*
X26300500Y-33516228D01*
X26300500Y-31716228D01*
X36749500Y-31716228D01*
X36749500Y-31883771D01*
X36782182Y-32048074D01*
X36782184Y-32048082D01*
X36846295Y-32202860D01*
X36939373Y-32342162D01*
X37057837Y-32460626D01*
X37145696Y-32519331D01*
X37197137Y-32553703D01*
X37197138Y-32553703D01*
X37197139Y-32553704D01*
X37231206Y-32567815D01*
X37351918Y-32617816D01*
X37495093Y-32646295D01*
X37516228Y-32650499D01*
X37516232Y-32650500D01*
X37516233Y-32650500D01*
X37683768Y-32650500D01*
X37683769Y-32650499D01*
X37848082Y-32617816D01*
X38002863Y-32553703D01*
X38142162Y-32460626D01*
X38260626Y-32342162D01*
X38353703Y-32202863D01*
X38389589Y-32116228D01*
X39549500Y-32116228D01*
X39549500Y-32283771D01*
X39582182Y-32448074D01*
X39582184Y-32448082D01*
X39646295Y-32602860D01*
X39739373Y-32742162D01*
X39857837Y-32860626D01*
X39941052Y-32916228D01*
X39997137Y-32953703D01*
X40151918Y-33017816D01*
X40304037Y-33048074D01*
X40316228Y-33050499D01*
X40316232Y-33050500D01*
X40316233Y-33050500D01*
X40483768Y-33050500D01*
X40483769Y-33050499D01*
X40648082Y-33017816D01*
X40802863Y-32953703D01*
X40942162Y-32860626D01*
X41060626Y-32742162D01*
X41153703Y-32602863D01*
X41217816Y-32448082D01*
X41250500Y-32283767D01*
X41250500Y-32116233D01*
X41217816Y-31951918D01*
X41153703Y-31797137D01*
X41108233Y-31729086D01*
X41060626Y-31657837D01*
X40942162Y-31539373D01*
X40802860Y-31446295D01*
X40648082Y-31382184D01*
X40648074Y-31382182D01*
X40483771Y-31349500D01*
X40483767Y-31349500D01*
X40316233Y-31349500D01*
X40316228Y-31349500D01*
X40151925Y-31382182D01*
X40151917Y-31382184D01*
X39997139Y-31446295D01*
X39857837Y-31539373D01*
X39739373Y-31657837D01*
X39646295Y-31797139D01*
X39582184Y-31951917D01*
X39582182Y-31951925D01*
X39549500Y-32116228D01*
X38389589Y-32116228D01*
X38417816Y-32048082D01*
X38450500Y-31883767D01*
X38450500Y-31716233D01*
X38417816Y-31551918D01*
X38353703Y-31397137D01*
X38299851Y-31316542D01*
X38260626Y-31257837D01*
X38142162Y-31139373D01*
X38002860Y-31046295D01*
X37848082Y-30982184D01*
X37848074Y-30982182D01*
X37683771Y-30949500D01*
X37683767Y-30949500D01*
X37516233Y-30949500D01*
X37516228Y-30949500D01*
X37351925Y-30982182D01*
X37351917Y-30982184D01*
X37197139Y-31046295D01*
X37057837Y-31139373D01*
X36939373Y-31257837D01*
X36846295Y-31397139D01*
X36782184Y-31551917D01*
X36782182Y-31551925D01*
X36749500Y-31716228D01*
X26300500Y-31716228D01*
X26300500Y-29916228D01*
X39949500Y-29916228D01*
X39949500Y-30083771D01*
X39982182Y-30248074D01*
X39982184Y-30248082D01*
X40046295Y-30402860D01*
X40139373Y-30542162D01*
X40257837Y-30660626D01*
X40269734Y-30668575D01*
X40397137Y-30753703D01*
X40551918Y-30817816D01*
X40699326Y-30847137D01*
X40716228Y-30850499D01*
X40716232Y-30850500D01*
X40716233Y-30850500D01*
X40883768Y-30850500D01*
X40883769Y-30850499D01*
X41048082Y-30817816D01*
X41202863Y-30753703D01*
X41342162Y-30660626D01*
X41460626Y-30542162D01*
X41553703Y-30402863D01*
X41617816Y-30248082D01*
X41650500Y-30083767D01*
X41650500Y-29916233D01*
X41617816Y-29751918D01*
X41617814Y-29751913D01*
X41617254Y-29750066D01*
X41617244Y-29749043D01*
X41616628Y-29745943D01*
X41617215Y-29745826D01*
X41616626Y-29680199D01*
X41653870Y-29621084D01*
X41717162Y-29591489D01*
X41786407Y-29600810D01*
X41823593Y-29626382D01*
X41857837Y-29660626D01*
X41997138Y-29753704D01*
X42065924Y-29782195D01*
X42116120Y-29802987D01*
X42170522Y-29846828D01*
X42192587Y-29913122D01*
X42175308Y-29980821D01*
X42171769Y-29986437D01*
X42150922Y-30017637D01*
X42150921Y-30017639D01*
X42086809Y-30172418D01*
X42086807Y-30172426D01*
X42054125Y-30336729D01*
X42054125Y-30504272D01*
X42086807Y-30668575D01*
X42086809Y-30668583D01*
X42150920Y-30823361D01*
X42243998Y-30962663D01*
X42362462Y-31081127D01*
X42374805Y-31089374D01*
X42501762Y-31174204D01*
X42656543Y-31238317D01*
X42754678Y-31257837D01*
X42820853Y-31271000D01*
X42820857Y-31271001D01*
X42820858Y-31271001D01*
X42988393Y-31271001D01*
X42988394Y-31271000D01*
X43152707Y-31238317D01*
X43307488Y-31174204D01*
X43446787Y-31081127D01*
X43565251Y-30962663D01*
X43658328Y-30823364D01*
X43722441Y-30668583D01*
X43755125Y-30504268D01*
X43755125Y-30336734D01*
X43755119Y-30336706D01*
X43754647Y-30334328D01*
X43754647Y-30334327D01*
X43751047Y-30316228D01*
X44949502Y-30316228D01*
X44949502Y-30483771D01*
X44982184Y-30648074D01*
X44982186Y-30648082D01*
X45046297Y-30802860D01*
X45139375Y-30942162D01*
X45257839Y-31060626D01*
X45300864Y-31089374D01*
X45397139Y-31153703D01*
X45551920Y-31217816D01*
X45716230Y-31250499D01*
X45716234Y-31250500D01*
X45716235Y-31250500D01*
X45883770Y-31250500D01*
X45883771Y-31250499D01*
X46048084Y-31217816D01*
X46202865Y-31153703D01*
X46342164Y-31060626D01*
X46436562Y-30966228D01*
X60974500Y-30966228D01*
X60974500Y-31133771D01*
X61007182Y-31298074D01*
X61007184Y-31298082D01*
X61071295Y-31452860D01*
X61164373Y-31592162D01*
X61282837Y-31710626D01*
X61375494Y-31772537D01*
X61422137Y-31803703D01*
X61576918Y-31867816D01*
X61705544Y-31893401D01*
X61741228Y-31900499D01*
X61741232Y-31900500D01*
X61741233Y-31900500D01*
X61908768Y-31900500D01*
X61908769Y-31900499D01*
X61944474Y-31893397D01*
X65947331Y-31893397D01*
X65947331Y-32060940D01*
X65980013Y-32225243D01*
X65980015Y-32225251D01*
X66044126Y-32380029D01*
X66137204Y-32519331D01*
X66255668Y-32637795D01*
X66328884Y-32686716D01*
X66394968Y-32730872D01*
X66549749Y-32794985D01*
X66714059Y-32827668D01*
X66714063Y-32827669D01*
X66714064Y-32827669D01*
X66881599Y-32827669D01*
X66881600Y-32827668D01*
X67045913Y-32794985D01*
X67200694Y-32730872D01*
X67339993Y-32637795D01*
X67458457Y-32519331D01*
X67551534Y-32380032D01*
X67615647Y-32225251D01*
X67648331Y-32060936D01*
X67648331Y-31893402D01*
X67615647Y-31729087D01*
X67589610Y-31666228D01*
X71274500Y-31666228D01*
X71274500Y-31833771D01*
X71307182Y-31998074D01*
X71307184Y-31998082D01*
X71371295Y-32152860D01*
X71464373Y-32292162D01*
X71582837Y-32410626D01*
X71653494Y-32457837D01*
X71722137Y-32503703D01*
X71876918Y-32567816D01*
X71989391Y-32590188D01*
X72041228Y-32600499D01*
X72041232Y-32600500D01*
X72041233Y-32600500D01*
X72208768Y-32600500D01*
X72208769Y-32600499D01*
X72373082Y-32567816D01*
X72527863Y-32503703D01*
X72667162Y-32410626D01*
X72785626Y-32292162D01*
X72878703Y-32152863D01*
X72942816Y-31998082D01*
X72975500Y-31833767D01*
X72975500Y-31716228D01*
X86124500Y-31716228D01*
X86124500Y-31883771D01*
X86157182Y-32048074D01*
X86157184Y-32048082D01*
X86221295Y-32202860D01*
X86314373Y-32342162D01*
X86432837Y-32460626D01*
X86520696Y-32519331D01*
X86572137Y-32553703D01*
X86572138Y-32553703D01*
X86572139Y-32553704D01*
X86606206Y-32567815D01*
X86726918Y-32617816D01*
X86870093Y-32646295D01*
X86891228Y-32650499D01*
X86891232Y-32650500D01*
X86891233Y-32650500D01*
X87058768Y-32650500D01*
X87058769Y-32650499D01*
X87223082Y-32617816D01*
X87377863Y-32553703D01*
X87508778Y-32466228D01*
X91624500Y-32466228D01*
X91624500Y-32633771D01*
X91657182Y-32798074D01*
X91657184Y-32798082D01*
X91721295Y-32952860D01*
X91814373Y-33092162D01*
X91932837Y-33210626D01*
X92025494Y-33272537D01*
X92072137Y-33303703D01*
X92226918Y-33367816D01*
X92386201Y-33399499D01*
X92391228Y-33400499D01*
X92391232Y-33400500D01*
X92391233Y-33400500D01*
X92558768Y-33400500D01*
X92558769Y-33400499D01*
X92723082Y-33367816D01*
X92877863Y-33303703D01*
X93017162Y-33210626D01*
X93135626Y-33092162D01*
X93228703Y-32952863D01*
X93292816Y-32798082D01*
X93325500Y-32633767D01*
X93325500Y-32466233D01*
X93292816Y-32301918D01*
X93228703Y-32147137D01*
X93135626Y-32007838D01*
X93135623Y-32007833D01*
X93132242Y-32003713D01*
X93104931Y-31939402D01*
X93116725Y-31870535D01*
X93140418Y-31837370D01*
X93185626Y-31792162D01*
X93190941Y-31784208D01*
X93278703Y-31652863D01*
X93342816Y-31498082D01*
X93375500Y-31333767D01*
X93375500Y-31166233D01*
X93342816Y-31001918D01*
X93278703Y-30847137D01*
X93208561Y-30742162D01*
X93185626Y-30707837D01*
X93067162Y-30589373D01*
X92927860Y-30496295D01*
X92773082Y-30432184D01*
X92773074Y-30432182D01*
X92608771Y-30399500D01*
X92608767Y-30399500D01*
X92441233Y-30399500D01*
X92441228Y-30399500D01*
X92276925Y-30432182D01*
X92276917Y-30432184D01*
X92122139Y-30496295D01*
X91982837Y-30589373D01*
X91864373Y-30707837D01*
X91771295Y-30847139D01*
X91707184Y-31001917D01*
X91707182Y-31001925D01*
X91674500Y-31166228D01*
X91674500Y-31333771D01*
X91707182Y-31498074D01*
X91707184Y-31498082D01*
X91771295Y-31652860D01*
X91864376Y-31792166D01*
X91867758Y-31796287D01*
X91895068Y-31860599D01*
X91883273Y-31929466D01*
X91859583Y-31962627D01*
X91814373Y-32007837D01*
X91721295Y-32147139D01*
X91657184Y-32301917D01*
X91657182Y-32301925D01*
X91624500Y-32466228D01*
X87508778Y-32466228D01*
X87517162Y-32460626D01*
X87545606Y-32432182D01*
X87605329Y-32372460D01*
X87635623Y-32342165D01*
X87635626Y-32342162D01*
X87637490Y-32339373D01*
X87728703Y-32202863D01*
X87792816Y-32048082D01*
X87825500Y-31883767D01*
X87825500Y-31716233D01*
X87792816Y-31551918D01*
X87728703Y-31397137D01*
X87674851Y-31316542D01*
X87635626Y-31257837D01*
X87517162Y-31139373D01*
X87377860Y-31046295D01*
X87223082Y-30982184D01*
X87223074Y-30982182D01*
X87058771Y-30949500D01*
X87058767Y-30949500D01*
X86891233Y-30949500D01*
X86891228Y-30949500D01*
X86726925Y-30982182D01*
X86726917Y-30982184D01*
X86572139Y-31046295D01*
X86432837Y-31139373D01*
X86314373Y-31257837D01*
X86221295Y-31397139D01*
X86157184Y-31551917D01*
X86157182Y-31551925D01*
X86124500Y-31716228D01*
X72975500Y-31716228D01*
X72975500Y-31666233D01*
X72942816Y-31501918D01*
X72878703Y-31347137D01*
X72845920Y-31298074D01*
X72785626Y-31207837D01*
X72667162Y-31089373D01*
X72527860Y-30996295D01*
X72373082Y-30932184D01*
X72373074Y-30932182D01*
X72208771Y-30899500D01*
X72208767Y-30899500D01*
X72041233Y-30899500D01*
X72041228Y-30899500D01*
X71876925Y-30932182D01*
X71876917Y-30932184D01*
X71722139Y-30996295D01*
X71582837Y-31089373D01*
X71464373Y-31207837D01*
X71371295Y-31347139D01*
X71307184Y-31501917D01*
X71307182Y-31501925D01*
X71274500Y-31666228D01*
X67589610Y-31666228D01*
X67551534Y-31574306D01*
X67520368Y-31527663D01*
X67458457Y-31435006D01*
X67339993Y-31316542D01*
X67200691Y-31223464D01*
X67045913Y-31159353D01*
X67045905Y-31159351D01*
X66881602Y-31126669D01*
X66881598Y-31126669D01*
X66714064Y-31126669D01*
X66714059Y-31126669D01*
X66549756Y-31159351D01*
X66549748Y-31159353D01*
X66394970Y-31223464D01*
X66255668Y-31316542D01*
X66137204Y-31435006D01*
X66044126Y-31574308D01*
X65980015Y-31729086D01*
X65980013Y-31729094D01*
X65947331Y-31893397D01*
X61944474Y-31893397D01*
X62073082Y-31867816D01*
X62227863Y-31803703D01*
X62367162Y-31710626D01*
X62485626Y-31592162D01*
X62578703Y-31452863D01*
X62642816Y-31298082D01*
X62675500Y-31133767D01*
X62675500Y-30966233D01*
X62642816Y-30801918D01*
X62580096Y-30650499D01*
X62578704Y-30647139D01*
X62559110Y-30617815D01*
X62508561Y-30542162D01*
X62485626Y-30507837D01*
X62367162Y-30389373D01*
X62227860Y-30296295D01*
X62073082Y-30232184D01*
X62073074Y-30232182D01*
X61908771Y-30199500D01*
X61908767Y-30199500D01*
X61741233Y-30199500D01*
X61741228Y-30199500D01*
X61576925Y-30232182D01*
X61576917Y-30232184D01*
X61422139Y-30296295D01*
X61282837Y-30389373D01*
X61164373Y-30507837D01*
X61071295Y-30647139D01*
X61007184Y-30801917D01*
X61007182Y-30801925D01*
X60974500Y-30966228D01*
X46436562Y-30966228D01*
X46460628Y-30942162D01*
X46489134Y-30899500D01*
X46494647Y-30891250D01*
X46515109Y-30860626D01*
X46553705Y-30802863D01*
X46617818Y-30648082D01*
X46650502Y-30483767D01*
X46650502Y-30316233D01*
X46617818Y-30151918D01*
X46562197Y-30017638D01*
X46553706Y-29997139D01*
X46523490Y-29951918D01*
X46522539Y-29950494D01*
X46460628Y-29857837D01*
X46342164Y-29739373D01*
X46307525Y-29716228D01*
X48349500Y-29716228D01*
X48349500Y-29883771D01*
X48382182Y-30048074D01*
X48382184Y-30048082D01*
X48446295Y-30202860D01*
X48539373Y-30342162D01*
X48657837Y-30460626D01*
X48728494Y-30507837D01*
X48797137Y-30553703D01*
X48951918Y-30617816D01*
X49099326Y-30647137D01*
X49116228Y-30650499D01*
X49116232Y-30650500D01*
X49116233Y-30650500D01*
X49283768Y-30650500D01*
X49283769Y-30650499D01*
X49448082Y-30617816D01*
X49602863Y-30553703D01*
X49742162Y-30460626D01*
X49860626Y-30342162D01*
X49953703Y-30202863D01*
X50017816Y-30048082D01*
X50050500Y-29883767D01*
X50050500Y-29716233D01*
X50043332Y-29680199D01*
X50040553Y-29666228D01*
X56024500Y-29666228D01*
X56024500Y-29833771D01*
X56057182Y-29998074D01*
X56057184Y-29998082D01*
X56121295Y-30152860D01*
X56214373Y-30292162D01*
X56332837Y-30410626D01*
X56407668Y-30460626D01*
X56472137Y-30503703D01*
X56472138Y-30503703D01*
X56472139Y-30503704D01*
X56501131Y-30515713D01*
X56626918Y-30567816D01*
X56791228Y-30600499D01*
X56791232Y-30600500D01*
X56791233Y-30600500D01*
X56958768Y-30600500D01*
X56958769Y-30600499D01*
X57123082Y-30567816D01*
X57277863Y-30503703D01*
X57417162Y-30410626D01*
X57417168Y-30410619D01*
X57421268Y-30407255D01*
X57485574Y-30379933D01*
X57554443Y-30391715D01*
X57587627Y-30415416D01*
X57632837Y-30460626D01*
X57703494Y-30507837D01*
X57772137Y-30553703D01*
X57926918Y-30617816D01*
X58074326Y-30647137D01*
X58091228Y-30650499D01*
X58091232Y-30650500D01*
X58091233Y-30650500D01*
X58258768Y-30650500D01*
X58258769Y-30650499D01*
X58423082Y-30617816D01*
X58577863Y-30553703D01*
X58717162Y-30460626D01*
X58835626Y-30342162D01*
X58928703Y-30202863D01*
X58928705Y-30202857D01*
X58931578Y-30197485D01*
X58933562Y-30198546D01*
X58971079Y-30151984D01*
X59037372Y-30129915D01*
X59105072Y-30147190D01*
X59136116Y-30175474D01*
X59137077Y-30174654D01*
X59140239Y-30178356D01*
X59140241Y-30178359D01*
X59276641Y-30314759D01*
X59432698Y-30428141D01*
X59604571Y-30515715D01*
X59788028Y-30575324D01*
X59978551Y-30605500D01*
X59978552Y-30605500D01*
X60171448Y-30605500D01*
X60171449Y-30605500D01*
X60361972Y-30575324D01*
X60545429Y-30515715D01*
X60717302Y-30428141D01*
X60873359Y-30314759D01*
X61009759Y-30178359D01*
X61123141Y-30022302D01*
X61210715Y-29850429D01*
X61270324Y-29666972D01*
X61300500Y-29476449D01*
X61300500Y-29074806D01*
X61320185Y-29007767D01*
X61372989Y-28962012D01*
X61400309Y-28953189D01*
X61562658Y-28920896D01*
X61562661Y-28920894D01*
X61562666Y-28920894D01*
X61726547Y-28853013D01*
X61874035Y-28754464D01*
X61999464Y-28629035D01*
X62098013Y-28481547D01*
X62165894Y-28317666D01*
X62200500Y-28143691D01*
X62200500Y-27966309D01*
X62200500Y-27966306D01*
X62200499Y-27966304D01*
X65399500Y-27966304D01*
X65399500Y-28143695D01*
X65434103Y-28317658D01*
X65434106Y-28317667D01*
X65501983Y-28481540D01*
X65501990Y-28481553D01*
X65600535Y-28629034D01*
X65600538Y-28629038D01*
X65725961Y-28754461D01*
X65725965Y-28754464D01*
X65873446Y-28853009D01*
X65873459Y-28853016D01*
X65985684Y-28899500D01*
X66037334Y-28920894D01*
X66037336Y-28920894D01*
X66037341Y-28920896D01*
X66199691Y-28953189D01*
X66261602Y-28985574D01*
X66296176Y-29046289D01*
X66299500Y-29074806D01*
X66299500Y-29476448D01*
X66329675Y-29666969D01*
X66329676Y-29666972D01*
X66389285Y-29850429D01*
X66476859Y-30022302D01*
X66590241Y-30178359D01*
X66726641Y-30314759D01*
X66882698Y-30428141D01*
X67054571Y-30515715D01*
X67238028Y-30575324D01*
X67428551Y-30605500D01*
X67428552Y-30605500D01*
X67621448Y-30605500D01*
X67621449Y-30605500D01*
X67811972Y-30575324D01*
X67995429Y-30515715D01*
X68167302Y-30428141D01*
X68323359Y-30314759D01*
X68459759Y-30178359D01*
X68504900Y-30116228D01*
X83349500Y-30116228D01*
X83349500Y-30283771D01*
X83382182Y-30448074D01*
X83382184Y-30448082D01*
X83446295Y-30602860D01*
X83539373Y-30742162D01*
X83657837Y-30860626D01*
X83750494Y-30922537D01*
X83797137Y-30953703D01*
X83951918Y-31017816D01*
X84095093Y-31046295D01*
X84116228Y-31050499D01*
X84116232Y-31050500D01*
X84116233Y-31050500D01*
X84283768Y-31050500D01*
X84283769Y-31050499D01*
X84448082Y-31017816D01*
X84602863Y-30953703D01*
X84742162Y-30860626D01*
X84860626Y-30742162D01*
X84953703Y-30602863D01*
X85017816Y-30448082D01*
X85050500Y-30283767D01*
X85050500Y-30116233D01*
X85017816Y-29951918D01*
X84953703Y-29797137D01*
X84915106Y-29739373D01*
X84860626Y-29657837D01*
X84742162Y-29539373D01*
X84602860Y-29446295D01*
X84448082Y-29382184D01*
X84448074Y-29382182D01*
X84283771Y-29349500D01*
X84283767Y-29349500D01*
X84116233Y-29349500D01*
X84116228Y-29349500D01*
X83951925Y-29382182D01*
X83951917Y-29382184D01*
X83797139Y-29446295D01*
X83657837Y-29539373D01*
X83539373Y-29657837D01*
X83446295Y-29797139D01*
X83382184Y-29951917D01*
X83382182Y-29951925D01*
X83349500Y-30116228D01*
X68504900Y-30116228D01*
X68573141Y-30022302D01*
X68660715Y-29850429D01*
X68720324Y-29666972D01*
X68750500Y-29476449D01*
X68750500Y-28866228D01*
X70274500Y-28866228D01*
X70274500Y-29033771D01*
X70307182Y-29198074D01*
X70307184Y-29198082D01*
X70371295Y-29352860D01*
X70464373Y-29492162D01*
X70582837Y-29610626D01*
X70598489Y-29621084D01*
X70722137Y-29703703D01*
X70876918Y-29767816D01*
X71024326Y-29797137D01*
X71041228Y-29800499D01*
X71041232Y-29800500D01*
X71041233Y-29800500D01*
X71208768Y-29800500D01*
X71208769Y-29800499D01*
X71373082Y-29767816D01*
X71527863Y-29703703D01*
X71667162Y-29610626D01*
X71785626Y-29492162D01*
X71878703Y-29352863D01*
X71942816Y-29198082D01*
X71975500Y-29033767D01*
X71975500Y-28866233D01*
X71942816Y-28701918D01*
X71878703Y-28547137D01*
X71834877Y-28481547D01*
X71806472Y-28439035D01*
X71806471Y-28439034D01*
X71785626Y-28407838D01*
X71785623Y-28407834D01*
X71754019Y-28376230D01*
X93549500Y-28376230D01*
X93549500Y-28543773D01*
X93582182Y-28708076D01*
X93582184Y-28708084D01*
X93646295Y-28862862D01*
X93739373Y-29002164D01*
X93857837Y-29120628D01*
X93914185Y-29158278D01*
X93997137Y-29213705D01*
X94151918Y-29277818D01*
X94316228Y-29310501D01*
X94316232Y-29310502D01*
X94316233Y-29310502D01*
X94483768Y-29310502D01*
X94483769Y-29310501D01*
X94648082Y-29277818D01*
X94802863Y-29213705D01*
X94942162Y-29120628D01*
X95060626Y-29002164D01*
X95153703Y-28862865D01*
X95217816Y-28708084D01*
X95250500Y-28543769D01*
X95250500Y-28376235D01*
X95217816Y-28211920D01*
X95153703Y-28057139D01*
X95093009Y-27966304D01*
X95060626Y-27917839D01*
X94942162Y-27799375D01*
X94802860Y-27706297D01*
X94648082Y-27642186D01*
X94648074Y-27642184D01*
X94483771Y-27609502D01*
X94483767Y-27609502D01*
X94316233Y-27609502D01*
X94316228Y-27609502D01*
X94151925Y-27642184D01*
X94151917Y-27642186D01*
X93997139Y-27706297D01*
X93857837Y-27799375D01*
X93739373Y-27917839D01*
X93646295Y-28057141D01*
X93582184Y-28211919D01*
X93582182Y-28211927D01*
X93549500Y-28376230D01*
X71754019Y-28376230D01*
X71667162Y-28289373D01*
X71527860Y-28196295D01*
X71373082Y-28132184D01*
X71373074Y-28132182D01*
X71208771Y-28099500D01*
X71208767Y-28099500D01*
X71041233Y-28099500D01*
X71041228Y-28099500D01*
X70876925Y-28132182D01*
X70876917Y-28132184D01*
X70722139Y-28196295D01*
X70582837Y-28289373D01*
X70464373Y-28407837D01*
X70371295Y-28547139D01*
X70307184Y-28701917D01*
X70307182Y-28701925D01*
X70274500Y-28866228D01*
X68750500Y-28866228D01*
X68750500Y-28733551D01*
X68720324Y-28543028D01*
X68660715Y-28359571D01*
X68573141Y-28187698D01*
X68459759Y-28031641D01*
X68323359Y-27895241D01*
X68167302Y-27781859D01*
X67995429Y-27694285D01*
X67811972Y-27634676D01*
X67811970Y-27634675D01*
X67811969Y-27634675D01*
X67653030Y-27609502D01*
X67621449Y-27604500D01*
X67428551Y-27604500D01*
X67396970Y-27609502D01*
X67238026Y-27634676D01*
X67238018Y-27634678D01*
X67215672Y-27641938D01*
X67145831Y-27643931D01*
X67085999Y-27607849D01*
X67074256Y-27592897D01*
X66999464Y-27480965D01*
X66999461Y-27480961D01*
X66874038Y-27355538D01*
X66874034Y-27355535D01*
X66726553Y-27256990D01*
X66726540Y-27256983D01*
X66562667Y-27189106D01*
X66562658Y-27189103D01*
X66388694Y-27154500D01*
X66388691Y-27154500D01*
X66211309Y-27154500D01*
X66211306Y-27154500D01*
X66037341Y-27189103D01*
X66037332Y-27189106D01*
X65873459Y-27256983D01*
X65873446Y-27256990D01*
X65725965Y-27355535D01*
X65725961Y-27355538D01*
X65600538Y-27480961D01*
X65600535Y-27480965D01*
X65501990Y-27628446D01*
X65501983Y-27628459D01*
X65434106Y-27792332D01*
X65434103Y-27792341D01*
X65399500Y-27966304D01*
X62200499Y-27966304D01*
X62165896Y-27792341D01*
X62165893Y-27792332D01*
X62157806Y-27772809D01*
X62125281Y-27694285D01*
X62098016Y-27628459D01*
X62098009Y-27628446D01*
X61999464Y-27480965D01*
X61999461Y-27480961D01*
X61874038Y-27355538D01*
X61874034Y-27355535D01*
X61726553Y-27256990D01*
X61726540Y-27256983D01*
X61562667Y-27189106D01*
X61562658Y-27189103D01*
X61388694Y-27154500D01*
X61388691Y-27154500D01*
X61211309Y-27154500D01*
X61211306Y-27154500D01*
X61037341Y-27189103D01*
X61037332Y-27189106D01*
X60873459Y-27256983D01*
X60873446Y-27256990D01*
X60725965Y-27355535D01*
X60725961Y-27355538D01*
X60600538Y-27480961D01*
X60525743Y-27592899D01*
X60472130Y-27637703D01*
X60402805Y-27646410D01*
X60384325Y-27641939D01*
X60384322Y-27641938D01*
X60361972Y-27634676D01*
X60361968Y-27634675D01*
X60361967Y-27634675D01*
X60203030Y-27609502D01*
X60171449Y-27604500D01*
X59978551Y-27604500D01*
X59946970Y-27609502D01*
X59788030Y-27634675D01*
X59604568Y-27694286D01*
X59432697Y-27781859D01*
X59343661Y-27846547D01*
X59276641Y-27895241D01*
X59276639Y-27895243D01*
X59276638Y-27895243D01*
X59140243Y-28031638D01*
X59140243Y-28031639D01*
X59140241Y-28031641D01*
X59091547Y-28098661D01*
X59026859Y-28187697D01*
X58939286Y-28359568D01*
X58879675Y-28543030D01*
X58849500Y-28733551D01*
X58849500Y-28995811D01*
X58829815Y-29062850D01*
X58777011Y-29108605D01*
X58707853Y-29118549D01*
X58656610Y-29098914D01*
X58633452Y-29083440D01*
X58577863Y-29046297D01*
X58577860Y-29046295D01*
X58577859Y-29046295D01*
X58423082Y-28982184D01*
X58423074Y-28982182D01*
X58258771Y-28949500D01*
X58258767Y-28949500D01*
X58091233Y-28949500D01*
X58091228Y-28949500D01*
X57926925Y-28982182D01*
X57926917Y-28982184D01*
X57772139Y-29046295D01*
X57632836Y-29139374D01*
X57628719Y-29142754D01*
X57564410Y-29170068D01*
X57495542Y-29158278D01*
X57462372Y-29134583D01*
X57417162Y-29089373D01*
X57277860Y-28996295D01*
X57123082Y-28932184D01*
X57123074Y-28932182D01*
X56958771Y-28899500D01*
X56958767Y-28899500D01*
X56791233Y-28899500D01*
X56791228Y-28899500D01*
X56626925Y-28932182D01*
X56626917Y-28932184D01*
X56472139Y-28996295D01*
X56332837Y-29089373D01*
X56214373Y-29207837D01*
X56121295Y-29347139D01*
X56057184Y-29501917D01*
X56057182Y-29501925D01*
X56024500Y-29666228D01*
X50040553Y-29666228D01*
X50026811Y-29597139D01*
X50017816Y-29551918D01*
X49953703Y-29397137D01*
X49895815Y-29310502D01*
X49860626Y-29257837D01*
X49742162Y-29139373D01*
X49602860Y-29046295D01*
X49448082Y-28982184D01*
X49448074Y-28982182D01*
X49283771Y-28949500D01*
X49283767Y-28949500D01*
X49116233Y-28949500D01*
X49116228Y-28949500D01*
X48951925Y-28982182D01*
X48951917Y-28982184D01*
X48797139Y-29046295D01*
X48657837Y-29139373D01*
X48539373Y-29257837D01*
X48446295Y-29397139D01*
X48382184Y-29551917D01*
X48382182Y-29551925D01*
X48349500Y-29716228D01*
X46307525Y-29716228D01*
X46202862Y-29646295D01*
X46048084Y-29582184D01*
X46048076Y-29582182D01*
X45883773Y-29549500D01*
X45883769Y-29549500D01*
X45716235Y-29549500D01*
X45716230Y-29549500D01*
X45551927Y-29582182D01*
X45551919Y-29582184D01*
X45397141Y-29646295D01*
X45257839Y-29739373D01*
X45139375Y-29857837D01*
X45046297Y-29997139D01*
X44982186Y-30151917D01*
X44982184Y-30151925D01*
X44949502Y-30316228D01*
X43751047Y-30316228D01*
X43733239Y-30226709D01*
X43722441Y-30172419D01*
X43658328Y-30017638D01*
X43614415Y-29951918D01*
X43565251Y-29878338D01*
X43446787Y-29759874D01*
X43307485Y-29666796D01*
X43188505Y-29617513D01*
X43134102Y-29573672D01*
X43112037Y-29507377D01*
X43129316Y-29439678D01*
X43132844Y-29434079D01*
X43153703Y-29402863D01*
X43217816Y-29248082D01*
X43250500Y-29083767D01*
X43250500Y-28916233D01*
X43217816Y-28751918D01*
X43153703Y-28597137D01*
X43118044Y-28543770D01*
X43060626Y-28457837D01*
X42942162Y-28339373D01*
X42802860Y-28246295D01*
X42648082Y-28182184D01*
X42648074Y-28182182D01*
X42483771Y-28149500D01*
X42483767Y-28149500D01*
X42316233Y-28149500D01*
X42316228Y-28149500D01*
X42151925Y-28182182D01*
X42151917Y-28182184D01*
X41997139Y-28246295D01*
X41857837Y-28339373D01*
X41739373Y-28457837D01*
X41646295Y-28597139D01*
X41582184Y-28751917D01*
X41582182Y-28751925D01*
X41549500Y-28916228D01*
X41549500Y-29083771D01*
X41582183Y-29248082D01*
X41582748Y-29249943D01*
X41582757Y-29250965D01*
X41583372Y-29254057D01*
X41582785Y-29254173D01*
X41583371Y-29319809D01*
X41546121Y-29378922D01*
X41482827Y-29408512D01*
X41413583Y-29399185D01*
X41376406Y-29373617D01*
X41342162Y-29339373D01*
X41202860Y-29246295D01*
X41048082Y-29182184D01*
X41048074Y-29182182D01*
X40883771Y-29149500D01*
X40883767Y-29149500D01*
X40716233Y-29149500D01*
X40716228Y-29149500D01*
X40551925Y-29182182D01*
X40551917Y-29182184D01*
X40397139Y-29246295D01*
X40257837Y-29339373D01*
X40139373Y-29457837D01*
X40046295Y-29597139D01*
X39982184Y-29751917D01*
X39982182Y-29751925D01*
X39949500Y-29916228D01*
X26300500Y-29916228D01*
X26300500Y-26740737D01*
X35171500Y-26740737D01*
X35171500Y-27006662D01*
X35195520Y-27189103D01*
X35206209Y-27270290D01*
X35229051Y-27355538D01*
X35275031Y-27527138D01*
X35275034Y-27527148D01*
X35376787Y-27772800D01*
X35376791Y-27772809D01*
X35400919Y-27814600D01*
X35509745Y-28003092D01*
X35617634Y-28143695D01*
X35671620Y-28214051D01*
X35671625Y-28214057D01*
X35859642Y-28402074D01*
X35859646Y-28402077D01*
X35859648Y-28402079D01*
X36070608Y-28563955D01*
X36300893Y-28696910D01*
X36546561Y-28798669D01*
X36803410Y-28867491D01*
X37067045Y-28902200D01*
X37067052Y-28902200D01*
X37332948Y-28902200D01*
X37332955Y-28902200D01*
X37596590Y-28867491D01*
X37853439Y-28798669D01*
X38099107Y-28696910D01*
X38329392Y-28563955D01*
X38540352Y-28402079D01*
X38728379Y-28214052D01*
X38742005Y-28196295D01*
X38752834Y-28182182D01*
X38890255Y-28003092D01*
X39023210Y-27772807D01*
X39124969Y-27527139D01*
X39193791Y-27270290D01*
X39228500Y-27006655D01*
X39228500Y-26740745D01*
X39193791Y-26477110D01*
X39188937Y-26458995D01*
X51524499Y-26458995D01*
X51551418Y-26594322D01*
X51551421Y-26594332D01*
X51604221Y-26721804D01*
X51604228Y-26721817D01*
X51680885Y-26836541D01*
X51680888Y-26836545D01*
X51778454Y-26934111D01*
X51778458Y-26934114D01*
X51893182Y-27010771D01*
X51893195Y-27010778D01*
X52020667Y-27063578D01*
X52020672Y-27063580D01*
X52020676Y-27063580D01*
X52020677Y-27063581D01*
X52156004Y-27090500D01*
X52156007Y-27090500D01*
X52293995Y-27090500D01*
X52385041Y-27072389D01*
X52429328Y-27063580D01*
X52556811Y-27010775D01*
X52671542Y-26934114D01*
X52769114Y-26836542D01*
X52845775Y-26721811D01*
X52851618Y-26707706D01*
X52898578Y-26594332D01*
X52898580Y-26594328D01*
X52921895Y-26477118D01*
X52925500Y-26458995D01*
X54524499Y-26458995D01*
X54551418Y-26594322D01*
X54551421Y-26594332D01*
X54604221Y-26721804D01*
X54604228Y-26721817D01*
X54680885Y-26836541D01*
X54680888Y-26836545D01*
X54778454Y-26934111D01*
X54778458Y-26934114D01*
X54893182Y-27010771D01*
X54893195Y-27010778D01*
X55020667Y-27063578D01*
X55020672Y-27063580D01*
X55020676Y-27063580D01*
X55020677Y-27063581D01*
X55156004Y-27090500D01*
X55156007Y-27090500D01*
X55293995Y-27090500D01*
X55385041Y-27072389D01*
X55429328Y-27063580D01*
X55556811Y-27010775D01*
X55671542Y-26934114D01*
X55769114Y-26836542D01*
X55845775Y-26721811D01*
X55851618Y-26707706D01*
X55898578Y-26594332D01*
X55898580Y-26594328D01*
X55921895Y-26477118D01*
X55925500Y-26458995D01*
X55925500Y-26321004D01*
X55898581Y-26185677D01*
X55898580Y-26185676D01*
X55898580Y-26185672D01*
X55849920Y-26068195D01*
X55845778Y-26058195D01*
X55845771Y-26058182D01*
X55769114Y-25943458D01*
X55769111Y-25943454D01*
X55671545Y-25845888D01*
X55671541Y-25845885D01*
X55556817Y-25769228D01*
X55556804Y-25769221D01*
X55429332Y-25716421D01*
X55429322Y-25716418D01*
X55293995Y-25689500D01*
X55293993Y-25689500D01*
X55156007Y-25689500D01*
X55156005Y-25689500D01*
X55020677Y-25716418D01*
X55020667Y-25716421D01*
X54893195Y-25769221D01*
X54893182Y-25769228D01*
X54778458Y-25845885D01*
X54778454Y-25845888D01*
X54680888Y-25943454D01*
X54680885Y-25943458D01*
X54604228Y-26058182D01*
X54604221Y-26058195D01*
X54551421Y-26185667D01*
X54551418Y-26185677D01*
X54524500Y-26321004D01*
X54524500Y-26321007D01*
X54524500Y-26458993D01*
X54524500Y-26458995D01*
X54524499Y-26458995D01*
X52925500Y-26458995D01*
X52925500Y-26321004D01*
X52898581Y-26185677D01*
X52898580Y-26185676D01*
X52898580Y-26185672D01*
X52849920Y-26068195D01*
X52845778Y-26058195D01*
X52845771Y-26058182D01*
X52769114Y-25943458D01*
X52769111Y-25943454D01*
X52671545Y-25845888D01*
X52671541Y-25845885D01*
X52556817Y-25769228D01*
X52556804Y-25769221D01*
X52429332Y-25716421D01*
X52429322Y-25716418D01*
X52293995Y-25689500D01*
X52293993Y-25689500D01*
X52156007Y-25689500D01*
X52156005Y-25689500D01*
X52020677Y-25716418D01*
X52020667Y-25716421D01*
X51893195Y-25769221D01*
X51893182Y-25769228D01*
X51778458Y-25845885D01*
X51778454Y-25845888D01*
X51680888Y-25943454D01*
X51680885Y-25943458D01*
X51604228Y-26058182D01*
X51604221Y-26058195D01*
X51551421Y-26185667D01*
X51551418Y-26185677D01*
X51524500Y-26321004D01*
X51524500Y-26321007D01*
X51524500Y-26458993D01*
X51524500Y-26458995D01*
X51524499Y-26458995D01*
X39188937Y-26458995D01*
X39124969Y-26220261D01*
X39023210Y-25974593D01*
X38890255Y-25744308D01*
X38728379Y-25533348D01*
X38728377Y-25533346D01*
X38728374Y-25533342D01*
X38540357Y-25345325D01*
X38540352Y-25345321D01*
X38329392Y-25183445D01*
X38099107Y-25050490D01*
X38099100Y-25050487D01*
X37853448Y-24948734D01*
X37853441Y-24948732D01*
X37853439Y-24948731D01*
X37596590Y-24879909D01*
X37552528Y-24874108D01*
X37332962Y-24845200D01*
X37332955Y-24845200D01*
X37067045Y-24845200D01*
X37067037Y-24845200D01*
X36816103Y-24878237D01*
X36803410Y-24879909D01*
X36745761Y-24895356D01*
X36546561Y-24948731D01*
X36546551Y-24948734D01*
X36300899Y-25050487D01*
X36300890Y-25050491D01*
X36070614Y-25183441D01*
X36070607Y-25183446D01*
X35859642Y-25345325D01*
X35671625Y-25533342D01*
X35509746Y-25744307D01*
X35509741Y-25744314D01*
X35376791Y-25974590D01*
X35376787Y-25974599D01*
X35275034Y-26220251D01*
X35275031Y-26220261D01*
X35208384Y-26468995D01*
X35206210Y-26477107D01*
X35206208Y-26477118D01*
X35171500Y-26740737D01*
X26300500Y-26740737D01*
X26300500Y-24424500D01*
X26320185Y-24357461D01*
X26372989Y-24311706D01*
X26424500Y-24300500D01*
X50049167Y-24300500D01*
X50116206Y-24320185D01*
G37*
%TD.AperFunction*%
%TD*%
M02*
