M48
; DRILL file {KiCad 9.0.6} date 2026-03-25T10:17:11+0100
; FORMAT={-:-/ absolute / metric / decimal}
; #@! TF.CreationDate,2026-03-25T10:17:11+01:00
; #@! TF.GenerationSoftware,Kicad,Pcbnew,9.0.6
; #@! TF.FileFunction,Plated,1,4,PTH
FMAT,2
METRIC
; #@! TA.AperFunction,Plated,PTH,ViaDrill
T1C0.300
; #@! TA.AperFunction,Plated,PTH,ComponentDrill
T2C0.550
; #@! TA.AperFunction,Plated,PTH,ComponentDrill
T3C0.850
; #@! TA.AperFunction,Plated,PTH,ComponentDrill
T4C1.000
; #@! TA.AperFunction,Plated,PTH,ComponentDrill
T5C1.321
%
G90
G05
T1
X27.4Y-33.6
X27.6Y-36.6
X27.625Y-52.75
X28.0Y-55.6
X28.2Y-39.6
X28.2Y-41.8
X28.2Y-47.2
X28.2Y-49.4
X29.8Y-49.4
X31.4Y-49.4
X33.0Y-49.4
X33.4Y-39.6
X33.4Y-41.8
X33.4Y-47.2
X33.6Y-55.2
X33.8Y-33.4
X34.6Y-49.4
X34.8Y-37.4
X35.0Y-39.6
X35.8Y-32.8
X35.8Y-41.0
X35.8Y-42.6
X35.8Y-46.4
X35.8Y-48.0
X36.8Y-59.8
X37.6Y-31.8
X37.6Y-36.2
X38.4Y-58.2
X38.6Y-62.6
X38.8Y-57.2
X39.089Y-39.0
X39.8Y-62.8
X40.0Y-39.0
X40.075Y-55.8
X40.4Y-32.2
X40.4Y-58.2
X40.8Y-30.0
X41.0Y-37.2
X41.0Y-56.5
X41.625Y-34.0
X41.625Y-35.25
X41.8Y-39.6
X42.4Y-29.0
X42.425Y-34.6
X42.8Y-39.6
X42.905Y-30.421
X43.125Y-34.0
X43.125Y-35.25
X43.8Y-40.4
X44.2Y-37.8
X45.8Y-30.4
X46.0Y-35.0
X47.2Y-33.0
X47.2Y-34.0
X47.25Y-50.6
X47.25Y-56.5
X47.404Y-59.05
X47.5Y-63.25
X48.2Y-60.648
X48.4Y-26.8
X49.2Y-29.8
X49.8Y-35.0
X49.8Y-38.2
X50.0Y-54.8
X50.875Y-29.75
X51.0Y-35.0
X51.0Y-38.2
X52.0Y-35.8
X52.0Y-38.0
X52.925Y-34.25
X53.875Y-43.375
X56.875Y-29.75
X57.375Y-62.729
X57.5Y-52.25
X58.175Y-29.8
X58.8Y-47.2
X59.062Y-40.337
X59.25Y-49.55
X60.5Y-52.75
X61.0Y-53.5
X61.0Y-54.5
X61.825Y-31.05
X62.375Y-36.9
X62.725Y-33.25
X62.775Y-37.9
X64.75Y-55.4
X64.975Y-33.25
X66.25Y-54.8
X66.798Y-31.977
X67.8Y-53.4
X68.375Y-40.0
X69.125Y-49.897
X69.4Y-39.0
X69.8Y-40.4
X70.15Y-48.8
X70.375Y-39.5
X70.4Y-49.8
X70.46Y-37.939
X70.8Y-44.5
X71.125Y-28.95
X71.615Y-42.658
X71.831Y-40.958
X72.125Y-31.75
X72.198Y-49.798
X73.2Y-47.8
X73.325Y-31.75
X74.25Y-44.75
X74.318Y-45.844
X74.375Y-46.75
X74.375Y-62.0
X74.875Y-31.75
X76.237Y-37.862
X78.75Y-42.0
X78.75Y-50.5
X79.2Y-46.8
X79.75Y-35.75
X80.175Y-51.45
X81.6Y-35.8
X82.0Y-50.875
X83.0Y-53.112
X84.2Y-30.2
X84.2Y-33.4
X85.8Y-32.2
X86.975Y-31.8
X88.4Y-50.6
X89.2Y-53.2
X89.4Y-45.8
X89.525Y-44.725
X89.875Y-31.85
X90.4Y-50.8
X92.475Y-32.55
X92.525Y-31.25
X92.8Y-36.0
X93.0Y-58.0
X94.2Y-58.0
X94.4Y-28.46
X96.0Y-44.0
X96.8Y-50.8
X98.6Y-39.4
X99.4Y-41.2
X104.375Y-59.25
X104.625Y-43.5
X105.75Y-48.75
T4
X106.64Y-31.14
X106.64Y-33.68
X106.64Y-36.22
X106.64Y-38.76
X106.64Y-41.3
X106.64Y-43.84
X106.675Y-51.0
X106.675Y-53.54
X106.675Y-56.08
X106.675Y-58.62
T5
X28.98Y-53.95
X28.98Y-34.824
X100.62Y-34.824
X100.62Y-53.95
T2
G00X59.925Y-25.63
M15
G01X59.925Y-24.98
M16
G05
G00X67.675Y-25.63
M15
G01X67.675Y-24.98
M16
G05
T3
G00X60.075Y-29.38
M15
G01X60.075Y-28.83
M16
G05
G00X67.525Y-29.38
M15
G01X67.525Y-28.83
M16
G05
M30
